<svg width="260" height="179" viewBox="0 0 260 179" fill="none" xmlns="http://www.w3.org/2000/svg">
<path d="M36.2041 13.9473C36.2041 14.5413 36.082 15.0988 35.8379 15.6196C35.6019 16.1405 35.2804 16.5962 34.8735 16.9868C34.4748 17.3774 34.0068 17.6867 33.4697 17.9146C32.9408 18.1343 32.3792 18.2441 31.7852 18.2441H30.5278C29.9338 18.2441 29.3682 18.1343 28.8311 17.9146C28.3021 17.6867 27.8341 17.3774 27.4272 16.9868C27.0285 16.5962 26.707 16.1405 26.4629 15.6196C26.2269 15.0988 26.1089 14.5413 26.1089 13.9473V13.2515L27.6836 12.9951V13.9473C27.6836 14.3379 27.7609 14.7041 27.9155 15.0459C28.0783 15.3796 28.2939 15.6766 28.5625 15.937C28.8311 16.1893 29.1403 16.3887 29.4902 16.5352C29.8483 16.6816 30.2227 16.7549 30.6133 16.7549H31.7119C32.1025 16.7549 32.4728 16.6816 32.8228 16.5352C33.1727 16.3887 33.4819 16.1893 33.7505 15.937C34.019 15.6766 34.2306 15.3796 34.3853 15.0459C34.548 14.7041 34.6294 14.3379 34.6294 13.9473V13.4224C34.6294 12.8201 34.5114 12.3197 34.2754 11.9209C34.0394 11.5221 33.7261 11.1844 33.3354 10.9077C32.9448 10.6229 32.5013 10.3828 32.0049 10.1875C31.5166 9.99219 31.012 9.79688 30.4912 9.60156C29.9704 9.40625 29.4618 9.19059 28.9653 8.95459C28.4771 8.71859 28.0376 8.42562 27.647 8.07568C27.2563 7.71761 26.943 7.28223 26.707 6.76953C26.471 6.25684 26.353 5.62614 26.353 4.87744V4.54785C26.353 3.95378 26.4629 3.39632 26.6826 2.87549C26.9105 2.35465 27.2197 1.89893 27.6104 1.5083C28.001 1.11768 28.4567 0.8125 28.9775 0.592773C29.5065 0.364909 30.068 0.250977 30.6621 0.250977H31.7852C32.3792 0.250977 32.9367 0.364909 33.4575 0.592773C33.9784 0.8125 34.4341 1.11768 34.8247 1.5083C35.2153 1.89893 35.5205 2.35465 35.7402 2.87549C35.9681 3.39632 36.082 3.95378 36.082 4.54785V4.99951L34.5073 5.25586V4.54785C34.5073 4.15723 34.4341 3.79508 34.2876 3.46143C34.1411 3.11963 33.9417 2.82259 33.6895 2.57031C33.4372 2.31803 33.1401 2.11865 32.7983 1.97217C32.4647 1.82568 32.1025 1.75244 31.7119 1.75244H30.7354C30.3447 1.75244 29.9785 1.82568 29.6367 1.97217C29.3031 2.11865 29.006 2.31803 28.7456 2.57031C28.4933 2.82259 28.2939 3.11963 28.1475 3.46143C28.001 3.79508 27.9277 4.15723 27.9277 4.54785V4.87744C27.9277 5.43896 28.0457 5.91097 28.2817 6.29346C28.5177 6.67594 28.8311 7.00553 29.2217 7.28223C29.6123 7.55078 30.0518 7.78678 30.54 7.99023C31.0365 8.18555 31.5451 8.389 32.0659 8.60059C32.5868 8.80404 33.0913 9.0319 33.5796 9.28418C34.076 9.52832 34.5195 9.8335 34.9102 10.1997C35.3008 10.5578 35.6141 10.9972 35.8501 11.5181C36.0861 12.0389 36.2041 12.6737 36.2041 13.4224V13.9473ZM50.6963 18L49.8662 16.7305C49.5244 17.1943 49.0972 17.5646 48.5845 17.8413C48.0718 18.1099 47.5103 18.2441 46.8999 18.2441H46.5215C46.0169 18.2441 45.5409 18.1506 45.0933 17.9634C44.6457 17.7681 44.255 17.5036 43.9214 17.1699C43.5877 16.8363 43.3232 16.4456 43.1279 15.998C42.9408 15.5505 42.8472 15.0744 42.8472 14.5698V5.5H44.3486V14.6553C44.3486 14.9564 44.4056 15.2412 44.5195 15.5098C44.6335 15.7702 44.7881 15.998 44.9834 16.1934C45.1787 16.3887 45.4066 16.5433 45.667 16.6572C45.9355 16.7712 46.2204 16.8281 46.5215 16.8281H47.5225C47.8236 16.8281 48.1043 16.7712 48.3647 16.6572C48.6333 16.5433 48.8652 16.3887 49.0605 16.1934C49.2559 15.998 49.4105 15.7702 49.5244 15.5098C49.6383 15.2412 49.6953 14.9564 49.6953 14.6553V5.5H51.1968V18H50.6963ZM66.9951 18L60.4033 9.24756L66.9951 0.495117H68.9482L62.2222 9.24756L68.9482 18H66.9951ZM58.4502 18V0.495117H60.0249V18H58.4502ZM81.7803 13.9229H76.2383L75.0908 18H73.4551L78.582 0.495117H79.4121L84.5635 18H82.9399L81.7803 13.9229ZM76.6655 12.4214H81.3652L79.0581 4.35254L79.0093 3.70557L78.9604 4.35254L76.6655 12.4214ZM89.5586 18V17.2554L97.3589 1.99658H89.8027V0.495117H99.4097V1.25195L91.6094 16.4985H99.4097V18H89.5586ZM112.742 13.9229H107.2L106.053 18H104.417L109.544 0.495117H110.374L115.525 18H113.902L112.742 13.9229ZM107.627 12.4214H112.327L110.02 4.35254L109.971 3.70557L109.922 4.35254L107.627 12.4214ZM142.728 18H141.91L138.504 4.82861L138.455 4.14502L138.382 4.82861L135 18H134.183L129.532 0.495117H131.106L134.537 13.8008L134.585 14.4478L134.634 13.8008L138.003 0.495117H138.882L142.251 13.8008L142.3 14.4478L142.361 13.8008L145.779 0.495117H147.354L142.728 18ZM161.089 14.5698C161.089 15.0744 160.992 15.5505 160.796 15.998C160.609 16.4456 160.349 16.8363 160.015 17.1699C159.681 17.5036 159.291 17.7681 158.843 17.9634C158.396 18.1506 157.92 18.2441 157.415 18.2441H156.414C155.91 18.2441 155.433 18.1506 154.986 17.9634C154.538 17.7681 154.148 17.5036 153.814 17.1699C153.48 16.8363 153.216 16.4456 153.021 15.998C152.833 15.5505 152.74 15.0744 152.74 14.5698V8.93018C152.74 8.42562 152.833 7.94954 153.021 7.50195C153.216 7.05436 153.48 6.66374 153.814 6.33008C154.148 5.99642 154.538 5.736 154.986 5.54883C155.433 5.35352 155.91 5.25586 156.414 5.25586H157.415C157.92 5.25586 158.396 5.35352 158.843 5.54883C159.291 5.736 159.681 5.99642 160.015 6.33008C160.349 6.66374 160.609 7.05436 160.796 7.50195C160.992 7.94954 161.089 8.42562 161.089 8.93018V11.8721H154.241V14.6553C154.241 14.9564 154.298 15.2412 154.412 15.5098C154.526 15.7702 154.681 15.998 154.876 16.1934C155.071 16.3887 155.299 16.5433 155.56 16.6572C155.828 16.7712 156.113 16.8281 156.414 16.8281H157.415C157.716 16.8281 157.997 16.7712 158.257 16.6572C158.526 16.5433 158.758 16.3887 158.953 16.1934C159.148 15.998 159.303 15.7702 159.417 15.5098C159.531 15.2412 159.588 14.9564 159.588 14.6553V13.8252L161.089 14.0693V14.5698ZM159.588 8.84473C159.588 8.54362 159.531 8.26286 159.417 8.00244C159.303 7.73389 159.148 7.50195 158.953 7.30664C158.758 7.11133 158.526 6.95671 158.257 6.84277C157.997 6.72884 157.716 6.67188 157.415 6.67188H156.414C156.113 6.67188 155.828 6.72884 155.56 6.84277C155.299 6.95671 155.071 7.11133 154.876 7.30664C154.681 7.50195 154.526 7.73389 154.412 8.00244C154.298 8.26286 154.241 8.54362 154.241 8.84473V10.7002H159.588V8.84473ZM176.192 14.5698C176.192 15.0744 176.094 15.5505 175.899 15.998C175.712 16.4456 175.451 16.8363 175.118 17.1699C174.784 17.5036 174.393 17.7681 173.946 17.9634C173.498 18.1506 173.022 18.2441 172.518 18.2441H171.517C171.012 18.2441 170.536 18.1506 170.088 17.9634C169.641 17.7681 169.25 17.5036 168.917 17.1699C168.583 16.8363 168.318 16.4456 168.123 15.998C167.936 15.5505 167.842 15.0744 167.842 14.5698V0.495117H169.344V6.5498C169.686 6.1429 170.097 5.82552 170.577 5.59766C171.057 5.36979 171.578 5.25586 172.139 5.25586H172.518C173.022 5.25586 173.498 5.35352 173.946 5.54883C174.393 5.736 174.784 5.99642 175.118 6.33008C175.451 6.66374 175.712 7.05436 175.899 7.50195C176.094 7.94954 176.192 8.42562 176.192 8.93018V14.5698ZM174.69 8.84473C174.69 8.54362 174.633 8.26286 174.52 8.00244C174.406 7.73389 174.251 7.50195 174.056 7.30664C173.86 7.11133 173.628 6.95671 173.36 6.84277C173.099 6.72884 172.819 6.67188 172.518 6.67188H171.517C171.215 6.67188 170.931 6.72884 170.662 6.84277C170.402 6.95671 170.174 7.11133 169.979 7.30664C169.783 7.50195 169.629 7.73389 169.515 8.00244C169.401 8.26286 169.344 8.54362 169.344 8.84473V14.6553C169.344 14.9564 169.401 15.2412 169.515 15.5098C169.629 15.7702 169.783 15.998 169.979 16.1934C170.174 16.3887 170.402 16.5433 170.662 16.6572C170.931 16.7712 171.215 16.8281 171.517 16.8281H172.518C172.819 16.8281 173.099 16.7712 173.36 16.6572C173.628 16.5433 173.86 16.3887 174.056 16.1934C174.251 15.998 174.406 15.7702 174.52 15.5098C174.633 15.2412 174.69 14.9564 174.69 14.6553V8.84473ZM199.524 13.9229H193.982L192.835 18H191.199L196.326 0.495117H197.156L202.308 18H200.684L199.524 13.9229ZM194.41 12.4214H199.109L196.802 4.35254L196.753 3.70557L196.705 4.35254L194.41 12.4214ZM216.153 14.5698C216.153 15.0744 216.055 15.5505 215.86 15.998C215.673 16.4456 215.412 16.8363 215.079 17.1699C214.745 17.5036 214.354 17.7681 213.907 17.9634C213.459 18.1506 212.983 18.2441 212.479 18.2441H212.1C211.539 18.2441 211.018 18.1302 210.538 17.9023C210.057 17.6745 209.646 17.3571 209.305 16.9502V23.0049H207.803V5.5H208.304L209.122 6.76953C209.463 6.30566 209.891 5.93945 210.403 5.6709C210.924 5.39421 211.49 5.25586 212.1 5.25586H212.479C212.983 5.25586 213.459 5.35352 213.907 5.54883C214.354 5.736 214.745 5.99642 215.079 6.33008C215.412 6.66374 215.673 7.05436 215.86 7.50195C216.055 7.94954 216.153 8.42562 216.153 8.93018V14.5698ZM214.651 8.84473C214.651 8.54362 214.594 8.26286 214.48 8.00244C214.367 7.73389 214.212 7.50195 214.017 7.30664C213.821 7.11133 213.589 6.95671 213.321 6.84277C213.06 6.72884 212.78 6.67188 212.479 6.67188H211.478C211.176 6.67188 210.892 6.72884 210.623 6.84277C210.363 6.95671 210.135 7.11133 209.939 7.30664C209.744 7.50195 209.59 7.73389 209.476 8.00244C209.362 8.26286 209.305 8.54362 209.305 8.84473V14.6553C209.305 14.9564 209.362 15.2412 209.476 15.5098C209.59 15.7702 209.744 15.998 209.939 16.1934C210.135 16.3887 210.363 16.5433 210.623 16.6572C210.892 16.7712 211.176 16.8281 211.478 16.8281H212.479C212.78 16.8281 213.06 16.7712 213.321 16.6572C213.589 16.5433 213.821 16.3887 214.017 16.1934C214.212 15.998 214.367 15.7702 214.48 15.5098C214.594 15.2412 214.651 14.9564 214.651 14.6553V8.84473ZM233.001 13.9473C233.001 14.5413 232.879 15.0988 232.635 15.6196C232.399 16.1405 232.077 16.5962 231.67 16.9868C231.272 17.3774 230.804 17.6867 230.267 17.9146C229.738 18.1343 229.176 18.2441 228.582 18.2441H227.325C226.731 18.2441 226.165 18.1343 225.628 17.9146C225.099 17.6867 224.631 17.3774 224.224 16.9868C223.825 16.5962 223.504 16.1405 223.26 15.6196C223.024 15.0988 222.906 14.5413 222.906 13.9473V13.2515L224.48 12.9951V13.9473C224.48 14.3379 224.558 14.7041 224.712 15.0459C224.875 15.3796 225.091 15.6766 225.359 15.937C225.628 16.1893 225.937 16.3887 226.287 16.5352C226.645 16.6816 227.02 16.7549 227.41 16.7549H228.509C228.899 16.7549 229.27 16.6816 229.62 16.5352C229.97 16.3887 230.279 16.1893 230.547 15.937C230.816 15.6766 231.028 15.3796 231.182 15.0459C231.345 14.7041 231.426 14.3379 231.426 13.9473V13.4224C231.426 12.8201 231.308 12.3197 231.072 11.9209C230.836 11.5221 230.523 11.1844 230.132 10.9077C229.742 10.6229 229.298 10.3828 228.802 10.1875C228.313 9.99219 227.809 9.79688 227.288 9.60156C226.767 9.40625 226.259 9.19059 225.762 8.95459C225.274 8.71859 224.834 8.42562 224.444 8.07568C224.053 7.71761 223.74 7.28223 223.504 6.76953C223.268 6.25684 223.15 5.62614 223.15 4.87744V4.54785C223.15 3.95378 223.26 3.39632 223.479 2.87549C223.707 2.35465 224.017 1.89893 224.407 1.5083C224.798 1.11768 225.254 0.8125 225.774 0.592773C226.303 0.364909 226.865 0.250977 227.459 0.250977H228.582C229.176 0.250977 229.734 0.364909 230.254 0.592773C230.775 0.8125 231.231 1.11768 231.622 1.5083C232.012 1.89893 232.317 2.35465 232.537 2.87549C232.765 3.39632 232.879 3.95378 232.879 4.54785V4.99951L231.304 5.25586V4.54785C231.304 4.15723 231.231 3.79508 231.084 3.46143C230.938 3.11963 230.739 2.82259 230.486 2.57031C230.234 2.31803 229.937 2.11865 229.595 1.97217C229.262 1.82568 228.899 1.75244 228.509 1.75244H227.532C227.142 1.75244 226.775 1.82568 226.434 1.97217C226.1 2.11865 225.803 2.31803 225.542 2.57031C225.29 2.82259 225.091 3.11963 224.944 3.46143C224.798 3.79508 224.725 4.15723 224.725 4.54785V4.87744C224.725 5.43896 224.843 5.91097 225.079 6.29346C225.315 6.67594 225.628 7.00553 226.019 7.28223C226.409 7.55078 226.849 7.78678 227.337 7.99023C227.833 8.18555 228.342 8.389 228.863 8.60059C229.384 8.80404 229.888 9.0319 230.376 9.28418C230.873 9.52832 231.316 9.8335 231.707 10.1997C232.098 10.5578 232.411 10.9972 232.647 11.5181C232.883 12.0389 233.001 12.6737 233.001 13.4224V13.9473ZM53.1987 50V42.0044H46.4971V50H44.9224V32.4951H46.4971V40.5029H53.1987V32.4951H54.7734V50H53.1987ZM70.1445 46.5698C70.1445 47.0744 70.0469 47.5505 69.8516 47.998C69.6644 48.4456 69.404 48.8363 69.0703 49.1699C68.7367 49.5036 68.346 49.7681 67.8984 49.9634C67.4508 50.1506 66.9748 50.2441 66.4702 50.2441H65.4692C64.9647 50.2441 64.4886 50.1506 64.041 49.9634C63.5934 49.7681 63.2028 49.5036 62.8691 49.1699C62.5355 48.8363 62.271 48.4456 62.0757 47.998C61.8885 47.5505 61.7949 47.0744 61.7949 46.5698V40.9302C61.7949 40.4256 61.8885 39.9495 62.0757 39.502C62.271 39.0544 62.5355 38.6637 62.8691 38.3301C63.2028 37.9964 63.5934 37.736 64.041 37.5488C64.4886 37.3535 64.9647 37.2559 65.4692 37.2559H66.4702C66.9748 37.2559 67.4508 37.3535 67.8984 37.5488C68.346 37.736 68.7367 37.9964 69.0703 38.3301C69.404 38.6637 69.6644 39.0544 69.8516 39.502C70.0469 39.9495 70.1445 40.4256 70.1445 40.9302V43.8721H63.2964V46.6553C63.2964 46.9564 63.3534 47.2412 63.4673 47.5098C63.5812 47.7702 63.7358 47.998 63.9312 48.1934C64.1265 48.3887 64.3543 48.5433 64.6147 48.6572C64.8833 48.7712 65.1681 48.8281 65.4692 48.8281H66.4702C66.7713 48.8281 67.0521 48.7712 67.3125 48.6572C67.5811 48.5433 67.813 48.3887 68.0083 48.1934C68.2036 47.998 68.3582 47.7702 68.4722 47.5098C68.5861 47.2412 68.6431 46.9564 68.6431 46.6553V45.8252L70.1445 46.0693V46.5698ZM68.6431 40.8447C68.6431 40.5436 68.5861 40.2629 68.4722 40.0024C68.3582 39.7339 68.2036 39.502 68.0083 39.3066C67.813 39.1113 67.5811 38.9567 67.3125 38.8428C67.0521 38.7288 66.7713 38.6719 66.4702 38.6719H65.4692C65.1681 38.6719 64.8833 38.7288 64.6147 38.8428C64.3543 38.9567 64.1265 39.1113 63.9312 39.3066C63.7358 39.502 63.5812 39.7339 63.4673 40.0024C63.3534 40.2629 63.2964 40.5436 63.2964 40.8447V42.7002H68.6431V40.8447ZM85.4912 46.8262C85.4912 47.3307 85.3895 47.7946 85.186 48.2178C84.9826 48.6328 84.7059 48.9909 84.356 49.292C84.006 49.5931 83.5991 49.8291 83.1353 50C82.6795 50.1628 82.1994 50.2441 81.6948 50.2441H80.6938C80.1893 50.2441 79.7051 50.1506 79.2412 49.9634C78.7855 49.7681 78.3826 49.5036 78.0327 49.1699C77.6909 48.8363 77.4142 48.4456 77.2026 47.998C76.9992 47.5505 76.8975 47.0744 76.8975 46.5698V46.0693L78.3989 45.8252V46.6553C78.3989 46.9564 78.46 47.2412 78.582 47.5098C78.7122 47.7702 78.8831 47.998 79.0947 48.1934C79.3063 48.3887 79.5505 48.5433 79.8271 48.6572C80.1038 48.7712 80.3927 48.8281 80.6938 48.8281H81.6948C81.9959 48.8281 82.2848 48.7834 82.5615 48.6938C82.8382 48.6043 83.0824 48.4782 83.2939 48.3154C83.5137 48.1445 83.6846 47.9411 83.8066 47.7051C83.9368 47.4691 84.002 47.2005 84.002 46.8994C84.002 46.4518 83.9043 46.0856 83.709 45.8008C83.5137 45.516 83.2533 45.2799 82.9277 45.0928C82.6104 44.8975 82.2441 44.7388 81.8291 44.6167C81.4222 44.4865 81.0031 44.3604 80.5718 44.2383C80.1405 44.1081 79.7173 43.9616 79.3022 43.7988C78.8953 43.6361 78.5291 43.4245 78.2036 43.1641C77.8862 42.8955 77.6299 42.5618 77.4346 42.1631C77.2393 41.7643 77.1416 41.2679 77.1416 40.6738C77.1416 40.1693 77.2393 39.7095 77.4346 39.2944C77.6299 38.8713 77.8944 38.5091 78.228 38.208C78.5617 37.9069 78.9482 37.675 79.3877 37.5122C79.8353 37.3413 80.3114 37.2559 80.8159 37.2559H81.6948C82.1994 37.2559 82.6755 37.3535 83.123 37.5488C83.5706 37.736 83.9613 37.9964 84.2949 38.3301C84.6286 38.6637 84.889 39.0544 85.0762 39.502C85.2715 39.9495 85.3691 40.4256 85.3691 40.9302V40.979L83.8677 41.2231V40.8447C83.8677 40.5436 83.8107 40.2629 83.6968 40.0024C83.5828 39.7339 83.4282 39.502 83.2329 39.3066C83.0376 39.1113 82.8057 38.9567 82.5371 38.8428C82.2767 38.7288 81.9959 38.6719 81.6948 38.6719H80.8159C80.5148 38.6719 80.23 38.7166 79.9614 38.8062C79.701 38.8957 79.4731 39.0259 79.2778 39.1968C79.0825 39.3595 78.9279 39.5589 78.814 39.7949C78.7 40.0309 78.6431 40.2995 78.6431 40.6006C78.6431 41.0319 78.7407 41.3859 78.936 41.6626C79.1313 41.9312 79.3877 42.159 79.7051 42.3462C80.0306 42.5334 80.3968 42.6921 80.8037 42.8223C81.2188 42.9443 81.6379 43.0745 82.061 43.2129C82.4924 43.3431 82.9115 43.4937 83.3184 43.6646C83.7334 43.8354 84.0996 44.0552 84.417 44.3237C84.7425 44.5923 85.0029 44.93 85.1982 45.3369C85.3936 45.7357 85.4912 46.2321 85.4912 46.8262ZM96.6753 50C96.2196 50 95.7882 49.9146 95.3813 49.7437C94.9826 49.5728 94.6326 49.3368 94.3315 49.0356C94.0386 48.7345 93.8026 48.3846 93.6235 47.9858C93.4526 47.5871 93.3672 47.1598 93.3672 46.7041V38.9282H91.1211V37.5H93.3672V34.4971L94.8687 34.2529V37.5H98.0425V38.9282H94.8687V46.7773C94.8687 47.0296 94.9134 47.2656 95.0029 47.4854C95.1006 47.6969 95.2308 47.8841 95.3936 48.0469C95.5563 48.2096 95.7476 48.3398 95.9673 48.4375C96.187 48.527 96.423 48.5718 96.6753 48.5718H98.0425V50H96.6753ZM112.913 46.5698C112.913 47.0744 112.815 47.5505 112.62 47.998C112.433 48.4456 112.173 48.8363 111.839 49.1699C111.505 49.5036 111.115 49.7681 110.667 49.9634C110.219 50.1506 109.743 50.2441 109.239 50.2441H108.238C107.733 50.2441 107.257 50.1506 106.81 49.9634C106.362 49.7681 105.971 49.5036 105.638 49.1699C105.304 48.8363 105.04 48.4456 104.844 47.998C104.657 47.5505 104.563 47.0744 104.563 46.5698V40.9302C104.563 40.4256 104.657 39.9495 104.844 39.502C105.04 39.0544 105.304 38.6637 105.638 38.3301C105.971 37.9964 106.362 37.736 106.81 37.5488C107.257 37.3535 107.733 37.2559 108.238 37.2559H109.239C109.743 37.2559 110.219 37.3535 110.667 37.5488C111.115 37.736 111.505 37.9964 111.839 38.3301C112.173 38.6637 112.433 39.0544 112.62 39.502C112.815 39.9495 112.913 40.4256 112.913 40.9302V43.8721H106.065V46.6553C106.065 46.9564 106.122 47.2412 106.236 47.5098C106.35 47.7702 106.504 47.998 106.7 48.1934C106.895 48.3887 107.123 48.5433 107.383 48.6572C107.652 48.7712 107.937 48.8281 108.238 48.8281H109.239C109.54 48.8281 109.821 48.7712 110.081 48.6572C110.35 48.5433 110.582 48.3887 110.777 48.1934C110.972 47.998 111.127 47.7702 111.241 47.5098C111.355 47.2412 111.412 46.9564 111.412 46.6553V45.8252L112.913 46.0693V46.5698ZM111.412 40.8447C111.412 40.5436 111.355 40.2629 111.241 40.0024C111.127 39.7339 110.972 39.502 110.777 39.3066C110.582 39.1113 110.35 38.9567 110.081 38.8428C109.821 38.7288 109.54 38.6719 109.239 38.6719H108.238C107.937 38.6719 107.652 38.7288 107.383 38.8428C107.123 38.9567 106.895 39.1113 106.7 39.3066C106.504 39.502 106.35 39.7339 106.236 40.0024C106.122 40.2629 106.065 40.5436 106.065 40.8447V42.7002H111.412V40.8447ZM126.514 50V40.8447C126.514 40.5436 126.457 40.2629 126.343 40.0024C126.229 39.7339 126.075 39.502 125.879 39.3066C125.684 39.1113 125.452 38.9567 125.184 38.8428C124.923 38.7288 124.642 38.6719 124.341 38.6719H123.34C123.039 38.6719 122.754 38.7288 122.486 38.8428C122.225 38.9567 121.998 39.1113 121.802 39.3066C121.607 39.502 121.452 39.7339 121.338 40.0024C121.224 40.2629 121.167 40.5436 121.167 40.8447V50H119.666V32.4951H121.167V38.5498C121.509 38.1429 121.92 37.8255 122.4 37.5977C122.881 37.3698 123.401 37.2559 123.963 37.2559H124.341C124.846 37.2559 125.322 37.3535 125.77 37.5488C126.217 37.736 126.608 37.9964 126.941 38.3301C127.275 38.6637 127.535 39.0544 127.723 39.502C127.918 39.9495 128.016 40.4256 128.016 40.9302V50H126.514ZM142.618 50L141.788 48.7549C141.446 49.2025 141.019 49.5646 140.506 49.8413C139.993 50.1099 139.432 50.2441 138.821 50.2441H138.443C137.938 50.2441 137.462 50.1506 137.015 49.9634C136.567 49.7681 136.176 49.5036 135.843 49.1699C135.509 48.8363 135.245 48.4456 135.049 47.998C134.862 47.5505 134.769 47.0744 134.769 46.5698V46.4478C134.769 45.9432 134.862 45.4671 135.049 45.0195C135.245 44.5719 135.509 44.1813 135.843 43.8477C136.176 43.514 136.567 43.2536 137.015 43.0664C137.462 42.8711 137.938 42.7734 138.443 42.7734H141.617V40.8447C141.617 40.5436 141.56 40.2629 141.446 40.0024C141.332 39.7339 141.177 39.502 140.982 39.3066C140.787 39.1113 140.555 38.9567 140.286 38.8428C140.026 38.7288 139.745 38.6719 139.444 38.6719H138.565C138.264 38.6719 137.979 38.7288 137.71 38.8428C137.45 38.9567 137.222 39.1113 137.027 39.3066C136.832 39.502 136.677 39.7339 136.563 40.0024C136.449 40.2629 136.392 40.5436 136.392 40.8447V41.2964L134.891 41.0522V40.9302C134.891 40.4256 134.984 39.9495 135.171 39.502C135.367 39.0544 135.631 38.6637 135.965 38.3301C136.299 37.9964 136.689 37.736 137.137 37.5488C137.584 37.3535 138.06 37.2559 138.565 37.2559H139.444C139.948 37.2559 140.424 37.3535 140.872 37.5488C141.32 37.736 141.71 37.9964 142.044 38.3301C142.378 38.6637 142.638 39.0544 142.825 39.502C143.021 39.9495 143.118 40.4256 143.118 40.9302V50H142.618ZM141.617 43.9453H138.443C138.142 43.9453 137.857 44.0023 137.588 44.1162C137.328 44.2301 137.1 44.3888 136.905 44.5923C136.709 44.7876 136.555 45.0195 136.441 45.2881C136.327 45.5485 136.27 45.8293 136.27 46.1304V46.6553C136.27 46.9564 136.327 47.2412 136.441 47.5098C136.555 47.7702 136.709 47.998 136.905 48.1934C137.1 48.3887 137.328 48.5433 137.588 48.6572C137.857 48.7712 138.142 48.8281 138.443 48.8281H139.444C139.745 48.8281 140.026 48.7712 140.286 48.6572C140.555 48.5433 140.787 48.3887 140.982 48.1934C141.177 47.998 141.332 47.7702 141.446 47.5098C141.56 47.2412 141.617 46.9564 141.617 46.6553V43.9453ZM153.79 50H153.045L148.614 37.5H150.115L153.375 46.9727L153.423 47.6196L153.472 46.9727L156.719 37.5H158.221L153.79 50ZM172.078 46.5698C172.078 47.0744 171.98 47.5505 171.785 47.998C171.598 48.4456 171.338 48.8363 171.004 49.1699C170.67 49.5036 170.28 49.7681 169.832 49.9634C169.384 50.1506 168.908 50.2441 168.404 50.2441H167.403C166.898 50.2441 166.422 50.1506 165.975 49.9634C165.527 49.7681 165.136 49.5036 164.803 49.1699C164.469 48.8363 164.205 48.4456 164.009 47.998C163.822 47.5505 163.729 47.0744 163.729 46.5698V40.9302C163.729 40.4256 163.822 39.9495 164.009 39.502C164.205 39.0544 164.469 38.6637 164.803 38.3301C165.136 37.9964 165.527 37.736 165.975 37.5488C166.422 37.3535 166.898 37.2559 167.403 37.2559H168.404C168.908 37.2559 169.384 37.3535 169.832 37.5488C170.28 37.736 170.67 37.9964 171.004 38.3301C171.338 38.6637 171.598 39.0544 171.785 39.502C171.98 39.9495 172.078 40.4256 172.078 40.9302V43.8721H165.23V46.6553C165.23 46.9564 165.287 47.2412 165.401 47.5098C165.515 47.7702 165.669 47.998 165.865 48.1934C166.06 48.3887 166.288 48.5433 166.548 48.6572C166.817 48.7712 167.102 48.8281 167.403 48.8281H168.404C168.705 48.8281 168.986 48.7712 169.246 48.6572C169.515 48.5433 169.747 48.3887 169.942 48.1934C170.137 47.998 170.292 47.7702 170.406 47.5098C170.52 47.2412 170.577 46.9564 170.577 46.6553V45.8252L172.078 46.0693V46.5698ZM170.577 40.8447C170.577 40.5436 170.52 40.2629 170.406 40.0024C170.292 39.7339 170.137 39.502 169.942 39.3066C169.747 39.1113 169.515 38.9567 169.246 38.8428C168.986 38.7288 168.705 38.6719 168.404 38.6719H167.403C167.102 38.6719 166.817 38.7288 166.548 38.8428C166.288 38.9567 166.06 39.1113 165.865 39.3066C165.669 39.502 165.515 39.7339 165.401 40.0024C165.287 40.2629 165.23 40.5436 165.23 40.8447V42.7002H170.577V40.8447ZM197.938 45.9473C197.938 46.5413 197.824 47.0988 197.596 47.6196C197.376 48.1405 197.071 48.5962 196.68 48.9868C196.29 49.3774 195.834 49.6867 195.313 49.9146C194.792 50.1343 194.235 50.2441 193.641 50.2441H192.896C192.302 50.2441 191.74 50.1343 191.211 49.9146C190.691 49.6867 190.235 49.3774 189.844 48.9868C189.454 48.5962 189.144 48.1405 188.917 47.6196C188.697 47.0988 188.587 46.5413 188.587 45.9473V44.4946C188.587 43.7541 188.758 43.0786 189.1 42.4683C189.45 41.8498 189.905 41.3452 190.467 40.9546C189.905 40.564 189.45 40.0594 189.1 39.4409C188.758 38.8224 188.587 38.1429 188.587 37.4023V36.5479C188.587 35.9538 188.697 35.3963 188.917 34.8755C189.144 34.3547 189.454 33.8989 189.844 33.5083C190.235 33.1177 190.691 32.8125 191.211 32.5928C191.74 32.3649 192.302 32.251 192.896 32.251H193.641C194.235 32.251 194.792 32.3649 195.313 32.5928C195.834 32.8125 196.29 33.1177 196.68 33.5083C197.071 33.8989 197.376 34.3547 197.596 34.8755C197.824 35.3963 197.938 35.9538 197.938 36.5479V37.4023C197.938 38.1429 197.767 38.8224 197.425 39.4409C197.083 40.0594 196.631 40.564 196.07 40.9546C196.631 41.3452 197.083 41.8498 197.425 42.4683C197.767 43.0786 197.938 43.7541 197.938 44.4946V45.9473ZM196.363 36.5479C196.363 36.1572 196.29 35.7951 196.143 35.4614C195.997 35.1196 195.797 34.8226 195.545 34.5703C195.293 34.318 194.996 34.1187 194.654 33.9722C194.32 33.8257 193.958 33.7524 193.567 33.7524H192.969C192.579 33.7524 192.212 33.8257 191.871 33.9722C191.537 34.1187 191.24 34.318 190.979 34.5703C190.727 34.8226 190.528 35.1196 190.381 35.4614C190.235 35.7951 190.162 36.1572 190.162 36.5479V37.4023C190.162 37.793 190.235 38.1592 190.381 38.501C190.528 38.8346 190.727 39.1276 190.979 39.3799C191.24 39.6322 191.537 39.8315 191.871 39.978C192.212 40.1245 192.579 40.1978 192.969 40.1978H193.567C193.958 40.1978 194.32 40.1245 194.654 39.978C194.996 39.8315 195.293 39.6322 195.545 39.3799C195.797 39.1276 195.997 38.8346 196.143 38.501C196.29 38.1592 196.363 37.793 196.363 37.4023V36.5479ZM196.363 44.4946C196.363 44.104 196.29 43.7419 196.143 43.4082C195.997 43.0664 195.797 42.7694 195.545 42.5171C195.293 42.2648 194.996 42.0654 194.654 41.9189C194.32 41.7725 193.958 41.6992 193.567 41.6992H192.969C192.579 41.6992 192.212 41.7725 191.871 41.9189C191.537 42.0654 191.24 42.2648 190.979 42.5171C190.727 42.7694 190.528 43.0664 190.381 43.4082C190.235 43.7419 190.162 44.104 190.162 44.4946V45.9473C190.162 46.3379 190.235 46.7041 190.381 47.0459C190.528 47.3796 190.727 47.6766 190.979 47.937C191.24 48.1893 191.537 48.3887 191.871 48.5352C192.212 48.6816 192.579 48.7549 192.969 48.7549H193.567C193.958 48.7549 194.32 48.6816 194.654 48.5352C194.996 48.3887 195.293 48.1893 195.545 47.937C195.797 47.6766 195.997 47.3796 196.143 47.0459C196.29 46.7041 196.363 46.3379 196.363 45.9473V44.4946ZM214.31 45.9473C214.31 46.5413 214.196 47.0988 213.968 47.6196C213.748 48.1405 213.443 48.5962 213.052 48.9868C212.662 49.3774 212.206 49.6867 211.685 49.9146C211.164 50.1343 210.607 50.2441 210.013 50.2441H209.268C208.674 50.2441 208.112 50.1343 207.583 49.9146C207.063 49.6867 206.607 49.3774 206.216 48.9868C205.826 48.5962 205.516 48.1405 205.289 47.6196C205.069 47.0988 204.959 46.5413 204.959 45.9473V44.4946C204.959 43.7541 205.13 43.0786 205.472 42.4683C205.822 41.8498 206.277 41.3452 206.839 40.9546C206.277 40.564 205.822 40.0594 205.472 39.4409C205.13 38.8224 204.959 38.1429 204.959 37.4023V36.5479C204.959 35.9538 205.069 35.3963 205.289 34.8755C205.516 34.3547 205.826 33.8989 206.216 33.5083C206.607 33.1177 207.063 32.8125 207.583 32.5928C208.112 32.3649 208.674 32.251 209.268 32.251H210.013C210.607 32.251 211.164 32.3649 211.685 32.5928C212.206 32.8125 212.662 33.1177 213.052 33.5083C213.443 33.8989 213.748 34.3547 213.968 34.8755C214.196 35.3963 214.31 35.9538 214.31 36.5479V37.4023C214.31 38.1429 214.139 38.8224 213.797 39.4409C213.455 40.0594 213.003 40.564 212.442 40.9546C213.003 41.3452 213.455 41.8498 213.797 42.4683C214.139 43.0786 214.31 43.7541 214.31 44.4946V45.9473ZM212.735 36.5479C212.735 36.1572 212.662 35.7951 212.515 35.4614C212.369 35.1196 212.169 34.8226 211.917 34.5703C211.665 34.318 211.368 34.1187 211.026 33.9722C210.692 33.8257 210.33 33.7524 209.939 33.7524H209.341C208.951 33.7524 208.584 33.8257 208.243 33.9722C207.909 34.1187 207.612 34.318 207.352 34.5703C207.099 34.8226 206.9 35.1196 206.753 35.4614C206.607 35.7951 206.534 36.1572 206.534 36.5479V37.4023C206.534 37.793 206.607 38.1592 206.753 38.501C206.9 38.8346 207.099 39.1276 207.352 39.3799C207.612 39.6322 207.909 39.8315 208.243 39.978C208.584 40.1245 208.951 40.1978 209.341 40.1978H209.939C210.33 40.1978 210.692 40.1245 211.026 39.978C211.368 39.8315 211.665 39.6322 211.917 39.3799C212.169 39.1276 212.369 38.8346 212.515 38.501C212.662 38.1592 212.735 37.793 212.735 37.4023V36.5479ZM212.735 44.4946C212.735 44.104 212.662 43.7419 212.515 43.4082C212.369 43.0664 212.169 42.7694 211.917 42.5171C211.665 42.2648 211.368 42.0654 211.026 41.9189C210.692 41.7725 210.33 41.6992 209.939 41.6992H209.341C208.951 41.6992 208.584 41.7725 208.243 41.9189C207.909 42.0654 207.612 42.2648 207.352 42.5171C207.099 42.7694 206.9 43.0664 206.753 43.4082C206.607 43.7419 206.534 44.104 206.534 44.4946V45.9473C206.534 46.3379 206.607 46.7041 206.753 47.0459C206.9 47.3796 207.099 47.6766 207.352 47.937C207.612 48.1893 207.909 48.3887 208.243 48.5352C208.584 48.6816 208.951 48.7549 209.341 48.7549H209.939C210.33 48.7549 210.692 48.6816 211.026 48.5352C211.368 48.3887 211.665 48.1893 211.917 47.937C212.169 47.6766 212.369 47.3796 212.515 47.0459C212.662 46.7041 212.735 46.3379 212.735 45.9473V44.4946ZM9.4585 77.9473C9.4585 78.5413 9.34456 79.0988 9.1167 79.6196C8.89697 80.1405 8.5918 80.5962 8.20117 80.9868C7.81055 81.3774 7.35482 81.6867 6.83398 81.9146C6.31315 82.1343 5.7557 82.2441 5.16162 82.2441H4.41699C3.82292 82.2441 3.26139 82.1343 2.73242 81.9146C2.21159 81.6867 1.75586 81.3774 1.36523 80.9868C0.974609 80.5962 0.665365 80.1405 0.4375 79.6196C0.217773 79.0988 0.10791 78.5413 0.10791 77.9473V77.6787H1.68262V77.9473C1.68262 78.3379 1.75586 78.7041 1.90234 79.0459C2.04883 79.3796 2.24821 79.6766 2.50049 79.937C2.7609 80.1893 3.05794 80.3887 3.3916 80.5352C3.7334 80.6816 4.09961 80.7549 4.49023 80.7549H5.08838C5.479 80.7549 5.84115 80.6816 6.1748 80.5352C6.5166 80.3887 6.81364 80.1893 7.06592 79.937C7.3182 79.6766 7.51758 79.3796 7.66406 79.0459C7.81055 78.7041 7.88379 78.3379 7.88379 77.9473V74.5537C7.88379 74.1631 7.81055 73.8009 7.66406 73.4673C7.51758 73.1255 7.3182 72.8285 7.06592 72.5762C6.81364 72.3158 6.5166 72.1123 6.1748 71.9658C5.84115 71.8193 5.479 71.7461 5.08838 71.7461H4.49023C4.09961 71.7461 3.7334 71.8193 3.3916 71.9658C3.05794 72.1123 2.7609 72.3158 2.50049 72.5762C2.24821 72.8285 2.04883 73.1255 1.90234 73.4673C1.75586 73.8009 1.68262 74.1631 1.68262 74.5537H0.10791L1.10889 64.4951H8.5918V65.9966H2.58594L2.01221 71.3799C2.38656 71.0218 2.82194 70.7451 3.31836 70.5498C3.81478 70.3464 4.34782 70.2446 4.91748 70.2446H5.16162C5.7557 70.2446 6.31315 70.3586 6.83398 70.5864C7.35482 70.8062 7.81055 71.1113 8.20117 71.502C8.5918 71.8926 8.89697 72.3524 9.1167 72.8813C9.34456 73.4022 9.4585 73.9596 9.4585 74.5537V77.9473ZM20.728 65.7524C20.3374 65.7524 19.9712 65.8257 19.6294 65.9722C19.2957 66.1187 19.0028 66.318 18.7505 66.5703C18.4982 66.8226 18.2988 67.1196 18.1523 67.4614C18.0059 67.7951 17.9326 68.1572 17.9326 68.5479V69.2559L16.3579 68.9995V68.5479C16.3579 67.9538 16.4678 67.3963 16.6875 66.8755C16.9154 66.3547 17.2246 65.8989 17.6152 65.5083C18.0059 65.1177 18.4616 64.8125 18.9824 64.5928C19.5033 64.3649 20.0607 64.251 20.6548 64.251H21.3994C21.9935 64.251 22.5509 64.3568 23.0718 64.5684C23.6007 64.7799 24.0605 65.0851 24.4512 65.4839C24.8418 65.8826 25.147 66.3628 25.3667 66.9243C25.5946 67.4777 25.7085 68.1043 25.7085 68.8042C25.7085 69.4959 25.6027 70.1917 25.3911 70.8916C25.1877 71.5915 24.915 72.2791 24.5732 72.9546C24.2396 73.63 23.853 74.2852 23.4136 74.9199C22.9823 75.5547 22.5387 76.1528 22.083 76.7144C21.0169 78.0246 19.8084 79.286 18.4575 80.4985H25.8306V82H15.9795V80.7549C17.5013 79.5016 18.8604 78.2036 20.0566 76.8608C20.5693 76.283 21.0698 75.6686 21.5581 75.0176C22.0464 74.3665 22.4818 73.6992 22.8643 73.0156C23.2467 72.3239 23.5519 71.624 23.7798 70.916C24.0158 70.1999 24.1338 69.4959 24.1338 68.8042C24.1338 68.2915 24.0565 67.8439 23.9019 67.4614C23.7472 67.0789 23.5397 66.7616 23.2793 66.5093C23.0189 66.257 22.7178 66.0698 22.376 65.9478C22.0423 65.8175 21.6924 65.7524 21.3262 65.7524H20.728ZM42.1782 77.9473C42.1782 78.5413 42.0643 79.0988 41.8364 79.6196C41.6167 80.1405 41.3115 80.5962 40.9209 80.9868C40.5303 81.3774 40.0745 81.6867 39.5537 81.9146C39.0329 82.1343 38.4754 82.2441 37.8813 82.2441H37.1367C36.5426 82.2441 35.9811 82.1343 35.4521 81.9146C34.9313 81.6867 34.4756 81.3774 34.085 80.9868C33.6943 80.5962 33.3851 80.1405 33.1572 79.6196C32.9375 79.0988 32.8276 78.5413 32.8276 77.9473V68.5479C32.8276 67.9538 32.9375 67.3963 33.1572 66.8755C33.3851 66.3547 33.6943 65.8989 34.085 65.5083C34.4756 65.1177 34.9313 64.8125 35.4521 64.5928C35.9811 64.3649 36.5426 64.251 37.1367 64.251H37.8813C38.4754 64.251 39.0329 64.3649 39.5537 64.5928C40.0745 64.8125 40.5303 65.1177 40.9209 65.5083C41.3115 65.8989 41.6167 66.3547 41.8364 66.8755C42.0643 67.3963 42.1782 67.9538 42.1782 68.5479V77.9473ZM40.6035 68.5479C40.6035 68.1572 40.5303 67.7951 40.3838 67.4614C40.2373 67.1196 40.0379 66.8226 39.7856 66.5703C39.5334 66.318 39.2363 66.1187 38.8945 65.9722C38.5609 65.8257 38.1987 65.7524 37.8081 65.7524H37.21C36.8193 65.7524 36.4531 65.8257 36.1113 65.9722C35.7777 66.1187 35.4806 66.318 35.2202 66.5703C34.9679 66.8226 34.7686 67.1196 34.6221 67.4614C34.4756 67.7951 34.4023 68.1572 34.4023 68.5479V77.9473C34.4023 78.3379 34.4756 78.7041 34.6221 79.0459C34.7686 79.3796 34.9679 79.6766 35.2202 79.937C35.4806 80.1893 35.7777 80.3887 36.1113 80.5352C36.4531 80.6816 36.8193 80.7549 37.21 80.7549H37.8081C38.1987 80.7549 38.5609 80.6816 38.8945 80.5352C39.2363 80.3887 39.5334 80.1893 39.7856 79.937C40.0379 79.6766 40.2373 79.3796 40.3838 79.0459C40.5303 78.7041 40.6035 78.3379 40.6035 77.9473V68.5479ZM58.7944 77.9473C58.7944 78.5413 58.6805 79.0988 58.4526 79.6196C58.2329 80.1405 57.9277 80.5962 57.5371 80.9868C57.1465 81.3774 56.6908 81.6867 56.1699 81.9146C55.6491 82.1343 55.0916 82.2441 54.4976 82.2441H53.7529C53.1589 82.2441 52.5973 82.1343 52.0684 81.9146C51.5475 81.6867 51.0918 81.3774 50.7012 80.9868C50.3105 80.5962 50.0013 80.1405 49.7734 79.6196C49.5537 79.0988 49.4438 78.5413 49.4438 77.9473V68.5479C49.4438 67.9538 49.5537 67.3963 49.7734 66.8755C50.0013 66.3547 50.3105 65.8989 50.7012 65.5083C51.0918 65.1177 51.5475 64.8125 52.0684 64.5928C52.5973 64.3649 53.1589 64.251 53.7529 64.251H54.4976C55.0916 64.251 55.6491 64.3649 56.1699 64.5928C56.6908 64.8125 57.1465 65.1177 57.5371 65.5083C57.9277 65.8989 58.2329 66.3547 58.4526 66.8755C58.6805 67.3963 58.7944 67.9538 58.7944 68.5479V77.9473ZM57.2197 68.5479C57.2197 68.1572 57.1465 67.7951 57 67.4614C56.8535 67.1196 56.6541 66.8226 56.4019 66.5703C56.1496 66.318 55.8525 66.1187 55.5107 65.9722C55.1771 65.8257 54.8149 65.7524 54.4243 65.7524H53.8262C53.4355 65.7524 53.0693 65.8257 52.7275 65.9722C52.3939 66.1187 52.0968 66.318 51.8364 66.5703C51.5841 66.8226 51.3848 67.1196 51.2383 67.4614C51.0918 67.7951 51.0186 68.1572 51.0186 68.5479V77.9473C51.0186 78.3379 51.0918 78.7041 51.2383 79.0459C51.3848 79.3796 51.5841 79.6766 51.8364 79.937C52.0968 80.1893 52.3939 80.3887 52.7275 80.5352C53.0693 80.6816 53.4355 80.7549 53.8262 80.7549H54.4243C54.8149 80.7549 55.1771 80.6816 55.5107 80.5352C55.8525 80.3887 56.1496 80.1893 56.4019 79.937C56.6541 79.6766 56.8535 79.3796 57 79.0459C57.1465 78.7041 57.2197 78.3379 57.2197 77.9473V68.5479ZM85.4229 77.9473C85.4229 78.5413 85.3089 79.0988 85.0811 79.6196C84.8613 80.1405 84.5562 80.5962 84.1655 80.9868C83.7749 81.3774 83.3192 81.6867 82.7983 81.9146C82.2775 82.1343 81.7201 82.2441 81.126 82.2441H79.8809C79.2868 82.2441 78.7253 82.1343 78.1963 81.9146C77.6755 81.6867 77.2197 81.3774 76.8291 80.9868C76.4385 80.5962 76.1292 80.1405 75.9014 79.6196C75.6816 79.0988 75.5718 78.5413 75.5718 77.9473V68.5479C75.5718 67.9538 75.6816 67.3963 75.9014 66.8755C76.1292 66.3547 76.4385 65.8989 76.8291 65.5083C77.2197 65.1177 77.6755 64.8125 78.1963 64.5928C78.7253 64.3649 79.2868 64.251 79.8809 64.251H81.126C81.7201 64.251 82.2775 64.3649 82.7983 64.5928C83.3192 64.8125 83.7749 65.1177 84.1655 65.5083C84.5562 65.8989 84.8613 66.3547 85.0811 66.8755C85.3089 67.3963 85.4229 67.9538 85.4229 68.5479V77.9473ZM83.8481 68.5479C83.8481 68.1572 83.7749 67.7951 83.6284 67.4614C83.4819 67.1196 83.2826 66.8226 83.0303 66.5703C82.778 66.318 82.481 66.1187 82.1392 65.9722C81.8055 65.8257 81.4434 65.7524 81.0527 65.7524H79.9541C79.5635 65.7524 79.1973 65.8257 78.8555 65.9722C78.5218 66.1187 78.2248 66.318 77.9644 66.5703C77.7121 66.8226 77.5127 67.1196 77.3662 67.4614C77.2197 67.7951 77.1465 68.1572 77.1465 68.5479V77.9473C77.1465 78.3379 77.2197 78.7041 77.3662 79.0459C77.5127 79.3796 77.7121 79.6766 77.9644 79.937C78.2248 80.1893 78.5218 80.3887 78.8555 80.5352C79.1973 80.6816 79.5635 80.7549 79.9541 80.7549H81.0527C81.4434 80.7549 81.8055 80.6816 82.1392 80.5352C82.481 80.3887 82.778 80.1893 83.0303 79.937C83.2826 79.6766 83.4819 79.3796 83.6284 79.0459C83.7749 78.7041 83.8481 78.3379 83.8481 77.9473V68.5479ZM100.281 82L99.4512 80.7305C99.1094 81.1943 98.6821 81.5646 98.1694 81.8413C97.6567 82.1099 97.0952 82.2441 96.4849 82.2441H96.1064C95.6019 82.2441 95.1258 82.1506 94.6782 81.9634C94.2306 81.7681 93.84 81.5036 93.5063 81.1699C93.1727 80.8363 92.9082 80.4456 92.7129 79.998C92.5257 79.5505 92.4321 79.0744 92.4321 78.5698V72.9302C92.4321 72.4256 92.5257 71.9495 92.7129 71.502C92.9082 71.0544 93.1727 70.6637 93.5063 70.3301C93.84 69.9964 94.2306 69.736 94.6782 69.5488C95.1258 69.3535 95.6019 69.2559 96.1064 69.2559H96.4849C97.0464 69.2559 97.5672 69.3698 98.0474 69.5977C98.5275 69.8255 98.9385 70.1429 99.2803 70.5498V64.4951H100.782V82H100.281ZM99.2803 72.8447C99.2803 72.5436 99.2233 72.2629 99.1094 72.0024C98.9954 71.7339 98.8408 71.502 98.6455 71.3066C98.4502 71.1113 98.2183 70.9567 97.9497 70.8428C97.6893 70.7288 97.4085 70.6719 97.1074 70.6719H96.1064C95.8053 70.6719 95.5205 70.7288 95.252 70.8428C94.9915 70.9567 94.7637 71.1113 94.5684 71.3066C94.373 71.502 94.2184 71.7339 94.1045 72.0024C93.9906 72.2629 93.9336 72.5436 93.9336 72.8447V78.6553C93.9336 78.9564 93.9906 79.2412 94.1045 79.5098C94.2184 79.7702 94.373 79.998 94.5684 80.1934C94.7637 80.3887 94.9915 80.5433 95.252 80.6572C95.5205 80.7712 95.8053 80.8281 96.1064 80.8281H97.1074C97.4085 80.8281 97.6893 80.7712 97.9497 80.6572C98.2183 80.5433 98.4502 80.3887 98.6455 80.1934C98.8408 79.998 98.9954 79.7702 99.1094 79.5098C99.2233 79.2412 99.2803 78.9564 99.2803 78.6553V72.8447ZM115.884 78.5698C115.884 79.0744 115.787 79.5505 115.591 79.998C115.404 80.4456 115.144 80.8363 114.81 81.1699C114.476 81.5036 114.086 81.7681 113.638 81.9634C113.191 82.1506 112.715 82.2441 112.21 82.2441H111.209C110.704 82.2441 110.228 82.1506 109.781 81.9634C109.333 81.7681 108.943 81.5036 108.609 81.1699C108.275 80.8363 108.011 80.4456 107.815 79.998C107.628 79.5505 107.535 79.0744 107.535 78.5698V72.9302C107.535 72.4256 107.628 71.9495 107.815 71.502C108.011 71.0544 108.275 70.6637 108.609 70.3301C108.943 69.9964 109.333 69.736 109.781 69.5488C110.228 69.3535 110.704 69.2559 111.209 69.2559H112.21C112.715 69.2559 113.191 69.3535 113.638 69.5488C114.086 69.736 114.476 69.9964 114.81 70.3301C115.144 70.6637 115.404 71.0544 115.591 71.502C115.787 71.9495 115.884 72.4256 115.884 72.9302V75.8721H109.036V78.6553C109.036 78.9564 109.093 79.2412 109.207 79.5098C109.321 79.7702 109.476 79.998 109.671 80.1934C109.866 80.3887 110.094 80.5433 110.354 80.6572C110.623 80.7712 110.908 80.8281 111.209 80.8281H112.21C112.511 80.8281 112.792 80.7712 113.052 80.6572C113.321 80.5433 113.553 80.3887 113.748 80.1934C113.943 79.998 114.098 79.7702 114.212 79.5098C114.326 79.2412 114.383 78.9564 114.383 78.6553V77.8252L115.884 78.0693V78.5698ZM114.383 72.8447C114.383 72.5436 114.326 72.2629 114.212 72.0024C114.098 71.7339 113.943 71.502 113.748 71.3066C113.553 71.1113 113.321 70.9567 113.052 70.8428C112.792 70.7288 112.511 70.6719 112.21 70.6719H111.209C110.908 70.6719 110.623 70.7288 110.354 70.8428C110.094 70.9567 109.866 71.1113 109.671 71.3066C109.476 71.502 109.321 71.7339 109.207 72.0024C109.093 72.2629 109.036 72.5436 109.036 72.8447V74.7002H114.383V72.8447ZM129.485 82V72.8447C129.485 72.5436 129.428 72.2629 129.314 72.0024C129.201 71.7339 129.046 71.502 128.851 71.3066C128.655 71.1113 128.423 70.9567 128.155 70.8428C127.894 70.7288 127.614 70.6719 127.312 70.6719H126.312C126.01 70.6719 125.726 70.7288 125.457 70.8428C125.197 70.9567 124.969 71.1113 124.773 71.3066C124.578 71.502 124.424 71.7339 124.31 72.0024C124.196 72.2629 124.139 72.5436 124.139 72.8447V82H122.637V69.5H123.138L123.956 70.7695C124.297 70.3057 124.725 69.9395 125.237 69.6709C125.758 69.3942 126.324 69.2559 126.934 69.2559H127.312C127.817 69.2559 128.293 69.3535 128.741 69.5488C129.188 69.736 129.579 69.9964 129.913 70.3301C130.246 70.6637 130.507 71.0544 130.694 71.502C130.889 71.9495 130.987 72.4256 130.987 72.9302V82H129.485ZM146.333 78.8262C146.333 79.3307 146.232 79.7946 146.028 80.2178C145.825 80.6328 145.548 80.9909 145.198 81.292C144.848 81.5931 144.441 81.8291 143.978 82C143.522 82.1628 143.042 82.2441 142.537 82.2441H141.536C141.032 82.2441 140.547 82.1506 140.083 81.9634C139.628 81.7681 139.225 81.5036 138.875 81.1699C138.533 80.8363 138.257 80.4456 138.045 79.998C137.841 79.5505 137.74 79.0744 137.74 78.5698V78.0693L139.241 77.8252V78.6553C139.241 78.9564 139.302 79.2412 139.424 79.5098C139.555 79.7702 139.725 79.998 139.937 80.1934C140.149 80.3887 140.393 80.5433 140.669 80.6572C140.946 80.7712 141.235 80.8281 141.536 80.8281H142.537C142.838 80.8281 143.127 80.7834 143.404 80.6938C143.681 80.6043 143.925 80.4782 144.136 80.3154C144.356 80.1445 144.527 79.9411 144.649 79.7051C144.779 79.4691 144.844 79.2005 144.844 78.8994C144.844 78.4518 144.747 78.0856 144.551 77.8008C144.356 77.516 144.096 77.2799 143.77 77.0928C143.453 76.8975 143.086 76.7388 142.671 76.6167C142.264 76.4865 141.845 76.3604 141.414 76.2383C140.983 76.1081 140.56 75.9616 140.145 75.7988C139.738 75.6361 139.371 75.4245 139.046 75.1641C138.729 74.8955 138.472 74.5618 138.277 74.1631C138.082 73.7643 137.984 73.2679 137.984 72.6738C137.984 72.1693 138.082 71.7095 138.277 71.2944C138.472 70.8713 138.737 70.5091 139.07 70.208C139.404 69.9069 139.791 69.675 140.23 69.5122C140.678 69.3413 141.154 69.2559 141.658 69.2559H142.537C143.042 69.2559 143.518 69.3535 143.965 69.5488C144.413 69.736 144.804 69.9964 145.137 70.3301C145.471 70.6637 145.731 71.0544 145.918 71.502C146.114 71.9495 146.211 72.4256 146.211 72.9302V72.979L144.71 73.2231V72.8447C144.71 72.5436 144.653 72.2629 144.539 72.0024C144.425 71.7339 144.271 71.502 144.075 71.3066C143.88 71.1113 143.648 70.9567 143.379 70.8428C143.119 70.7288 142.838 70.6719 142.537 70.6719H141.658C141.357 70.6719 141.072 70.7166 140.804 70.8062C140.543 70.8957 140.315 71.0259 140.12 71.1968C139.925 71.3595 139.77 71.5589 139.656 71.7949C139.542 72.0309 139.485 72.2995 139.485 72.6006C139.485 73.0319 139.583 73.3859 139.778 73.6626C139.974 73.9312 140.23 74.159 140.547 74.3462C140.873 74.5334 141.239 74.6921 141.646 74.8223C142.061 74.9443 142.48 75.0745 142.903 75.2129C143.335 75.3431 143.754 75.4937 144.161 75.6646C144.576 75.8354 144.942 76.0552 145.259 76.3237C145.585 76.5923 145.845 76.93 146.041 77.3369C146.236 77.7357 146.333 78.2321 146.333 78.8262ZM161.314 78.5698C161.314 79.0744 161.216 79.5505 161.021 79.998C160.834 80.4456 160.573 80.8363 160.24 81.1699C159.906 81.5036 159.515 81.7681 159.068 81.9634C158.62 82.1506 158.144 82.2441 157.64 82.2441H156.639C156.134 82.2441 155.658 82.1506 155.21 81.9634C154.763 81.7681 154.372 81.5036 154.039 81.1699C153.705 80.8363 153.44 80.4456 153.245 79.998C153.058 79.5505 152.964 79.0744 152.964 78.5698V72.9302C152.964 72.4256 153.058 71.9495 153.245 71.502C153.44 71.0544 153.705 70.6637 154.039 70.3301C154.372 69.9964 154.763 69.736 155.21 69.5488C155.658 69.3535 156.134 69.2559 156.639 69.2559H157.64C158.144 69.2559 158.62 69.3535 159.068 69.5488C159.515 69.736 159.906 69.9964 160.24 70.3301C160.573 70.6637 160.834 71.0544 161.021 71.502C161.216 71.9495 161.314 72.4256 161.314 72.9302V75.8721H154.466V78.6553C154.466 78.9564 154.523 79.2412 154.637 79.5098C154.751 79.7702 154.905 79.998 155.101 80.1934C155.296 80.3887 155.524 80.5433 155.784 80.6572C156.053 80.7712 156.338 80.8281 156.639 80.8281H157.64C157.941 80.8281 158.222 80.7712 158.482 80.6572C158.75 80.5433 158.982 80.3887 159.178 80.1934C159.373 79.998 159.528 79.7702 159.642 79.5098C159.756 79.2412 159.812 78.9564 159.812 78.6553V77.8252L161.314 78.0693V78.5698ZM159.812 72.8447C159.812 72.5436 159.756 72.2629 159.642 72.0024C159.528 71.7339 159.373 71.502 159.178 71.3066C158.982 71.1113 158.75 70.9567 158.482 70.8428C158.222 70.7288 157.941 70.6719 157.64 70.6719H156.639C156.338 70.6719 156.053 70.7288 155.784 70.8428C155.524 70.9567 155.296 71.1113 155.101 71.3066C154.905 71.502 154.751 71.7339 154.637 72.0024C154.523 72.2629 154.466 72.5436 154.466 72.8447V74.7002H159.812V72.8447ZM181.827 78.1548L181.875 78.8018L181.924 78.1548L185.806 64.4951H187.43L182.278 82H181.448L176.321 64.4951H177.957L181.827 78.1548ZM203.316 85.5034H202.681V80.1201H204.561L203.316 85.5034ZM223.145 65.9966V72.5029H229.847V74.0044H223.145V82H221.57V64.4951H231.421V65.9966H223.145ZM239.2 87.0049H237.747L239.969 80.9258L235.916 69.5H237.417L240.677 78.9727L240.726 79.6196L240.774 78.9727L244.021 69.5H245.523L239.2 87.0049ZM257.635 82V72.8447C257.635 72.5436 257.578 72.2629 257.464 72.0024C257.35 71.7339 257.195 71.502 257 71.3066C256.805 71.1113 256.573 70.9567 256.304 70.8428C256.044 70.7288 255.763 70.6719 255.462 70.6719H254.461C254.16 70.6719 253.875 70.7288 253.606 70.8428C253.346 70.9567 253.118 71.1113 252.923 71.3066C252.728 71.502 252.573 71.7339 252.459 72.0024C252.345 72.2629 252.288 72.5436 252.288 72.8447V82H250.787V69.5H251.287L252.105 70.7695C252.447 70.3057 252.874 69.9395 253.387 69.6709C253.908 69.3942 254.473 69.2559 255.083 69.2559H255.462C255.966 69.2559 256.443 69.3535 256.89 69.5488C257.338 69.736 257.728 69.9964 258.062 70.3301C258.396 70.6637 258.656 71.0544 258.843 71.502C259.039 71.9495 259.136 72.4256 259.136 72.9302V82H257.635ZM30.4766 97.9966V114H28.9019V97.9966H24.7271V96.4951H34.6514V97.9966H30.4766ZM40.916 114V96.4951H42.4175V114H40.916ZM53.98 97.9233C53.7277 97.9233 53.4917 97.9722 53.272 98.0698C53.0604 98.1593 52.8732 98.2855 52.7104 98.4482C52.5477 98.611 52.4175 98.8022 52.3198 99.022C52.2303 99.2417 52.1855 99.4777 52.1855 99.73V101.5H55.103V102.928H52.1855V114H50.6841V102.928H48.4258V101.5H50.6841V99.8032C50.6841 99.3475 50.7695 98.9202 50.9404 98.5215C51.1113 98.1146 51.3473 97.7606 51.6484 97.4595C51.9495 97.1584 52.2995 96.9224 52.6982 96.7515C53.097 96.5806 53.5243 96.4951 53.98 96.4951H55.3594V97.9233H53.98ZM60.855 103.38V101.5H62.7349V103.38H60.855ZM60.855 114V112.12H62.7349V114H60.855ZM88.8384 109.947C88.8384 110.541 88.7244 111.099 88.4966 111.62C88.2769 112.14 87.9717 112.596 87.5811 112.987C87.1904 113.377 86.7347 113.687 86.2139 113.915C85.693 114.134 85.1356 114.244 84.5415 114.244H83.7969C83.2028 114.244 82.6413 114.134 82.1123 113.915C81.5915 113.687 81.1357 113.377 80.7451 112.987C80.3545 112.596 80.0452 112.14 79.8174 111.62C79.5977 111.099 79.4878 110.541 79.4878 109.947V109.496L81.0625 109.251V109.947C81.0625 110.338 81.1357 110.704 81.2822 111.046C81.4287 111.38 81.6281 111.677 81.8804 111.937C82.1408 112.189 82.4378 112.389 82.7715 112.535C83.1133 112.682 83.4795 112.755 83.8701 112.755H84.4683C84.8589 112.755 85.221 112.682 85.5547 112.535C85.8965 112.389 86.1935 112.189 86.4458 111.937C86.6981 111.677 86.8975 111.38 87.0439 111.046C87.1904 110.704 87.2637 110.338 87.2637 109.947V108.495C87.2637 108.104 87.1904 107.742 87.0439 107.408C86.8975 107.066 86.6981 106.769 86.4458 106.517C86.1935 106.265 85.8965 106.065 85.5547 105.919C85.221 105.772 84.8589 105.699 84.4683 105.699H83.2964V104.198H84.4683C84.8589 104.198 85.221 104.125 85.5547 103.978C85.8965 103.832 86.1935 103.632 86.4458 103.38C86.6981 103.128 86.8975 102.835 87.0439 102.501C87.1904 102.159 87.2637 101.793 87.2637 101.402V100.548C87.2637 100.157 87.1904 99.7951 87.0439 99.4614C86.8975 99.1196 86.6981 98.8226 86.4458 98.5703C86.1935 98.318 85.8965 98.1187 85.5547 97.9722C85.221 97.8257 84.8589 97.7524 84.4683 97.7524H83.8701C83.4795 97.7524 83.1133 97.8257 82.7715 97.9722C82.4378 98.1187 82.1408 98.318 81.8804 98.5703C81.6281 98.8226 81.4287 99.1196 81.2822 99.4614C81.1357 99.7951 81.0625 100.157 81.0625 100.548V101.256L79.4878 101V100.548C79.4878 99.9538 79.5977 99.3963 79.8174 98.8755C80.0452 98.3547 80.3545 97.8989 80.7451 97.5083C81.1357 97.1177 81.5915 96.8125 82.1123 96.5928C82.6413 96.3649 83.2028 96.251 83.7969 96.251H84.5415C85.1356 96.251 85.693 96.3649 86.2139 96.5928C86.7347 96.8125 87.1904 97.1177 87.5811 97.5083C87.9717 97.8989 88.2769 98.3547 88.4966 98.8755C88.7244 99.3963 88.8384 99.9538 88.8384 100.548V101.146C88.8384 101.561 88.7814 101.96 88.6675 102.342C88.5617 102.717 88.4071 103.067 88.2036 103.392C88.0083 103.718 87.7723 104.015 87.4956 104.283C87.2189 104.544 86.9097 104.767 86.5679 104.955C86.9097 105.134 87.2189 105.357 87.4956 105.626C87.7723 105.886 88.0083 106.179 88.2036 106.505C88.4071 106.83 88.5617 107.184 88.6675 107.567C88.7814 107.941 88.8384 108.336 88.8384 108.751V109.947ZM105.21 109.947C105.21 110.541 105.097 111.099 104.869 111.62C104.649 112.14 104.344 112.596 103.953 112.987C103.562 113.377 103.107 113.687 102.586 113.915C102.065 114.134 101.508 114.244 100.914 114.244H100.169C99.5749 114.244 99.0133 114.134 98.4844 113.915C97.9635 113.687 97.5078 113.377 97.1172 112.987C96.7266 112.596 96.4173 112.14 96.1895 111.62C95.9697 111.099 95.8599 110.541 95.8599 109.947V100.548C95.8599 99.9538 95.9697 99.3963 96.1895 98.8755C96.4173 98.3547 96.7266 97.8989 97.1172 97.5083C97.5078 97.1177 97.9635 96.8125 98.4844 96.5928C99.0133 96.3649 99.5749 96.251 100.169 96.251H100.914C101.508 96.251 102.065 96.3649 102.586 96.5928C103.107 96.8125 103.562 97.1177 103.953 97.5083C104.344 97.8989 104.649 98.3547 104.869 98.8755C105.097 99.3963 105.21 99.9538 105.21 100.548V109.947ZM103.636 100.548C103.636 100.157 103.562 99.7951 103.416 99.4614C103.27 99.1196 103.07 98.8226 102.818 98.5703C102.566 98.318 102.269 98.1187 101.927 97.9722C101.593 97.8257 101.231 97.7524 100.84 97.7524H100.242C99.8516 97.7524 99.4854 97.8257 99.1436 97.9722C98.8099 98.1187 98.5129 98.318 98.2524 98.5703C98.0002 98.8226 97.8008 99.1196 97.6543 99.4614C97.5078 99.7951 97.4346 100.157 97.4346 100.548V109.947C97.4346 110.338 97.5078 110.704 97.6543 111.046C97.8008 111.38 98.0002 111.677 98.2524 111.937C98.5129 112.189 98.8099 112.389 99.1436 112.535C99.4854 112.682 99.8516 112.755 100.242 112.755H100.84C101.231 112.755 101.593 112.682 101.927 112.535C102.269 112.389 102.566 112.189 102.818 111.937C103.07 111.677 103.27 111.38 103.416 111.046C103.562 110.704 103.636 110.338 103.636 109.947V100.548ZM131.338 109.947C131.338 110.541 131.224 111.099 130.997 111.62C130.777 112.14 130.472 112.596 130.081 112.987C129.69 113.377 129.235 113.687 128.714 113.915C128.193 114.134 127.636 114.244 127.042 114.244H126.297C125.703 114.244 125.141 114.134 124.612 113.915C124.091 113.687 123.636 113.377 123.245 112.987C122.854 112.596 122.545 112.14 122.317 111.62C122.098 111.099 121.988 110.541 121.988 109.947V109.496L123.562 109.251V109.947C123.562 110.338 123.636 110.704 123.782 111.046C123.929 111.38 124.128 111.677 124.38 111.937C124.641 112.189 124.938 112.389 125.271 112.535C125.613 112.682 125.979 112.755 126.37 112.755H126.968C127.359 112.755 127.721 112.682 128.055 112.535C128.396 112.389 128.694 112.189 128.946 111.937C129.198 111.677 129.397 111.38 129.544 111.046C129.69 110.704 129.764 110.338 129.764 109.947V108.495C129.764 108.104 129.69 107.742 129.544 107.408C129.397 107.066 129.198 106.769 128.946 106.517C128.694 106.265 128.396 106.065 128.055 105.919C127.721 105.772 127.359 105.699 126.968 105.699H125.796V104.198H126.968C127.359 104.198 127.721 104.125 128.055 103.978C128.396 103.832 128.694 103.632 128.946 103.38C129.198 103.128 129.397 102.835 129.544 102.501C129.69 102.159 129.764 101.793 129.764 101.402V100.548C129.764 100.157 129.69 99.7951 129.544 99.4614C129.397 99.1196 129.198 98.8226 128.946 98.5703C128.694 98.318 128.396 98.1187 128.055 97.9722C127.721 97.8257 127.359 97.7524 126.968 97.7524H126.37C125.979 97.7524 125.613 97.8257 125.271 97.9722C124.938 98.1187 124.641 98.318 124.38 98.5703C124.128 98.8226 123.929 99.1196 123.782 99.4614C123.636 99.7951 123.562 100.157 123.562 100.548V101.256L121.988 101V100.548C121.988 99.9538 122.098 99.3963 122.317 98.8755C122.545 98.3547 122.854 97.8989 123.245 97.5083C123.636 97.1177 124.091 96.8125 124.612 96.5928C125.141 96.3649 125.703 96.251 126.297 96.251H127.042C127.636 96.251 128.193 96.3649 128.714 96.5928C129.235 96.8125 129.69 97.1177 130.081 97.5083C130.472 97.8989 130.777 98.3547 130.997 98.8755C131.224 99.3963 131.338 99.9538 131.338 100.548V101.146C131.338 101.561 131.281 101.96 131.167 102.342C131.062 102.717 130.907 103.067 130.704 103.392C130.508 103.718 130.272 104.015 129.996 104.283C129.719 104.544 129.41 104.767 129.068 104.955C129.41 105.134 129.719 105.357 129.996 105.626C130.272 105.886 130.508 106.179 130.704 106.505C130.907 106.83 131.062 107.184 131.167 107.567C131.281 107.941 131.338 108.336 131.338 108.751V109.947ZM138.86 114V112.499H143.035V97.9966L138.86 99.7544V98.2529L143.035 96.4951H144.61V112.499H148.785V114H138.86ZM174.156 109.947C174.156 110.541 174.042 111.099 173.814 111.62C173.594 112.14 173.289 112.596 172.898 112.987C172.508 113.377 172.052 113.687 171.531 113.915C171.01 114.134 170.453 114.244 169.859 114.244H169.114C168.52 114.244 167.959 114.134 167.43 113.915C166.909 113.687 166.453 113.377 166.062 112.987C165.672 112.596 165.363 112.14 165.135 111.62C164.915 111.099 164.805 110.541 164.805 109.947V109.496L166.38 109.251V109.947C166.38 110.338 166.453 110.704 166.6 111.046C166.746 111.38 166.945 111.677 167.198 111.937C167.458 112.189 167.755 112.389 168.089 112.535C168.431 112.682 168.797 112.755 169.188 112.755H169.786C170.176 112.755 170.538 112.682 170.872 112.535C171.214 112.389 171.511 112.189 171.763 111.937C172.015 111.677 172.215 111.38 172.361 111.046C172.508 110.704 172.581 110.338 172.581 109.947V108.495C172.581 108.104 172.508 107.742 172.361 107.408C172.215 107.066 172.015 106.769 171.763 106.517C171.511 106.265 171.214 106.065 170.872 105.919C170.538 105.772 170.176 105.699 169.786 105.699H168.614V104.198H169.786C170.176 104.198 170.538 104.125 170.872 103.978C171.214 103.832 171.511 103.632 171.763 103.38C172.015 103.128 172.215 102.835 172.361 102.501C172.508 102.159 172.581 101.793 172.581 101.402V100.548C172.581 100.157 172.508 99.7951 172.361 99.4614C172.215 99.1196 172.015 98.8226 171.763 98.5703C171.511 98.318 171.214 98.1187 170.872 97.9722C170.538 97.8257 170.176 97.7524 169.786 97.7524H169.188C168.797 97.7524 168.431 97.8257 168.089 97.9722C167.755 98.1187 167.458 98.318 167.198 98.5703C166.945 98.8226 166.746 99.1196 166.6 99.4614C166.453 99.7951 166.38 100.157 166.38 100.548V101.256L164.805 101V100.548C164.805 99.9538 164.915 99.3963 165.135 98.8755C165.363 98.3547 165.672 97.8989 166.062 97.5083C166.453 97.1177 166.909 96.8125 167.43 96.5928C167.959 96.3649 168.52 96.251 169.114 96.251H169.859C170.453 96.251 171.01 96.3649 171.531 96.5928C172.052 96.8125 172.508 97.1177 172.898 97.5083C173.289 97.8989 173.594 98.3547 173.814 98.8755C174.042 99.3963 174.156 99.9538 174.156 100.548V101.146C174.156 101.561 174.099 101.96 173.985 102.342C173.879 102.717 173.724 103.067 173.521 103.392C173.326 103.718 173.09 104.015 172.813 104.283C172.536 104.544 172.227 104.767 171.885 104.955C172.227 105.134 172.536 105.357 172.813 105.626C173.09 105.886 173.326 106.179 173.521 106.505C173.724 106.83 173.879 107.184 173.985 107.567C174.099 107.941 174.156 108.336 174.156 108.751V109.947ZM185.425 97.7524C185.035 97.7524 184.668 97.8257 184.327 97.9722C183.993 98.1187 183.7 98.318 183.448 98.5703C183.195 98.8226 182.996 99.1196 182.85 99.4614C182.703 99.7951 182.63 100.157 182.63 100.548V101.256L181.055 101V100.548C181.055 99.9538 181.165 99.3963 181.385 98.8755C181.613 98.3547 181.922 97.8989 182.312 97.5083C182.703 97.1177 183.159 96.8125 183.68 96.5928C184.201 96.3649 184.758 96.251 185.352 96.251H186.097C186.691 96.251 187.248 96.3568 187.769 96.5684C188.298 96.7799 188.758 97.0851 189.148 97.4839C189.539 97.8826 189.844 98.3628 190.064 98.9243C190.292 99.4777 190.406 100.104 190.406 100.804C190.406 101.496 190.3 102.192 190.088 102.892C189.885 103.591 189.612 104.279 189.271 104.955C188.937 105.63 188.55 106.285 188.111 106.92C187.68 107.555 187.236 108.153 186.78 108.714C185.714 110.025 184.506 111.286 183.155 112.499H190.528V114H180.677V112.755C182.199 111.502 183.558 110.204 184.754 108.861C185.267 108.283 185.767 107.669 186.255 107.018C186.744 106.367 187.179 105.699 187.562 105.016C187.944 104.324 188.249 103.624 188.477 102.916C188.713 102.2 188.831 101.496 188.831 100.804C188.831 100.292 188.754 99.8439 188.599 99.4614C188.444 99.0789 188.237 98.7616 187.977 98.5093C187.716 98.257 187.415 98.0698 187.073 97.9478C186.74 97.8175 186.39 97.7524 186.023 97.7524H185.425ZM216.644 109.947C216.644 110.541 216.53 111.099 216.302 111.62C216.082 112.14 215.777 112.596 215.386 112.987C214.996 113.377 214.54 113.687 214.019 113.915C213.498 114.134 212.941 114.244 212.347 114.244H211.59C210.996 114.244 210.438 114.134 209.917 113.915C209.397 113.687 208.941 113.377 208.55 112.987C208.16 112.596 207.85 112.14 207.623 111.62C207.403 111.099 207.293 110.541 207.293 109.947V109.496L208.868 109.251V109.947C208.868 110.338 208.941 110.704 209.087 111.046C209.234 111.38 209.433 111.677 209.686 111.937C209.938 112.189 210.231 112.389 210.564 112.535C210.906 112.682 211.272 112.755 211.663 112.755H212.261C212.652 112.755 213.014 112.682 213.348 112.535C213.689 112.389 213.986 112.189 214.239 111.937C214.499 111.677 214.703 111.38 214.849 111.046C214.996 110.704 215.069 110.338 215.069 109.947V105.602C214.662 106.041 214.182 106.395 213.628 106.664C213.075 106.924 212.481 107.054 211.846 107.054H211.59C210.996 107.054 210.438 106.944 209.917 106.725C209.397 106.497 208.941 106.188 208.55 105.797C208.16 105.406 207.85 104.951 207.623 104.43C207.403 103.901 207.293 103.339 207.293 102.745V100.548C207.293 99.9538 207.403 99.3963 207.623 98.8755C207.85 98.3547 208.16 97.8989 208.55 97.5083C208.941 97.1177 209.397 96.8125 209.917 96.5928C210.438 96.3649 210.996 96.251 211.59 96.251H212.347C212.941 96.251 213.498 96.3649 214.019 96.5928C214.54 96.8125 214.996 97.1177 215.386 97.5083C215.777 97.8989 216.082 98.3547 216.302 98.8755C216.53 99.3963 216.644 99.9538 216.644 100.548V109.947ZM215.069 100.548C215.069 100.157 214.996 99.7951 214.849 99.4614C214.703 99.1196 214.499 98.8226 214.239 98.5703C213.986 98.318 213.689 98.1187 213.348 97.9722C213.014 97.8257 212.652 97.7524 212.261 97.7524H211.663C211.272 97.7524 210.906 97.8257 210.564 97.9722C210.231 98.1187 209.938 98.318 209.686 98.5703C209.433 98.8226 209.234 99.1196 209.087 99.4614C208.941 99.7951 208.868 100.157 208.868 100.548V102.745C208.868 103.136 208.941 103.502 209.087 103.844C209.234 104.177 209.433 104.474 209.686 104.735C209.938 104.987 210.231 105.187 210.564 105.333C210.906 105.479 211.272 105.553 211.663 105.553H212.261C212.652 105.553 213.014 105.479 213.348 105.333C213.689 105.187 213.986 104.987 214.239 104.735C214.499 104.474 214.703 104.177 214.849 103.844C214.996 103.502 215.069 103.136 215.069 102.745V100.548ZM233.003 109.947C233.003 110.541 232.889 111.099 232.662 111.62C232.442 112.14 232.137 112.596 231.746 112.987C231.355 113.377 230.9 113.687 230.379 113.915C229.858 114.134 229.301 114.244 228.707 114.244H227.962C227.368 114.244 226.806 114.134 226.277 113.915C225.757 113.687 225.301 113.377 224.91 112.987C224.52 112.596 224.21 112.14 223.982 111.62C223.763 111.099 223.653 110.541 223.653 109.947V100.548C223.653 99.9538 223.763 99.3963 223.982 98.8755C224.21 98.3547 224.52 97.8989 224.91 97.5083C225.301 97.1177 225.757 96.8125 226.277 96.5928C226.806 96.3649 227.368 96.251 227.962 96.251H228.707C229.301 96.251 229.858 96.3649 230.379 96.5928C230.9 96.8125 231.355 97.1177 231.746 97.5083C232.137 97.8989 232.442 98.3547 232.662 98.8755C232.889 99.3963 233.003 99.9538 233.003 100.548V109.947ZM231.429 100.548C231.429 100.157 231.355 99.7951 231.209 99.4614C231.062 99.1196 230.863 98.8226 230.611 98.5703C230.359 98.318 230.062 98.1187 229.72 97.9722C229.386 97.8257 229.024 97.7524 228.633 97.7524H228.035C227.645 97.7524 227.278 97.8257 226.937 97.9722C226.603 98.1187 226.306 98.318 226.045 98.5703C225.793 98.8226 225.594 99.1196 225.447 99.4614C225.301 99.7951 225.228 100.157 225.228 100.548V109.947C225.228 110.338 225.301 110.704 225.447 111.046C225.594 111.38 225.793 111.677 226.045 111.937C226.306 112.189 226.603 112.389 226.937 112.535C227.278 112.682 227.645 112.755 228.035 112.755H228.633C229.024 112.755 229.386 112.682 229.72 112.535C230.062 112.389 230.359 112.189 230.611 111.937C230.863 111.677 231.062 111.38 231.209 111.046C231.355 110.704 231.429 110.338 231.429 109.947V100.548ZM29.1606 130.497V128.495H30.9062V130.497H29.1606ZM29.2827 146V133.5H30.7842V146H29.2827ZM44.8979 146V136.845C44.8979 136.544 44.841 136.263 44.7271 136.002C44.6131 135.734 44.4585 135.502 44.2632 135.307C44.0679 135.111 43.8359 134.957 43.5674 134.843C43.307 134.729 43.0262 134.672 42.7251 134.672H41.7241C41.423 134.672 41.1382 134.729 40.8696 134.843C40.6092 134.957 40.3813 135.111 40.186 135.307C39.9907 135.502 39.8361 135.734 39.7222 136.002C39.6082 136.263 39.5513 136.544 39.5513 136.845V146H38.0498V133.5H38.5503L39.3682 134.77C39.71 134.306 40.1372 133.939 40.6499 133.671C41.1707 133.394 41.7363 133.256 42.3467 133.256H42.7251C43.2297 133.256 43.7057 133.354 44.1533 133.549C44.6009 133.736 44.9915 133.996 45.3252 134.33C45.6589 134.664 45.9193 135.054 46.1064 135.502C46.3018 135.95 46.3994 136.426 46.3994 136.93V146H44.8979ZM57.4492 129.923C57.1969 129.923 56.9609 129.972 56.7412 130.07C56.5296 130.159 56.3424 130.285 56.1797 130.448C56.0169 130.611 55.8867 130.802 55.7891 131.022C55.6995 131.242 55.6548 131.478 55.6548 131.73V133.5H58.5723V134.928H55.6548V146H54.1533V134.928H51.895V133.5H54.1533V131.803C54.1533 131.347 54.2388 130.92 54.4097 130.521C54.5806 130.115 54.8166 129.761 55.1177 129.459C55.4188 129.158 55.7687 128.922 56.1675 128.751C56.5662 128.581 56.9935 128.495 57.4492 128.495H58.8286V129.923H57.4492ZM72.4297 142.57C72.4297 143.074 72.332 143.55 72.1367 143.998C71.9495 144.446 71.6891 144.836 71.3555 145.17C71.0218 145.504 70.6312 145.768 70.1836 145.963C69.736 146.151 69.2599 146.244 68.7554 146.244H67.7544C67.2498 146.244 66.7738 146.151 66.3262 145.963C65.8786 145.768 65.488 145.504 65.1543 145.17C64.8206 144.836 64.5562 144.446 64.3608 143.998C64.1737 143.55 64.0801 143.074 64.0801 142.57V136.93C64.0801 136.426 64.1737 135.95 64.3608 135.502C64.5562 135.054 64.8206 134.664 65.1543 134.33C65.488 133.996 65.8786 133.736 66.3262 133.549C66.7738 133.354 67.2498 133.256 67.7544 133.256H68.7554C69.2599 133.256 69.736 133.354 70.1836 133.549C70.6312 133.736 71.0218 133.996 71.3555 134.33C71.6891 134.664 71.9495 135.054 72.1367 135.502C72.332 135.95 72.4297 136.426 72.4297 136.93V142.57ZM70.9282 136.845C70.9282 136.544 70.8713 136.263 70.7573 136.002C70.6434 135.734 70.4888 135.502 70.2935 135.307C70.0981 135.111 69.8662 134.957 69.5977 134.843C69.3372 134.729 69.0565 134.672 68.7554 134.672H67.7544C67.4533 134.672 67.1685 134.729 66.8999 134.843C66.6395 134.957 66.4116 135.111 66.2163 135.307C66.021 135.502 65.8664 135.734 65.7524 136.002C65.6385 136.263 65.5815 136.544 65.5815 136.845V142.655C65.5815 142.956 65.6385 143.241 65.7524 143.51C65.8664 143.77 66.021 143.998 66.2163 144.193C66.4116 144.389 66.6395 144.543 66.8999 144.657C67.1685 144.771 67.4533 144.828 67.7544 144.828H68.7554C69.0565 144.828 69.3372 144.771 69.5977 144.657C69.8662 144.543 70.0981 144.389 70.2935 144.193C70.4888 143.998 70.6434 143.77 70.7573 143.51C70.8713 143.241 70.9282 142.956 70.9282 142.655V136.845ZM93.6113 142.899C93.4974 143.713 93.5991 144.315 93.9165 144.706C94.242 145.089 94.7466 145.28 95.4302 145.28C95.9266 145.28 96.4108 145.101 96.8828 144.743C97.3548 144.385 97.7739 143.888 98.1401 143.253C98.5063 142.611 98.7993 141.85 99.019 140.971C99.2469 140.084 99.3608 139.119 99.3608 138.078C99.3608 136.881 99.1818 135.771 98.8237 134.745C98.4738 133.72 97.9611 132.837 97.2856 132.096C96.6183 131.347 95.7923 130.762 94.8076 130.338C93.8311 129.915 92.7121 129.704 91.4507 129.704C90.4497 129.704 89.4976 129.846 88.5942 130.131C87.6909 130.416 86.8486 130.814 86.0674 131.327C85.2943 131.84 84.5944 132.454 83.9678 133.17C83.3411 133.878 82.804 134.664 82.3564 135.526C81.917 136.389 81.5752 137.309 81.3311 138.285C81.0951 139.262 80.9771 140.275 80.9771 141.325C80.9771 142.521 81.1398 143.636 81.4653 144.669C81.7909 145.703 82.2751 146.598 82.918 147.355C83.5609 148.12 84.3543 148.718 85.2983 149.149C86.2505 149.581 87.3532 149.796 88.6064 149.796C89.0622 149.796 89.5057 149.764 89.937 149.699C90.3765 149.642 90.7915 149.564 91.1821 149.467C91.5728 149.369 91.9308 149.255 92.2563 149.125C92.59 148.995 92.8748 148.861 93.1108 148.722L93.6113 149.87C93.2207 150.106 92.8057 150.309 92.3662 150.48C91.9268 150.659 91.4792 150.806 91.0234 150.919C90.5758 151.033 90.1283 151.115 89.6807 151.164C89.2412 151.221 88.818 151.249 88.4111 151.249C86.9707 151.249 85.693 151.001 84.5781 150.504C83.4632 150.008 82.5233 149.324 81.7583 148.454C81.0015 147.583 80.4237 146.557 80.0249 145.377C79.6261 144.189 79.4268 142.903 79.4268 141.52C79.4268 140.332 79.5692 139.18 79.854 138.065C80.1388 136.942 80.5417 135.889 81.0625 134.904C81.5915 133.919 82.2262 133.02 82.9668 132.206C83.7074 131.392 84.5293 130.692 85.4326 130.106C86.3359 129.521 87.3125 129.065 88.3623 128.739C89.4121 128.414 90.5107 128.251 91.6582 128.251C93.0986 128.251 94.3885 128.495 95.5278 128.983C96.6753 129.472 97.6478 130.147 98.4453 131.01C99.2428 131.864 99.8532 132.877 100.276 134.049C100.7 135.221 100.911 136.495 100.911 137.87C100.911 138.529 100.858 139.205 100.752 139.896C100.647 140.58 100.488 141.247 100.276 141.898C100.065 142.549 99.8003 143.16 99.4829 143.729C99.1655 144.299 98.7912 144.8 98.3599 145.231C97.9367 145.662 97.4565 146 96.9194 146.244C96.3823 146.496 95.7882 146.623 95.1372 146.623C94.6896 146.623 94.299 146.574 93.9653 146.476C93.6317 146.378 93.3387 146.244 93.0864 146.073C92.8423 145.91 92.6307 145.715 92.4517 145.487C92.2808 145.251 92.1343 144.999 92.0122 144.73C91.5972 145.194 91.113 145.565 90.5596 145.841C90.0062 146.11 89.4202 146.244 88.8018 146.244H88.4355C87.9717 146.244 87.5444 146.163 87.1538 146C86.7713 145.837 86.4377 145.618 86.1528 145.341C85.8761 145.056 85.6564 144.722 85.4937 144.34C85.339 143.957 85.2617 143.542 85.2617 143.095C85.2617 143.005 85.2617 142.92 85.2617 142.838C85.2617 142.749 85.2699 142.659 85.2861 142.57L86.0552 136.93C86.1284 136.426 86.2912 135.95 86.5435 135.502C86.8039 135.054 87.1253 134.664 87.5078 134.33C87.8903 133.996 88.3175 133.736 88.7896 133.549C89.2697 133.354 89.758 133.256 90.2544 133.256H90.6328C91.2432 133.256 91.7884 133.394 92.2686 133.671C92.7487 133.939 93.119 134.306 93.3794 134.77L94.4048 133.5H94.9053L93.6113 142.899ZM86.751 142.655C86.751 142.704 86.7469 142.753 86.7388 142.802C86.7306 142.851 86.7266 142.899 86.7266 142.948C86.7266 143.217 86.7713 143.465 86.8608 143.693C86.9585 143.921 87.0928 144.12 87.2637 144.291C87.4346 144.462 87.634 144.596 87.8618 144.694C88.0978 144.783 88.3542 144.828 88.6309 144.828H89.6318C89.9329 144.828 90.2218 144.771 90.4985 144.657C90.7752 144.543 91.0234 144.389 91.2432 144.193C91.471 143.998 91.6582 143.77 91.8047 143.51C91.9593 143.241 92.061 142.956 92.1099 142.655L92.9277 136.845C92.944 136.796 92.9521 136.743 92.9521 136.686C92.9521 136.629 92.9521 136.576 92.9521 136.527C92.9521 136.267 92.9033 136.023 92.8057 135.795C92.7161 135.567 92.5859 135.372 92.415 135.209C92.2523 135.038 92.0529 134.908 91.8169 134.818C91.589 134.721 91.3368 134.672 91.0601 134.672H90.0591C89.758 134.672 89.465 134.729 89.1802 134.843C88.9035 134.957 88.6512 135.111 88.4233 135.307C88.2036 135.502 88.0164 135.734 87.8618 136.002C87.7153 136.263 87.6217 136.544 87.5811 136.845L86.751 142.655ZM116.502 142.826C116.502 143.331 116.4 143.795 116.197 144.218C115.993 144.633 115.717 144.991 115.367 145.292C115.017 145.593 114.61 145.829 114.146 146C113.69 146.163 113.21 146.244 112.706 146.244H111.705C111.2 146.244 110.716 146.151 110.252 145.963C109.796 145.768 109.393 145.504 109.043 145.17C108.702 144.836 108.425 144.446 108.213 143.998C108.01 143.55 107.908 143.074 107.908 142.57V142.069L109.41 141.825V142.655C109.41 142.956 109.471 143.241 109.593 143.51C109.723 143.77 109.894 143.998 110.105 144.193C110.317 144.389 110.561 144.543 110.838 144.657C111.115 144.771 111.403 144.828 111.705 144.828H112.706C113.007 144.828 113.296 144.783 113.572 144.694C113.849 144.604 114.093 144.478 114.305 144.315C114.524 144.145 114.695 143.941 114.817 143.705C114.948 143.469 115.013 143.201 115.013 142.899C115.013 142.452 114.915 142.086 114.72 141.801C114.524 141.516 114.264 141.28 113.938 141.093C113.621 140.897 113.255 140.739 112.84 140.617C112.433 140.486 112.014 140.36 111.583 140.238C111.151 140.108 110.728 139.962 110.313 139.799C109.906 139.636 109.54 139.424 109.214 139.164C108.897 138.896 108.641 138.562 108.445 138.163C108.25 137.764 108.152 137.268 108.152 136.674C108.152 136.169 108.25 135.709 108.445 135.294C108.641 134.871 108.905 134.509 109.239 134.208C109.572 133.907 109.959 133.675 110.398 133.512C110.846 133.341 111.322 133.256 111.827 133.256H112.706C113.21 133.256 113.686 133.354 114.134 133.549C114.581 133.736 114.972 133.996 115.306 134.33C115.639 134.664 115.9 135.054 116.087 135.502C116.282 135.95 116.38 136.426 116.38 136.93V136.979L114.878 137.223V136.845C114.878 136.544 114.821 136.263 114.708 136.002C114.594 135.734 114.439 135.502 114.244 135.307C114.048 135.111 113.816 134.957 113.548 134.843C113.287 134.729 113.007 134.672 112.706 134.672H111.827C111.526 134.672 111.241 134.717 110.972 134.806C110.712 134.896 110.484 135.026 110.289 135.197C110.093 135.36 109.939 135.559 109.825 135.795C109.711 136.031 109.654 136.299 109.654 136.601C109.654 137.032 109.751 137.386 109.947 137.663C110.142 137.931 110.398 138.159 110.716 138.346C111.041 138.533 111.408 138.692 111.814 138.822C112.229 138.944 112.649 139.075 113.072 139.213C113.503 139.343 113.922 139.494 114.329 139.665C114.744 139.835 115.11 140.055 115.428 140.324C115.753 140.592 116.014 140.93 116.209 141.337C116.404 141.736 116.502 142.232 116.502 142.826ZM130.982 146L130.152 144.73C129.81 145.194 129.383 145.565 128.87 145.841C128.357 146.11 127.796 146.244 127.186 146.244H126.807C126.303 146.244 125.826 146.151 125.379 145.963C124.931 145.768 124.541 145.504 124.207 145.17C123.873 144.836 123.609 144.446 123.414 143.998C123.226 143.55 123.133 143.074 123.133 142.57V133.5H124.634V142.655C124.634 142.956 124.691 143.241 124.805 143.51C124.919 143.77 125.074 143.998 125.269 144.193C125.464 144.389 125.692 144.543 125.953 144.657C126.221 144.771 126.506 144.828 126.807 144.828H127.808C128.109 144.828 128.39 144.771 128.65 144.657C128.919 144.543 129.151 144.389 129.346 144.193C129.542 143.998 129.696 143.77 129.81 143.51C129.924 143.241 129.981 142.956 129.981 142.655V133.5H131.482V146H130.982ZM145.633 146L140.53 139.75L145.633 133.5H147.586L142.361 139.75L147.586 146H145.633ZM138.736 146V128.495H140.237V146H138.736ZM161.187 146L160.357 144.755C160.015 145.202 159.588 145.565 159.075 145.841C158.562 146.11 158.001 146.244 157.391 146.244H157.012C156.508 146.244 156.032 146.151 155.584 145.963C155.136 145.768 154.746 145.504 154.412 145.17C154.078 144.836 153.814 144.446 153.619 143.998C153.431 143.55 153.338 143.074 153.338 142.57V142.448C153.338 141.943 153.431 141.467 153.619 141.02C153.814 140.572 154.078 140.181 154.412 139.848C154.746 139.514 155.136 139.254 155.584 139.066C156.032 138.871 156.508 138.773 157.012 138.773H160.186V136.845C160.186 136.544 160.129 136.263 160.015 136.002C159.901 135.734 159.747 135.502 159.551 135.307C159.356 135.111 159.124 134.957 158.855 134.843C158.595 134.729 158.314 134.672 158.013 134.672H157.134C156.833 134.672 156.548 134.729 156.28 134.843C156.019 134.957 155.792 135.111 155.596 135.307C155.401 135.502 155.246 135.734 155.132 136.002C155.018 136.263 154.961 136.544 154.961 136.845V137.296L153.46 137.052V136.93C153.46 136.426 153.554 135.95 153.741 135.502C153.936 135.054 154.201 134.664 154.534 134.33C154.868 133.996 155.258 133.736 155.706 133.549C156.154 133.354 156.63 133.256 157.134 133.256H158.013C158.518 133.256 158.994 133.354 159.441 133.549C159.889 133.736 160.28 133.996 160.613 134.33C160.947 134.664 161.207 135.054 161.395 135.502C161.59 135.95 161.688 136.426 161.688 136.93V146H161.187ZM160.186 139.945H157.012C156.711 139.945 156.426 140.002 156.158 140.116C155.897 140.23 155.669 140.389 155.474 140.592C155.279 140.788 155.124 141.02 155.01 141.288C154.896 141.549 154.839 141.829 154.839 142.13V142.655C154.839 142.956 154.896 143.241 155.01 143.51C155.124 143.77 155.279 143.998 155.474 144.193C155.669 144.389 155.897 144.543 156.158 144.657C156.426 144.771 156.711 144.828 157.012 144.828H158.013C158.314 144.828 158.595 144.771 158.855 144.657C159.124 144.543 159.356 144.389 159.551 144.193C159.747 143.998 159.901 143.77 160.015 143.51C160.129 143.241 160.186 142.956 160.186 142.655V139.945ZM167.94 146V145.329L174.239 134.928H168.184V133.5H176.29V134.171L169.991 144.572H176.29V146H167.94ZM190.391 146L189.561 144.755C189.219 145.202 188.792 145.565 188.279 145.841C187.767 146.11 187.205 146.244 186.595 146.244H186.216C185.712 146.244 185.236 146.151 184.788 145.963C184.34 145.768 183.95 145.504 183.616 145.17C183.283 144.836 183.018 144.446 182.823 143.998C182.636 143.55 182.542 143.074 182.542 142.57V142.448C182.542 141.943 182.636 141.467 182.823 141.02C183.018 140.572 183.283 140.181 183.616 139.848C183.95 139.514 184.34 139.254 184.788 139.066C185.236 138.871 185.712 138.773 186.216 138.773H189.39V136.845C189.39 136.544 189.333 136.263 189.219 136.002C189.105 135.734 188.951 135.502 188.755 135.307C188.56 135.111 188.328 134.957 188.06 134.843C187.799 134.729 187.518 134.672 187.217 134.672H186.338C186.037 134.672 185.752 134.729 185.484 134.843C185.223 134.957 184.996 135.111 184.8 135.307C184.605 135.502 184.45 135.734 184.336 136.002C184.222 136.263 184.166 136.544 184.166 136.845V137.296L182.664 137.052V136.93C182.664 136.426 182.758 135.95 182.945 135.502C183.14 135.054 183.405 134.664 183.738 134.33C184.072 133.996 184.463 133.736 184.91 133.549C185.358 133.354 185.834 133.256 186.338 133.256H187.217C187.722 133.256 188.198 133.354 188.646 133.549C189.093 133.736 189.484 133.996 189.817 134.33C190.151 134.664 190.411 135.054 190.599 135.502C190.794 135.95 190.892 136.426 190.892 136.93V146H190.391ZM189.39 139.945H186.216C185.915 139.945 185.63 140.002 185.362 140.116C185.101 140.23 184.874 140.389 184.678 140.592C184.483 140.788 184.328 141.02 184.214 141.288C184.1 141.549 184.043 141.829 184.043 142.13V142.655C184.043 142.956 184.1 143.241 184.214 143.51C184.328 143.77 184.483 143.998 184.678 144.193C184.874 144.389 185.101 144.543 185.362 144.657C185.63 144.771 185.915 144.828 186.216 144.828H187.217C187.518 144.828 187.799 144.771 188.06 144.657C188.328 144.543 188.56 144.389 188.755 144.193C188.951 143.998 189.105 143.77 189.219 143.51C189.333 143.241 189.39 142.956 189.39 142.655V139.945ZM197.889 146V144.12H199.769V146H197.889ZM214.615 146L213.785 144.73C213.443 145.194 213.016 145.565 212.503 145.841C211.99 146.11 211.429 146.244 210.818 146.244H210.44C209.935 146.244 209.459 146.151 209.012 145.963C208.564 145.768 208.174 145.504 207.84 145.17C207.506 144.836 207.242 144.446 207.046 143.998C206.859 143.55 206.766 143.074 206.766 142.57V136.93C206.766 136.426 206.859 135.95 207.046 135.502C207.242 135.054 207.506 134.664 207.84 134.33C208.174 133.996 208.564 133.736 209.012 133.549C209.459 133.354 209.935 133.256 210.44 133.256H210.818C211.38 133.256 211.901 133.37 212.381 133.598C212.861 133.826 213.272 134.143 213.614 134.55V128.495H215.115V146H214.615ZM213.614 136.845C213.614 136.544 213.557 136.263 213.443 136.002C213.329 135.734 213.174 135.502 212.979 135.307C212.784 135.111 212.552 134.957 212.283 134.843C212.023 134.729 211.742 134.672 211.441 134.672H210.44C210.139 134.672 209.854 134.729 209.585 134.843C209.325 134.957 209.097 135.111 208.902 135.307C208.707 135.502 208.552 135.734 208.438 136.002C208.324 136.263 208.267 136.544 208.267 136.845V142.655C208.267 142.956 208.324 143.241 208.438 143.51C208.552 143.77 208.707 143.998 208.902 144.193C209.097 144.389 209.325 144.543 209.585 144.657C209.854 144.771 210.139 144.828 210.44 144.828H211.441C211.742 144.828 212.023 144.771 212.283 144.657C212.552 144.543 212.784 144.389 212.979 144.193C213.174 143.998 213.329 143.77 213.443 143.51C213.557 143.241 213.614 142.956 213.614 142.655V136.845ZM229.266 146L224.163 139.75L229.266 133.5H231.219L225.994 139.75L231.219 146H229.266ZM222.369 146V128.495H223.87V146H222.369ZM43.5723 173.947C43.5723 174.541 43.4583 175.099 43.2305 175.62C43.0107 176.14 42.7056 176.596 42.3149 176.987C41.9243 177.377 41.4686 177.687 40.9478 177.915C40.4269 178.134 39.8695 178.244 39.2754 178.244H38.0303C37.4362 178.244 36.8747 178.134 36.3457 177.915C35.8249 177.687 35.3691 177.377 34.9785 176.987C34.5879 176.596 34.2786 176.14 34.0508 175.62C33.8311 175.099 33.7212 174.541 33.7212 173.947V164.548C33.7212 163.954 33.8311 163.396 34.0508 162.875C34.2786 162.355 34.5879 161.899 34.9785 161.508C35.3691 161.118 35.8249 160.812 36.3457 160.593C36.8747 160.365 37.4362 160.251 38.0303 160.251H39.2754C39.8695 160.251 40.4269 160.365 40.9478 160.593C41.4686 160.812 41.9243 161.118 42.3149 161.508C42.7056 161.899 43.0107 162.355 43.2305 162.875C43.4583 163.396 43.5723 163.954 43.5723 164.548V165.256L41.9976 165.5V164.548C41.9976 164.157 41.9243 163.795 41.7778 163.461C41.6313 163.12 41.432 162.823 41.1797 162.57C40.9274 162.318 40.6304 162.119 40.2886 161.972C39.9549 161.826 39.5928 161.752 39.2021 161.752H38.1035C37.7129 161.752 37.3467 161.826 37.0049 161.972C36.6712 162.119 36.3742 162.318 36.1138 162.57C35.8615 162.823 35.6621 163.12 35.5156 163.461C35.3691 163.795 35.2959 164.157 35.2959 164.548V173.947C35.2959 174.338 35.3691 174.704 35.5156 175.046C35.6621 175.38 35.8615 175.677 36.1138 175.937C36.3742 176.189 36.6712 176.389 37.0049 176.535C37.3467 176.682 37.7129 176.755 38.1035 176.755H39.2021C39.5928 176.755 39.9549 176.682 40.2886 176.535C40.6304 176.389 40.9274 176.189 41.1797 175.937C41.432 175.677 41.6313 175.38 41.7778 175.046C41.9243 174.704 41.9976 174.338 41.9976 173.947V172.995L43.5723 173.251V173.947ZM54.5854 174.155L54.6343 174.802L54.6831 174.155L58.5649 160.495H60.1885L55.0371 178H54.207L49.0801 160.495H50.7158L54.5854 174.155ZM74.4121 178L69.6636 170.529H67.5029V178H65.9282V160.495H71.4824C72.0765 160.495 72.634 160.609 73.1548 160.837C73.6756 161.057 74.1313 161.362 74.522 161.752C74.9126 162.143 75.2178 162.603 75.4375 163.132C75.6654 163.653 75.7793 164.21 75.7793 164.804V166.22C75.7793 166.814 75.6654 167.376 75.4375 167.905C75.2178 168.426 74.9126 168.881 74.522 169.272C74.1313 169.663 73.6756 169.972 73.1548 170.2C72.634 170.419 72.0765 170.529 71.4824 170.529L76.231 178H74.4121ZM74.2046 164.804C74.2046 164.414 74.1313 164.051 73.9849 163.718C73.8384 163.376 73.639 163.079 73.3867 162.827C73.1344 162.566 72.8374 162.363 72.4956 162.216C72.1619 162.07 71.7998 161.997 71.4092 161.997H67.5029V169.028H71.4092C71.7998 169.028 72.1619 168.955 72.4956 168.808C72.8374 168.662 73.1344 168.462 73.3867 168.21C73.639 167.95 73.8384 167.653 73.9849 167.319C74.1313 166.977 74.2046 166.611 74.2046 166.22V164.804ZM82.7397 167.38V165.5H84.6196V167.38H82.7397ZM82.7397 178V176.12H84.6196V178H82.7397ZM110.723 173.947C110.723 174.541 110.609 175.099 110.381 175.62C110.162 176.14 109.856 176.596 109.466 176.987C109.075 177.377 108.619 177.687 108.099 177.915C107.578 178.134 107.02 178.244 106.426 178.244H105.682C105.088 178.244 104.526 178.134 103.997 177.915C103.476 177.687 103.021 177.377 102.63 176.987C102.239 176.596 101.93 176.14 101.702 175.62C101.482 175.099 101.373 174.541 101.373 173.947V173.496L102.947 173.251V173.947C102.947 174.338 103.021 174.704 103.167 175.046C103.313 175.38 103.513 175.677 103.765 175.937C104.026 176.189 104.323 176.389 104.656 176.535C104.998 176.682 105.364 176.755 105.755 176.755H106.353C106.744 176.755 107.106 176.682 107.439 176.535C107.781 176.389 108.078 176.189 108.331 175.937C108.583 175.677 108.782 175.38 108.929 175.046C109.075 174.704 109.148 174.338 109.148 173.947V172.495C109.148 172.104 109.075 171.742 108.929 171.408C108.782 171.066 108.583 170.769 108.331 170.517C108.078 170.265 107.781 170.065 107.439 169.919C107.106 169.772 106.744 169.699 106.353 169.699H105.181V168.198H106.353C106.744 168.198 107.106 168.125 107.439 167.978C107.781 167.832 108.078 167.632 108.331 167.38C108.583 167.128 108.782 166.835 108.929 166.501C109.075 166.159 109.148 165.793 109.148 165.402V164.548C109.148 164.157 109.075 163.795 108.929 163.461C108.782 163.12 108.583 162.823 108.331 162.57C108.078 162.318 107.781 162.119 107.439 161.972C107.106 161.826 106.744 161.752 106.353 161.752H105.755C105.364 161.752 104.998 161.826 104.656 161.972C104.323 162.119 104.026 162.318 103.765 162.57C103.513 162.823 103.313 163.12 103.167 163.461C103.021 163.795 102.947 164.157 102.947 164.548V165.256L101.373 165V164.548C101.373 163.954 101.482 163.396 101.702 162.875C101.93 162.355 102.239 161.899 102.63 161.508C103.021 161.118 103.476 160.812 103.997 160.593C104.526 160.365 105.088 160.251 105.682 160.251H106.426C107.02 160.251 107.578 160.365 108.099 160.593C108.619 160.812 109.075 161.118 109.466 161.508C109.856 161.899 110.162 162.355 110.381 162.875C110.609 163.396 110.723 163.954 110.723 164.548V165.146C110.723 165.561 110.666 165.96 110.552 166.342C110.446 166.717 110.292 167.067 110.088 167.392C109.893 167.718 109.657 168.015 109.38 168.283C109.104 168.544 108.794 168.767 108.453 168.955C108.794 169.134 109.104 169.357 109.38 169.626C109.657 169.886 109.893 170.179 110.088 170.505C110.292 170.83 110.446 171.184 110.552 171.567C110.666 171.941 110.723 172.336 110.723 172.751V173.947ZM127.083 173.947C127.083 174.541 126.969 175.099 126.741 175.62C126.521 176.14 126.216 176.596 125.826 176.987C125.435 177.377 124.979 177.687 124.458 177.915C123.938 178.134 123.38 178.244 122.786 178.244H122.029C121.435 178.244 120.878 178.134 120.357 177.915C119.836 177.687 119.38 177.377 118.99 176.987C118.599 176.596 118.29 176.14 118.062 175.62C117.842 175.099 117.732 174.541 117.732 173.947V173.496L119.307 173.251V173.947C119.307 174.338 119.38 174.704 119.527 175.046C119.673 175.38 119.873 175.677 120.125 175.937C120.377 176.189 120.67 176.389 121.004 176.535C121.346 176.682 121.712 176.755 122.103 176.755H122.701C123.091 176.755 123.453 176.682 123.787 176.535C124.129 176.389 124.426 176.189 124.678 175.937C124.939 175.677 125.142 175.38 125.289 175.046C125.435 174.704 125.508 174.338 125.508 173.947V169.602C125.101 170.041 124.621 170.395 124.068 170.664C123.514 170.924 122.92 171.054 122.286 171.054H122.029C121.435 171.054 120.878 170.944 120.357 170.725C119.836 170.497 119.38 170.188 118.99 169.797C118.599 169.406 118.29 168.951 118.062 168.43C117.842 167.901 117.732 167.339 117.732 166.745V164.548C117.732 163.954 117.842 163.396 118.062 162.875C118.29 162.355 118.599 161.899 118.99 161.508C119.38 161.118 119.836 160.812 120.357 160.593C120.878 160.365 121.435 160.251 122.029 160.251H122.786C123.38 160.251 123.938 160.365 124.458 160.593C124.979 160.812 125.435 161.118 125.826 161.508C126.216 161.899 126.521 162.355 126.741 162.875C126.969 163.396 127.083 163.954 127.083 164.548V173.947ZM125.508 164.548C125.508 164.157 125.435 163.795 125.289 163.461C125.142 163.12 124.939 162.823 124.678 162.57C124.426 162.318 124.129 162.119 123.787 161.972C123.453 161.826 123.091 161.752 122.701 161.752H122.103C121.712 161.752 121.346 161.826 121.004 161.972C120.67 162.119 120.377 162.318 120.125 162.57C119.873 162.823 119.673 163.12 119.527 163.461C119.38 163.795 119.307 164.157 119.307 164.548V166.745C119.307 167.136 119.38 167.502 119.527 167.844C119.673 168.177 119.873 168.474 120.125 168.735C120.377 168.987 120.67 169.187 121.004 169.333C121.346 169.479 121.712 169.553 122.103 169.553H122.701C123.091 169.553 123.453 169.479 123.787 169.333C124.129 169.187 124.426 168.987 124.678 168.735C124.939 168.474 125.142 168.177 125.289 167.844C125.435 167.502 125.508 167.136 125.508 166.745V164.548ZM141.697 174.973V178H140.123V174.973H133.091V174.228L140.867 160.495H141.697V173.471H143.199V174.973H141.697ZM140.123 164.804L135.301 173.471H140.123V164.804ZM152.93 178H151.282L157.837 161.997H151.758V164.328H150.184V160.495H159.778V161.252L152.93 178ZM176.15 173.947C176.15 174.541 176.036 175.099 175.809 175.62C175.589 176.14 175.284 176.596 174.893 176.987C174.502 177.377 174.047 177.687 173.526 177.915C173.005 178.134 172.448 178.244 171.854 178.244H171.097C170.503 178.244 169.945 178.134 169.424 177.915C168.903 177.687 168.448 177.377 168.057 176.987C167.667 176.596 167.357 176.14 167.129 175.62C166.91 175.099 166.8 174.541 166.8 173.947V164.548C166.8 163.954 166.91 163.396 167.129 162.875C167.357 162.355 167.667 161.899 168.057 161.508C168.448 161.118 168.903 160.812 169.424 160.593C169.945 160.365 170.503 160.251 171.097 160.251H171.854C172.448 160.251 173.005 160.365 173.526 160.593C174.047 160.812 174.502 161.118 174.893 161.508C175.284 161.899 175.589 162.355 175.809 162.875C176.036 163.396 176.15 163.954 176.15 164.548V165L174.576 165.256V164.548C174.576 164.157 174.502 163.795 174.356 163.461C174.209 163.12 174.006 162.823 173.746 162.57C173.493 162.318 173.196 162.119 172.854 161.972C172.521 161.826 172.159 161.752 171.768 161.752H171.17C170.779 161.752 170.413 161.826 170.071 161.972C169.738 162.119 169.445 162.318 169.192 162.57C168.94 162.823 168.741 163.12 168.594 163.461C168.448 163.795 168.375 164.157 168.375 164.548V168.906C168.773 168.466 169.249 168.116 169.803 167.856C170.364 167.587 170.962 167.453 171.597 167.453H171.854C172.448 167.453 173.005 167.567 173.526 167.795C174.047 168.015 174.502 168.32 174.893 168.71C175.284 169.101 175.589 169.557 175.809 170.078C176.036 170.598 176.15 171.156 176.15 171.75V173.947ZM174.576 171.75C174.576 171.359 174.502 170.997 174.356 170.664C174.209 170.322 174.006 170.025 173.746 169.772C173.493 169.52 173.196 169.321 172.854 169.174C172.521 169.028 172.159 168.955 171.768 168.955H171.17C170.779 168.955 170.413 169.028 170.071 169.174C169.738 169.321 169.445 169.52 169.192 169.772C168.94 170.025 168.741 170.322 168.594 170.664C168.448 170.997 168.375 171.359 168.375 171.75V173.947C168.375 174.338 168.448 174.704 168.594 175.046C168.741 175.38 168.94 175.677 169.192 175.937C169.445 176.189 169.738 176.389 170.071 176.535C170.413 176.682 170.779 176.755 171.17 176.755H171.768C172.159 176.755 172.521 176.682 172.854 176.535C173.196 176.389 173.493 176.189 173.746 175.937C174.006 175.677 174.209 175.38 174.356 175.046C174.502 174.704 174.576 174.338 174.576 173.947V171.75ZM192.51 173.947C192.51 174.541 192.396 175.099 192.168 175.62C191.949 176.14 191.644 176.596 191.253 176.987C190.862 177.377 190.407 177.687 189.886 177.915C189.365 178.134 188.807 178.244 188.213 178.244H187.469C186.875 178.244 186.313 178.134 185.784 177.915C185.263 177.687 184.808 177.377 184.417 176.987C184.026 176.596 183.717 176.14 183.489 175.62C183.27 175.099 183.16 174.541 183.16 173.947V164.548C183.16 163.954 183.27 163.396 183.489 162.875C183.717 162.355 184.026 161.899 184.417 161.508C184.808 161.118 185.263 160.812 185.784 160.593C186.313 160.365 186.875 160.251 187.469 160.251H188.213C188.807 160.251 189.365 160.365 189.886 160.593C190.407 160.812 190.862 161.118 191.253 161.508C191.644 161.899 191.949 162.355 192.168 162.875C192.396 163.396 192.51 163.954 192.51 164.548V173.947ZM190.936 164.548C190.936 164.157 190.862 163.795 190.716 163.461C190.569 163.12 190.37 162.823 190.118 162.57C189.865 162.318 189.568 162.119 189.227 161.972C188.893 161.826 188.531 161.752 188.14 161.752H187.542C187.151 161.752 186.785 161.826 186.443 161.972C186.11 162.119 185.813 162.318 185.552 162.57C185.3 162.823 185.101 163.12 184.954 163.461C184.808 163.795 184.734 164.157 184.734 164.548V173.947C184.734 174.338 184.808 174.704 184.954 175.046C185.101 175.38 185.3 175.677 185.552 175.937C185.813 176.189 186.11 176.389 186.443 176.535C186.785 176.682 187.151 176.755 187.542 176.755H188.14C188.531 176.755 188.893 176.682 189.227 176.535C189.568 176.389 189.865 176.189 190.118 175.937C190.37 175.677 190.569 175.38 190.716 175.046C190.862 174.704 190.936 174.338 190.936 173.947V164.548ZM208.882 173.947C208.882 174.541 208.768 175.099 208.541 175.62C208.321 176.14 208.016 176.596 207.625 176.987C207.234 177.377 206.779 177.687 206.258 177.915C205.737 178.134 205.18 178.244 204.585 178.244H203.841C203.247 178.244 202.685 178.134 202.156 177.915C201.635 177.687 201.18 177.377 200.789 176.987C200.398 176.596 200.089 176.14 199.861 175.62C199.642 175.099 199.532 174.541 199.532 173.947V172.495C199.532 171.754 199.703 171.079 200.044 170.468C200.394 169.85 200.85 169.345 201.412 168.955C200.85 168.564 200.394 168.059 200.044 167.441C199.703 166.822 199.532 166.143 199.532 165.402V164.548C199.532 163.954 199.642 163.396 199.861 162.875C200.089 162.355 200.398 161.899 200.789 161.508C201.18 161.118 201.635 160.812 202.156 160.593C202.685 160.365 203.247 160.251 203.841 160.251H204.585C205.18 160.251 205.737 160.365 206.258 160.593C206.779 160.812 207.234 161.118 207.625 161.508C208.016 161.899 208.321 162.355 208.541 162.875C208.768 163.396 208.882 163.954 208.882 164.548V165.402C208.882 166.143 208.711 166.822 208.37 167.441C208.028 168.059 207.576 168.564 207.015 168.955C207.576 169.345 208.028 169.85 208.37 170.468C208.711 171.079 208.882 171.754 208.882 172.495V173.947ZM207.308 164.548C207.308 164.157 207.234 163.795 207.088 163.461C206.941 163.12 206.742 162.823 206.49 162.57C206.237 162.318 205.94 162.119 205.599 161.972C205.265 161.826 204.903 161.752 204.512 161.752H203.914C203.523 161.752 203.157 161.826 202.815 161.972C202.482 162.119 202.185 162.318 201.924 162.57C201.672 162.823 201.473 163.12 201.326 163.461C201.18 163.795 201.106 164.157 201.106 164.548V165.402C201.106 165.793 201.18 166.159 201.326 166.501C201.473 166.835 201.672 167.128 201.924 167.38C202.185 167.632 202.482 167.832 202.815 167.978C203.157 168.125 203.523 168.198 203.914 168.198H204.512C204.903 168.198 205.265 168.125 205.599 167.978C205.94 167.832 206.237 167.632 206.49 167.38C206.742 167.128 206.941 166.835 207.088 166.501C207.234 166.159 207.308 165.793 207.308 165.402V164.548ZM207.308 172.495C207.308 172.104 207.234 171.742 207.088 171.408C206.941 171.066 206.742 170.769 206.49 170.517C206.237 170.265 205.94 170.065 205.599 169.919C205.265 169.772 204.903 169.699 204.512 169.699H203.914C203.523 169.699 203.157 169.772 202.815 169.919C202.482 170.065 202.185 170.265 201.924 170.517C201.672 170.769 201.473 171.066 201.326 171.408C201.18 171.742 201.106 172.104 201.106 172.495V173.947C201.106 174.338 201.18 174.704 201.326 175.046C201.473 175.38 201.672 175.677 201.924 175.937C202.185 176.189 202.482 176.389 202.815 176.535C203.157 176.682 203.523 176.755 203.914 176.755H204.512C204.903 176.755 205.265 176.682 205.599 176.535C205.94 176.389 206.237 176.189 206.49 175.937C206.742 175.677 206.941 175.38 207.088 175.046C207.234 174.704 207.308 174.338 207.308 173.947V172.495ZM225.254 173.947C225.254 174.541 225.14 175.099 224.913 175.62C224.693 176.14 224.388 176.596 223.997 176.987C223.606 177.377 223.151 177.687 222.63 177.915C222.109 178.134 221.552 178.244 220.958 178.244H220.213C219.619 178.244 219.057 178.134 218.528 177.915C218.007 177.687 217.552 177.377 217.161 176.987C216.771 176.596 216.461 176.14 216.233 175.62C216.014 175.099 215.904 174.541 215.904 173.947V172.495C215.904 171.754 216.075 171.079 216.417 170.468C216.766 169.85 217.222 169.345 217.784 168.955C217.222 168.564 216.766 168.059 216.417 167.441C216.075 166.822 215.904 166.143 215.904 165.402V164.548C215.904 163.954 216.014 163.396 216.233 162.875C216.461 162.355 216.771 161.899 217.161 161.508C217.552 161.118 218.007 160.812 218.528 160.593C219.057 160.365 219.619 160.251 220.213 160.251H220.958C221.552 160.251 222.109 160.365 222.63 160.593C223.151 160.812 223.606 161.118 223.997 161.508C224.388 161.899 224.693 162.355 224.913 162.875C225.14 163.396 225.254 163.954 225.254 164.548V165.402C225.254 166.143 225.083 166.822 224.742 167.441C224.4 168.059 223.948 168.564 223.387 168.955C223.948 169.345 224.4 169.85 224.742 170.468C225.083 171.079 225.254 171.754 225.254 172.495V173.947ZM223.68 164.548C223.68 164.157 223.606 163.795 223.46 163.461C223.313 163.12 223.114 162.823 222.862 162.57C222.61 162.318 222.312 162.119 221.971 161.972C221.637 161.826 221.275 161.752 220.884 161.752H220.286C219.896 161.752 219.529 161.826 219.188 161.972C218.854 162.119 218.557 162.318 218.296 162.57C218.044 162.823 217.845 163.12 217.698 163.461C217.552 163.795 217.479 164.157 217.479 164.548V165.402C217.479 165.793 217.552 166.159 217.698 166.501C217.845 166.835 218.044 167.128 218.296 167.38C218.557 167.632 218.854 167.832 219.188 167.978C219.529 168.125 219.896 168.198 220.286 168.198H220.884C221.275 168.198 221.637 168.125 221.971 167.978C222.312 167.832 222.61 167.632 222.862 167.38C223.114 167.128 223.313 166.835 223.46 166.501C223.606 166.159 223.68 165.793 223.68 165.402V164.548ZM223.68 172.495C223.68 172.104 223.606 171.742 223.46 171.408C223.313 171.066 223.114 170.769 222.862 170.517C222.61 170.265 222.312 170.065 221.971 169.919C221.637 169.772 221.275 169.699 220.884 169.699H220.286C219.896 169.699 219.529 169.772 219.188 169.919C218.854 170.065 218.557 170.265 218.296 170.517C218.044 170.769 217.845 171.066 217.698 171.408C217.552 171.742 217.479 172.104 217.479 172.495V173.947C217.479 174.338 217.552 174.704 217.698 175.046C217.845 175.38 218.044 175.677 218.296 175.937C218.557 176.189 218.854 176.389 219.188 176.535C219.529 176.682 219.896 176.755 220.286 176.755H220.884C221.275 176.755 221.637 176.682 221.971 176.535C222.312 176.389 222.61 176.189 222.862 175.937C223.114 175.677 223.313 175.38 223.46 175.046C223.606 174.704 223.68 174.338 223.68 173.947V172.495Z" fill="#910F29" fill-opacity="0.85"/>
<path d="M77.7422 119.005H234.761V120.006H77.7422V119.005Z" fill="#910F29" fill-opacity="0.85"/>
<path d="M27.2808 151.005H231.719V152.006H27.2808V151.005Z" fill="#910F29" fill-opacity="0.85"/>
<a href="tel:30313290">
<rect fill="black" fill-opacity="0" x="79.7422" y="96.0698" width="157.019" height="31.8604"/>
</a>
<a href="mailto:info@kompletweb.dk">
<rect fill="black" fill-opacity="0" x="29.2808" y="128.07" width="204.438" height="31.8604"/>
</a>
</svg>
