<svg width="168" height="45" viewBox="0 0 168 45" fill="none" xmlns="http://www.w3.org/2000/svg">
<path d="M17.5684 26.8457H6.48438L4.18945 35H0.917969L11.1719 -0.00976562H12.832L23.1348 35H19.8877L17.5684 26.8457ZM7.33887 23.8428H16.7383L12.124 7.70508L12.0264 6.41113L11.9287 7.70508L7.33887 23.8428ZM49.8242 35L48.1641 32.4609C47.4805 33.3887 46.626 34.1292 45.6006 34.6826C44.5752 35.2197 43.4521 35.4883 42.2314 35.4883H41.4746C40.4655 35.4883 39.5133 35.3011 38.6182 34.9268C37.723 34.5361 36.9417 34.0072 36.2744 33.3398C35.6071 32.6725 35.0781 31.8913 34.6875 30.9961C34.3132 30.1009 34.126 29.1488 34.126 28.1396V10H37.1289V28.3105C37.1289 28.9128 37.2428 29.4824 37.4707 30.0195C37.6986 30.5404 38.0078 30.9961 38.3984 31.3867C38.7891 31.7773 39.2448 32.0866 39.7656 32.3145C40.3027 32.5423 40.8724 32.6562 41.4746 32.6562H43.4766C44.0788 32.6562 44.6403 32.5423 45.1611 32.3145C45.6982 32.0866 46.1621 31.7773 46.5527 31.3867C46.9434 30.9961 47.2526 30.5404 47.4805 30.0195C47.7083 29.4824 47.8223 28.9128 47.8223 28.3105V10H50.8252V35H49.8242ZM81.2744 38.1494C81.2744 39.1585 81.0791 40.0863 80.6885 40.9326C80.3141 41.779 79.7933 42.5033 79.126 43.1055C78.4587 43.7077 77.6774 44.1715 76.7822 44.4971C75.887 44.8389 74.9349 45.0098 73.9258 45.0098H72.6807C71.6715 45.0098 70.7194 44.8389 69.8242 44.4971C68.929 44.1715 68.1478 43.7077 67.4805 43.1055C66.8132 42.5033 66.2842 41.779 65.8936 40.9326C65.5192 40.0863 65.332 39.1585 65.332 38.1494V38.0518C65.332 37.0752 65.5111 36.18 65.8691 35.3662C66.2272 34.5524 66.7155 33.8444 67.334 33.2422C66.5527 32.7702 65.9261 32.1354 65.4541 31.3379C64.9984 30.5241 64.7705 29.6289 64.7705 28.6523C64.7705 27.7734 64.9577 26.9596 65.332 26.2109C65.7064 25.446 66.2191 24.8275 66.8701 24.3555C66.0889 23.6719 65.4704 22.8499 65.0146 21.8896C64.5589 20.9294 64.3311 19.8796 64.3311 18.7402V16.8604C64.3311 15.8512 64.5182 14.8991 64.8926 14.0039C65.2832 13.1087 65.8122 12.3275 66.4795 11.6602C67.1468 10.9928 67.9281 10.472 68.8232 10.0977C69.7184 9.70703 70.6706 9.51172 71.6797 9.51172H72.9248C74.1455 9.51172 75.2686 9.78841 76.2939 10.3418C77.3356 10.8789 78.1982 11.6113 78.8818 12.5391L80.5176 10H81.5186V18.7402C81.5186 19.7493 81.3232 20.7015 80.9326 21.5967C80.5583 22.4919 80.0374 23.2731 79.3701 23.9404C78.7028 24.6077 77.9215 25.1367 77.0264 25.5273C76.1312 25.9017 75.179 26.0889 74.1699 26.0889H69.8242C69.4824 26.0889 69.1569 26.1621 68.8477 26.3086C68.5384 26.4388 68.2617 26.6178 68.0176 26.8457C67.7897 27.0736 67.6107 27.3503 67.4805 27.6758C67.3503 27.985 67.2852 28.3105 67.2852 28.6523C67.2852 28.9941 67.3503 29.3197 67.4805 29.6289C67.6107 29.9382 67.7897 30.2148 68.0176 30.459C68.2617 30.6868 68.5384 30.8659 68.8477 30.9961C69.1569 31.1263 69.4824 31.1914 69.8242 31.1914H73.9258C74.9349 31.1914 75.887 31.3623 76.7822 31.7041C77.6774 32.0296 78.4587 32.4935 79.126 33.0957C79.7933 33.6979 80.3141 34.4222 80.6885 35.2686C81.0791 36.1149 81.2744 37.0426 81.2744 38.0518V38.1494ZM78.54 16.6895C78.54 16.0872 78.4261 15.5257 78.1982 15.0049C77.9704 14.4678 77.653 14.0039 77.2461 13.6133C76.8555 13.2227 76.3916 12.9134 75.8545 12.6855C75.3337 12.4577 74.7721 12.3438 74.1699 12.3438H71.6797C71.0775 12.3438 70.5078 12.4577 69.9707 12.6855C69.4499 12.9134 68.9941 13.2227 68.6035 13.6133C68.2129 14.0039 67.9036 14.4678 67.6758 15.0049C67.4479 15.5257 67.334 16.0872 67.334 16.6895V18.9111C67.334 19.5133 67.4479 20.083 67.6758 20.6201C67.9036 21.141 68.2129 21.5967 68.6035 21.9873C68.9941 22.3779 69.4499 22.6872 69.9707 22.915C70.5078 23.1429 71.0775 23.2568 71.6797 23.2568H74.1699C74.7721 23.2568 75.3337 23.1429 75.8545 22.915C76.3916 22.6872 76.8555 22.3779 77.2461 21.9873C77.653 21.5967 77.9704 21.141 78.1982 20.6201C78.4261 20.083 78.54 19.5133 78.54 18.9111V16.6895ZM78.418 37.9053C78.418 37.3031 78.304 36.7578 78.0762 36.2695C77.8483 35.7975 77.5391 35.3988 77.1484 35.0732C76.7578 34.7477 76.2939 34.4954 75.7568 34.3164C75.236 34.1374 74.6745 34.0479 74.0723 34.0479H72.5342C71.932 34.0479 71.3623 34.1374 70.8252 34.3164C70.3044 34.4954 69.8486 34.7477 69.458 35.0732C69.0674 35.3988 68.7581 35.7975 68.5303 36.2695C68.3024 36.7578 68.1885 37.3031 68.1885 37.9053V38.2959C68.1885 38.8981 68.3024 39.4352 68.5303 39.9072C68.7581 40.3792 69.0674 40.778 69.458 41.1035C69.8486 41.4453 70.3044 41.7057 70.8252 41.8848C71.3623 42.0638 71.932 42.1533 72.5342 42.1533H74.0723C74.6745 42.1533 75.236 42.0638 75.7568 41.8848C76.2939 41.7057 76.7578 41.4453 77.1484 41.1035C77.5391 40.778 77.8483 40.3792 78.0762 39.9072C78.304 39.4352 78.418 38.8981 78.418 38.2959V37.9053ZM110.234 35L108.574 32.4609C107.891 33.3887 107.036 34.1292 106.011 34.6826C104.985 35.2197 103.862 35.4883 102.642 35.4883H101.885C100.876 35.4883 99.9235 35.3011 99.0283 34.9268C98.1331 34.5361 97.3519 34.0072 96.6846 33.3398C96.0173 32.6725 95.4883 31.8913 95.0977 30.9961C94.7233 30.1009 94.5361 29.1488 94.5361 28.1396V10H97.5391V28.3105C97.5391 28.9128 97.653 29.4824 97.8809 30.0195C98.1087 30.5404 98.418 30.9961 98.8086 31.3867C99.1992 31.7773 99.6549 32.0866 100.176 32.3145C100.713 32.5423 101.283 32.6562 101.885 32.6562H103.887C104.489 32.6562 105.05 32.5423 105.571 32.3145C106.108 32.0866 106.572 31.7773 106.963 31.3867C107.354 30.9961 107.663 30.5404 107.891 30.0195C108.118 29.4824 108.232 28.9128 108.232 28.3105V10H111.235V35H110.234ZM141.929 28.6523C141.929 29.6615 141.725 30.5892 141.318 31.4355C140.911 32.2656 140.358 32.9818 139.658 33.584C138.958 34.1862 138.145 34.6582 137.217 35C136.305 35.3255 135.345 35.4883 134.336 35.4883H132.334C131.325 35.4883 130.356 35.3011 129.429 34.9268C128.517 34.5361 127.712 34.0072 127.012 33.3398C126.328 32.6725 125.775 31.8913 125.352 30.9961C124.945 30.1009 124.741 29.1488 124.741 28.1396V27.1387L127.744 26.6504V28.3105C127.744 28.9128 127.866 29.4824 128.11 30.0195C128.371 30.5404 128.713 30.9961 129.136 31.3867C129.559 31.7773 130.047 32.0866 130.601 32.3145C131.154 32.5423 131.732 32.6562 132.334 32.6562H134.336C134.938 32.6562 135.516 32.5667 136.069 32.3877C136.623 32.2087 137.111 31.9564 137.534 31.6309C137.974 31.2891 138.315 30.8822 138.56 30.4102C138.82 29.9382 138.95 29.401 138.95 28.7988C138.95 27.9036 138.755 27.1712 138.364 26.6016C137.974 26.0319 137.453 25.5599 136.802 25.1855C136.167 24.7949 135.435 24.4775 134.604 24.2334C133.791 23.973 132.952 23.7207 132.09 23.4766C131.227 23.2161 130.381 22.9232 129.551 22.5977C128.737 22.2721 128.005 21.849 127.354 21.3281C126.719 20.791 126.206 20.1237 125.815 19.3262C125.425 18.5286 125.229 17.5358 125.229 16.3477C125.229 15.3385 125.425 14.4189 125.815 13.5889C126.206 12.7425 126.735 12.0182 127.402 11.416C128.07 10.8138 128.843 10.3499 129.722 10.0244C130.617 9.68262 131.569 9.51172 132.578 9.51172H134.336C135.345 9.51172 136.297 9.70703 137.192 10.0977C138.088 10.472 138.869 10.9928 139.536 11.6602C140.203 12.3275 140.724 13.1087 141.099 14.0039C141.489 14.8991 141.685 15.8512 141.685 16.8604V16.958L138.682 17.4463V16.6895C138.682 16.0872 138.568 15.5257 138.34 15.0049C138.112 14.4678 137.803 14.0039 137.412 13.6133C137.021 13.2227 136.558 12.9134 136.021 12.6855C135.5 12.4577 134.938 12.3438 134.336 12.3438H132.578C131.976 12.3438 131.406 12.4333 130.869 12.6123C130.348 12.7913 129.893 13.0518 129.502 13.3936C129.111 13.7191 128.802 14.1178 128.574 14.5898C128.346 15.0618 128.232 15.599 128.232 16.2012C128.232 17.0638 128.428 17.7718 128.818 18.3252C129.209 18.8623 129.722 19.318 130.356 19.6924C131.007 20.0667 131.74 20.3841 132.554 20.6445C133.384 20.8887 134.222 21.1491 135.068 21.4258C135.931 21.6862 136.769 21.9873 137.583 22.3291C138.413 22.6709 139.146 23.1104 139.78 23.6475C140.431 24.1846 140.952 24.86 141.343 25.6738C141.733 26.4714 141.929 27.4642 141.929 28.6523ZM164.297 35C163.385 35 162.523 34.8291 161.709 34.4873C160.911 34.1455 160.212 33.6735 159.609 33.0713C159.023 32.4691 158.551 31.7692 158.193 30.9717C157.852 30.1742 157.681 29.3197 157.681 28.4082V12.8564H153.188V10H157.681V3.99414L160.684 3.50586V10H167.031V12.8564H160.684V28.5547C160.684 29.0592 160.773 29.5312 160.952 29.9707C161.147 30.3939 161.408 30.7682 161.733 31.0938C162.059 31.4193 162.441 31.6797 162.881 31.875C163.32 32.054 163.792 32.1436 164.297 32.1436H167.031V35H164.297Z" fill="#DDDDDD"/>
</svg>
