<svg width="279" height="31" viewBox="0 0 279 31" fill="none" xmlns="http://www.w3.org/2000/svg">
<path d="M13.7262 18.3281C13.7262 19.1123 13.5758 19.8481 13.275 20.5356C12.985 21.2231 12.5821 21.8247 12.0665 22.3403C11.5509 22.856 10.9439 23.2642 10.2457 23.5649C9.5582 23.855 8.82236 24 8.03818 24H0.722748V0.893555H8.03818C8.82236 0.893555 9.5582 1.04395 10.2457 1.34473C10.9439 1.63477 11.5509 2.0376 12.0665 2.55322C12.5821 3.06885 12.985 3.67578 13.275 4.37402C13.5758 5.06152 13.7262 5.79736 13.7262 6.58154V6.80713C13.7262 7.35498 13.651 7.88135 13.5006 8.38623C13.3609 8.88037 13.1568 9.34229 12.8883 9.77197C12.6197 10.2017 12.3028 10.5938 11.9376 10.9482C11.5724 11.292 11.1642 11.582 10.713 11.8184C11.1642 12.0547 11.5724 12.3501 11.9376 12.7046C12.3028 13.0483 12.6197 13.4404 12.8883 13.8809C13.1568 14.3105 13.3609 14.7778 13.5006 15.2827C13.651 15.7769 13.7262 16.2979 13.7262 16.8457V18.3281ZM11.6476 16.5073C11.6476 15.9917 11.5509 15.5137 11.3575 15.0732C11.1642 14.6221 10.8956 14.23 10.5518 13.897C10.2188 13.564 9.82675 13.3008 9.37558 13.1074C8.93515 12.9141 8.45712 12.8174 7.9415 12.8174H2.80136V22.0181H7.9415C8.45712 22.0181 8.93515 21.9214 9.37558 21.728C9.82675 21.5347 10.2188 21.2715 10.5518 20.9385C10.8956 20.6055 11.1642 20.2188 11.3575 19.7783C11.5509 19.3271 11.6476 18.8438 11.6476 18.3281V16.5073ZM11.6476 6.58154C11.6476 6.06592 11.5509 5.58789 11.3575 5.14746C11.1642 4.69629 10.8956 4.3042 10.5518 3.97119C10.2188 3.62744 9.82675 3.35889 9.37558 3.16553C8.93515 2.97217 8.45712 2.87549 7.9415 2.87549H2.80136V10.8354H7.9415C8.45712 10.8354 8.93515 10.7388 9.37558 10.5454C9.82675 10.3521 10.2188 10.0889 10.5518 9.75586C10.8956 9.41211 11.1642 9.02002 11.3575 8.57959C11.5509 8.12842 11.6476 7.64502 11.6476 7.12939V6.58154ZM22.6561 24V0.893555H24.6381V24H22.6561ZM34.7282 3.53613V0.893555H37.0324V3.53613H34.7282ZM34.8894 24V7.5H36.8713V24H34.8894ZM51.6343 24H50.6514L44.8022 7.5H46.7842L51.0864 20.0039L51.1509 20.8579L51.2153 20.0039L55.5015 7.5H57.4834L51.6343 24ZM75.7752 19.4722C75.7752 20.1382 75.6463 20.7666 75.3885 21.3574C75.1414 21.9482 74.7977 22.4639 74.3572 22.9043C73.9168 23.3447 73.4012 23.6938 72.8103 23.9517C72.2195 24.1987 71.5911 24.3223 70.9251 24.3223H69.6038C68.9378 24.3223 68.3094 24.1987 67.7186 23.9517C67.1277 23.6938 66.6121 23.3447 66.1717 22.9043C65.7312 22.4639 65.3821 21.9482 65.1243 21.3574C64.8772 20.7666 64.7537 20.1382 64.7537 19.4722V12.0278C64.7537 11.3618 64.8772 10.7334 65.1243 10.1426C65.3821 9.55176 65.7312 9.03613 66.1717 8.5957C66.6121 8.15527 67.1277 7.81152 67.7186 7.56445C68.3094 7.30664 68.9378 7.17773 69.6038 7.17773H70.9251C71.5911 7.17773 72.2195 7.30664 72.8103 7.56445C73.4012 7.81152 73.9168 8.15527 74.3572 8.5957C74.7977 9.03613 75.1414 9.55176 75.3885 10.1426C75.6463 10.7334 75.7752 11.3618 75.7752 12.0278V15.9111H66.7356V19.585C66.7356 19.9824 66.8108 20.3584 66.9612 20.7129C67.1116 21.0566 67.3157 21.3574 67.5735 21.6152C67.8313 21.873 68.1321 22.0771 68.4759 22.2275C68.8304 22.3779 69.2063 22.4531 69.6038 22.4531H70.9251C71.3226 22.4531 71.6932 22.3779 72.0369 22.2275C72.3914 22.0771 72.6976 21.873 72.9554 21.6152C73.2132 21.3574 73.4173 21.0566 73.5677 20.7129C73.7181 20.3584 73.7933 19.9824 73.7933 19.585V18.4893L75.7752 18.8115V19.4722ZM73.7933 11.915C73.7933 11.5176 73.7181 11.147 73.5677 10.8032C73.4173 10.4487 73.2132 10.1426 72.9554 9.88477C72.6976 9.62695 72.3914 9.42285 72.0369 9.27246C71.6932 9.12207 71.3226 9.04688 70.9251 9.04688H69.6038C69.2063 9.04688 68.8304 9.12207 68.4759 9.27246C68.1321 9.42285 67.8313 9.62695 67.5735 9.88477C67.3157 10.1426 67.1116 10.4487 66.9612 10.8032C66.8108 11.147 66.7356 11.5176 66.7356 11.915V14.3643H73.7933V11.915ZM102.095 9.38525C101.697 9.38525 101.321 9.46045 100.967 9.61084C100.623 9.76123 100.322 9.96533 100.064 10.2231C99.8065 10.481 99.6024 10.7871 99.452 11.1416C99.3017 11.4854 99.2265 11.856 99.2265 12.2534V24H97.2445V7.5H97.9052L98.9848 9.17578C99.4359 8.56348 99.9999 8.08008 100.677 7.72559C101.364 7.36035 102.111 7.17773 102.916 7.17773H104.077V9.38525H102.095ZM112.169 3.53613V0.893555H114.473V3.53613H112.169ZM112.33 24V7.5H114.312V24H112.33ZM132.942 24V11.915C132.942 11.5176 132.867 11.147 132.716 10.8032C132.566 10.4487 132.362 10.1426 132.104 9.88477C131.846 9.62695 131.54 9.42285 131.186 9.27246C130.842 9.12207 130.471 9.04688 130.074 9.04688H128.752C128.355 9.04688 127.979 9.12207 127.625 9.27246C127.281 9.42285 126.98 9.62695 126.722 9.88477C126.464 10.1426 126.26 10.4487 126.11 10.8032C125.959 11.147 125.884 11.5176 125.884 11.915V24H123.902V7.5H124.563L125.643 9.17578C126.094 8.56348 126.658 8.08008 127.334 7.72559C128.022 7.36035 128.769 7.17773 129.574 7.17773H130.074C130.74 7.17773 131.368 7.30664 131.959 7.56445C132.55 7.81152 133.065 8.15527 133.506 8.5957C133.946 9.03613 134.29 9.55176 134.537 10.1426C134.795 10.7334 134.924 11.3618 134.924 12.0278V24H132.942ZM155.02 26.0786C155.02 26.7446 154.891 27.3569 154.634 27.9155C154.387 28.4741 154.043 28.9521 153.602 29.3496C153.162 29.7471 152.646 30.0532 152.055 30.2681C151.465 30.4937 150.836 30.6064 150.17 30.6064H149.348C148.682 30.6064 148.054 30.4937 147.463 30.2681C146.872 30.0532 146.357 29.7471 145.916 29.3496C145.476 28.9521 145.127 28.4741 144.869 27.9155C144.622 27.3569 144.498 26.7446 144.498 26.0786V26.0142C144.498 25.3696 144.617 24.7788 144.853 24.2417C145.089 23.7046 145.411 23.2373 145.82 22.8398C145.304 22.5283 144.89 22.1094 144.579 21.583C144.278 21.0459 144.128 20.4551 144.128 19.8105C144.128 19.2305 144.251 18.6934 144.498 18.1992C144.745 17.6943 145.084 17.2861 145.513 16.9746C144.998 16.5234 144.59 15.981 144.289 15.3472C143.988 14.7134 143.838 14.0205 143.838 13.2686V12.0278C143.838 11.3618 143.961 10.7334 144.208 10.1426C144.466 9.55176 144.815 9.03613 145.256 8.5957C145.696 8.15527 146.212 7.81152 146.803 7.56445C147.393 7.30664 148.022 7.17773 148.688 7.17773H149.51C150.315 7.17773 151.056 7.36035 151.733 7.72559C152.421 8.08008 152.99 8.56348 153.441 9.17578L154.521 7.5H155.181V13.2686C155.181 13.9346 155.053 14.563 154.795 15.1538C154.548 15.7446 154.204 16.2603 153.763 16.7007C153.323 17.1411 152.807 17.4902 152.217 17.748C151.626 17.9951 150.997 18.1187 150.331 18.1187H147.463C147.238 18.1187 147.023 18.167 146.819 18.2637C146.615 18.3496 146.432 18.4678 146.271 18.6182C146.12 18.7686 146.002 18.9512 145.916 19.166C145.83 19.3701 145.787 19.585 145.787 19.8105C145.787 20.0361 145.83 20.251 145.916 20.4551C146.002 20.6592 146.12 20.8418 146.271 21.0029C146.432 21.1533 146.615 21.2715 146.819 21.3574C147.023 21.4434 147.238 21.4863 147.463 21.4863H150.17C150.836 21.4863 151.465 21.5991 152.055 21.8247C152.646 22.0396 153.162 22.3457 153.602 22.7432C154.043 23.1406 154.387 23.6187 154.634 24.1772C154.891 24.7358 155.02 25.3481 155.02 26.0142V26.0786ZM153.216 11.915C153.216 11.5176 153.14 11.147 152.99 10.8032C152.84 10.4487 152.63 10.1426 152.362 9.88477C152.104 9.62695 151.798 9.42285 151.443 9.27246C151.099 9.12207 150.729 9.04688 150.331 9.04688H148.688C148.29 9.04688 147.914 9.12207 147.56 9.27246C147.216 9.42285 146.915 9.62695 146.658 9.88477C146.4 10.1426 146.196 10.4487 146.045 10.8032C145.895 11.147 145.82 11.5176 145.82 11.915V13.3813C145.82 13.7788 145.895 14.1548 146.045 14.5093C146.196 14.853 146.4 15.1538 146.658 15.4116C146.915 15.6694 147.216 15.8735 147.56 16.0239C147.914 16.1743 148.29 16.2495 148.688 16.2495H150.331C150.729 16.2495 151.099 16.1743 151.443 16.0239C151.798 15.8735 152.104 15.6694 152.362 15.4116C152.63 15.1538 152.84 14.853 152.99 14.5093C153.14 14.1548 153.216 13.7788 153.216 13.3813V11.915ZM153.135 25.9175C153.135 25.52 153.06 25.1602 152.909 24.8379C152.759 24.5264 152.555 24.2632 152.297 24.0483C152.039 23.8335 151.733 23.667 151.379 23.5488C151.035 23.4307 150.664 23.3716 150.267 23.3716H149.252C148.854 23.3716 148.478 23.4307 148.124 23.5488C147.78 23.667 147.479 23.8335 147.221 24.0483C146.964 24.2632 146.76 24.5264 146.609 24.8379C146.459 25.1602 146.384 25.52 146.384 25.9175V26.1753C146.384 26.5728 146.459 26.9272 146.609 27.2388C146.76 27.5503 146.964 27.8135 147.221 28.0283C147.479 28.2539 147.78 28.4258 148.124 28.5439C148.478 28.6621 148.854 28.7212 149.252 28.7212H150.267C150.664 28.7212 151.035 28.6621 151.379 28.5439C151.733 28.4258 152.039 28.2539 152.297 28.0283C152.555 27.8135 152.759 27.5503 152.909 27.2388C153.06 26.9272 153.135 26.5728 153.135 26.1753V25.9175ZM174.795 19.4722C174.795 20.1382 174.666 20.7666 174.408 21.3574C174.161 21.9482 173.817 22.4639 173.377 22.9043C172.936 23.3447 172.421 23.6938 171.83 23.9517C171.239 24.1987 170.61 24.3223 169.944 24.3223H168.623C167.957 24.3223 167.329 24.1987 166.738 23.9517C166.147 23.6938 165.631 23.3447 165.191 22.9043C164.751 22.4639 164.401 21.9482 164.144 21.3574C163.897 20.7666 163.773 20.1382 163.773 19.4722V12.0278C163.773 11.3618 163.897 10.7334 164.144 10.1426C164.401 9.55176 164.751 9.03613 165.191 8.5957C165.631 8.15527 166.147 7.81152 166.738 7.56445C167.329 7.30664 167.957 7.17773 168.623 7.17773H169.944C170.61 7.17773 171.239 7.30664 171.83 7.56445C172.421 7.81152 172.936 8.15527 173.377 8.5957C173.817 9.03613 174.161 9.55176 174.408 10.1426C174.666 10.7334 174.795 11.3618 174.795 12.0278V15.9111H165.755V19.585C165.755 19.9824 165.83 20.3584 165.981 20.7129C166.131 21.0566 166.335 21.3574 166.593 21.6152C166.851 21.873 167.151 22.0771 167.495 22.2275C167.85 22.3779 168.226 22.4531 168.623 22.4531H169.944C170.342 22.4531 170.712 22.3779 171.056 22.2275C171.411 22.0771 171.717 21.873 171.975 21.6152C172.233 21.3574 172.437 21.0566 172.587 20.7129C172.737 20.3584 172.813 19.9824 172.813 19.585V18.4893L174.795 18.8115V19.4722ZM172.813 11.915C172.813 11.5176 172.737 11.147 172.587 10.8032C172.437 10.4487 172.233 10.1426 171.975 9.88477C171.717 9.62695 171.411 9.42285 171.056 9.27246C170.712 9.12207 170.342 9.04688 169.944 9.04688H168.623C168.226 9.04688 167.85 9.12207 167.495 9.27246C167.151 9.42285 166.851 9.62695 166.593 9.88477C166.335 10.1426 166.131 10.4487 165.981 10.8032C165.83 11.147 165.755 11.5176 165.755 11.915V14.3643H172.813V11.915ZM194.069 24L192.974 22.3242C192.522 22.9365 191.958 23.4253 191.282 23.7905C190.605 24.145 189.864 24.3223 189.058 24.3223H188.558C187.892 24.3223 187.264 24.1987 186.673 23.9517C186.082 23.6938 185.567 23.3447 185.126 22.9043C184.686 22.4639 184.337 21.9482 184.079 21.3574C183.832 20.7666 183.708 20.1382 183.708 19.4722V12.0278C183.708 11.3618 183.832 10.7334 184.079 10.1426C184.337 9.55176 184.686 9.03613 185.126 8.5957C185.567 8.15527 186.082 7.81152 186.673 7.56445C187.264 7.30664 187.892 7.17773 188.558 7.17773H189.058C189.799 7.17773 190.487 7.32812 191.12 7.62891C191.754 7.92969 192.297 8.34863 192.748 8.88574V0.893555H194.73V24H194.069ZM192.748 11.915C192.748 11.5176 192.673 11.147 192.522 10.8032C192.372 10.4487 192.168 10.1426 191.91 9.88477C191.652 9.62695 191.346 9.42285 190.992 9.27246C190.648 9.12207 190.277 9.04688 189.88 9.04688H188.558C188.161 9.04688 187.785 9.12207 187.431 9.27246C187.087 9.42285 186.786 9.62695 186.528 9.88477C186.27 10.1426 186.066 10.4487 185.916 10.8032C185.766 11.147 185.69 11.5176 185.69 11.915V19.585C185.69 19.9824 185.766 20.3584 185.916 20.7129C186.066 21.0566 186.27 21.3574 186.528 21.6152C186.786 21.873 187.087 22.0771 187.431 22.2275C187.785 22.3779 188.161 22.4531 188.558 22.4531H189.88C190.277 22.4531 190.648 22.3779 190.992 22.2275C191.346 22.0771 191.652 21.873 191.91 21.6152C192.168 21.3574 192.372 21.0566 192.522 20.7129C192.673 20.3584 192.748 19.9824 192.748 19.585V11.915ZM214.665 19.4722C214.665 20.1382 214.536 20.7666 214.279 21.3574C214.031 21.9482 213.688 22.4639 213.247 22.9043C212.807 23.3447 212.291 23.6938 211.7 23.9517C211.11 24.1987 210.481 24.3223 209.815 24.3223H208.494C207.828 24.3223 207.199 24.1987 206.609 23.9517C206.018 23.6938 205.502 23.3447 205.062 22.9043C204.621 22.4639 204.272 21.9482 204.014 21.3574C203.767 20.7666 203.644 20.1382 203.644 19.4722V12.0278C203.644 11.3618 203.767 10.7334 204.014 10.1426C204.272 9.55176 204.621 9.03613 205.062 8.5957C205.502 8.15527 206.018 7.81152 206.609 7.56445C207.199 7.30664 207.828 7.17773 208.494 7.17773H209.815C210.481 7.17773 211.11 7.30664 211.7 7.56445C212.291 7.81152 212.807 8.15527 213.247 8.5957C213.688 9.03613 214.031 9.55176 214.279 10.1426C214.536 10.7334 214.665 11.3618 214.665 12.0278V15.9111H205.626V19.585C205.626 19.9824 205.701 20.3584 205.851 20.7129C206.002 21.0566 206.206 21.3574 206.464 21.6152C206.721 21.873 207.022 22.0771 207.366 22.2275C207.72 22.3779 208.096 22.4531 208.494 22.4531H209.815C210.213 22.4531 210.583 22.3779 210.927 22.2275C211.281 22.0771 211.588 21.873 211.845 21.6152C212.103 21.3574 212.307 21.0566 212.458 20.7129C212.608 20.3584 212.683 19.9824 212.683 19.585V18.4893L214.665 18.8115V19.4722ZM212.683 11.915C212.683 11.5176 212.608 11.147 212.458 10.8032C212.307 10.4487 212.103 10.1426 211.845 9.88477C211.588 9.62695 211.281 9.42285 210.927 9.27246C210.583 9.12207 210.213 9.04688 209.815 9.04688H208.494C208.096 9.04688 207.72 9.12207 207.366 9.27246C207.022 9.42285 206.721 9.62695 206.464 9.88477C206.206 10.1426 206.002 10.4487 205.851 10.8032C205.701 11.147 205.626 11.5176 205.626 11.915V14.3643H212.683V11.915ZM247.156 19.4722C247.156 20.1382 247.027 20.7666 246.769 21.3574C246.522 21.9482 246.179 22.4639 245.738 22.9043C245.298 23.3447 244.782 23.6938 244.191 23.9517C243.6 24.1987 242.972 24.3223 242.306 24.3223H240.985C240.319 24.3223 239.69 24.1987 239.099 23.9517C238.509 23.6938 237.993 23.3447 237.553 22.9043C237.112 22.4639 236.763 21.9482 236.505 21.3574C236.258 20.7666 236.135 20.1382 236.135 19.4722V12.0278C236.135 11.3618 236.258 10.7334 236.505 10.1426C236.763 9.55176 237.112 9.03613 237.553 8.5957C237.993 8.15527 238.509 7.81152 239.099 7.56445C239.69 7.30664 240.319 7.17773 240.985 7.17773H242.306C242.972 7.17773 243.6 7.30664 244.191 7.56445C244.782 7.81152 245.298 8.15527 245.738 8.5957C246.179 9.03613 246.522 9.55176 246.769 10.1426C247.027 10.7334 247.156 11.3618 247.156 12.0278V19.4722ZM245.174 11.915C245.174 11.5176 245.099 11.147 244.949 10.8032C244.798 10.4487 244.594 10.1426 244.336 9.88477C244.078 9.62695 243.772 9.42285 243.418 9.27246C243.074 9.12207 242.703 9.04688 242.306 9.04688H240.985C240.587 9.04688 240.211 9.12207 239.857 9.27246C239.513 9.42285 239.212 9.62695 238.954 9.88477C238.697 10.1426 238.492 10.4487 238.342 10.8032C238.192 11.147 238.117 11.5176 238.117 11.915V19.585C238.117 19.9824 238.192 20.3584 238.342 20.7129C238.492 21.0566 238.697 21.3574 238.954 21.6152C239.212 21.873 239.513 22.0771 239.857 22.2275C240.211 22.3779 240.587 22.4531 240.985 22.4531H242.306C242.703 22.4531 243.074 22.3779 243.418 22.2275C243.772 22.0771 244.078 21.873 244.336 21.6152C244.594 21.3574 244.798 21.0566 244.949 20.7129C245.099 20.3584 245.174 19.9824 245.174 19.585V11.915ZM267.091 19.4722C267.091 20.1382 266.962 20.7666 266.705 21.3574C266.458 21.9482 266.114 22.4639 265.673 22.9043C265.233 23.3447 264.717 23.6938 264.127 23.9517C263.536 24.1987 262.907 24.3223 262.241 24.3223H261.742C261.001 24.3223 260.313 24.1719 259.679 23.8711C259.046 23.5703 258.503 23.1514 258.052 22.6143V30.6064H256.07V7.5H256.731L257.81 9.17578C258.261 8.56348 258.825 8.08008 259.502 7.72559C260.19 7.36035 260.936 7.17773 261.742 7.17773H262.241C262.907 7.17773 263.536 7.30664 264.127 7.56445C264.717 7.81152 265.233 8.15527 265.673 8.5957C266.114 9.03613 266.458 9.55176 266.705 10.1426C266.962 10.7334 267.091 11.3618 267.091 12.0278V19.4722ZM265.109 11.915C265.109 11.5176 265.034 11.147 264.884 10.8032C264.733 10.4487 264.529 10.1426 264.272 9.88477C264.014 9.62695 263.708 9.42285 263.353 9.27246C263.009 9.12207 262.639 9.04688 262.241 9.04688H260.92C260.523 9.04688 260.147 9.12207 259.792 9.27246C259.448 9.42285 259.148 9.62695 258.89 9.88477C258.632 10.1426 258.428 10.4487 258.277 10.8032C258.127 11.147 258.052 11.5176 258.052 11.915V19.585C258.052 19.9824 258.127 20.3584 258.277 20.7129C258.428 21.0566 258.632 21.3574 258.89 21.6152C259.148 21.873 259.448 22.0771 259.792 22.2275C260.147 22.3779 260.523 22.4531 260.92 22.4531H262.241C262.639 22.4531 263.009 22.3779 263.353 22.2275C263.708 22.0771 264.014 21.873 264.272 21.6152C264.529 21.3574 264.733 21.0566 264.884 20.7129C265.034 20.3584 265.109 19.9824 265.109 19.585V11.915ZM278.052 17.0068H276.892L276.005 0.893555H278.938L278.052 17.0068ZM276.231 24V21.5186H278.712V24H276.231Z" fill="#910F29" fill-opacity="0.55"/>
</svg>
