<svg width="342" height="37" viewBox="0 0 342 37" fill="none" xmlns="http://www.w3.org/2000/svg">
<path d="M19.7715 26.4062C19.7715 27.5944 19.5436 28.7093 19.0879 29.751C18.6484 30.7926 18.0381 31.7041 17.2568 32.4854C16.4756 33.2666 15.556 33.8851 14.498 34.3408C13.4564 34.7803 12.3415 35 11.1533 35H0.0693359V-0.00976562H11.1533C12.3415 -0.00976562 13.4564 0.218099 14.498 0.673828C15.556 1.11328 16.4756 1.72363 17.2568 2.50488C18.0381 3.28613 18.6484 4.20573 19.0879 5.26367C19.5436 6.30534 19.7715 7.42025 19.7715 8.6084V8.9502C19.7715 9.78027 19.6576 10.5778 19.4297 11.3428C19.2181 12.0915 18.9089 12.7913 18.502 13.4424C18.0951 14.0934 17.6149 14.6875 17.0615 15.2246C16.5081 15.7454 15.8896 16.1849 15.2061 16.543C15.8896 16.901 16.5081 17.3486 17.0615 17.8857C17.6149 18.4066 18.0951 19.0007 18.502 19.668C18.9089 20.319 19.2181 21.027 19.4297 21.792C19.6576 22.5407 19.7715 23.3301 19.7715 24.1602V26.4062ZM16.6221 23.6475C16.6221 22.8662 16.4756 22.1419 16.1826 21.4746C15.8896 20.791 15.4827 20.1969 14.9619 19.6924C14.4574 19.1878 13.8633 18.7891 13.1797 18.4961C12.5124 18.2031 11.7881 18.0566 11.0068 18.0566H3.21875V31.9971H11.0068C11.7881 31.9971 12.5124 31.8506 13.1797 31.5576C13.8633 31.2646 14.4574 30.8659 14.9619 30.3613C15.4827 29.8568 15.8896 29.2708 16.1826 28.6035C16.4756 27.9199 16.6221 27.1875 16.6221 26.4062V23.6475ZM16.6221 8.6084C16.6221 7.82715 16.4756 7.10286 16.1826 6.43555C15.8896 5.75195 15.4827 5.15788 14.9619 4.65332C14.4574 4.13249 13.8633 3.72559 13.1797 3.43262C12.5124 3.13965 11.7881 2.99316 11.0068 2.99316H3.21875V15.0537H11.0068C11.7881 15.0537 12.5124 14.9072 13.1797 14.6143C13.8633 14.3213 14.4574 13.9225 14.9619 13.418C15.4827 12.8971 15.8896 12.3031 16.1826 11.6357C16.4756 10.9521 16.6221 10.2197 16.6221 9.43848V8.6084ZM49 28.1396C49 29.1488 48.8047 30.1009 48.4141 30.9961C48.0397 31.8913 47.5189 32.6725 46.8516 33.3398C46.1842 34.0072 45.403 34.5361 44.5078 34.9268C43.6126 35.3011 42.6605 35.4883 41.6514 35.4883H39.6494C38.6403 35.4883 37.6882 35.3011 36.793 34.9268C35.8978 34.5361 35.1165 34.0072 34.4492 33.3398C33.7819 32.6725 33.2529 31.8913 32.8623 30.9961C32.488 30.1009 32.3008 29.1488 32.3008 28.1396V16.8604C32.3008 15.8512 32.488 14.8991 32.8623 14.0039C33.2529 13.1087 33.7819 12.3275 34.4492 11.6602C35.1165 10.9928 35.8978 10.472 36.793 10.0977C37.6882 9.70703 38.6403 9.51172 39.6494 9.51172H41.6514C42.6605 9.51172 43.6126 9.70703 44.5078 10.0977C45.403 10.472 46.1842 10.9928 46.8516 11.6602C47.5189 12.3275 48.0397 13.1087 48.4141 14.0039C48.8047 14.8991 49 15.8512 49 16.8604V28.1396ZM45.9971 16.6895C45.9971 16.0872 45.8831 15.5257 45.6553 15.0049C45.4274 14.4678 45.1182 14.0039 44.7275 13.6133C44.3369 13.2227 43.873 12.9134 43.3359 12.6855C42.8151 12.4577 42.2536 12.3438 41.6514 12.3438H39.6494C39.0472 12.3438 38.4775 12.4577 37.9404 12.6855C37.4196 12.9134 36.9639 13.2227 36.5732 13.6133C36.1826 14.0039 35.8734 14.4678 35.6455 15.0049C35.4176 15.5257 35.3037 16.0872 35.3037 16.6895V28.3105C35.3037 28.9128 35.4176 29.4824 35.6455 30.0195C35.8734 30.5404 36.1826 30.9961 36.5732 31.3867C36.9639 31.7773 37.4196 32.0866 37.9404 32.3145C38.4775 32.5423 39.0472 32.6562 39.6494 32.6562H41.6514C42.2536 32.6562 42.8151 32.5423 43.3359 32.3145C43.873 32.0866 44.3369 31.7773 44.7275 31.3867C45.1182 30.9961 45.4274 30.5404 45.6553 30.0195C45.8831 29.4824 45.9971 28.9128 45.9971 28.3105V16.6895ZM79.2051 28.1396C79.2051 29.1488 79.0098 30.1009 78.6191 30.9961C78.2448 31.8913 77.724 32.6725 77.0566 33.3398C76.3893 34.0072 75.6081 34.5361 74.7129 34.9268C73.8177 35.3011 72.8656 35.4883 71.8564 35.4883H69.8545C68.8454 35.4883 67.8932 35.3011 66.998 34.9268C66.1029 34.5361 65.3216 34.0072 64.6543 33.3398C63.987 32.6725 63.458 31.8913 63.0674 30.9961C62.693 30.1009 62.5059 29.1488 62.5059 28.1396V16.8604C62.5059 15.8512 62.693 14.8991 63.0674 14.0039C63.458 13.1087 63.987 12.3275 64.6543 11.6602C65.3216 10.9928 66.1029 10.472 66.998 10.0977C67.8932 9.70703 68.8454 9.51172 69.8545 9.51172H71.8564C72.8656 9.51172 73.8177 9.70703 74.7129 10.0977C75.6081 10.472 76.3893 10.9928 77.0566 11.6602C77.724 12.3275 78.2448 13.1087 78.6191 14.0039C79.0098 14.8991 79.2051 15.8512 79.2051 16.8604V28.1396ZM76.2021 16.6895C76.2021 16.0872 76.0882 15.5257 75.8604 15.0049C75.6325 14.4678 75.3232 14.0039 74.9326 13.6133C74.542 13.2227 74.0781 12.9134 73.541 12.6855C73.0202 12.4577 72.4587 12.3438 71.8564 12.3438H69.8545C69.2523 12.3438 68.6826 12.4577 68.1455 12.6855C67.6247 12.9134 67.1689 13.2227 66.7783 13.6133C66.3877 14.0039 66.0785 14.4678 65.8506 15.0049C65.6227 15.5257 65.5088 16.0872 65.5088 16.6895V28.3105C65.5088 28.9128 65.6227 29.4824 65.8506 30.0195C66.0785 30.5404 66.3877 30.9961 66.7783 31.3867C67.1689 31.7773 67.6247 32.0866 68.1455 32.3145C68.6826 32.5423 69.2523 32.6562 69.8545 32.6562H71.8564C72.4587 32.6562 73.0202 32.5423 73.541 32.3145C74.0781 32.0866 74.542 31.7773 74.9326 31.3867C75.3232 30.9961 75.6325 30.5404 75.8604 30.0195C76.0882 29.4824 76.2021 28.9128 76.2021 28.3105V16.6895ZM107.506 35L97.3008 22.5L107.506 10H111.412L100.963 22.5L111.412 35H107.506ZM93.7119 35V-0.00976562H96.7148V35H93.7119ZM158.639 28.1396C158.639 29.1488 158.443 30.1009 158.053 30.9961C157.678 31.8913 157.158 32.6725 156.49 33.3398C155.823 34.0072 155.042 34.5361 154.146 34.9268C153.251 35.3011 152.299 35.4883 151.29 35.4883H149.288C148.279 35.4883 147.327 35.3011 146.432 34.9268C145.536 34.5361 144.755 34.0072 144.088 33.3398C143.421 32.6725 142.892 31.8913 142.501 30.9961C142.127 30.1009 141.939 29.1488 141.939 28.1396V16.8604C141.939 15.8512 142.127 14.8991 142.501 14.0039C142.892 13.1087 143.421 12.3275 144.088 11.6602C144.755 10.9928 145.536 10.472 146.432 10.0977C147.327 9.70703 148.279 9.51172 149.288 9.51172H151.29C152.299 9.51172 153.251 9.70703 154.146 10.0977C155.042 10.472 155.823 10.9928 156.49 11.6602C157.158 12.3275 157.678 13.1087 158.053 14.0039C158.443 14.8991 158.639 15.8512 158.639 16.8604V22.7441H144.942V28.3105C144.942 28.9128 145.056 29.4824 145.284 30.0195C145.512 30.5404 145.821 30.9961 146.212 31.3867C146.603 31.7773 147.058 32.0866 147.579 32.3145C148.116 32.5423 148.686 32.6562 149.288 32.6562H151.29C151.892 32.6562 152.454 32.5423 152.975 32.3145C153.512 32.0866 153.976 31.7773 154.366 31.3867C154.757 30.9961 155.066 30.5404 155.294 30.0195C155.522 29.4824 155.636 28.9128 155.636 28.3105V26.6504L158.639 27.1387V28.1396ZM155.636 16.6895C155.636 16.0872 155.522 15.5257 155.294 15.0049C155.066 14.4678 154.757 14.0039 154.366 13.6133C153.976 13.2227 153.512 12.9134 152.975 12.6855C152.454 12.4577 151.892 12.3438 151.29 12.3438H149.288C148.686 12.3438 148.116 12.4577 147.579 12.6855C147.058 12.9134 146.603 13.2227 146.212 13.6133C145.821 14.0039 145.512 14.4678 145.284 15.0049C145.056 15.5257 144.942 16.0872 144.942 16.6895V20.4004H155.636V16.6895ZM185.841 35V16.6895C185.841 16.0872 185.727 15.5257 185.499 15.0049C185.271 14.4678 184.962 14.0039 184.571 13.6133C184.181 13.2227 183.717 12.9134 183.18 12.6855C182.659 12.4577 182.097 12.3438 181.495 12.3438H179.493C178.891 12.3438 178.321 12.4577 177.784 12.6855C177.263 12.9134 176.808 13.2227 176.417 13.6133C176.026 14.0039 175.717 14.4678 175.489 15.0049C175.261 15.5257 175.147 16.0872 175.147 16.6895V35H172.145V10H173.146L174.781 12.5391C175.465 11.6113 176.319 10.8789 177.345 10.3418C178.386 9.78841 179.518 9.51172 180.738 9.51172H181.495C182.504 9.51172 183.456 9.70703 184.352 10.0977C185.247 10.472 186.028 10.9928 186.695 11.6602C187.363 12.3275 187.883 13.1087 188.258 14.0039C188.648 14.8991 188.844 15.8512 188.844 16.8604V35H185.841ZM247.765 35V16.6895C247.765 16.0872 247.651 15.5257 247.423 15.0049C247.195 14.4678 246.886 14.0039 246.495 13.6133C246.104 13.2227 245.641 12.9134 245.104 12.6855C244.583 12.4577 244.021 12.3438 243.419 12.3438H241.93C241.327 12.3438 240.758 12.4577 240.221 12.6855C239.7 12.9134 239.236 13.2227 238.829 13.6133C238.438 14.0039 238.129 14.4678 237.901 15.0049C237.674 15.5257 237.56 16.0872 237.56 16.6895V35H234.581V16.6895C234.581 16.0872 234.467 15.5257 234.239 15.0049C234.011 14.4678 233.694 14.0039 233.287 13.6133C232.896 13.2227 232.433 12.9134 231.896 12.6855C231.375 12.4577 230.813 12.3438 230.211 12.3438H228.722C228.119 12.3438 227.55 12.4577 227.013 12.6855C226.492 12.9134 226.036 13.2227 225.646 13.6133C225.255 14.0039 224.946 14.4678 224.718 15.0049C224.49 15.5257 224.376 16.0872 224.376 16.6895V35H221.373V10H222.374L224.01 12.5391C224.693 11.6113 225.548 10.8789 226.573 10.3418C227.615 9.78841 228.746 9.51172 229.967 9.51172H230.211C231.627 9.51172 232.905 9.86165 234.044 10.5615C235.183 11.2614 236.062 12.1891 236.681 13.3447C236.99 12.7751 237.372 12.2542 237.828 11.7822C238.284 11.3102 238.788 10.9115 239.342 10.5859C239.895 10.2441 240.497 9.98372 241.148 9.80469C241.799 9.60938 242.475 9.51172 243.175 9.51172H243.419C244.428 9.51172 245.38 9.70703 246.275 10.0977C247.171 10.472 247.952 10.9928 248.619 11.6602C249.286 12.3275 249.807 13.1087 250.182 14.0039C250.572 14.8991 250.768 15.8512 250.768 16.8604V35H247.765ZM262.76 36.4893L265.421 32.1436C264.656 30.988 264.273 29.6533 264.273 28.1396V16.8604C264.273 15.8512 264.461 14.8991 264.835 14.0039C265.226 13.1087 265.755 12.3275 266.422 11.6602C267.089 10.9928 267.87 10.472 268.766 10.0977C269.661 9.70703 270.613 9.51172 271.622 9.51172H273.624C274.503 9.51172 275.333 9.6582 276.114 9.95117C276.896 10.2441 277.595 10.6429 278.214 11.1475L279.874 8.51074H282.511L279.825 12.9053C280.167 13.4749 280.444 14.0934 280.655 14.7607C280.867 15.4281 280.973 16.1279 280.973 16.8604V28.1396C280.973 29.1488 280.777 30.1009 280.387 30.9961C280.012 31.8913 279.492 32.6725 278.824 33.3398C278.157 34.0072 277.376 34.5361 276.48 34.9268C275.585 35.3011 274.633 35.4883 273.624 35.4883H271.622C270.743 35.4883 269.913 35.3499 269.132 35.0732C268.351 34.7965 267.651 34.4059 267.032 33.9014L265.421 36.4893H262.76ZM267.276 28.3105C267.276 28.4408 267.276 28.5628 267.276 28.6768C267.276 28.7907 267.293 28.9128 267.325 29.043L276.725 13.6621C276.318 13.2552 275.846 12.9378 275.309 12.71C274.788 12.4658 274.226 12.3438 273.624 12.3438H271.622C271.02 12.3438 270.45 12.4577 269.913 12.6855C269.392 12.9134 268.937 13.2227 268.546 13.6133C268.155 14.0039 267.846 14.4678 267.618 15.0049C267.39 15.5257 267.276 16.0872 267.276 16.6895V28.3105ZM277.97 16.6895C277.97 16.5918 277.962 16.486 277.945 16.3721C277.929 16.2581 277.921 16.1523 277.921 16.0547L268.521 31.4111C268.928 31.8018 269.392 32.111 269.913 32.3389C270.45 32.5505 271.02 32.6562 271.622 32.6562H273.624C274.226 32.6562 274.788 32.5423 275.309 32.3145C275.846 32.0866 276.31 31.7773 276.7 31.3867C277.091 30.9961 277.4 30.5404 277.628 30.0195C277.856 29.4824 277.97 28.9128 277.97 28.3105V16.6895ZM310.226 35L308.565 32.4609C307.882 33.3887 307.027 34.1292 306.002 34.6826C304.977 35.2197 303.854 35.4883 302.633 35.4883H301.876C300.867 35.4883 299.915 35.3011 299.02 34.9268C298.124 34.5361 297.343 34.0072 296.676 33.3398C296.008 32.6725 295.479 31.8913 295.089 30.9961C294.715 30.1009 294.527 29.1488 294.527 28.1396V16.8604C294.527 15.8512 294.715 14.8991 295.089 14.0039C295.479 13.1087 296.008 12.3275 296.676 11.6602C297.343 10.9928 298.124 10.472 299.02 10.0977C299.915 9.70703 300.867 9.51172 301.876 9.51172H302.633C303.756 9.51172 304.798 9.73958 305.758 10.1953C306.718 10.651 307.54 11.2858 308.224 12.0996V-0.00976562H311.227V35H310.226ZM308.224 16.6895C308.224 16.0872 308.11 15.5257 307.882 15.0049C307.654 14.4678 307.345 14.0039 306.954 13.6133C306.563 13.2227 306.1 12.9134 305.562 12.6855C305.042 12.4577 304.48 12.3438 303.878 12.3438H301.876C301.274 12.3438 300.704 12.4577 300.167 12.6855C299.646 12.9134 299.19 13.2227 298.8 13.6133C298.409 14.0039 298.1 14.4678 297.872 15.0049C297.644 15.5257 297.53 16.0872 297.53 16.6895V28.3105C297.53 28.9128 297.644 29.4824 297.872 30.0195C298.1 30.5404 298.409 30.9961 298.8 31.3867C299.19 31.7773 299.646 32.0866 300.167 32.3145C300.704 32.5423 301.274 32.6562 301.876 32.6562H303.878C304.48 32.6562 305.042 32.5423 305.562 32.3145C306.1 32.0866 306.563 31.7773 306.954 31.3867C307.345 30.9961 307.654 30.5404 307.882 30.0195C308.11 29.4824 308.224 28.9128 308.224 28.3105V16.6895ZM341.432 28.1396C341.432 29.1488 341.236 30.1009 340.846 30.9961C340.471 31.8913 339.951 32.6725 339.283 33.3398C338.616 34.0072 337.835 34.5361 336.939 34.9268C336.044 35.3011 335.092 35.4883 334.083 35.4883H332.081C331.072 35.4883 330.12 35.3011 329.225 34.9268C328.329 34.5361 327.548 34.0072 326.881 33.3398C326.214 32.6725 325.685 31.8913 325.294 30.9961C324.92 30.1009 324.732 29.1488 324.732 28.1396V16.8604C324.732 15.8512 324.92 14.8991 325.294 14.0039C325.685 13.1087 326.214 12.3275 326.881 11.6602C327.548 10.9928 328.329 10.472 329.225 10.0977C330.12 9.70703 331.072 9.51172 332.081 9.51172H334.083C335.092 9.51172 336.044 9.70703 336.939 10.0977C337.835 10.472 338.616 10.9928 339.283 11.6602C339.951 12.3275 340.471 13.1087 340.846 14.0039C341.236 14.8991 341.432 15.8512 341.432 16.8604V22.7441H327.735V28.3105C327.735 28.9128 327.849 29.4824 328.077 30.0195C328.305 30.5404 328.614 30.9961 329.005 31.3867C329.396 31.7773 329.851 32.0866 330.372 32.3145C330.909 32.5423 331.479 32.6562 332.081 32.6562H334.083C334.685 32.6562 335.247 32.5423 335.768 32.3145C336.305 32.0866 336.769 31.7773 337.159 31.3867C337.55 30.9961 337.859 30.5404 338.087 30.0195C338.315 29.4824 338.429 28.9128 338.429 28.3105V26.6504L341.432 27.1387V28.1396ZM338.429 16.6895C338.429 16.0872 338.315 15.5257 338.087 15.0049C337.859 14.4678 337.55 14.0039 337.159 13.6133C336.769 13.2227 336.305 12.9134 335.768 12.6855C335.247 12.4577 334.685 12.3438 334.083 12.3438H332.081C331.479 12.3438 330.909 12.4577 330.372 12.6855C329.851 12.9134 329.396 13.2227 329.005 13.6133C328.614 14.0039 328.305 14.4678 328.077 15.0049C327.849 15.5257 327.735 16.0872 327.735 16.6895V20.4004H338.429V16.6895Z" fill="#DDDDDD" fill-opacity="0.866667"/>
</svg>
