<svg width="64" height="19" viewBox="0 0 64 19" fill="none" xmlns="http://www.w3.org/2000/svg">
<path d="M9.13086 14.5698C9.13086 15.0744 9.0332 15.5505 8.83789 15.998C8.65072 16.4456 8.3903 16.8363 8.05664 17.1699C7.72298 17.5036 7.33236 17.7681 6.88477 17.9634C6.43717 18.1506 5.9611 18.2441 5.45654 18.2441H4.45557C3.95101 18.2441 3.47493 18.1506 3.02734 17.9634C2.57975 17.7681 2.18913 17.5036 1.85547 17.1699C1.52181 16.8363 1.25732 16.4456 1.06201 15.998C0.874837 15.5505 0.78125 15.0744 0.78125 14.5698V8.93018C0.78125 8.42562 0.874837 7.94954 1.06201 7.50195C1.25732 7.05436 1.52181 6.66374 1.85547 6.33008C2.18913 5.99642 2.57975 5.736 3.02734 5.54883C3.47493 5.35352 3.95101 5.25586 4.45557 5.25586H5.45654C5.9611 5.25586 6.43717 5.35352 6.88477 5.54883C7.33236 5.736 7.72298 5.99642 8.05664 6.33008C8.3903 6.66374 8.65072 7.05436 8.83789 7.50195C9.0332 7.94954 9.13086 8.42562 9.13086 8.93018V11.8721H2.28271V14.6553C2.28271 14.9564 2.33968 15.2412 2.45361 15.5098C2.56755 15.7702 2.72217 15.998 2.91748 16.1934C3.11279 16.3887 3.34066 16.5433 3.60107 16.6572C3.86963 16.7712 4.15446 16.8281 4.45557 16.8281H5.45654C5.75765 16.8281 6.03841 16.7712 6.29883 16.6572C6.56738 16.5433 6.79932 16.3887 6.99463 16.1934C7.18994 15.998 7.34456 15.7702 7.4585 15.5098C7.57243 15.2412 7.62939 14.9564 7.62939 14.6553V13.8252L9.13086 14.0693V14.5698ZM7.62939 8.84473C7.62939 8.54362 7.57243 8.26286 7.4585 8.00244C7.34456 7.73389 7.18994 7.50195 6.99463 7.30664C6.79932 7.11133 6.56738 6.95671 6.29883 6.84277C6.03841 6.72884 5.75765 6.67188 5.45654 6.67188H4.45557C4.15446 6.67188 3.86963 6.72884 3.60107 6.84277C3.34066 6.95671 3.11279 7.11133 2.91748 7.30664C2.72217 7.50195 2.56755 7.73389 2.45361 8.00244C2.33968 8.26286 2.28271 8.54362 2.28271 8.84473V10.7002H7.62939V8.84473ZM29.0796 18V8.84473C29.0796 8.54362 29.0226 8.26286 28.9087 8.00244C28.7948 7.73389 28.6401 7.50195 28.4448 7.30664C28.2495 7.11133 28.0176 6.95671 27.749 6.84277C27.4886 6.72884 27.2078 6.67188 26.9067 6.67188H26.1621C25.861 6.67188 25.5762 6.72884 25.3076 6.84277C25.0472 6.95671 24.8153 7.11133 24.6118 7.30664C24.4165 7.50195 24.2619 7.73389 24.1479 8.00244C24.034 8.26286 23.9771 8.54362 23.9771 8.84473V18H22.4878V8.84473C22.4878 8.54362 22.4308 8.26286 22.3169 8.00244C22.203 7.73389 22.0443 7.50195 21.8408 7.30664C21.6455 7.11133 21.4136 6.95671 21.145 6.84277C20.8846 6.72884 20.6038 6.67188 20.3027 6.67188H19.5581C19.257 6.67188 18.9722 6.72884 18.7036 6.84277C18.4432 6.95671 18.2153 7.11133 18.02 7.30664C17.8247 7.50195 17.6701 7.73389 17.5562 8.00244C17.4422 8.26286 17.3853 8.54362 17.3853 8.84473V18H15.8838V5.5H16.3843L17.2021 6.76953C17.5439 6.30566 17.9712 5.93945 18.4839 5.6709C19.0047 5.39421 19.5703 5.25586 20.1807 5.25586H20.3027C21.0107 5.25586 21.6496 5.43083 22.2192 5.78076C22.7889 6.1307 23.2284 6.59456 23.5376 7.17236C23.6922 6.88753 23.8835 6.62712 24.1113 6.39111C24.3392 6.15511 24.5915 5.95573 24.8682 5.79297C25.1449 5.62207 25.446 5.49186 25.7715 5.40234C26.097 5.30469 26.4347 5.25586 26.7847 5.25586H26.9067C27.4113 5.25586 27.8874 5.35352 28.335 5.54883C28.7826 5.736 29.1732 5.99642 29.5068 6.33008C29.8405 6.66374 30.1009 7.05436 30.2881 7.50195C30.4834 7.94954 30.5811 8.42562 30.5811 8.93018V18H29.0796ZM45.1831 18L44.353 16.7549C44.0112 17.2025 43.584 17.5646 43.0713 17.8413C42.5586 18.1099 41.9971 18.2441 41.3867 18.2441H41.0083C40.5037 18.2441 40.0277 18.1506 39.5801 17.9634C39.1325 17.7681 38.7419 17.5036 38.4082 17.1699C38.0745 16.8363 37.8101 16.4456 37.6147 15.998C37.4276 15.5505 37.334 15.0744 37.334 14.5698V14.4478C37.334 13.9432 37.4276 13.4671 37.6147 13.0195C37.8101 12.5719 38.0745 12.1813 38.4082 11.8477C38.7419 11.514 39.1325 11.2536 39.5801 11.0664C40.0277 10.8711 40.5037 10.7734 41.0083 10.7734H44.1821V8.84473C44.1821 8.54362 44.1252 8.26286 44.0112 8.00244C43.8973 7.73389 43.7427 7.50195 43.5474 7.30664C43.3521 7.11133 43.1201 6.95671 42.8516 6.84277C42.5911 6.72884 42.3104 6.67188 42.0093 6.67188H41.1304C40.8293 6.67188 40.5444 6.72884 40.2759 6.84277C40.0155 6.95671 39.7876 7.11133 39.5923 7.30664C39.397 7.50195 39.2424 7.73389 39.1284 8.00244C39.0145 8.26286 38.9575 8.54362 38.9575 8.84473V9.29639L37.4561 9.05225V8.93018C37.4561 8.42562 37.5496 7.94954 37.7368 7.50195C37.9321 7.05436 38.1966 6.66374 38.5303 6.33008C38.8639 5.99642 39.2546 5.736 39.7021 5.54883C40.1497 5.35352 40.6258 5.25586 41.1304 5.25586H42.0093C42.5138 5.25586 42.9899 5.35352 43.4375 5.54883C43.8851 5.736 44.2757 5.99642 44.6094 6.33008C44.943 6.66374 45.2035 7.05436 45.3906 7.50195C45.5859 7.94954 45.6836 8.42562 45.6836 8.93018V18H45.1831ZM44.1821 11.9453H41.0083C40.7072 11.9453 40.4224 12.0023 40.1538 12.1162C39.8934 12.2301 39.6655 12.3888 39.4702 12.5923C39.2749 12.7876 39.1203 13.0195 39.0063 13.2881C38.8924 13.5485 38.8354 13.8293 38.8354 14.1304V14.6553C38.8354 14.9564 38.8924 15.2412 39.0063 15.5098C39.1203 15.7702 39.2749 15.998 39.4702 16.1934C39.6655 16.3887 39.8934 16.5433 40.1538 16.6572C40.4224 16.7712 40.7072 16.8281 41.0083 16.8281H42.0093C42.3104 16.8281 42.5911 16.7712 42.8516 16.6572C43.1201 16.5433 43.3521 16.3887 43.5474 16.1934C43.7427 15.998 43.8973 15.7702 44.0112 15.5098C44.1252 15.2412 44.1821 14.9564 44.1821 14.6553V11.9453ZM52.8149 2.49707V0.495117H54.5605V2.49707H52.8149ZM52.937 18V5.5H54.4385V18H52.937ZM62.2046 18V0.495117H63.7061V18H62.2046Z" fill="#910F29" fill-opacity="0.5"/>
</svg>
