<svg width="727" height="46" viewBox="0 0 727 46" fill="none" xmlns="http://www.w3.org/2000/svg">
<path d="M16.8555 36V20.0088H3.45215V36H0.302734V0.990234H3.45215V17.0059H16.8555V0.990234H20.0049V36H16.8555ZM42.373 36H40.8838L32.0215 11H35.0244L41.543 29.9453L41.6406 31.2393L41.7383 29.9453L48.2324 11H51.2354L42.373 36ZM77.9492 36L76.2891 33.5098C75.6055 34.4049 74.751 35.1292 73.7256 35.6826C72.7002 36.2197 71.5771 36.4883 70.3564 36.4883H69.5996C68.5905 36.4883 67.6383 36.3011 66.7432 35.9268C65.848 35.5361 65.0667 35.0072 64.3994 34.3398C63.7321 33.6725 63.2031 32.8913 62.8125 31.9961C62.4382 31.1009 62.251 30.1488 62.251 29.1396V28.8955C62.251 27.8864 62.4382 26.9342 62.8125 26.0391C63.2031 25.1439 63.7321 24.3626 64.3994 23.6953C65.0667 23.028 65.848 22.5072 66.7432 22.1328C67.6383 21.7422 68.5905 21.5469 69.5996 21.5469H75.9473V17.6895C75.9473 17.0872 75.8333 16.5257 75.6055 16.0049C75.3776 15.4678 75.0684 15.0039 74.6777 14.6133C74.2871 14.2227 73.8232 13.9134 73.2861 13.6855C72.7653 13.4577 72.2038 13.3438 71.6016 13.3438H69.8438C69.2415 13.3438 68.6719 13.4577 68.1348 13.6855C67.6139 13.9134 67.1582 14.2227 66.7676 14.6133C66.377 15.0039 66.0677 15.4678 65.8398 16.0049C65.612 16.5257 65.498 17.0872 65.498 17.6895V18.5928L62.4951 18.1045V17.8604C62.4951 16.8512 62.6823 15.8991 63.0566 15.0039C63.4473 14.1087 63.9762 13.3275 64.6436 12.6602C65.3109 11.9928 66.0921 11.472 66.9873 11.0977C67.8825 10.707 68.8346 10.5117 69.8438 10.5117H71.6016C72.6107 10.5117 73.5628 10.707 74.458 11.0977C75.3532 11.472 76.1344 11.9928 76.8018 12.6602C77.4691 13.3275 77.9899 14.1087 78.3643 15.0039C78.7549 15.8991 78.9502 16.8512 78.9502 17.8604V36H77.9492ZM75.9473 23.8906H69.5996C68.9974 23.8906 68.4277 24.0046 67.8906 24.2324C67.3698 24.4603 66.9141 24.7777 66.5234 25.1846C66.1328 25.5752 65.8236 26.0391 65.5957 26.5762C65.3678 27.097 65.2539 27.6585 65.2539 28.2607V29.3105C65.2539 29.9128 65.3678 30.4824 65.5957 31.0195C65.8236 31.5404 66.1328 31.9961 66.5234 32.3867C66.9141 32.7773 67.3698 33.0866 67.8906 33.3145C68.4277 33.5423 68.9974 33.6562 69.5996 33.6562H71.6016C72.2038 33.6562 72.7653 33.5423 73.2861 33.3145C73.8232 33.0866 74.2871 32.7773 74.6777 32.3867C75.0684 31.9961 75.3776 31.5404 75.6055 31.0195C75.8333 30.4824 75.9473 29.9128 75.9473 29.3105V23.8906ZM108.154 36L106.494 33.4609C105.811 34.3887 104.956 35.1292 103.931 35.6826C102.905 36.2197 101.782 36.4883 100.562 36.4883H99.8047C98.7956 36.4883 97.8434 36.3011 96.9482 35.9268C96.0531 35.5361 95.2718 35.0072 94.6045 34.3398C93.9372 33.6725 93.4082 32.8913 93.0176 31.9961C92.6432 31.1009 92.4561 30.1488 92.4561 29.1396V17.8604C92.4561 16.8512 92.6432 15.8991 93.0176 15.0039C93.4082 14.1087 93.9372 13.3275 94.6045 12.6602C95.2718 11.9928 96.0531 11.472 96.9482 11.0977C97.8434 10.707 98.7956 10.5117 99.8047 10.5117H100.562C101.685 10.5117 102.726 10.7396 103.687 11.1953C104.647 11.651 105.469 12.2858 106.152 13.0996V0.990234H109.155V36H108.154ZM106.152 17.6895C106.152 17.0872 106.038 16.5257 105.811 16.0049C105.583 15.4678 105.273 15.0039 104.883 14.6133C104.492 14.2227 104.028 13.9134 103.491 13.6855C102.97 13.4577 102.409 13.3438 101.807 13.3438H99.8047C99.2025 13.3438 98.6328 13.4577 98.0957 13.6855C97.5749 13.9134 97.1191 14.2227 96.7285 14.6133C96.3379 15.0039 96.0286 15.4678 95.8008 16.0049C95.5729 16.5257 95.459 17.0872 95.459 17.6895V29.3105C95.459 29.9128 95.5729 30.4824 95.8008 31.0195C96.0286 31.5404 96.3379 31.9961 96.7285 32.3867C97.1191 32.7773 97.5749 33.0866 98.0957 33.3145C98.6328 33.5423 99.2025 33.6562 99.8047 33.6562H101.807C102.409 33.6562 102.97 33.5423 103.491 33.3145C104.028 33.0866 104.492 32.7773 104.883 32.3867C105.273 31.9961 105.583 31.5404 105.811 31.0195C106.038 30.4824 106.152 29.9128 106.152 29.3105V17.6895ZM156.479 36L146.274 23.5L156.479 11H160.386L149.937 23.5L160.386 36H156.479ZM142.686 36V0.990234H145.688V36H142.686ZM187.588 36L185.928 33.5098C185.244 34.4049 184.39 35.1292 183.364 35.6826C182.339 36.2197 181.216 36.4883 179.995 36.4883H179.238C178.229 36.4883 177.277 36.3011 176.382 35.9268C175.487 35.5361 174.705 35.0072 174.038 34.3398C173.371 33.6725 172.842 32.8913 172.451 31.9961C172.077 31.1009 171.89 30.1488 171.89 29.1396V28.8955C171.89 27.8864 172.077 26.9342 172.451 26.0391C172.842 25.1439 173.371 24.3626 174.038 23.6953C174.705 23.028 175.487 22.5072 176.382 22.1328C177.277 21.7422 178.229 21.5469 179.238 21.5469H185.586V17.6895C185.586 17.0872 185.472 16.5257 185.244 16.0049C185.016 15.4678 184.707 15.0039 184.316 14.6133C183.926 14.2227 183.462 13.9134 182.925 13.6855C182.404 13.4577 181.842 13.3438 181.24 13.3438H179.482C178.88 13.3438 178.311 13.4577 177.773 13.6855C177.253 13.9134 176.797 14.2227 176.406 14.6133C176.016 15.0039 175.706 15.4678 175.479 16.0049C175.251 16.5257 175.137 17.0872 175.137 17.6895V18.5928L172.134 18.1045V17.8604C172.134 16.8512 172.321 15.8991 172.695 15.0039C173.086 14.1087 173.615 13.3275 174.282 12.6602C174.95 11.9928 175.731 11.472 176.626 11.0977C177.521 10.707 178.473 10.5117 179.482 10.5117H181.24C182.249 10.5117 183.201 10.707 184.097 11.0977C184.992 11.472 185.773 11.9928 186.44 12.6602C187.108 13.3275 187.629 14.1087 188.003 15.0039C188.394 15.8991 188.589 16.8512 188.589 17.8604V36H187.588ZM185.586 23.8906H179.238C178.636 23.8906 178.066 24.0046 177.529 24.2324C177.008 24.4603 176.553 24.7777 176.162 25.1846C175.771 25.5752 175.462 26.0391 175.234 26.5762C175.007 27.097 174.893 27.6585 174.893 28.2607V29.3105C174.893 29.9128 175.007 30.4824 175.234 31.0195C175.462 31.5404 175.771 31.9961 176.162 32.3867C176.553 32.7773 177.008 33.0866 177.529 33.3145C178.066 33.5423 178.636 33.6562 179.238 33.6562H181.24C181.842 33.6562 182.404 33.5423 182.925 33.3145C183.462 33.0866 183.926 32.7773 184.316 32.3867C184.707 31.9961 185.016 31.5404 185.244 31.0195C185.472 30.4824 185.586 29.9128 185.586 29.3105V23.8906ZM215.791 36V17.6895C215.791 17.0872 215.677 16.5257 215.449 16.0049C215.221 15.4678 214.912 15.0039 214.521 14.6133C214.131 14.2227 213.667 13.9134 213.13 13.6855C212.609 13.4577 212.048 13.3438 211.445 13.3438H209.443C208.841 13.3438 208.271 13.4577 207.734 13.6855C207.214 13.9134 206.758 14.2227 206.367 14.6133C205.977 15.0039 205.667 15.4678 205.439 16.0049C205.212 16.5257 205.098 17.0872 205.098 17.6895V36H202.095V11H203.096L204.731 13.5391C205.415 12.6113 206.27 11.8789 207.295 11.3418C208.337 10.7884 209.468 10.5117 210.688 10.5117H211.445C212.454 10.5117 213.407 10.707 214.302 11.0977C215.197 11.472 215.978 11.9928 216.646 12.6602C217.313 13.3275 217.834 14.1087 218.208 15.0039C218.599 15.8991 218.794 16.8512 218.794 17.8604V36H215.791ZM259.16 36H257.671L248.809 11H251.812L258.33 29.9453L258.428 31.2393L258.525 29.9453L265.02 11H268.022L259.16 36ZM279.795 4.99414V0.990234H283.286V4.99414H279.795ZM280.039 36V11H283.042V36H280.039ZM330.293 36V17.6895C330.293 17.0872 330.179 16.5257 329.951 16.0049C329.723 15.4678 329.414 15.0039 329.023 14.6133C328.633 14.2227 328.169 13.9134 327.632 13.6855C327.111 13.4577 326.549 13.3438 325.947 13.3438H323.945C323.343 13.3438 322.773 13.4577 322.236 13.6855C321.715 13.9134 321.26 14.2227 320.869 14.6133C320.479 15.0039 320.169 15.4678 319.941 16.0049C319.714 16.5257 319.6 17.0872 319.6 17.6895V36H316.597V0.990234H319.6V13.0996C320.283 12.2858 321.105 11.651 322.065 11.1953C323.026 10.7396 324.067 10.5117 325.19 10.5117H325.947C326.956 10.5117 327.909 10.707 328.804 11.0977C329.699 11.472 330.48 11.9928 331.147 12.6602C331.815 13.3275 332.336 14.1087 332.71 15.0039C333.101 15.8991 333.296 16.8512 333.296 17.8604V36H330.293ZM347.559 4.99414V0.990234H351.05V4.99414H347.559ZM350.806 38.6611C350.806 39.6702 350.61 40.6143 350.22 41.4932C349.845 42.3883 349.325 43.1696 348.657 43.8369C347.99 44.5042 347.209 45.0332 346.313 45.4238C345.418 45.8145 344.466 46.0098 343.457 46.0098V43.1533C344.059 43.1533 344.621 43.0394 345.142 42.8115C345.679 42.5837 346.143 42.2744 346.533 41.8838C346.924 41.4932 347.233 41.0293 347.461 40.4922C347.689 39.9714 347.803 39.4098 347.803 38.8076V11H350.806V38.6611ZM395.732 29.1396C395.732 30.1488 395.537 31.1009 395.146 31.9961C394.772 32.8913 394.251 33.6725 393.584 34.3398C392.917 35.0072 392.135 35.5361 391.24 35.9268C390.345 36.3011 389.393 36.4883 388.384 36.4883H386.382C385.698 36.4883 385.031 36.3988 384.38 36.2197C383.745 36.0407 383.151 35.7884 382.598 35.4629C382.044 35.1374 381.54 34.7467 381.084 34.291C380.628 33.819 380.246 33.3063 379.937 32.7529C379.481 33.4854 378.993 34.0957 378.472 34.584C377.967 35.056 377.43 35.4385 376.86 35.7314C376.307 36.0081 375.737 36.2035 375.151 36.3174C374.582 36.4313 374.012 36.4883 373.442 36.4883H372.686C371.676 36.4883 370.724 36.3011 369.829 35.9268C368.934 35.5361 368.153 35.0072 367.485 34.3398C366.818 33.6725 366.289 32.8913 365.898 31.9961C365.524 31.1009 365.337 30.1488 365.337 29.1396V28.8955C365.337 27.8864 365.524 26.9342 365.898 26.0391C366.289 25.1439 366.818 24.3626 367.485 23.6953C368.153 23.028 368.934 22.5072 369.829 22.1328C370.724 21.7422 371.676 21.5469 372.686 21.5469H379.033V17.543C379.017 16.9733 378.887 16.4362 378.643 15.9316C378.415 15.4108 378.105 14.9632 377.715 14.5889C377.324 14.1982 376.868 13.8971 376.348 13.6855C375.827 13.4577 375.273 13.3438 374.688 13.3438H372.93C372.327 13.3438 371.758 13.4577 371.221 13.6855C370.7 13.9134 370.244 14.2227 369.854 14.6133C369.463 15.0039 369.154 15.4678 368.926 16.0049C368.698 16.5257 368.584 17.0872 368.584 17.6895V18.5928L365.581 18.1045V17.8604C365.581 16.8512 365.768 15.8991 366.143 15.0039C366.533 14.1087 367.062 13.3275 367.729 12.6602C368.397 11.9928 369.178 11.472 370.073 11.0977C370.968 10.707 371.921 10.5117 372.93 10.5117H374.688C375.859 10.5117 376.95 10.7803 377.959 11.3174C378.984 11.8382 379.839 12.5462 380.522 13.4414C381.206 12.5462 382.052 11.8382 383.062 11.3174C384.071 10.7803 385.177 10.5117 386.382 10.5117H388.384C389.393 10.5117 390.345 10.707 391.24 11.0977C392.135 11.472 392.917 11.9928 393.584 12.6602C394.251 13.3275 394.772 14.1087 395.146 15.0039C395.537 15.8991 395.732 16.8512 395.732 17.8604V23.7441H382.036V29.3105C382.036 29.9128 382.15 30.4824 382.378 31.0195C382.606 31.5404 382.915 31.9961 383.306 32.3867C383.696 32.7773 384.152 33.0866 384.673 33.3145C385.21 33.5423 385.78 33.6562 386.382 33.6562H388.384C388.986 33.6562 389.548 33.5423 390.068 33.3145C390.605 33.0866 391.069 32.7773 391.46 32.3867C391.851 31.9961 392.16 31.5404 392.388 31.0195C392.616 30.4824 392.729 29.9128 392.729 29.3105V27.6504L395.732 28.1387V29.1396ZM379.033 23.8906H372.686C372.083 23.8906 371.514 24.0046 370.977 24.2324C370.456 24.4603 370 24.7777 369.609 25.1846C369.219 25.5752 368.91 26.0391 368.682 26.5762C368.454 27.097 368.34 27.6585 368.34 28.2607V29.3105C368.34 29.9128 368.454 30.4824 368.682 31.0195C368.91 31.5404 369.219 31.9961 369.609 32.3867C370 32.7773 370.456 33.0866 370.977 33.3145C371.514 33.5423 372.083 33.6562 372.686 33.6562H374.688C375.29 33.6562 375.851 33.5423 376.372 33.3145C376.909 33.0866 377.373 32.7773 377.764 32.3867C378.154 31.9961 378.464 31.5404 378.691 31.0195C378.919 30.4824 379.033 29.9128 379.033 29.3105V23.8906ZM392.729 17.6895C392.729 17.0872 392.616 16.5257 392.388 16.0049C392.16 15.4678 391.851 15.0039 391.46 14.6133C391.069 14.2227 390.605 13.9134 390.068 13.6855C389.548 13.4577 388.986 13.3438 388.384 13.3438H386.382C385.796 13.3438 385.243 13.4577 384.722 13.6855C384.201 13.8971 383.745 14.1982 383.354 14.5889C382.964 14.9632 382.646 15.4108 382.402 15.9316C382.174 16.4362 382.052 16.9733 382.036 17.543V21.4004H392.729V17.6895ZM410.264 36V0.990234H413.267V36H410.264ZM444.497 29.1396C444.497 30.1488 444.302 31.1009 443.911 31.9961C443.537 32.8913 443.016 33.6725 442.349 34.3398C441.681 35.0072 440.9 35.5361 440.005 35.9268C439.11 36.3011 438.158 36.4883 437.148 36.4883H436.392C435.269 36.4883 434.227 36.2604 433.267 35.8047C432.306 35.349 431.484 34.7142 430.801 33.9004V46.0098H427.798V11H428.799L430.435 13.5391C431.118 12.6113 431.973 11.8789 432.998 11.3418C434.04 10.7884 435.171 10.5117 436.392 10.5117H437.148C438.158 10.5117 439.11 10.707 440.005 11.0977C440.9 11.472 441.681 11.9928 442.349 12.6602C443.016 13.3275 443.537 14.1087 443.911 15.0039C444.302 15.8991 444.497 16.8512 444.497 17.8604V29.1396ZM441.494 17.6895C441.494 17.0872 441.38 16.5257 441.152 16.0049C440.924 15.4678 440.615 15.0039 440.225 14.6133C439.834 14.2227 439.37 13.9134 438.833 13.6855C438.312 13.4577 437.751 13.3438 437.148 13.3438H435.146C434.544 13.3438 433.975 13.4577 433.438 13.6855C432.917 13.9134 432.461 14.2227 432.07 14.6133C431.68 15.0039 431.37 15.4678 431.143 16.0049C430.915 16.5257 430.801 17.0872 430.801 17.6895V29.3105C430.801 29.9128 430.915 30.4824 431.143 31.0195C431.37 31.5404 431.68 31.9961 432.07 32.3867C432.461 32.7773 432.917 33.0866 433.438 33.3145C433.975 33.5423 434.544 33.6562 435.146 33.6562H437.148C437.751 33.6562 438.312 33.5423 438.833 33.3145C439.37 33.0866 439.834 32.7773 440.225 32.3867C440.615 31.9961 440.924 31.5404 441.152 31.0195C441.38 30.4824 441.494 29.9128 441.494 29.3105V17.6895ZM474.702 29.1396C474.702 30.1488 474.507 31.1009 474.116 31.9961C473.742 32.8913 473.221 33.6725 472.554 34.3398C471.886 35.0072 471.105 35.5361 470.21 35.9268C469.315 36.3011 468.363 36.4883 467.354 36.4883H465.352C464.342 36.4883 463.39 36.3011 462.495 35.9268C461.6 35.5361 460.819 35.0072 460.151 34.3398C459.484 33.6725 458.955 32.8913 458.564 31.9961C458.19 31.1009 458.003 30.1488 458.003 29.1396V17.8604C458.003 16.8512 458.19 15.8991 458.564 15.0039C458.955 14.1087 459.484 13.3275 460.151 12.6602C460.819 11.9928 461.6 11.472 462.495 11.0977C463.39 10.707 464.342 10.5117 465.352 10.5117H467.354C468.363 10.5117 469.315 10.707 470.21 11.0977C471.105 11.472 471.886 11.9928 472.554 12.6602C473.221 13.3275 473.742 14.1087 474.116 15.0039C474.507 15.8991 474.702 16.8512 474.702 17.8604V23.7441H461.006V29.3105C461.006 29.9128 461.12 30.4824 461.348 31.0195C461.576 31.5404 461.885 31.9961 462.275 32.3867C462.666 32.7773 463.122 33.0866 463.643 33.3145C464.18 33.5423 464.749 33.6562 465.352 33.6562H467.354C467.956 33.6562 468.517 33.5423 469.038 33.3145C469.575 33.0866 470.039 32.7773 470.43 32.3867C470.82 31.9961 471.13 31.5404 471.357 31.0195C471.585 30.4824 471.699 29.9128 471.699 29.3105V27.6504L474.702 28.1387V29.1396ZM471.699 17.6895C471.699 17.0872 471.585 16.5257 471.357 16.0049C471.13 15.4678 470.82 15.0039 470.43 14.6133C470.039 14.2227 469.575 13.9134 469.038 13.6855C468.517 13.4577 467.956 13.3438 467.354 13.3438H465.352C464.749 13.3438 464.18 13.4577 463.643 13.6855C463.122 13.9134 462.666 14.2227 462.275 14.6133C461.885 15.0039 461.576 15.4678 461.348 16.0049C461.12 16.5257 461.006 17.0872 461.006 17.6895V21.4004H471.699V17.6895ZM522.93 36L521.27 33.4609C520.586 34.3887 519.731 35.1292 518.706 35.6826C517.681 36.2197 516.558 36.4883 515.337 36.4883H514.58C513.571 36.4883 512.619 36.3011 511.724 35.9268C510.828 35.5361 510.047 35.0072 509.38 34.3398C508.713 33.6725 508.184 32.8913 507.793 31.9961C507.419 31.1009 507.231 30.1488 507.231 29.1396V17.8604C507.231 16.8512 507.419 15.8991 507.793 15.0039C508.184 14.1087 508.713 13.3275 509.38 12.6602C510.047 11.9928 510.828 11.472 511.724 11.0977C512.619 10.707 513.571 10.5117 514.58 10.5117H515.337C516.46 10.5117 517.502 10.7396 518.462 11.1953C519.422 11.651 520.244 12.2858 520.928 13.0996V0.990234H523.931V36H522.93ZM520.928 17.6895C520.928 17.0872 520.814 16.5257 520.586 16.0049C520.358 15.4678 520.049 15.0039 519.658 14.6133C519.268 14.2227 518.804 13.9134 518.267 13.6855C517.746 13.4577 517.184 13.3438 516.582 13.3438H514.58C513.978 13.3438 513.408 13.4577 512.871 13.6855C512.35 13.9134 511.895 14.2227 511.504 14.6133C511.113 15.0039 510.804 15.4678 510.576 16.0049C510.348 16.5257 510.234 17.0872 510.234 17.6895V29.3105C510.234 29.9128 510.348 30.4824 510.576 31.0195C510.804 31.5404 511.113 31.9961 511.504 32.3867C511.895 32.7773 512.35 33.0866 512.871 33.3145C513.408 33.5423 513.978 33.6562 514.58 33.6562H516.582C517.184 33.6562 517.746 33.5423 518.267 33.3145C518.804 33.0866 519.268 32.7773 519.658 32.3867C520.049 31.9961 520.358 31.5404 520.586 31.0195C520.814 30.4824 520.928 29.9128 520.928 29.3105V17.6895ZM538.193 4.99414V0.990234H541.685V4.99414H538.193ZM538.438 36V11H541.44V36H538.438ZM572.915 39.1494C572.915 40.1585 572.72 41.0863 572.329 41.9326C571.955 42.779 571.434 43.5033 570.767 44.1055C570.099 44.7077 569.318 45.1715 568.423 45.4971C567.528 45.8389 566.576 46.0098 565.566 46.0098H564.321C563.312 46.0098 562.36 45.8389 561.465 45.4971C560.57 45.1715 559.788 44.7077 559.121 44.1055C558.454 43.5033 557.925 42.779 557.534 41.9326C557.16 41.0863 556.973 40.1585 556.973 39.1494V39.0518C556.973 38.0752 557.152 37.18 557.51 36.3662C557.868 35.5524 558.356 34.8444 558.975 34.2422C558.193 33.7702 557.567 33.1354 557.095 32.3379C556.639 31.5241 556.411 30.6289 556.411 29.6523C556.411 28.7734 556.598 27.9596 556.973 27.2109C557.347 26.446 557.86 25.8275 558.511 25.3555C557.729 24.6719 557.111 23.8499 556.655 22.8896C556.2 21.9294 555.972 20.8796 555.972 19.7402V17.8604C555.972 16.8512 556.159 15.8991 556.533 15.0039C556.924 14.1087 557.453 13.3275 558.12 12.6602C558.787 11.9928 559.569 11.472 560.464 11.0977C561.359 10.707 562.311 10.5117 563.32 10.5117H564.565C565.786 10.5117 566.909 10.7884 567.935 11.3418C568.976 11.8789 569.839 12.6113 570.522 13.5391L572.158 11H573.159V19.7402C573.159 20.7493 572.964 21.7015 572.573 22.5967C572.199 23.4919 571.678 24.2731 571.011 24.9404C570.343 25.6077 569.562 26.1367 568.667 26.5273C567.772 26.9017 566.82 27.0889 565.811 27.0889H561.465C561.123 27.0889 560.798 27.1621 560.488 27.3086C560.179 27.4388 559.902 27.6178 559.658 27.8457C559.43 28.0736 559.251 28.3503 559.121 28.6758C558.991 28.985 558.926 29.3105 558.926 29.6523C558.926 29.9941 558.991 30.3197 559.121 30.6289C559.251 30.9382 559.43 31.2148 559.658 31.459C559.902 31.6868 560.179 31.8659 560.488 31.9961C560.798 32.1263 561.123 32.1914 561.465 32.1914H565.566C566.576 32.1914 567.528 32.3623 568.423 32.7041C569.318 33.0296 570.099 33.4935 570.767 34.0957C571.434 34.6979 571.955 35.4222 572.329 36.2686C572.72 37.1149 572.915 38.0426 572.915 39.0518V39.1494ZM570.181 17.6895C570.181 17.0872 570.067 16.5257 569.839 16.0049C569.611 15.4678 569.294 15.0039 568.887 14.6133C568.496 14.2227 568.032 13.9134 567.495 13.6855C566.974 13.4577 566.413 13.3438 565.811 13.3438H563.32C562.718 13.3438 562.148 13.4577 561.611 13.6855C561.09 13.9134 560.635 14.2227 560.244 14.6133C559.854 15.0039 559.544 15.4678 559.316 16.0049C559.089 16.5257 558.975 17.0872 558.975 17.6895V19.9111C558.975 20.5133 559.089 21.083 559.316 21.6201C559.544 22.141 559.854 22.5967 560.244 22.9873C560.635 23.3779 561.09 23.6872 561.611 23.915C562.148 24.1429 562.718 24.2568 563.32 24.2568H565.811C566.413 24.2568 566.974 24.1429 567.495 23.915C568.032 23.6872 568.496 23.3779 568.887 22.9873C569.294 22.5967 569.611 22.141 569.839 21.6201C570.067 21.083 570.181 20.5133 570.181 19.9111V17.6895ZM570.059 38.9053C570.059 38.3031 569.945 37.7578 569.717 37.2695C569.489 36.7975 569.18 36.3988 568.789 36.0732C568.398 35.7477 567.935 35.4954 567.397 35.3164C566.877 35.1374 566.315 35.0479 565.713 35.0479H564.175C563.573 35.0479 563.003 35.1374 562.466 35.3164C561.945 35.4954 561.489 35.7477 561.099 36.0732C560.708 36.3988 560.399 36.7975 560.171 37.2695C559.943 37.7578 559.829 38.3031 559.829 38.9053V39.2959C559.829 39.8981 559.943 40.4352 560.171 40.9072C560.399 41.3792 560.708 41.778 561.099 42.1035C561.489 42.4453 561.945 42.7057 562.466 42.8848C563.003 43.0638 563.573 43.1533 564.175 43.1533H565.713C566.315 43.1533 566.877 43.0638 567.397 42.8848C567.935 42.7057 568.398 42.4453 568.789 42.1035C569.18 41.778 569.489 41.3792 569.717 40.9072C569.945 40.4352 570.059 39.8981 570.059 39.2959V38.9053ZM631.592 36V17.6895C631.592 17.0872 631.478 16.5257 631.25 16.0049C631.022 15.4678 630.713 15.0039 630.322 14.6133C629.932 14.2227 629.468 13.9134 628.931 13.6855C628.41 13.4577 627.848 13.3438 627.246 13.3438H625.757C625.155 13.3438 624.585 13.4577 624.048 13.6855C623.527 13.9134 623.063 14.2227 622.656 14.6133C622.266 15.0039 621.956 15.4678 621.729 16.0049C621.501 16.5257 621.387 17.0872 621.387 17.6895V36H618.408V17.6895C618.408 17.0872 618.294 16.5257 618.066 16.0049C617.839 15.4678 617.521 15.0039 617.114 14.6133C616.724 14.2227 616.26 13.9134 615.723 13.6855C615.202 13.4577 614.64 13.3438 614.038 13.3438H612.549C611.947 13.3438 611.377 13.4577 610.84 13.6855C610.319 13.9134 609.863 14.2227 609.473 14.6133C609.082 15.0039 608.773 15.4678 608.545 16.0049C608.317 16.5257 608.203 17.0872 608.203 17.6895V36H605.2V11H606.201L607.837 13.5391C608.521 12.6113 609.375 11.8789 610.4 11.3418C611.442 10.7884 612.573 10.5117 613.794 10.5117H614.038C615.454 10.5117 616.732 10.8617 617.871 11.5615C619.01 12.2614 619.889 13.1891 620.508 14.3447C620.817 13.7751 621.2 13.2542 621.655 12.7822C622.111 12.3102 622.616 11.9115 623.169 11.5859C623.722 11.2441 624.325 10.9837 624.976 10.8047C625.627 10.6094 626.302 10.5117 627.002 10.5117H627.246C628.255 10.5117 629.207 10.707 630.103 11.0977C630.998 11.472 631.779 11.9928 632.446 12.6602C633.114 13.3275 633.634 14.1087 634.009 15.0039C634.399 15.8991 634.595 16.8512 634.595 17.8604V36H631.592ZM664.8 29.1396C664.8 30.1488 664.604 31.1009 664.214 31.9961C663.84 32.8913 663.319 33.6725 662.651 34.3398C661.984 35.0072 661.203 35.5361 660.308 35.9268C659.412 36.3011 658.46 36.4883 657.451 36.4883H655.449C654.44 36.4883 653.488 36.3011 652.593 35.9268C651.698 35.5361 650.916 35.0072 650.249 34.3398C649.582 33.6725 649.053 32.8913 648.662 31.9961C648.288 31.1009 648.101 30.1488 648.101 29.1396V17.8604C648.101 16.8512 648.288 15.8991 648.662 15.0039C649.053 14.1087 649.582 13.3275 650.249 12.6602C650.916 11.9928 651.698 11.472 652.593 11.0977C653.488 10.707 654.44 10.5117 655.449 10.5117H657.451C658.46 10.5117 659.412 10.707 660.308 11.0977C661.203 11.472 661.984 11.9928 662.651 12.6602C663.319 13.3275 663.84 14.1087 664.214 15.0039C664.604 15.8991 664.8 16.8512 664.8 17.8604V23.7441H651.104V29.3105C651.104 29.9128 651.217 30.4824 651.445 31.0195C651.673 31.5404 651.982 31.9961 652.373 32.3867C652.764 32.7773 653.219 33.0866 653.74 33.3145C654.277 33.5423 654.847 33.6562 655.449 33.6562H657.451C658.053 33.6562 658.615 33.5423 659.136 33.3145C659.673 33.0866 660.137 32.7773 660.527 32.3867C660.918 31.9961 661.227 31.5404 661.455 31.0195C661.683 30.4824 661.797 29.9128 661.797 29.3105V27.6504L664.8 28.1387V29.1396ZM661.797 17.6895C661.797 17.0872 661.683 16.5257 661.455 16.0049C661.227 15.4678 660.918 15.0039 660.527 14.6133C660.137 14.2227 659.673 13.9134 659.136 13.6855C658.615 13.4577 658.053 13.3438 657.451 13.3438H655.449C654.847 13.3438 654.277 13.4577 653.74 13.6855C653.219 13.9134 652.764 14.2227 652.373 14.6133C651.982 15.0039 651.673 15.4678 651.445 16.0049C651.217 16.5257 651.104 17.0872 651.104 17.6895V21.4004H661.797V17.6895ZM694.004 36L692.344 33.4609C691.66 34.3887 690.806 35.1292 689.78 35.6826C688.755 36.2197 687.632 36.4883 686.411 36.4883H685.654C684.645 36.4883 683.693 36.3011 682.798 35.9268C681.903 35.5361 681.121 35.0072 680.454 34.3398C679.787 33.6725 679.258 32.8913 678.867 31.9961C678.493 31.1009 678.306 30.1488 678.306 29.1396V17.8604C678.306 16.8512 678.493 15.8991 678.867 15.0039C679.258 14.1087 679.787 13.3275 680.454 12.6602C681.121 11.9928 681.903 11.472 682.798 11.0977C683.693 10.707 684.645 10.5117 685.654 10.5117H686.411C687.534 10.5117 688.576 10.7396 689.536 11.1953C690.496 11.651 691.318 12.2858 692.002 13.0996V0.990234H695.005V36H694.004ZM692.002 17.6895C692.002 17.0872 691.888 16.5257 691.66 16.0049C691.432 15.4678 691.123 15.0039 690.732 14.6133C690.342 14.2227 689.878 13.9134 689.341 13.6855C688.82 13.4577 688.258 13.3438 687.656 13.3438H685.654C685.052 13.3438 684.482 13.4577 683.945 13.6855C683.424 13.9134 682.969 14.2227 682.578 14.6133C682.188 15.0039 681.878 15.4678 681.65 16.0049C681.423 16.5257 681.309 17.0872 681.309 17.6895V29.3105C681.309 29.9128 681.423 30.4824 681.65 31.0195C681.878 31.5404 682.188 31.9961 682.578 32.3867C682.969 32.7773 683.424 33.0866 683.945 33.3145C684.482 33.5423 685.052 33.6562 685.654 33.6562H687.656C688.258 33.6562 688.82 33.5423 689.341 33.3145C689.878 33.0866 690.342 32.7773 690.732 32.3867C691.123 31.9961 691.432 31.5404 691.66 31.0195C691.888 30.4824 692.002 29.9128 692.002 29.3105V17.6895ZM713.613 36V32.2402H717.349V36H713.613ZM717.056 25.4043H713.906V24.4521C713.906 23.3779 714.036 22.4421 714.297 21.6445C714.557 20.847 714.899 20.1471 715.322 19.5449C715.762 18.9427 716.25 18.4056 716.787 17.9336C717.34 17.4616 717.902 17.014 718.472 16.5908C719.058 16.1514 719.619 15.7119 720.156 15.2725C720.71 14.833 721.198 14.3447 721.621 13.8076C722.061 13.2705 722.41 12.6602 722.671 11.9766C722.931 11.293 723.062 10.4873 723.062 9.55957V9.0957C723.062 8.31445 722.915 7.59017 722.622 6.92285C722.329 6.23926 721.922 5.64518 721.401 5.14062C720.897 4.63607 720.303 4.2373 719.619 3.94434C718.952 3.65137 718.228 3.50488 717.446 3.50488H716.763C715.981 3.50488 715.249 3.65137 714.565 3.94434C713.898 4.2373 713.304 4.63607 712.783 5.14062C712.279 5.64518 711.88 6.23926 711.587 6.92285C711.294 7.59017 711.147 8.31445 711.147 9.0957V10.5117L707.998 9.99902V9.0957C707.998 7.90755 708.218 6.79264 708.657 5.75098C709.113 4.70931 709.731 3.79785 710.513 3.0166C711.294 2.23535 712.205 1.625 713.247 1.18555C714.305 0.729818 715.428 0.501953 716.616 0.501953H717.617C718.805 0.501953 719.92 0.729818 720.962 1.18555C722.004 1.625 722.915 2.23535 723.696 3.0166C724.478 3.79785 725.088 4.70931 725.527 5.75098C725.983 6.79264 726.211 7.90755 726.211 9.0957V9.55957C726.211 10.6826 726.081 11.6673 725.82 12.5137C725.56 13.36 725.21 14.1087 724.771 14.7598C724.347 15.4108 723.859 15.9886 723.306 16.4932C722.769 16.9977 722.207 17.4697 721.621 17.9092C721.051 18.3486 720.49 18.7799 719.937 19.2031C719.399 19.6263 718.911 20.0902 718.472 20.5947C718.049 21.0993 717.707 21.6608 717.446 22.2793C717.186 22.8978 717.056 23.6221 717.056 24.4521V25.4043Z" fill="#910F29" fill-opacity="0.65"/>
</svg>
