<svg width="685" height="46" viewBox="0 0 685 46" fill="none" xmlns="http://www.w3.org/2000/svg">
<path d="M16.793 36V20.0088H3.38965V36H0.240234V0.990234H3.38965V17.0059H16.793V0.990234H19.9424V36H16.793ZM42.3105 36H40.8213L31.959 11H34.9619L41.4805 29.9453L41.5781 31.2393L41.6758 29.9453L48.1699 11H51.1729L42.3105 36ZM78.8877 29.1396C78.8877 30.1488 78.6924 31.1009 78.3018 31.9961C77.9274 32.8913 77.4066 33.6725 76.7393 34.3398C76.0719 35.0072 75.2907 35.5361 74.3955 35.9268C73.5003 36.3011 72.5482 36.4883 71.5391 36.4883H69.5371C68.528 36.4883 67.5758 36.3011 66.6807 35.9268C65.7855 35.5361 65.0042 35.0072 64.3369 34.3398C63.6696 33.6725 63.1406 32.8913 62.75 31.9961C62.3757 31.1009 62.1885 30.1488 62.1885 29.1396V17.8604C62.1885 16.8512 62.3757 15.8991 62.75 15.0039C63.1406 14.1087 63.6696 13.3275 64.3369 12.6602C65.0042 11.9928 65.7855 11.472 66.6807 11.0977C67.5758 10.707 68.528 10.5117 69.5371 10.5117H71.5391C72.5482 10.5117 73.5003 10.707 74.3955 11.0977C75.2907 11.472 76.0719 11.9928 76.7393 12.6602C77.4066 13.3275 77.9274 14.1087 78.3018 15.0039C78.6924 15.8991 78.8877 16.8512 78.8877 17.8604V29.1396ZM75.8848 17.6895C75.8848 17.0872 75.7708 16.5257 75.543 16.0049C75.3151 15.4678 75.0059 15.0039 74.6152 14.6133C74.2246 14.2227 73.7607 13.9134 73.2236 13.6855C72.7028 13.4577 72.1413 13.3438 71.5391 13.3438H69.5371C68.9349 13.3438 68.3652 13.4577 67.8281 13.6855C67.3073 13.9134 66.8516 14.2227 66.4609 14.6133C66.0703 15.0039 65.7611 15.4678 65.5332 16.0049C65.3053 16.5257 65.1914 17.0872 65.1914 17.6895V29.3105C65.1914 29.9128 65.3053 30.4824 65.5332 31.0195C65.7611 31.5404 66.0703 31.9961 66.4609 32.3867C66.8516 32.7773 67.3073 33.0866 67.8281 33.3145C68.3652 33.5423 68.9349 33.6562 69.5371 33.6562H71.5391C72.1413 33.6562 72.7028 33.5423 73.2236 33.3145C73.7607 33.0866 74.2246 32.7773 74.6152 32.3867C75.0059 31.9961 75.3151 31.5404 75.543 31.0195C75.7708 30.4824 75.8848 29.9128 75.8848 29.3105V17.6895ZM99.7422 13.8564C99.14 13.8564 98.5703 13.9704 98.0332 14.1982C97.5124 14.4261 97.0566 14.7354 96.666 15.126C96.2754 15.5166 95.9661 15.9805 95.7383 16.5176C95.5104 17.0384 95.3965 17.5999 95.3965 18.2021V36H92.3936V11H93.3945L95.0303 13.5391C95.7139 12.6113 96.5684 11.8789 97.5938 11.3418C98.6354 10.7884 99.7666 10.5117 100.987 10.5117H102.745V13.8564H99.7422ZM129.947 36L128.287 33.4609C127.604 34.3887 126.749 35.1292 125.724 35.6826C124.698 36.2197 123.575 36.4883 122.354 36.4883H121.598C120.589 36.4883 119.636 36.3011 118.741 35.9268C117.846 35.5361 117.065 35.0072 116.397 34.3398C115.73 33.6725 115.201 32.8913 114.811 31.9961C114.436 31.1009 114.249 30.1488 114.249 29.1396V17.8604C114.249 16.8512 114.436 15.8991 114.811 15.0039C115.201 14.1087 115.73 13.3275 116.397 12.6602C117.065 11.9928 117.846 11.472 118.741 11.0977C119.636 10.707 120.589 10.5117 121.598 10.5117H122.354C123.478 10.5117 124.519 10.7396 125.479 11.1953C126.44 11.651 127.262 12.2858 127.945 13.0996V0.990234H130.948V36H129.947ZM127.945 17.6895C127.945 17.0872 127.831 16.5257 127.604 16.0049C127.376 15.4678 127.066 15.0039 126.676 14.6133C126.285 14.2227 125.821 13.9134 125.284 13.6855C124.763 13.4577 124.202 13.3438 123.6 13.3438H121.598C120.995 13.3438 120.426 13.4577 119.889 13.6855C119.368 13.9134 118.912 14.2227 118.521 14.6133C118.131 15.0039 117.822 15.4678 117.594 16.0049C117.366 16.5257 117.252 17.0872 117.252 17.6895V29.3105C117.252 29.9128 117.366 30.4824 117.594 31.0195C117.822 31.5404 118.131 31.9961 118.521 32.3867C118.912 32.7773 119.368 33.0866 119.889 33.3145C120.426 33.5423 120.995 33.6562 121.598 33.6562H123.6C124.202 33.6562 124.763 33.5423 125.284 33.3145C125.821 33.0866 126.285 32.7773 126.676 32.3867C127.066 31.9961 127.376 31.5404 127.604 31.0195C127.831 30.4824 127.945 29.9128 127.945 29.3105V17.6895ZM160.152 36L158.492 33.5098C157.809 34.4049 156.954 35.1292 155.929 35.6826C154.903 36.2197 153.78 36.4883 152.56 36.4883H151.803C150.794 36.4883 149.841 36.3011 148.946 35.9268C148.051 35.5361 147.27 35.0072 146.603 34.3398C145.935 33.6725 145.406 32.8913 145.016 31.9961C144.641 31.1009 144.454 30.1488 144.454 29.1396V28.8955C144.454 27.8864 144.641 26.9342 145.016 26.0391C145.406 25.1439 145.935 24.3626 146.603 23.6953C147.27 23.028 148.051 22.5072 148.946 22.1328C149.841 21.7422 150.794 21.5469 151.803 21.5469H158.15V17.6895C158.15 17.0872 158.036 16.5257 157.809 16.0049C157.581 15.4678 157.271 15.0039 156.881 14.6133C156.49 14.2227 156.026 13.9134 155.489 13.6855C154.968 13.4577 154.407 13.3438 153.805 13.3438H152.047C151.445 13.3438 150.875 13.4577 150.338 13.6855C149.817 13.9134 149.361 14.2227 148.971 14.6133C148.58 15.0039 148.271 15.4678 148.043 16.0049C147.815 16.5257 147.701 17.0872 147.701 17.6895V18.5928L144.698 18.1045V17.8604C144.698 16.8512 144.885 15.8991 145.26 15.0039C145.65 14.1087 146.179 13.3275 146.847 12.6602C147.514 11.9928 148.295 11.472 149.19 11.0977C150.086 10.707 151.038 10.5117 152.047 10.5117H153.805C154.814 10.5117 155.766 10.707 156.661 11.0977C157.556 11.472 158.338 11.9928 159.005 12.6602C159.672 13.3275 160.193 14.1087 160.567 15.0039C160.958 15.8991 161.153 16.8512 161.153 17.8604V36H160.152ZM158.15 23.8906H151.803C151.201 23.8906 150.631 24.0046 150.094 24.2324C149.573 24.4603 149.117 24.7777 148.727 25.1846C148.336 25.5752 148.027 26.0391 147.799 26.5762C147.571 27.097 147.457 27.6585 147.457 28.2607V29.3105C147.457 29.9128 147.571 30.4824 147.799 31.0195C148.027 31.5404 148.336 31.9961 148.727 32.3867C149.117 32.7773 149.573 33.0866 150.094 33.3145C150.631 33.5423 151.201 33.6562 151.803 33.6562H153.805C154.407 33.6562 154.968 33.5423 155.489 33.3145C156.026 33.0866 156.49 32.7773 156.881 32.3867C157.271 31.9961 157.581 31.5404 157.809 31.0195C158.036 30.4824 158.15 29.9128 158.15 29.3105V23.8906ZM188.355 36V17.6895C188.355 17.0872 188.242 16.5257 188.014 16.0049C187.786 15.4678 187.477 15.0039 187.086 14.6133C186.695 14.2227 186.231 13.9134 185.694 13.6855C185.174 13.4577 184.612 13.3438 184.01 13.3438H182.008C181.406 13.3438 180.836 13.4577 180.299 13.6855C179.778 13.9134 179.322 14.2227 178.932 14.6133C178.541 15.0039 178.232 15.4678 178.004 16.0049C177.776 16.5257 177.662 17.0872 177.662 17.6895V36H174.659V11H175.66L177.296 13.5391C177.979 12.6113 178.834 11.8789 179.859 11.3418C180.901 10.7884 182.032 10.5117 183.253 10.5117H184.01C185.019 10.5117 185.971 10.707 186.866 11.0977C187.761 11.472 188.543 11.9928 189.21 12.6602C189.877 13.3275 190.398 14.1087 190.772 15.0039C191.163 15.8991 191.358 16.8512 191.358 17.8604V36H188.355ZM238.683 36L228.478 23.5L238.683 11H242.589L232.14 23.5L242.589 36H238.683ZM224.889 36V0.990234H227.892V36H224.889ZM269.791 36L268.131 33.5098C267.447 34.4049 266.593 35.1292 265.567 35.6826C264.542 36.2197 263.419 36.4883 262.198 36.4883H261.441C260.432 36.4883 259.48 36.3011 258.585 35.9268C257.69 35.5361 256.909 35.0072 256.241 34.3398C255.574 33.6725 255.045 32.8913 254.654 31.9961C254.28 31.1009 254.093 30.1488 254.093 29.1396V28.8955C254.093 27.8864 254.28 26.9342 254.654 26.0391C255.045 25.1439 255.574 24.3626 256.241 23.6953C256.909 23.028 257.69 22.5072 258.585 22.1328C259.48 21.7422 260.432 21.5469 261.441 21.5469H267.789V17.6895C267.789 17.0872 267.675 16.5257 267.447 16.0049C267.219 15.4678 266.91 15.0039 266.52 14.6133C266.129 14.2227 265.665 13.9134 265.128 13.6855C264.607 13.4577 264.046 13.3438 263.443 13.3438H261.686C261.083 13.3438 260.514 13.4577 259.977 13.6855C259.456 13.9134 259 14.2227 258.609 14.6133C258.219 15.0039 257.91 15.4678 257.682 16.0049C257.454 16.5257 257.34 17.0872 257.34 17.6895V18.5928L254.337 18.1045V17.8604C254.337 16.8512 254.524 15.8991 254.898 15.0039C255.289 14.1087 255.818 13.3275 256.485 12.6602C257.153 11.9928 257.934 11.472 258.829 11.0977C259.724 10.707 260.676 10.5117 261.686 10.5117H263.443C264.452 10.5117 265.405 10.707 266.3 11.0977C267.195 11.472 267.976 11.9928 268.644 12.6602C269.311 13.3275 269.832 14.1087 270.206 15.0039C270.597 15.8991 270.792 16.8512 270.792 17.8604V36H269.791ZM267.789 23.8906H261.441C260.839 23.8906 260.27 24.0046 259.732 24.2324C259.212 24.4603 258.756 24.7777 258.365 25.1846C257.975 25.5752 257.665 26.0391 257.438 26.5762C257.21 27.097 257.096 27.6585 257.096 28.2607V29.3105C257.096 29.9128 257.21 30.4824 257.438 31.0195C257.665 31.5404 257.975 31.9961 258.365 32.3867C258.756 32.7773 259.212 33.0866 259.732 33.3145C260.27 33.5423 260.839 33.6562 261.441 33.6562H263.443C264.046 33.6562 264.607 33.5423 265.128 33.3145C265.665 33.0866 266.129 32.7773 266.52 32.3867C266.91 31.9961 267.219 31.5404 267.447 31.0195C267.675 30.4824 267.789 29.9128 267.789 29.3105V23.8906ZM297.994 36V17.6895C297.994 17.0872 297.88 16.5257 297.652 16.0049C297.424 15.4678 297.115 15.0039 296.725 14.6133C296.334 14.2227 295.87 13.9134 295.333 13.6855C294.812 13.4577 294.251 13.3438 293.648 13.3438H291.646C291.044 13.3438 290.475 13.4577 289.938 13.6855C289.417 13.9134 288.961 14.2227 288.57 14.6133C288.18 15.0039 287.87 15.4678 287.643 16.0049C287.415 16.5257 287.301 17.0872 287.301 17.6895V36H284.298V11H285.299L286.935 13.5391C287.618 12.6113 288.473 11.8789 289.498 11.3418C290.54 10.7884 291.671 10.5117 292.892 10.5117H293.648C294.658 10.5117 295.61 10.707 296.505 11.0977C297.4 11.472 298.181 11.9928 298.849 12.6602C299.516 13.3275 300.037 14.1087 300.411 15.0039C300.802 15.8991 300.997 16.8512 300.997 17.8604V36H297.994ZM341.363 36H339.874L331.012 11H334.015L340.533 29.9453L340.631 31.2393L340.729 29.9453L347.223 11H350.226L341.363 36ZM361.998 4.99414V0.990234H365.489V4.99414H361.998ZM362.242 36V11H365.245V36H362.242ZM412.496 36V17.6895C412.496 17.0872 412.382 16.5257 412.154 16.0049C411.926 15.4678 411.617 15.0039 411.227 14.6133C410.836 14.2227 410.372 13.9134 409.835 13.6855C409.314 13.4577 408.753 13.3438 408.15 13.3438H406.148C405.546 13.3438 404.977 13.4577 404.439 13.6855C403.919 13.9134 403.463 14.2227 403.072 14.6133C402.682 15.0039 402.372 15.4678 402.145 16.0049C401.917 16.5257 401.803 17.0872 401.803 17.6895V36H398.8V0.990234H401.803V13.0996C402.486 12.2858 403.308 11.651 404.269 11.1953C405.229 10.7396 406.271 10.5117 407.394 10.5117H408.15C409.16 10.5117 410.112 10.707 411.007 11.0977C411.902 11.472 412.683 11.9928 413.351 12.6602C414.018 13.3275 414.539 14.1087 414.913 15.0039C415.304 15.8991 415.499 16.8512 415.499 17.8604V36H412.496ZM429.762 4.99414V0.990234H433.253V4.99414H429.762ZM433.009 38.6611C433.009 39.6702 432.813 40.6143 432.423 41.4932C432.049 42.3883 431.528 43.1696 430.86 43.8369C430.193 44.5042 429.412 45.0332 428.517 45.4238C427.621 45.8145 426.669 46.0098 425.66 46.0098V43.1533C426.262 43.1533 426.824 43.0394 427.345 42.8115C427.882 42.5837 428.346 42.2744 428.736 41.8838C429.127 41.4932 429.436 41.0293 429.664 40.4922C429.892 39.9714 430.006 39.4098 430.006 38.8076V11H433.009V38.6611ZM477.936 29.1396C477.936 30.1488 477.74 31.1009 477.35 31.9961C476.975 32.8913 476.454 33.6725 475.787 34.3398C475.12 35.0072 474.339 35.5361 473.443 35.9268C472.548 36.3011 471.596 36.4883 470.587 36.4883H468.585C467.901 36.4883 467.234 36.3988 466.583 36.2197C465.948 36.0407 465.354 35.7884 464.801 35.4629C464.247 35.1374 463.743 34.7467 463.287 34.291C462.831 33.819 462.449 33.3063 462.14 32.7529C461.684 33.4854 461.196 34.0957 460.675 34.584C460.17 35.056 459.633 35.4385 459.063 35.7314C458.51 36.0081 457.94 36.2035 457.354 36.3174C456.785 36.4313 456.215 36.4883 455.646 36.4883H454.889C453.88 36.4883 452.927 36.3011 452.032 35.9268C451.137 35.5361 450.356 35.0072 449.688 34.3398C449.021 33.6725 448.492 32.8913 448.102 31.9961C447.727 31.1009 447.54 30.1488 447.54 29.1396V28.8955C447.54 27.8864 447.727 26.9342 448.102 26.0391C448.492 25.1439 449.021 24.3626 449.688 23.6953C450.356 23.028 451.137 22.5072 452.032 22.1328C452.927 21.7422 453.88 21.5469 454.889 21.5469H461.236V17.543C461.22 16.9733 461.09 16.4362 460.846 15.9316C460.618 15.4108 460.309 14.9632 459.918 14.5889C459.527 14.1982 459.072 13.8971 458.551 13.6855C458.03 13.4577 457.477 13.3438 456.891 13.3438H455.133C454.531 13.3438 453.961 13.4577 453.424 13.6855C452.903 13.9134 452.447 14.2227 452.057 14.6133C451.666 15.0039 451.357 15.4678 451.129 16.0049C450.901 16.5257 450.787 17.0872 450.787 17.6895V18.5928L447.784 18.1045V17.8604C447.784 16.8512 447.971 15.8991 448.346 15.0039C448.736 14.1087 449.265 13.3275 449.933 12.6602C450.6 11.9928 451.381 11.472 452.276 11.0977C453.172 10.707 454.124 10.5117 455.133 10.5117H456.891C458.062 10.5117 459.153 10.7803 460.162 11.3174C461.188 11.8382 462.042 12.5462 462.726 13.4414C463.409 12.5462 464.256 11.8382 465.265 11.3174C466.274 10.7803 467.381 10.5117 468.585 10.5117H470.587C471.596 10.5117 472.548 10.707 473.443 11.0977C474.339 11.472 475.12 11.9928 475.787 12.6602C476.454 13.3275 476.975 14.1087 477.35 15.0039C477.74 15.8991 477.936 16.8512 477.936 17.8604V23.7441H464.239V29.3105C464.239 29.9128 464.353 30.4824 464.581 31.0195C464.809 31.5404 465.118 31.9961 465.509 32.3867C465.899 32.7773 466.355 33.0866 466.876 33.3145C467.413 33.5423 467.983 33.6562 468.585 33.6562H470.587C471.189 33.6562 471.751 33.5423 472.271 33.3145C472.809 33.0866 473.272 32.7773 473.663 32.3867C474.054 31.9961 474.363 31.5404 474.591 31.0195C474.819 30.4824 474.933 29.9128 474.933 29.3105V27.6504L477.936 28.1387V29.1396ZM461.236 23.8906H454.889C454.286 23.8906 453.717 24.0046 453.18 24.2324C452.659 24.4603 452.203 24.7777 451.812 25.1846C451.422 25.5752 451.113 26.0391 450.885 26.5762C450.657 27.097 450.543 27.6585 450.543 28.2607V29.3105C450.543 29.9128 450.657 30.4824 450.885 31.0195C451.113 31.5404 451.422 31.9961 451.812 32.3867C452.203 32.7773 452.659 33.0866 453.18 33.3145C453.717 33.5423 454.286 33.6562 454.889 33.6562H456.891C457.493 33.6562 458.054 33.5423 458.575 33.3145C459.112 33.0866 459.576 32.7773 459.967 32.3867C460.357 31.9961 460.667 31.5404 460.895 31.0195C461.122 30.4824 461.236 29.9128 461.236 29.3105V23.8906ZM474.933 17.6895C474.933 17.0872 474.819 16.5257 474.591 16.0049C474.363 15.4678 474.054 15.0039 473.663 14.6133C473.272 14.2227 472.809 13.9134 472.271 13.6855C471.751 13.4577 471.189 13.3438 470.587 13.3438H468.585C467.999 13.3438 467.446 13.4577 466.925 13.6855C466.404 13.8971 465.948 14.1982 465.558 14.5889C465.167 14.9632 464.85 15.4108 464.605 15.9316C464.378 16.4362 464.256 16.9733 464.239 17.543V21.4004H474.933V17.6895ZM492.467 36V0.990234H495.47V36H492.467ZM526.7 29.1396C526.7 30.1488 526.505 31.1009 526.114 31.9961C525.74 32.8913 525.219 33.6725 524.552 34.3398C523.884 35.0072 523.103 35.5361 522.208 35.9268C521.313 36.3011 520.361 36.4883 519.352 36.4883H518.595C517.472 36.4883 516.43 36.2604 515.47 35.8047C514.509 35.349 513.688 34.7142 513.004 33.9004V46.0098H510.001V11H511.002L512.638 13.5391C513.321 12.6113 514.176 11.8789 515.201 11.3418C516.243 10.7884 517.374 10.5117 518.595 10.5117H519.352C520.361 10.5117 521.313 10.707 522.208 11.0977C523.103 11.472 523.884 11.9928 524.552 12.6602C525.219 13.3275 525.74 14.1087 526.114 15.0039C526.505 15.8991 526.7 16.8512 526.7 17.8604V29.1396ZM523.697 17.6895C523.697 17.0872 523.583 16.5257 523.355 16.0049C523.128 15.4678 522.818 15.0039 522.428 14.6133C522.037 14.2227 521.573 13.9134 521.036 13.6855C520.515 13.4577 519.954 13.3438 519.352 13.3438H517.35C516.747 13.3438 516.178 13.4577 515.641 13.6855C515.12 13.9134 514.664 14.2227 514.273 14.6133C513.883 15.0039 513.574 15.4678 513.346 16.0049C513.118 16.5257 513.004 17.0872 513.004 17.6895V29.3105C513.004 29.9128 513.118 30.4824 513.346 31.0195C513.574 31.5404 513.883 31.9961 514.273 32.3867C514.664 32.7773 515.12 33.0866 515.641 33.3145C516.178 33.5423 516.747 33.6562 517.35 33.6562H519.352C519.954 33.6562 520.515 33.5423 521.036 33.3145C521.573 33.0866 522.037 32.7773 522.428 32.3867C522.818 31.9961 523.128 31.5404 523.355 31.0195C523.583 30.4824 523.697 29.9128 523.697 29.3105V17.6895ZM556.905 29.1396C556.905 30.1488 556.71 31.1009 556.319 31.9961C555.945 32.8913 555.424 33.6725 554.757 34.3398C554.09 35.0072 553.308 35.5361 552.413 35.9268C551.518 36.3011 550.566 36.4883 549.557 36.4883H547.555C546.546 36.4883 545.593 36.3011 544.698 35.9268C543.803 35.5361 543.022 35.0072 542.354 34.3398C541.687 33.6725 541.158 32.8913 540.768 31.9961C540.393 31.1009 540.206 30.1488 540.206 29.1396V17.8604C540.206 16.8512 540.393 15.8991 540.768 15.0039C541.158 14.1087 541.687 13.3275 542.354 12.6602C543.022 11.9928 543.803 11.472 544.698 11.0977C545.593 10.707 546.546 10.5117 547.555 10.5117H549.557C550.566 10.5117 551.518 10.707 552.413 11.0977C553.308 11.472 554.09 11.9928 554.757 12.6602C555.424 13.3275 555.945 14.1087 556.319 15.0039C556.71 15.8991 556.905 16.8512 556.905 17.8604V23.7441H543.209V29.3105C543.209 29.9128 543.323 30.4824 543.551 31.0195C543.779 31.5404 544.088 31.9961 544.479 32.3867C544.869 32.7773 545.325 33.0866 545.846 33.3145C546.383 33.5423 546.952 33.6562 547.555 33.6562H549.557C550.159 33.6562 550.72 33.5423 551.241 33.3145C551.778 33.0866 552.242 32.7773 552.633 32.3867C553.023 31.9961 553.333 31.5404 553.561 31.0195C553.788 30.4824 553.902 29.9128 553.902 29.3105V27.6504L556.905 28.1387V29.1396ZM553.902 17.6895C553.902 17.0872 553.788 16.5257 553.561 16.0049C553.333 15.4678 553.023 15.0039 552.633 14.6133C552.242 14.2227 551.778 13.9134 551.241 13.6855C550.72 13.4577 550.159 13.3438 549.557 13.3438H547.555C546.952 13.3438 546.383 13.4577 545.846 13.6855C545.325 13.9134 544.869 14.2227 544.479 14.6133C544.088 15.0039 543.779 15.4678 543.551 16.0049C543.323 16.5257 543.209 17.0872 543.209 17.6895V21.4004H553.902V17.6895ZM605.133 36L603.473 33.4609C602.789 34.3887 601.935 35.1292 600.909 35.6826C599.884 36.2197 598.761 36.4883 597.54 36.4883H596.783C595.774 36.4883 594.822 36.3011 593.927 35.9268C593.032 35.5361 592.25 35.0072 591.583 34.3398C590.916 33.6725 590.387 32.8913 589.996 31.9961C589.622 31.1009 589.435 30.1488 589.435 29.1396V17.8604C589.435 16.8512 589.622 15.8991 589.996 15.0039C590.387 14.1087 590.916 13.3275 591.583 12.6602C592.25 11.9928 593.032 11.472 593.927 11.0977C594.822 10.707 595.774 10.5117 596.783 10.5117H597.54C598.663 10.5117 599.705 10.7396 600.665 11.1953C601.625 11.651 602.447 12.2858 603.131 13.0996V0.990234H606.134V36H605.133ZM603.131 17.6895C603.131 17.0872 603.017 16.5257 602.789 16.0049C602.561 15.4678 602.252 15.0039 601.861 14.6133C601.471 14.2227 601.007 13.9134 600.47 13.6855C599.949 13.4577 599.387 13.3438 598.785 13.3438H596.783C596.181 13.3438 595.611 13.4577 595.074 13.6855C594.553 13.9134 594.098 14.2227 593.707 14.6133C593.316 15.0039 593.007 15.4678 592.779 16.0049C592.551 16.5257 592.438 17.0872 592.438 17.6895V29.3105C592.438 29.9128 592.551 30.4824 592.779 31.0195C593.007 31.5404 593.316 31.9961 593.707 32.3867C594.098 32.7773 594.553 33.0866 595.074 33.3145C595.611 33.5423 596.181 33.6562 596.783 33.6562H598.785C599.387 33.6562 599.949 33.5423 600.47 33.3145C601.007 33.0866 601.471 32.7773 601.861 32.3867C602.252 31.9961 602.561 31.5404 602.789 31.0195C603.017 30.4824 603.131 29.9128 603.131 29.3105V17.6895ZM620.396 4.99414V0.990234H623.888V4.99414H620.396ZM620.641 36V11H623.644V36H620.641ZM655.118 39.1494C655.118 40.1585 654.923 41.0863 654.532 41.9326C654.158 42.779 653.637 43.5033 652.97 44.1055C652.302 44.7077 651.521 45.1715 650.626 45.4971C649.731 45.8389 648.779 46.0098 647.77 46.0098H646.524C645.515 46.0098 644.563 45.8389 643.668 45.4971C642.773 45.1715 641.992 44.7077 641.324 44.1055C640.657 43.5033 640.128 42.779 639.737 41.9326C639.363 41.0863 639.176 40.1585 639.176 39.1494V39.0518C639.176 38.0752 639.355 37.18 639.713 36.3662C640.071 35.5524 640.559 34.8444 641.178 34.2422C640.396 33.7702 639.77 33.1354 639.298 32.3379C638.842 31.5241 638.614 30.6289 638.614 29.6523C638.614 28.7734 638.801 27.9596 639.176 27.2109C639.55 26.446 640.063 25.8275 640.714 25.3555C639.933 24.6719 639.314 23.8499 638.858 22.8896C638.403 21.9294 638.175 20.8796 638.175 19.7402V17.8604C638.175 16.8512 638.362 15.8991 638.736 15.0039C639.127 14.1087 639.656 13.3275 640.323 12.6602C640.991 11.9928 641.772 11.472 642.667 11.0977C643.562 10.707 644.514 10.5117 645.523 10.5117H646.769C647.989 10.5117 649.112 10.7884 650.138 11.3418C651.179 11.8789 652.042 12.6113 652.726 13.5391L654.361 11H655.362V19.7402C655.362 20.7493 655.167 21.7015 654.776 22.5967C654.402 23.4919 653.881 24.2731 653.214 24.9404C652.547 25.6077 651.765 26.1367 650.87 26.5273C649.975 26.9017 649.023 27.0889 648.014 27.0889H643.668C643.326 27.0889 643.001 27.1621 642.691 27.3086C642.382 27.4388 642.105 27.6178 641.861 27.8457C641.633 28.0736 641.454 28.3503 641.324 28.6758C641.194 28.985 641.129 29.3105 641.129 29.6523C641.129 29.9941 641.194 30.3197 641.324 30.6289C641.454 30.9382 641.633 31.2148 641.861 31.459C642.105 31.6868 642.382 31.8659 642.691 31.9961C643.001 32.1263 643.326 32.1914 643.668 32.1914H647.77C648.779 32.1914 649.731 32.3623 650.626 32.7041C651.521 33.0296 652.302 33.4935 652.97 34.0957C653.637 34.6979 654.158 35.4222 654.532 36.2686C654.923 37.1149 655.118 38.0426 655.118 39.0518V39.1494ZM652.384 17.6895C652.384 17.0872 652.27 16.5257 652.042 16.0049C651.814 15.4678 651.497 15.0039 651.09 14.6133C650.699 14.2227 650.235 13.9134 649.698 13.6855C649.177 13.4577 648.616 13.3438 648.014 13.3438H645.523C644.921 13.3438 644.352 13.4577 643.814 13.6855C643.294 13.9134 642.838 14.2227 642.447 14.6133C642.057 15.0039 641.747 15.4678 641.52 16.0049C641.292 16.5257 641.178 17.0872 641.178 17.6895V19.9111C641.178 20.5133 641.292 21.083 641.52 21.6201C641.747 22.141 642.057 22.5967 642.447 22.9873C642.838 23.3779 643.294 23.6872 643.814 23.915C644.352 24.1429 644.921 24.2568 645.523 24.2568H648.014C648.616 24.2568 649.177 24.1429 649.698 23.915C650.235 23.6872 650.699 23.3779 651.09 22.9873C651.497 22.5967 651.814 22.141 652.042 21.6201C652.27 21.083 652.384 20.5133 652.384 19.9111V17.6895ZM652.262 38.9053C652.262 38.3031 652.148 37.7578 651.92 37.2695C651.692 36.7975 651.383 36.3988 650.992 36.0732C650.602 35.7477 650.138 35.4954 649.601 35.3164C649.08 35.1374 648.518 35.0479 647.916 35.0479H646.378C645.776 35.0479 645.206 35.1374 644.669 35.3164C644.148 35.4954 643.692 35.7477 643.302 36.0732C642.911 36.3988 642.602 36.7975 642.374 37.2695C642.146 37.7578 642.032 38.3031 642.032 38.9053V39.2959C642.032 39.8981 642.146 40.4352 642.374 40.9072C642.602 41.3792 642.911 41.778 643.302 42.1035C643.692 42.4453 644.148 42.7057 644.669 42.8848C645.206 43.0638 645.776 43.1533 646.378 43.1533H647.916C648.518 43.1533 649.08 43.0638 649.601 42.8848C650.138 42.7057 650.602 42.4453 650.992 42.1035C651.383 41.778 651.692 41.3792 651.92 40.9072C652.148 40.4352 652.262 39.8981 652.262 39.2959V38.9053ZM671.676 36V32.2402H675.411V36H671.676ZM675.118 25.4043H671.969V24.4521C671.969 23.3779 672.099 22.4421 672.359 21.6445C672.62 20.847 672.962 20.1471 673.385 19.5449C673.824 18.9427 674.312 18.4056 674.85 17.9336C675.403 17.4616 675.965 17.014 676.534 16.5908C677.12 16.1514 677.682 15.7119 678.219 15.2725C678.772 14.833 679.26 14.3447 679.684 13.8076C680.123 13.2705 680.473 12.6602 680.733 11.9766C680.994 11.293 681.124 10.4873 681.124 9.55957V9.0957C681.124 8.31445 680.978 7.59017 680.685 6.92285C680.392 6.23926 679.985 5.64518 679.464 5.14062C678.959 4.63607 678.365 4.2373 677.682 3.94434C677.014 3.65137 676.29 3.50488 675.509 3.50488H674.825C674.044 3.50488 673.312 3.65137 672.628 3.94434C671.961 4.2373 671.367 4.63607 670.846 5.14062C670.341 5.64518 669.942 6.23926 669.649 6.92285C669.356 7.59017 669.21 8.31445 669.21 9.0957V10.5117L666.061 9.99902V9.0957C666.061 7.90755 666.28 6.79264 666.72 5.75098C667.175 4.70931 667.794 3.79785 668.575 3.0166C669.356 2.23535 670.268 1.625 671.31 1.18555C672.368 0.729818 673.491 0.501953 674.679 0.501953H675.68C676.868 0.501953 677.983 0.729818 679.024 1.18555C680.066 1.625 680.978 2.23535 681.759 3.0166C682.54 3.79785 683.15 4.70931 683.59 5.75098C684.046 6.79264 684.273 7.90755 684.273 9.0957V9.55957C684.273 10.6826 684.143 11.6673 683.883 12.5137C683.622 13.36 683.272 14.1087 682.833 14.7598C682.41 15.4108 681.922 15.9886 681.368 16.4932C680.831 16.9977 680.27 17.4697 679.684 17.9092C679.114 18.3486 678.552 18.7799 677.999 19.2031C677.462 19.6263 676.974 20.0902 676.534 20.5947C676.111 21.0993 675.769 21.6608 675.509 22.2793C675.248 22.8978 675.118 23.6221 675.118 24.4521V25.4043Z" fill="#910F29" fill-opacity="0.65"/>
</svg>
