<svg width="94" height="19" viewBox="0 0 94 19" fill="none" xmlns="http://www.w3.org/2000/svg">
<path d="M0.337891 18V0.495117H1.9126V18H0.337891ZM16.0264 18V8.84473C16.0264 8.54362 15.9694 8.26286 15.8555 8.00244C15.7415 7.73389 15.5869 7.50195 15.3916 7.30664C15.1963 7.11133 14.9644 6.95671 14.6958 6.84277C14.4354 6.72884 14.1546 6.67188 13.8535 6.67188H12.8525C12.5514 6.67188 12.2666 6.72884 11.998 6.84277C11.7376 6.95671 11.5098 7.11133 11.3145 7.30664C11.1191 7.50195 10.9645 7.73389 10.8506 8.00244C10.7367 8.26286 10.6797 8.54362 10.6797 8.84473V18H9.17822V5.5H9.67871L10.4966 6.76953C10.8384 6.30566 11.2656 5.93945 11.7783 5.6709C12.2992 5.39421 12.8647 5.25586 13.4751 5.25586H13.8535C14.3581 5.25586 14.8341 5.35352 15.2817 5.54883C15.7293 5.736 16.12 5.99642 16.4536 6.33008C16.7873 6.66374 17.0477 7.05436 17.2349 7.50195C17.4302 7.94954 17.5278 8.42562 17.5278 8.93018V18H16.0264ZM32.1299 18L31.2998 16.7305C30.958 17.1943 30.5308 17.5646 30.0181 17.8413C29.5054 18.1099 28.9438 18.2441 28.3335 18.2441H27.9551C27.4505 18.2441 26.9744 18.1506 26.5269 17.9634C26.0793 17.7681 25.6886 17.5036 25.355 17.1699C25.0213 16.8363 24.7568 16.4456 24.5615 15.998C24.3743 15.5505 24.2808 15.0744 24.2808 14.5698V8.93018C24.2808 8.42562 24.3743 7.94954 24.5615 7.50195C24.7568 7.05436 25.0213 6.66374 25.355 6.33008C25.6886 5.99642 26.0793 5.736 26.5269 5.54883C26.9744 5.35352 27.4505 5.25586 27.9551 5.25586H28.3335C28.895 5.25586 29.4159 5.36979 29.896 5.59766C30.3761 5.82552 30.7871 6.1429 31.1289 6.5498V0.495117H32.6304V18H32.1299ZM31.1289 8.84473C31.1289 8.54362 31.0719 8.26286 30.958 8.00244C30.8441 7.73389 30.6895 7.50195 30.4941 7.30664C30.2988 7.11133 30.0669 6.95671 29.7983 6.84277C29.5379 6.72884 29.2572 6.67188 28.9561 6.67188H27.9551C27.654 6.67188 27.3691 6.72884 27.1006 6.84277C26.8402 6.95671 26.6123 7.11133 26.417 7.30664C26.2217 7.50195 26.0671 7.73389 25.9531 8.00244C25.8392 8.26286 25.7822 8.54362 25.7822 8.84473V14.6553C25.7822 14.9564 25.8392 15.2412 25.9531 15.5098C26.0671 15.7702 26.2217 15.998 26.417 16.1934C26.6123 16.3887 26.8402 16.5433 27.1006 16.6572C27.3691 16.7712 27.654 16.8281 27.9551 16.8281H28.9561C29.2572 16.8281 29.5379 16.7712 29.7983 16.6572C30.0669 16.5433 30.2988 16.3887 30.4941 16.1934C30.6895 15.998 30.8441 15.7702 30.958 15.5098C31.0719 15.2412 31.1289 14.9564 31.1289 14.6553V8.84473ZM47.9771 14.8262C47.9771 15.3307 47.8753 15.7946 47.6719 16.2178C47.4684 16.6328 47.1917 16.9909 46.8418 17.292C46.4919 17.5931 46.085 17.8291 45.6211 18C45.1654 18.1628 44.6852 18.2441 44.1807 18.2441H43.1797C42.6751 18.2441 42.1909 18.1506 41.7271 17.9634C41.2713 17.7681 40.8685 17.5036 40.5186 17.1699C40.1768 16.8363 39.9001 16.4456 39.6885 15.998C39.485 15.5505 39.3833 15.0744 39.3833 14.5698V14.0693L40.8848 13.8252V14.6553C40.8848 14.9564 40.9458 15.2412 41.0679 15.5098C41.1981 15.7702 41.369 15.998 41.5806 16.1934C41.7922 16.3887 42.0363 16.5433 42.313 16.6572C42.5897 16.7712 42.8786 16.8281 43.1797 16.8281H44.1807C44.4818 16.8281 44.7707 16.7834 45.0474 16.6938C45.3241 16.6043 45.5682 16.4782 45.7798 16.3154C45.9995 16.1445 46.1704 15.9411 46.2925 15.7051C46.4227 15.4691 46.4878 15.2005 46.4878 14.8994C46.4878 14.4518 46.3901 14.0856 46.1948 13.8008C45.9995 13.516 45.7391 13.2799 45.4136 13.0928C45.0962 12.8975 44.73 12.7388 44.3149 12.6167C43.908 12.4865 43.4889 12.3604 43.0576 12.2383C42.6263 12.1081 42.2031 11.9616 41.7881 11.7988C41.3812 11.6361 41.015 11.4245 40.6895 11.1641C40.3721 10.8955 40.1157 10.5618 39.9204 10.1631C39.7251 9.76432 39.6274 9.2679 39.6274 8.67383C39.6274 8.16927 39.7251 7.70947 39.9204 7.29443C40.1157 6.87126 40.3802 6.50911 40.7139 6.20801C41.0475 5.9069 41.4341 5.67497 41.8735 5.51221C42.3211 5.34131 42.7972 5.25586 43.3018 5.25586H44.1807C44.6852 5.25586 45.1613 5.35352 45.6089 5.54883C46.0565 5.736 46.4471 5.99642 46.7808 6.33008C47.1144 6.66374 47.3748 7.05436 47.562 7.50195C47.7573 7.94954 47.855 8.42562 47.855 8.93018V8.979L46.3535 9.22314V8.84473C46.3535 8.54362 46.2965 8.26286 46.1826 8.00244C46.0687 7.73389 45.9141 7.50195 45.7188 7.30664C45.5234 7.11133 45.2915 6.95671 45.0229 6.84277C44.7625 6.72884 44.4818 6.67188 44.1807 6.67188H43.3018C43.0007 6.67188 42.7158 6.71663 42.4473 6.80615C42.1868 6.89567 41.959 7.02588 41.7637 7.19678C41.5684 7.35954 41.4137 7.55892 41.2998 7.79492C41.1859 8.03092 41.1289 8.29948 41.1289 8.60059C41.1289 9.0319 41.2266 9.3859 41.4219 9.6626C41.6172 9.93115 41.8735 10.159 42.1909 10.3462C42.5164 10.5334 42.8826 10.6921 43.2896 10.8223C43.7046 10.9443 44.1237 11.0745 44.5469 11.2129C44.9782 11.3431 45.3973 11.4937 45.8042 11.6646C46.2192 11.8354 46.5854 12.0552 46.9028 12.3237C47.2284 12.5923 47.4888 12.93 47.6841 13.3369C47.8794 13.7357 47.9771 14.2321 47.9771 14.8262ZM62.9575 14.5698C62.9575 15.0744 62.8599 15.5505 62.6646 15.998C62.4774 16.4456 62.217 16.8363 61.8833 17.1699C61.5496 17.5036 61.159 17.7681 60.7114 17.9634C60.2638 18.1506 59.7878 18.2441 59.2832 18.2441H58.2822C57.7777 18.2441 57.3016 18.1506 56.854 17.9634C56.4064 17.7681 56.0158 17.5036 55.6821 17.1699C55.3485 16.8363 55.084 16.4456 54.8887 15.998C54.7015 15.5505 54.6079 15.0744 54.6079 14.5698V8.93018C54.6079 8.42562 54.7015 7.94954 54.8887 7.50195C55.084 7.05436 55.3485 6.66374 55.6821 6.33008C56.0158 5.99642 56.4064 5.736 56.854 5.54883C57.3016 5.35352 57.7777 5.25586 58.2822 5.25586H59.2832C59.7878 5.25586 60.2638 5.35352 60.7114 5.54883C61.159 5.736 61.5496 5.99642 61.8833 6.33008C62.217 6.66374 62.4774 7.05436 62.6646 7.50195C62.8599 7.94954 62.9575 8.42562 62.9575 8.93018V11.8721H56.1094V14.6553C56.1094 14.9564 56.1663 15.2412 56.2803 15.5098C56.3942 15.7702 56.5488 15.998 56.7441 16.1934C56.9395 16.3887 57.1673 16.5433 57.4277 16.6572C57.6963 16.7712 57.9811 16.8281 58.2822 16.8281H59.2832C59.5843 16.8281 59.8651 16.7712 60.1255 16.6572C60.394 16.5433 60.626 16.3887 60.8213 16.1934C61.0166 15.998 61.1712 15.7702 61.2852 15.5098C61.3991 15.2412 61.4561 14.9564 61.4561 14.6553V13.8252L62.9575 14.0693V14.5698ZM61.4561 8.84473C61.4561 8.54362 61.3991 8.26286 61.2852 8.00244C61.1712 7.73389 61.0166 7.50195 60.8213 7.30664C60.626 7.11133 60.394 6.95671 60.1255 6.84277C59.8651 6.72884 59.5843 6.67188 59.2832 6.67188H58.2822C57.9811 6.67188 57.6963 6.72884 57.4277 6.84277C57.1673 6.95671 56.9395 7.11133 56.7441 7.30664C56.5488 7.50195 56.3942 7.73389 56.2803 8.00244C56.1663 8.26286 56.1094 8.54362 56.1094 8.84473V10.7002H61.4561V8.84473ZM76.5586 18V8.84473C76.5586 8.54362 76.5016 8.26286 76.3877 8.00244C76.2738 7.73389 76.1191 7.50195 75.9238 7.30664C75.7285 7.11133 75.4966 6.95671 75.228 6.84277C74.9676 6.72884 74.6868 6.67188 74.3857 6.67188H73.3848C73.0837 6.67188 72.7988 6.72884 72.5303 6.84277C72.2699 6.95671 72.042 7.11133 71.8467 7.30664C71.6514 7.50195 71.4967 7.73389 71.3828 8.00244C71.2689 8.26286 71.2119 8.54362 71.2119 8.84473V18H69.7104V5.5H70.2109L71.0288 6.76953C71.3706 6.30566 71.7979 5.93945 72.3105 5.6709C72.8314 5.39421 73.397 5.25586 74.0073 5.25586H74.3857C74.8903 5.25586 75.3664 5.35352 75.814 5.54883C76.2616 5.736 76.6522 5.99642 76.9858 6.33008C77.3195 6.66374 77.5799 7.05436 77.7671 7.50195C77.9624 7.94954 78.0601 8.42562 78.0601 8.93018V18H76.5586ZM92.6621 18L91.832 16.7305C91.4902 17.1943 91.063 17.5646 90.5503 17.8413C90.0376 18.1099 89.4761 18.2441 88.8657 18.2441H88.4873C87.9827 18.2441 87.5067 18.1506 87.0591 17.9634C86.6115 17.7681 86.2209 17.5036 85.8872 17.1699C85.5535 16.8363 85.2891 16.4456 85.0938 15.998C84.9066 15.5505 84.813 15.0744 84.813 14.5698V8.93018C84.813 8.42562 84.9066 7.94954 85.0938 7.50195C85.2891 7.05436 85.5535 6.66374 85.8872 6.33008C86.2209 5.99642 86.6115 5.736 87.0591 5.54883C87.5067 5.35352 87.9827 5.25586 88.4873 5.25586H88.8657C89.4272 5.25586 89.9481 5.36979 90.4282 5.59766C90.9084 5.82552 91.3193 6.1429 91.6611 6.5498V0.495117H93.1626V18H92.6621ZM91.6611 8.84473C91.6611 8.54362 91.6042 8.26286 91.4902 8.00244C91.3763 7.73389 91.2217 7.50195 91.0264 7.30664C90.8311 7.11133 90.5991 6.95671 90.3306 6.84277C90.0701 6.72884 89.7894 6.67188 89.4883 6.67188H88.4873C88.1862 6.67188 87.9014 6.72884 87.6328 6.84277C87.3724 6.95671 87.1445 7.11133 86.9492 7.30664C86.7539 7.50195 86.5993 7.73389 86.4854 8.00244C86.3714 8.26286 86.3145 8.54362 86.3145 8.84473V14.6553C86.3145 14.9564 86.3714 15.2412 86.4854 15.5098C86.5993 15.7702 86.7539 15.998 86.9492 16.1934C87.1445 16.3887 87.3724 16.5433 87.6328 16.6572C87.9014 16.7712 88.1862 16.8281 88.4873 16.8281H89.4883C89.7894 16.8281 90.0701 16.7712 90.3306 16.6572C90.5991 16.5433 90.8311 16.3887 91.0264 16.1934C91.2217 15.998 91.3763 15.7702 91.4902 15.5098C91.6042 15.2412 91.6611 14.9564 91.6611 14.6553V8.84473Z" fill="#910F29" fill-opacity="0.55"/>
</svg>
