<svg width="86" height="36" viewBox="0 0 86 36" fill="none" xmlns="http://www.w3.org/2000/svg">
<path d="M18.7119 26.8945C18.7119 28.0827 18.484 29.1976 18.0283 30.2393C17.5889 31.2809 16.9785 32.1924 16.1973 32.9736C15.416 33.7549 14.5046 34.3734 13.4629 34.8291C12.4212 35.2686 11.3063 35.4883 10.1182 35.4883H9.11719C7.92904 35.4883 6.80599 35.2686 5.74805 34.8291C4.70638 34.3734 3.79492 33.7549 3.01367 32.9736C2.23242 32.1924 1.61393 31.2809 1.1582 30.2393C0.71875 29.1976 0.499023 28.0827 0.499023 26.8945V25.5029L3.64844 24.9902V26.8945C3.64844 27.6758 3.79492 28.4082 4.08789 29.0918C4.38086 29.7591 4.77962 30.3532 5.28418 30.874C5.80501 31.3786 6.39909 31.7773 7.06641 32.0703C7.75 32.3633 8.48242 32.5098 9.26367 32.5098H9.97168C10.7367 32.5098 11.4609 32.3633 12.1445 32.0703C12.8281 31.7773 13.4222 31.3786 13.9268 30.874C14.4313 30.3532 14.8301 29.7591 15.123 29.0918C15.416 28.4082 15.5625 27.6758 15.5625 26.8945V-0.00976562H18.7119V26.8945ZM47.916 35L46.2559 32.4609C45.5723 33.3887 44.7178 34.1292 43.6924 34.6826C42.667 35.2197 41.5439 35.4883 40.3232 35.4883H39.5664C38.5573 35.4883 37.6051 35.3011 36.71 34.9268C35.8148 34.5361 35.0335 34.0072 34.3662 33.3398C33.6989 32.6725 33.1699 31.8913 32.7793 30.9961C32.4049 30.1009 32.2178 29.1488 32.2178 28.1396V10H35.2207V28.3105C35.2207 28.9128 35.3346 29.4824 35.5625 30.0195C35.7904 30.5404 36.0996 30.9961 36.4902 31.3867C36.8809 31.7773 37.3366 32.0866 37.8574 32.3145C38.3945 32.5423 38.9642 32.6562 39.5664 32.6562H41.5684C42.1706 32.6562 42.7321 32.5423 43.2529 32.3145C43.79 32.0866 44.2539 31.7773 44.6445 31.3867C45.0352 30.9961 45.3444 30.5404 45.5723 30.0195C45.8001 29.4824 45.9141 28.9128 45.9141 28.3105V10H48.917V35H47.916ZM63.4238 35V-0.00976562H66.4268V35H63.4238ZM81.7148 3.99414V-0.00976562H85.2061V3.99414H81.7148ZM81.959 35V10H84.9619V35H81.959Z" fill="#DDDDDD"/>
</svg>
