<svg width="96" height="19" viewBox="0 0 96 19" fill="none" xmlns="http://www.w3.org/2000/svg">
<path d="M8.89404 18L2.30225 9.24756L8.89404 0.495117H10.8472L4.12109 9.24756L10.8472 18H8.89404ZM0.349121 18V0.495117H1.92383V18H0.349121ZM24.9609 14.5698C24.9609 15.0744 24.8633 15.5505 24.668 15.998C24.4808 16.4456 24.2204 16.8363 23.8867 17.1699C23.5531 17.5036 23.1624 17.7681 22.7148 17.9634C22.2673 18.1506 21.7912 18.2441 21.2866 18.2441H20.2856C19.7811 18.2441 19.305 18.1506 18.8574 17.9634C18.4098 17.7681 18.0192 17.5036 17.6855 17.1699C17.3519 16.8363 17.0874 16.4456 16.8921 15.998C16.7049 15.5505 16.6113 15.0744 16.6113 14.5698V8.93018C16.6113 8.42562 16.7049 7.94954 16.8921 7.50195C17.0874 7.05436 17.3519 6.66374 17.6855 6.33008C18.0192 5.99642 18.4098 5.736 18.8574 5.54883C19.305 5.35352 19.7811 5.25586 20.2856 5.25586H21.2866C21.7912 5.25586 22.2673 5.35352 22.7148 5.54883C23.1624 5.736 23.5531 5.99642 23.8867 6.33008C24.2204 6.66374 24.4808 7.05436 24.668 7.50195C24.8633 7.94954 24.9609 8.42562 24.9609 8.93018V14.5698ZM23.4595 8.84473C23.4595 8.54362 23.4025 8.26286 23.2886 8.00244C23.1746 7.73389 23.02 7.50195 22.8247 7.30664C22.6294 7.11133 22.3975 6.95671 22.1289 6.84277C21.8685 6.72884 21.5877 6.67188 21.2866 6.67188H20.2856C19.9845 6.67188 19.6997 6.72884 19.4312 6.84277C19.1707 6.95671 18.9429 7.11133 18.7476 7.30664C18.5522 7.50195 18.3976 7.73389 18.2837 8.00244C18.1698 8.26286 18.1128 8.54362 18.1128 8.84473V14.6553C18.1128 14.9564 18.1698 15.2412 18.2837 15.5098C18.3976 15.7702 18.5522 15.998 18.7476 16.1934C18.9429 16.3887 19.1707 16.5433 19.4312 16.6572C19.6997 16.7712 19.9845 16.8281 20.2856 16.8281H21.2866C21.5877 16.8281 21.8685 16.7712 22.1289 16.6572C22.3975 16.5433 22.6294 16.3887 22.8247 16.1934C23.02 15.998 23.1746 15.7702 23.2886 15.5098C23.4025 15.2412 23.4595 14.9564 23.4595 14.6553V8.84473ZM38.562 18V8.84473C38.562 8.54362 38.505 8.26286 38.3911 8.00244C38.2772 7.73389 38.1226 7.50195 37.9272 7.30664C37.7319 7.11133 37.5 6.95671 37.2314 6.84277C36.971 6.72884 36.6903 6.67188 36.3892 6.67188H35.3882C35.0871 6.67188 34.8022 6.72884 34.5337 6.84277C34.2733 6.95671 34.0454 7.11133 33.8501 7.30664C33.6548 7.50195 33.5002 7.73389 33.3862 8.00244C33.2723 8.26286 33.2153 8.54362 33.2153 8.84473V18H31.7139V5.5H32.2144L33.0322 6.76953C33.374 6.30566 33.8013 5.93945 34.314 5.6709C34.8348 5.39421 35.4004 5.25586 36.0107 5.25586H36.3892C36.8937 5.25586 37.3698 5.35352 37.8174 5.54883C38.265 5.736 38.6556 5.99642 38.9893 6.33008C39.3229 6.66374 39.5833 7.05436 39.7705 7.50195C39.9658 7.94954 40.0635 8.42562 40.0635 8.93018V18H38.562ZM51.3696 18C50.9139 18 50.4826 17.9146 50.0757 17.7437C49.6769 17.5728 49.327 17.3368 49.0259 17.0356C48.7329 16.7345 48.4969 16.3846 48.3179 15.9858C48.147 15.5871 48.0615 15.1598 48.0615 14.7041V6.92822H45.8154V5.5H48.0615V2.49707L49.563 2.25293V5.5H52.7368V6.92822H49.563V14.7773C49.563 15.0296 49.6077 15.2656 49.6973 15.4854C49.7949 15.6969 49.9251 15.8841 50.0879 16.0469C50.2507 16.2096 50.4419 16.3398 50.6616 16.4375C50.8813 16.527 51.1174 16.5718 51.3696 16.5718H52.7368V18H51.3696ZM67.1069 18L66.2769 16.7549C65.9351 17.2025 65.5078 17.5646 64.9951 17.8413C64.4824 18.1099 63.9209 18.2441 63.3105 18.2441H62.9321C62.4276 18.2441 61.9515 18.1506 61.5039 17.9634C61.0563 17.7681 60.6657 17.5036 60.332 17.1699C59.9984 16.8363 59.7339 16.4456 59.5386 15.998C59.3514 15.5505 59.2578 15.0744 59.2578 14.5698V14.4478C59.2578 13.9432 59.3514 13.4671 59.5386 13.0195C59.7339 12.5719 59.9984 12.1813 60.332 11.8477C60.6657 11.514 61.0563 11.2536 61.5039 11.0664C61.9515 10.8711 62.4276 10.7734 62.9321 10.7734H66.106V8.84473C66.106 8.54362 66.049 8.26286 65.9351 8.00244C65.8211 7.73389 65.6665 7.50195 65.4712 7.30664C65.2759 7.11133 65.0439 6.95671 64.7754 6.84277C64.515 6.72884 64.2342 6.67188 63.9331 6.67188H63.0542C62.7531 6.67188 62.4683 6.72884 62.1997 6.84277C61.9393 6.95671 61.7114 7.11133 61.5161 7.30664C61.3208 7.50195 61.1662 7.73389 61.0522 8.00244C60.9383 8.26286 60.8813 8.54362 60.8813 8.84473V9.29639L59.3799 9.05225V8.93018C59.3799 8.42562 59.4735 7.94954 59.6606 7.50195C59.856 7.05436 60.1204 6.66374 60.4541 6.33008C60.7878 5.99642 61.1784 5.736 61.626 5.54883C62.0736 5.35352 62.5496 5.25586 63.0542 5.25586H63.9331C64.4377 5.25586 64.9137 5.35352 65.3613 5.54883C65.8089 5.736 66.1995 5.99642 66.5332 6.33008C66.8669 6.66374 67.1273 7.05436 67.3145 7.50195C67.5098 7.94954 67.6074 8.42562 67.6074 8.93018V18H67.1069ZM66.106 11.9453H62.9321C62.631 11.9453 62.3462 12.0023 62.0776 12.1162C61.8172 12.2301 61.5894 12.3888 61.394 12.5923C61.1987 12.7876 61.0441 13.0195 60.9302 13.2881C60.8162 13.5485 60.7593 13.8293 60.7593 14.1304V14.6553C60.7593 14.9564 60.8162 15.2412 60.9302 15.5098C61.0441 15.7702 61.1987 15.998 61.394 16.1934C61.5894 16.3887 61.8172 16.5433 62.0776 16.6572C62.3462 16.7712 62.631 16.8281 62.9321 16.8281H63.9331C64.2342 16.8281 64.515 16.7712 64.7754 16.6572C65.0439 16.5433 65.2759 16.3887 65.4712 16.1934C65.6665 15.998 65.8211 15.7702 65.9351 15.5098C66.049 15.2412 66.106 14.9564 66.106 14.6553V11.9453ZM81.7578 18L76.6553 11.75L81.7578 5.5H83.7109L78.4863 11.75L83.7109 18H81.7578ZM74.8608 18V0.495117H76.3623V18H74.8608ZM94.0161 18C93.5604 18 93.1291 17.9146 92.7222 17.7437C92.3234 17.5728 91.9735 17.3368 91.6724 17.0356C91.3794 16.7345 91.1434 16.3846 90.9644 15.9858C90.7935 15.5871 90.708 15.1598 90.708 14.7041V6.92822H88.4619V5.5H90.708V2.49707L92.2095 2.25293V5.5H95.3833V6.92822H92.2095V14.7773C92.2095 15.0296 92.2542 15.2656 92.3438 15.4854C92.4414 15.6969 92.5716 15.8841 92.7344 16.0469C92.8971 16.2096 93.0884 16.3398 93.3081 16.4375C93.5278 16.527 93.7638 16.5718 94.0161 16.5718H95.3833V18H94.0161Z" fill="#910F29"/>
</svg>
