<svg width="286" height="54" viewBox="0 0 286 54" fill="none" xmlns="http://www.w3.org/2000/svg">
<path d="M25.6821 53L5.90674 26.7427L25.6821 0.485352H31.5415L11.3633 26.7427L31.5415 53H25.6821ZM0.0473633 53V0.485352H4.77148V53H0.0473633ZM73.8828 42.7095C73.8828 44.2231 73.5898 45.6514 73.0039 46.9941C72.4424 48.3369 71.6611 49.5088 70.6602 50.5098C69.6592 51.5107 68.4873 52.3042 67.1445 52.8901C65.8018 53.4517 64.3735 53.7324 62.8599 53.7324H59.8569C58.3433 53.7324 56.915 53.4517 55.5723 52.8901C54.2295 52.3042 53.0576 51.5107 52.0566 50.5098C51.0557 49.5088 50.2622 48.3369 49.6763 46.9941C49.1147 45.6514 48.834 44.2231 48.834 42.7095V25.7905C48.834 24.2769 49.1147 22.8486 49.6763 21.5059C50.2622 20.1631 51.0557 18.9912 52.0566 17.9902C53.0576 16.9893 54.2295 16.208 55.5723 15.6465C56.915 15.0605 58.3433 14.7676 59.8569 14.7676H62.8599C64.3735 14.7676 65.8018 15.0605 67.1445 15.6465C68.4873 16.208 69.6592 16.9893 70.6602 17.9902C71.6611 18.9912 72.4424 20.1631 73.0039 21.5059C73.5898 22.8486 73.8828 24.2769 73.8828 25.7905V42.7095ZM69.3784 25.5342C69.3784 24.6309 69.2075 23.7886 68.8657 23.0073C68.5239 22.2017 68.0601 21.5059 67.4741 20.9199C66.8882 20.334 66.1924 19.8701 65.3867 19.5283C64.6055 19.1865 63.7632 19.0156 62.8599 19.0156H59.8569C58.9536 19.0156 58.0991 19.1865 57.2935 19.5283C56.5122 19.8701 55.8286 20.334 55.2427 20.9199C54.6567 21.5059 54.1929 22.2017 53.8511 23.0073C53.5093 23.7886 53.3384 24.6309 53.3384 25.5342V42.9658C53.3384 43.8691 53.5093 44.7236 53.8511 45.5293C54.1929 46.3105 54.6567 46.9941 55.2427 47.5801C55.8286 48.166 56.5122 48.6299 57.2935 48.9717C58.0991 49.3135 58.9536 49.4844 59.8569 49.4844H62.8599C63.7632 49.4844 64.6055 49.3135 65.3867 48.9717C66.1924 48.6299 66.8882 48.166 67.4741 47.5801C68.0601 46.9941 68.5239 46.3105 68.8657 45.5293C69.2075 44.7236 69.3784 43.8691 69.3784 42.9658V25.5342ZM114.686 53V25.5342C114.686 24.6309 114.515 23.7886 114.173 23.0073C113.832 22.2017 113.368 21.5059 112.782 20.9199C112.196 20.334 111.5 19.8701 110.694 19.5283C109.913 19.1865 109.071 19.0156 108.167 19.0156H105.165C104.261 19.0156 103.407 19.1865 102.601 19.5283C101.82 19.8701 101.136 20.334 100.55 20.9199C99.9644 21.5059 99.5005 22.2017 99.1587 23.0073C98.8169 23.7886 98.646 24.6309 98.646 25.5342V53H94.1416V15.5H95.6431L98.0967 19.3086C99.1221 17.917 100.404 16.8184 101.942 16.0127C103.504 15.1826 105.201 14.7676 107.032 14.7676H108.167C109.681 14.7676 111.109 15.0605 112.452 15.6465C113.795 16.208 114.967 16.9893 115.968 17.9902C116.969 18.9912 117.75 20.1631 118.312 21.5059C118.897 22.8486 119.19 24.2769 119.19 25.7905V53H114.686ZM153.109 53C151.742 53 150.448 52.7437 149.227 52.231C148.031 51.7183 146.981 51.0103 146.078 50.1069C145.199 49.2036 144.491 48.1538 143.954 46.9575C143.441 45.7612 143.185 44.4795 143.185 43.1123V19.7847H136.446V15.5H143.185V6.49121L147.689 5.75879V15.5H157.21V19.7847H147.689V43.332C147.689 44.0889 147.823 44.7969 148.092 45.4561C148.385 46.0908 148.775 46.6523 149.264 47.1406C149.752 47.6289 150.326 48.0195 150.985 48.3125C151.644 48.5811 152.352 48.7153 153.109 48.7153H157.21V53H153.109ZM200.321 53L197.831 49.2646C196.805 50.6074 195.523 51.6938 193.985 52.5239C192.447 53.3296 190.763 53.7324 188.932 53.7324H187.796C186.283 53.7324 184.854 53.4517 183.512 52.8901C182.169 52.3042 180.997 51.5107 179.996 50.5098C178.995 49.5088 178.202 48.3369 177.616 46.9941C177.054 45.6514 176.773 44.2231 176.773 42.7095V42.3433C176.773 40.8296 177.054 39.4014 177.616 38.0586C178.202 36.7158 178.995 35.5439 179.996 34.543C180.997 33.542 182.169 32.7607 183.512 32.1992C184.854 31.6133 186.283 31.3203 187.796 31.3203H197.318V25.5342C197.318 24.6309 197.147 23.7886 196.805 23.0073C196.463 22.2017 196 21.5059 195.414 20.9199C194.828 20.334 194.132 19.8701 193.326 19.5283C192.545 19.1865 191.703 19.0156 190.799 19.0156H188.163C187.259 19.0156 186.405 19.1865 185.599 19.5283C184.818 19.8701 184.134 20.334 183.548 20.9199C182.962 21.5059 182.499 22.2017 182.157 23.0073C181.815 23.7886 181.644 24.6309 181.644 25.5342V26.8892L177.14 26.1567V25.7905C177.14 24.2769 177.42 22.8486 177.982 21.5059C178.568 20.1631 179.361 18.9912 180.362 17.9902C181.363 16.9893 182.535 16.208 183.878 15.6465C185.221 15.0605 186.649 14.7676 188.163 14.7676H190.799C192.313 14.7676 193.741 15.0605 195.084 15.6465C196.427 16.208 197.599 16.9893 198.6 17.9902C199.601 18.9912 200.382 20.1631 200.943 21.5059C201.529 22.8486 201.822 24.2769 201.822 25.7905V53H200.321ZM197.318 34.8359H187.796C186.893 34.8359 186.039 35.0068 185.233 35.3486C184.452 35.6904 183.768 36.1665 183.182 36.7769C182.596 37.3628 182.132 38.0586 181.791 38.8643C181.449 39.6455 181.278 40.4878 181.278 41.3911V42.9658C181.278 43.8691 181.449 44.7236 181.791 45.5293C182.132 46.3105 182.596 46.9941 183.182 47.5801C183.768 48.166 184.452 48.6299 185.233 48.9717C186.039 49.3135 186.893 49.4844 187.796 49.4844H190.799C191.703 49.4844 192.545 49.3135 193.326 48.9717C194.132 48.6299 194.828 48.166 195.414 47.5801C196 46.9941 196.463 46.3105 196.805 45.5293C197.147 44.7236 197.318 43.8691 197.318 42.9658V34.8359ZM244.273 53L228.966 34.25L244.273 15.5H250.133L234.459 34.25L250.133 53H244.273ZM223.583 53V0.485352H228.087V53H223.583ZM281.048 53C279.681 53 278.387 52.7437 277.167 52.231C275.97 51.7183 274.92 51.0103 274.017 50.1069C273.138 49.2036 272.43 48.1538 271.893 46.9575C271.38 45.7612 271.124 44.4795 271.124 43.1123V19.7847H264.386V15.5H271.124V6.49121L275.628 5.75879V15.5H285.15V19.7847H275.628V43.332C275.628 44.0889 275.763 44.7969 276.031 45.4561C276.324 46.0908 276.715 46.6523 277.203 47.1406C277.691 47.6289 278.265 48.0195 278.924 48.3125C279.583 48.5811 280.292 48.7153 281.048 48.7153H285.15V53H281.048Z" fill="#910F29" fill-opacity="0.65"/>
</svg>
