<svg width="180" height="34" viewBox="0 0 180 34" fill="none" xmlns="http://www.w3.org/2000/svg">
<path d="M15.9611 26V8.24072L15.7985 9.34277L9.78242 26H8.55391L2.4836 9.34277L2.33907 8.24072V26H0.00849915V0.0927734H1.21895L9.07784 21.3389L9.1501 22.2964L9.22237 21.3389L17.0632 0.0927734H18.2917V26H15.9611ZM40.2821 26L39.0536 24.1572C38.5478 24.8197 37.9154 25.3556 37.1566 25.7651C36.3979 26.1626 35.5668 26.3613 34.6635 26.3613H34.1034C33.3567 26.3613 32.6521 26.2228 31.9897 25.9458C31.3272 25.6567 30.7491 25.2653 30.2553 24.7715C29.7615 24.2777 29.37 23.6995 29.081 23.0371C28.8039 22.3747 28.6654 21.6701 28.6654 20.9233V20.7427C28.6654 19.9959 28.8039 19.2913 29.081 18.6289C29.37 17.9665 29.7615 17.3883 30.2553 16.8945C30.7491 16.4007 31.3272 16.0153 31.9897 15.7383C32.6521 15.4492 33.3567 15.3047 34.1034 15.3047H38.8007V12.4502C38.8007 12.0046 38.7164 11.589 38.5478 11.2036C38.3791 10.8062 38.1503 10.4629 37.8612 10.1738C37.5722 9.88477 37.2289 9.65592 36.8314 9.4873C36.446 9.31868 36.0305 9.23438 35.5849 9.23438H34.2841C33.8384 9.23438 33.4169 9.31868 33.0194 9.4873C32.634 9.65592 32.2968 9.88477 32.0077 10.1738C31.7187 10.4629 31.4898 10.8062 31.3212 11.2036C31.1526 11.589 31.0683 12.0046 31.0683 12.4502V13.1187L28.8461 12.7573V12.5767C28.8461 11.8299 28.9846 11.1253 29.2616 10.4629C29.5507 9.80046 29.9421 9.22233 30.4359 8.72852C30.9298 8.2347 31.5079 7.84928 32.1703 7.57227C32.8327 7.2832 33.5373 7.13867 34.2841 7.13867H35.5849C36.3316 7.13867 37.0362 7.2832 37.6986 7.57227C38.3611 7.84928 38.9392 8.2347 39.433 8.72852C39.9268 9.22233 40.3122 9.80046 40.5893 10.4629C40.8783 11.1253 41.0229 11.8299 41.0229 12.5767V26H40.2821ZM38.8007 17.0391H34.1034C33.6578 17.0391 33.2362 17.1234 32.8388 17.292C32.4534 17.4606 32.1161 17.6955 31.8271 17.9966C31.538 18.2856 31.3091 18.6289 31.1405 19.0264C30.9719 19.4118 30.8876 19.8273 30.8876 20.2729V21.0498C30.8876 21.4954 30.9719 21.917 31.1405 22.3145C31.3091 22.6999 31.538 23.0371 31.8271 23.3262C32.1161 23.6152 32.4534 23.8441 32.8388 24.0127C33.2362 24.1813 33.6578 24.2656 34.1034 24.2656H35.5849C36.0305 24.2656 36.446 24.1813 36.8314 24.0127C37.2289 23.8441 37.5722 23.6152 37.8612 23.3262C38.1503 23.0371 38.3791 22.6999 38.5478 22.3145C38.7164 21.917 38.8007 21.4954 38.8007 21.0498V17.0391ZM56.4552 9.61377C56.0095 9.61377 55.588 9.69808 55.1905 9.8667C54.8051 10.0353 54.4679 10.2642 54.1788 10.5532C53.8897 10.8423 53.6609 11.1855 53.4923 11.583C53.3237 11.9684 53.2394 12.384 53.2394 12.8296V26H51.0172V7.5H51.7579L52.9684 9.37891C53.4742 8.69238 54.1065 8.15039 54.8653 7.75293C55.6362 7.34342 56.4732 7.13867 57.3766 7.13867H58.6773V9.61377H56.4552ZM78.1385 26L70.5867 16.75L78.1385 7.5H81.0291L73.2967 16.75L81.0291 26H78.1385ZM67.931 26V0.0927734H70.1531V26H67.931ZM101.899 20.9233C101.899 21.6701 101.755 22.3747 101.466 23.0371C101.189 23.6995 100.803 24.2777 100.31 24.7715C99.8158 25.2653 99.2376 25.6567 98.5752 25.9458C97.9128 26.2228 97.2082 26.3613 96.4614 26.3613H94.98C94.2332 26.3613 93.5286 26.2228 92.8662 25.9458C92.2038 25.6567 91.6257 25.2653 91.1318 24.7715C90.638 24.2777 90.2466 23.6995 89.9575 23.0371C89.6805 22.3747 89.542 21.6701 89.542 20.9233V12.5767C89.542 11.8299 89.6805 11.1253 89.9575 10.4629C90.2466 9.80046 90.638 9.22233 91.1318 8.72852C91.6257 8.2347 92.2038 7.84928 92.8662 7.57227C93.5286 7.2832 94.2332 7.13867 94.98 7.13867H96.4614C97.2082 7.13867 97.9128 7.2832 98.5752 7.57227C99.2376 7.84928 99.8158 8.2347 100.31 8.72852C100.803 9.22233 101.189 9.80046 101.466 10.4629C101.755 11.1253 101.899 11.8299 101.899 12.5767V16.9307H91.7642V21.0498C91.7642 21.4954 91.8485 21.917 92.0171 22.3145C92.1857 22.6999 92.4146 23.0371 92.7036 23.3262C92.9927 23.6152 93.3299 23.8441 93.7153 24.0127C94.1128 24.1813 94.5343 24.2656 94.98 24.2656H96.4614C96.9071 24.2656 97.3226 24.1813 97.708 24.0127C98.1055 23.8441 98.4487 23.6152 98.7378 23.3262C99.0269 23.0371 99.2557 22.6999 99.4243 22.3145C99.5929 21.917 99.6772 21.4954 99.6772 21.0498V19.8213L101.899 20.1826V20.9233ZM99.6772 12.4502C99.6772 12.0046 99.5929 11.589 99.4243 11.2036C99.2557 10.8062 99.0269 10.4629 98.7378 10.1738C98.4487 9.88477 98.1055 9.65592 97.708 9.4873C97.3226 9.31868 96.9071 9.23438 96.4614 9.23438H94.98C94.5343 9.23438 94.1128 9.31868 93.7153 9.4873C93.3299 9.65592 92.9927 9.88477 92.7036 10.1738C92.4146 10.4629 92.1857 10.8062 92.0171 11.2036C91.8485 11.589 91.7642 12.0046 91.7642 12.4502V15.1963H99.6772V12.4502ZM118.633 26C117.958 26 117.32 25.8735 116.717 25.6206C116.127 25.3677 115.609 25.0184 115.164 24.5728C114.73 24.1271 114.381 23.6092 114.116 23.019C113.863 22.4289 113.737 21.7965 113.737 21.1221V9.61377H110.412V7.5H113.737V3.05566L115.959 2.69434V7.5H120.656V9.61377H115.959V21.2305C115.959 21.6038 116.025 21.9531 116.157 22.2783C116.302 22.5915 116.495 22.8685 116.736 23.1094C116.976 23.3503 117.259 23.543 117.585 23.6875C117.91 23.82 118.259 23.8862 118.633 23.8862H120.656V26H118.633ZM130.867 3.05566V0.0927734H133.451V3.05566H130.867ZM131.048 26V7.5H133.27V26H131.048ZM154.158 26V12.4502C154.158 12.0046 154.074 11.589 153.905 11.2036C153.737 10.8062 153.508 10.4629 153.219 10.1738C152.93 9.88477 152.587 9.65592 152.189 9.4873C151.804 9.31868 151.388 9.23438 150.942 9.23438H149.461C149.015 9.23438 148.594 9.31868 148.196 9.4873C147.811 9.65592 147.474 9.88477 147.185 10.1738C146.896 10.4629 146.667 10.8062 146.498 11.2036C146.33 11.589 146.245 12.0046 146.245 12.4502V26H144.023V7.5H144.764L145.974 9.37891C146.48 8.69238 147.112 8.15039 147.871 7.75293C148.642 7.34342 149.479 7.13867 150.382 7.13867H150.942C151.689 7.13867 152.394 7.2832 153.056 7.57227C153.719 7.84928 154.297 8.2347 154.791 8.72852C155.284 9.22233 155.67 9.80046 155.947 10.4629C156.236 11.1253 156.38 11.8299 156.38 12.5767V26H154.158ZM178.913 28.3306C178.913 29.0773 178.768 29.7638 178.479 30.3901C178.202 31.0164 177.817 31.5524 177.323 31.998C176.829 32.4437 176.251 32.7869 175.589 33.0278C174.926 33.2808 174.222 33.4072 173.475 33.4072H172.554C171.807 33.4072 171.102 33.2808 170.44 33.0278C169.777 32.7869 169.199 32.4437 168.705 31.998C168.212 31.5524 167.82 31.0164 167.531 30.3901C167.254 29.7638 167.116 29.0773 167.116 28.3306V28.2583C167.116 27.5356 167.248 26.8732 167.513 26.271C167.778 25.6688 168.139 25.1449 168.597 24.6992C168.019 24.3499 167.555 23.8802 167.206 23.29C166.869 22.6878 166.7 22.0254 166.7 21.3027C166.7 20.6523 166.839 20.0501 167.116 19.4961C167.393 18.93 167.772 18.4723 168.254 18.123C167.676 17.6172 167.218 17.009 166.881 16.2983C166.543 15.5877 166.375 14.8109 166.375 13.9678V12.5767C166.375 11.8299 166.513 11.1253 166.79 10.4629C167.079 9.80046 167.471 9.22233 167.965 8.72852C168.458 8.2347 169.037 7.84928 169.699 7.57227C170.361 7.2832 171.066 7.13867 171.813 7.13867H172.734C173.637 7.13867 174.469 7.34342 175.227 7.75293C175.998 8.15039 176.637 8.69238 177.142 9.37891L178.353 7.5H179.094V13.9678C179.094 14.7145 178.949 15.4191 178.66 16.0815C178.383 16.744 177.998 17.3221 177.504 17.8159C177.01 18.3097 176.432 18.7012 175.769 18.9902C175.107 19.2673 174.402 19.4058 173.656 19.4058H170.44C170.187 19.4058 169.946 19.46 169.717 19.5684C169.488 19.6647 169.283 19.7972 169.103 19.9658C168.934 20.1344 168.802 20.3392 168.705 20.5801C168.609 20.8089 168.561 21.0498 168.561 21.3027C168.561 21.5557 168.609 21.7965 168.705 22.0254C168.802 22.2542 168.934 22.459 169.103 22.6396C169.283 22.8083 169.488 22.9408 169.717 23.0371C169.946 23.1335 170.187 23.1816 170.44 23.1816H173.475C174.222 23.1816 174.926 23.3081 175.589 23.561C176.251 23.8019 176.829 24.1452 177.323 24.5908C177.817 25.0365 178.202 25.5724 178.479 26.1987C178.768 26.825 178.913 27.5116 178.913 28.2583V28.3306ZM176.889 12.4502C176.889 12.0046 176.805 11.589 176.637 11.2036C176.468 10.8062 176.233 10.4629 175.932 10.1738C175.643 9.88477 175.3 9.65592 174.902 9.4873C174.517 9.31868 174.101 9.23438 173.656 9.23438H171.813C171.367 9.23438 170.946 9.31868 170.548 9.4873C170.163 9.65592 169.825 9.88477 169.536 10.1738C169.247 10.4629 169.019 10.8062 168.85 11.2036C168.681 11.589 168.597 12.0046 168.597 12.4502V14.0942C168.597 14.5399 168.681 14.9614 168.85 15.3589C169.019 15.7443 169.247 16.0815 169.536 16.3706C169.825 16.6597 170.163 16.8885 170.548 17.0571C170.946 17.2257 171.367 17.3101 171.813 17.3101H173.656C174.101 17.3101 174.517 17.2257 174.902 17.0571C175.3 16.8885 175.643 16.6597 175.932 16.3706C176.233 16.0815 176.468 15.7443 176.637 15.3589C176.805 14.9614 176.889 14.5399 176.889 14.0942V12.4502ZM176.799 28.1499C176.799 27.7043 176.715 27.3008 176.546 26.9395C176.378 26.5902 176.149 26.2951 175.86 26.0542C175.571 25.8133 175.227 25.6266 174.83 25.4941C174.444 25.3617 174.029 25.2954 173.583 25.2954H172.445C171.999 25.2954 171.578 25.3617 171.18 25.4941C170.795 25.6266 170.458 25.8133 170.169 26.0542C169.88 26.2951 169.651 26.5902 169.482 26.9395C169.314 27.3008 169.229 27.7043 169.229 28.1499V28.439C169.229 28.8846 169.314 29.2821 169.482 29.6313C169.651 29.9806 169.88 30.2757 170.169 30.5166C170.458 30.7695 170.795 30.9622 171.18 31.0947C171.578 31.2272 171.999 31.2935 172.445 31.2935H173.583C174.029 31.2935 174.444 31.2272 174.83 31.0947C175.227 30.9622 175.571 30.7695 175.86 30.5166C176.149 30.2757 176.378 29.9806 176.546 29.6313C176.715 29.2821 176.799 28.8846 176.799 28.439V28.1499Z" fill="#910F29"/>
</svg>
