<svg width="54" height="14" viewBox="0 0 54 14" fill="none" xmlns="http://www.w3.org/2000/svg">
<path d="M7.64209 13V3.84473C7.64209 3.54362 7.58512 3.26286 7.47119 3.00244C7.35726 2.73389 7.20264 2.50195 7.00732 2.30664C6.81201 2.11133 6.58008 1.95671 6.31152 1.84277C6.05111 1.72884 5.77035 1.67188 5.46924 1.67188H4.46826C4.16715 1.67188 3.88232 1.72884 3.61377 1.84277C3.35335 1.95671 3.12549 2.11133 2.93018 2.30664C2.73486 2.50195 2.58024 2.73389 2.46631 3.00244C2.35238 3.26286 2.29541 3.54362 2.29541 3.84473V13H0.793945V0.5H1.29443L2.1123 1.76953C2.4541 1.30566 2.88135 0.939453 3.39404 0.670898C3.91488 0.394206 4.48047 0.255859 5.09082 0.255859H5.46924C5.9738 0.255859 6.44987 0.353516 6.89746 0.548828C7.34505 0.736003 7.73568 0.996419 8.06934 1.33008C8.40299 1.66374 8.66341 2.05436 8.85059 2.50195C9.0459 2.94954 9.14355 3.42562 9.14355 3.93018V13H7.64209ZM23.7456 13L22.9155 11.7549C22.5737 12.2025 22.1465 12.5646 21.6338 12.8413C21.1211 13.1099 20.5596 13.2441 19.9492 13.2441H19.5708C19.0662 13.2441 18.5902 13.1506 18.1426 12.9634C17.695 12.7681 17.3044 12.5036 16.9707 12.1699C16.637 11.8363 16.3726 11.4456 16.1772 10.998C15.9901 10.5505 15.8965 10.0744 15.8965 9.56982V9.44775C15.8965 8.9432 15.9901 8.46712 16.1772 8.01953C16.3726 7.57194 16.637 7.18132 16.9707 6.84766C17.3044 6.514 17.695 6.25358 18.1426 6.06641C18.5902 5.87109 19.0662 5.77344 19.5708 5.77344H22.7446V3.84473C22.7446 3.54362 22.6877 3.26286 22.5737 3.00244C22.4598 2.73389 22.3052 2.50195 22.1099 2.30664C21.9146 2.11133 21.6826 1.95671 21.4141 1.84277C21.1536 1.72884 20.8729 1.67188 20.5718 1.67188H19.6929C19.3918 1.67188 19.1069 1.72884 18.8384 1.84277C18.578 1.95671 18.3501 2.11133 18.1548 2.30664C17.9595 2.50195 17.8049 2.73389 17.6909 3.00244C17.577 3.26286 17.52 3.54362 17.52 3.84473V4.29639L16.0186 4.05225V3.93018C16.0186 3.42562 16.1121 2.94954 16.2993 2.50195C16.4946 2.05436 16.7591 1.66374 17.0928 1.33008C17.4264 0.996419 17.8171 0.736003 18.2646 0.548828C18.7122 0.353516 19.1883 0.255859 19.6929 0.255859H20.5718C21.0763 0.255859 21.5524 0.353516 22 0.548828C22.4476 0.736003 22.8382 0.996419 23.1719 1.33008C23.5055 1.66374 23.766 2.05436 23.9531 2.50195C24.1484 2.94954 24.2461 3.42562 24.2461 3.93018V13H23.7456ZM22.7446 6.94531H19.5708C19.2697 6.94531 18.9849 7.00228 18.7163 7.11621C18.4559 7.23014 18.228 7.38883 18.0327 7.59229C17.8374 7.7876 17.6828 8.01953 17.5688 8.28809C17.4549 8.5485 17.3979 8.82926 17.3979 9.13037V9.65527C17.3979 9.95638 17.4549 10.2412 17.5688 10.5098C17.6828 10.7702 17.8374 10.998 18.0327 11.1934C18.228 11.3887 18.4559 11.5433 18.7163 11.6572C18.9849 11.7712 19.2697 11.8281 19.5708 11.8281H20.5718C20.8729 11.8281 21.1536 11.7712 21.4141 11.6572C21.6826 11.5433 21.9146 11.3887 22.1099 11.1934C22.3052 10.998 22.4598 10.7702 22.5737 10.5098C22.6877 10.2412 22.7446 9.95638 22.7446 9.65527V6.94531ZM34.9175 13H34.1729L29.7417 0.5H31.2432L34.5024 9.97266L34.5513 10.6196L34.6001 9.97266L37.8472 0.5H39.3486L34.9175 13ZM51.7046 13V3.84473C51.7046 3.54362 51.6476 3.26286 51.5337 3.00244C51.4198 2.73389 51.2651 2.50195 51.0698 2.30664C50.8745 2.11133 50.6426 1.95671 50.374 1.84277C50.1136 1.72884 49.8328 1.67188 49.5317 1.67188H48.5308C48.2297 1.67188 47.9448 1.72884 47.6763 1.84277C47.4159 1.95671 47.188 2.11133 46.9927 2.30664C46.7974 2.50195 46.6427 2.73389 46.5288 3.00244C46.4149 3.26286 46.3579 3.54362 46.3579 3.84473V13H44.8564V0.5H45.3569L46.1748 1.76953C46.5166 1.30566 46.9438 0.939453 47.4565 0.670898C47.9774 0.394206 48.543 0.255859 49.1533 0.255859H49.5317C50.0363 0.255859 50.5124 0.353516 50.96 0.548828C51.4076 0.736003 51.7982 0.996419 52.1318 1.33008C52.4655 1.66374 52.7259 2.05436 52.9131 2.50195C53.1084 2.94954 53.2061 3.42562 53.2061 3.93018V13H51.7046Z" fill="#910F29" fill-opacity="0.5"/>
</svg>
