<svg width="236" height="36" viewBox="0 0 236 36" fill="none" xmlns="http://www.w3.org/2000/svg">
<path d="M18.2773 35L3.67773 9.51172L3.38477 7.99805V35H0.235352V-0.00976562H1.87109L16.4707 25.5029L16.7881 26.9922V-0.00976562H19.9375V35H18.2773ZM50.6797 28.1396C50.6797 29.1488 50.4844 30.1009 50.0938 30.9961C49.7194 31.8913 49.1986 32.6725 48.5312 33.3398C47.8639 34.0072 47.0827 34.5361 46.1875 34.9268C45.2923 35.3011 44.3402 35.4883 43.3311 35.4883H41.3291C40.32 35.4883 39.3678 35.3011 38.4727 34.9268C37.5775 34.5361 36.7962 34.0072 36.1289 33.3398C35.4616 32.6725 34.9326 31.8913 34.542 30.9961C34.1676 30.1009 33.9805 29.1488 33.9805 28.1396V16.8604C33.9805 15.8512 34.1676 14.8991 34.542 14.0039C34.9326 13.1087 35.4616 12.3275 36.1289 11.6602C36.7962 10.9928 37.5775 10.472 38.4727 10.0977C39.3678 9.70703 40.32 9.51172 41.3291 9.51172H43.3311C44.3402 9.51172 45.2923 9.70703 46.1875 10.0977C47.0827 10.472 47.8639 10.9928 48.5312 11.6602C49.1986 12.3275 49.7194 13.1087 50.0938 14.0039C50.4844 14.8991 50.6797 15.8512 50.6797 16.8604V28.1396ZM47.6768 16.6895C47.6768 16.0872 47.5628 15.5257 47.335 15.0049C47.1071 14.4678 46.7979 14.0039 46.4072 13.6133C46.0166 13.2227 45.5527 12.9134 45.0156 12.6855C44.4948 12.4577 43.9333 12.3438 43.3311 12.3438H41.3291C40.7269 12.3438 40.1572 12.4577 39.6201 12.6855C39.0993 12.9134 38.6436 13.2227 38.2529 13.6133C37.8623 14.0039 37.5531 14.4678 37.3252 15.0049C37.0973 15.5257 36.9834 16.0872 36.9834 16.6895V28.3105C36.9834 28.9128 37.0973 29.4824 37.3252 30.0195C37.5531 30.5404 37.8623 30.9961 38.2529 31.3867C38.6436 31.7773 39.0993 32.0866 39.6201 32.3145C40.1572 32.5423 40.7269 32.6562 41.3291 32.6562H43.3311C43.9333 32.6562 44.4948 32.5423 45.0156 32.3145C45.5527 32.0866 46.0166 31.7773 46.4072 31.3867C46.7979 30.9961 47.1071 30.5404 47.335 30.0195C47.5628 29.4824 47.6768 28.9128 47.6768 28.3105V16.6895ZM72.0225 35H70.5332L61.6709 10H64.6738L71.1924 28.9453L71.29 30.2393L71.3877 28.9453L77.8818 10H80.8848L72.0225 35ZM108.6 28.1396C108.6 29.1488 108.404 30.1009 108.014 30.9961C107.639 31.8913 107.118 32.6725 106.451 33.3398C105.784 34.0072 105.003 34.5361 104.107 34.9268C103.212 35.3011 102.26 35.4883 101.251 35.4883H99.249C98.2399 35.4883 97.2878 35.3011 96.3926 34.9268C95.4974 34.5361 94.7161 34.0072 94.0488 33.3398C93.3815 32.6725 92.8525 31.8913 92.4619 30.9961C92.0876 30.1009 91.9004 29.1488 91.9004 28.1396V16.8604C91.9004 15.8512 92.0876 14.8991 92.4619 14.0039C92.8525 13.1087 93.3815 12.3275 94.0488 11.6602C94.7161 10.9928 95.4974 10.472 96.3926 10.0977C97.2878 9.70703 98.2399 9.51172 99.249 9.51172H101.251C102.26 9.51172 103.212 9.70703 104.107 10.0977C105.003 10.472 105.784 10.9928 106.451 11.6602C107.118 12.3275 107.639 13.1087 108.014 14.0039C108.404 14.8991 108.6 15.8512 108.6 16.8604V22.7441H94.9033V28.3105C94.9033 28.9128 95.0173 29.4824 95.2451 30.0195C95.473 30.5404 95.7822 30.9961 96.1729 31.3867C96.5635 31.7773 97.0192 32.0866 97.54 32.3145C98.0771 32.5423 98.6468 32.6562 99.249 32.6562H101.251C101.853 32.6562 102.415 32.5423 102.936 32.3145C103.473 32.0866 103.937 31.7773 104.327 31.3867C104.718 30.9961 105.027 30.5404 105.255 30.0195C105.483 29.4824 105.597 28.9128 105.597 28.3105V26.6504L108.6 27.1387V28.1396ZM105.597 16.6895C105.597 16.0872 105.483 15.5257 105.255 15.0049C105.027 14.4678 104.718 14.0039 104.327 13.6133C103.937 13.2227 103.473 12.9134 102.936 12.6855C102.415 12.4577 101.853 12.3438 101.251 12.3438H99.249C98.6468 12.3438 98.0771 12.4577 97.54 12.6855C97.0192 12.9134 96.5635 13.2227 96.1729 13.6133C95.7822 14.0039 95.473 14.4678 95.2451 15.0049C95.0173 15.5257 94.9033 16.0872 94.9033 16.6895V20.4004H105.597V16.6895ZM148.497 35V16.6895C148.497 16.0872 148.383 15.5257 148.155 15.0049C147.927 14.4678 147.618 14.0039 147.228 13.6133C146.837 13.2227 146.373 12.9134 145.836 12.6855C145.315 12.4577 144.754 12.3438 144.151 12.3438H142.662C142.06 12.3438 141.49 12.4577 140.953 12.6855C140.432 12.9134 139.968 13.2227 139.562 13.6133C139.171 14.0039 138.862 14.4678 138.634 15.0049C138.406 15.5257 138.292 16.0872 138.292 16.6895V35H135.313V16.6895C135.313 16.0872 135.2 15.5257 134.972 15.0049C134.744 14.4678 134.426 14.0039 134.02 13.6133C133.629 13.2227 133.165 12.9134 132.628 12.6855C132.107 12.4577 131.546 12.3438 130.943 12.3438H129.454C128.852 12.3438 128.282 12.4577 127.745 12.6855C127.224 12.9134 126.769 13.2227 126.378 13.6133C125.987 14.0039 125.678 14.4678 125.45 15.0049C125.222 15.5257 125.108 16.0872 125.108 16.6895V35H122.105V10H123.106L124.742 12.5391C125.426 11.6113 126.28 10.8789 127.306 10.3418C128.347 9.78841 129.479 9.51172 130.699 9.51172H130.943C132.359 9.51172 133.637 9.86165 134.776 10.5615C135.916 11.2614 136.795 12.1891 137.413 13.3447C137.722 12.7751 138.105 12.2542 138.561 11.7822C139.016 11.3102 139.521 10.9115 140.074 10.5859C140.628 10.2441 141.23 9.98372 141.881 9.80469C142.532 9.60938 143.207 9.51172 143.907 9.51172H144.151C145.16 9.51172 146.113 9.70703 147.008 10.0977C147.903 10.472 148.684 10.9928 149.352 11.6602C150.019 12.3275 150.54 13.1087 150.914 14.0039C151.305 14.8991 151.5 15.8512 151.5 16.8604V35H148.497ZM181.705 28.1396C181.705 29.1488 181.51 30.1009 181.119 30.9961C180.745 31.8913 180.224 32.6725 179.557 33.3398C178.889 34.0072 178.108 34.5361 177.213 34.9268C176.318 35.3011 175.366 35.4883 174.356 35.4883H172.354C171.345 35.4883 170.393 35.3011 169.498 34.9268C168.603 34.5361 167.822 34.0072 167.154 33.3398C166.487 32.6725 165.958 31.8913 165.567 30.9961C165.193 30.1009 165.006 29.1488 165.006 28.1396V-0.00976562H168.009V12.0996C168.692 11.2858 169.514 10.651 170.475 10.1953C171.435 9.73958 172.477 9.51172 173.6 9.51172H174.356C175.366 9.51172 176.318 9.70703 177.213 10.0977C178.108 10.472 178.889 10.9928 179.557 11.6602C180.224 12.3275 180.745 13.1087 181.119 14.0039C181.51 14.8991 181.705 15.8512 181.705 16.8604V28.1396ZM178.702 16.6895C178.702 16.0872 178.588 15.5257 178.36 15.0049C178.132 14.4678 177.823 14.0039 177.433 13.6133C177.042 13.2227 176.578 12.9134 176.041 12.6855C175.52 12.4577 174.959 12.3438 174.356 12.3438H172.354C171.752 12.3438 171.183 12.4577 170.646 12.6855C170.125 12.9134 169.669 13.2227 169.278 13.6133C168.888 14.0039 168.578 14.4678 168.351 15.0049C168.123 15.5257 168.009 16.0872 168.009 16.6895V28.3105C168.009 28.9128 168.123 29.4824 168.351 30.0195C168.578 30.5404 168.888 30.9961 169.278 31.3867C169.669 31.7773 170.125 32.0866 170.646 32.3145C171.183 32.5423 171.752 32.6562 172.354 32.6562H174.356C174.959 32.6562 175.52 32.5423 176.041 32.3145C176.578 32.0866 177.042 31.7773 177.433 31.3867C177.823 30.9961 178.132 30.5404 178.36 30.0195C178.588 29.4824 178.702 28.9128 178.702 28.3105V16.6895ZM211.91 28.1396C211.91 29.1488 211.715 30.1009 211.324 30.9961C210.95 31.8913 210.429 32.6725 209.762 33.3398C209.094 34.0072 208.313 34.5361 207.418 34.9268C206.523 35.3011 205.571 35.4883 204.562 35.4883H202.56C201.55 35.4883 200.598 35.3011 199.703 34.9268C198.808 34.5361 198.027 34.0072 197.359 33.3398C196.692 32.6725 196.163 31.8913 195.772 30.9961C195.398 30.1009 195.211 29.1488 195.211 28.1396V16.8604C195.211 15.8512 195.398 14.8991 195.772 14.0039C196.163 13.1087 196.692 12.3275 197.359 11.6602C198.027 10.9928 198.808 10.472 199.703 10.0977C200.598 9.70703 201.55 9.51172 202.56 9.51172H204.562C205.571 9.51172 206.523 9.70703 207.418 10.0977C208.313 10.472 209.094 10.9928 209.762 11.6602C210.429 12.3275 210.95 13.1087 211.324 14.0039C211.715 14.8991 211.91 15.8512 211.91 16.8604V22.7441H198.214V28.3105C198.214 28.9128 198.328 29.4824 198.556 30.0195C198.784 30.5404 199.093 30.9961 199.483 31.3867C199.874 31.7773 200.33 32.0866 200.851 32.3145C201.388 32.5423 201.957 32.6562 202.56 32.6562H204.562C205.164 32.6562 205.725 32.5423 206.246 32.3145C206.783 32.0866 207.247 31.7773 207.638 31.3867C208.028 30.9961 208.338 30.5404 208.565 30.0195C208.793 29.4824 208.907 28.9128 208.907 28.3105V26.6504L211.91 27.1387V28.1396ZM208.907 16.6895C208.907 16.0872 208.793 15.5257 208.565 15.0049C208.338 14.4678 208.028 14.0039 207.638 13.6133C207.247 13.2227 206.783 12.9134 206.246 12.6855C205.725 12.4577 205.164 12.3438 204.562 12.3438H202.56C201.957 12.3438 201.388 12.4577 200.851 12.6855C200.33 12.9134 199.874 13.2227 199.483 13.6133C199.093 14.0039 198.784 14.4678 198.556 15.0049C198.328 15.5257 198.214 16.0872 198.214 16.6895V20.4004H208.907V16.6895ZM232.765 12.8564C232.162 12.8564 231.593 12.9704 231.056 13.1982C230.535 13.4261 230.079 13.7354 229.688 14.126C229.298 14.5166 228.989 14.9805 228.761 15.5176C228.533 16.0384 228.419 16.5999 228.419 17.2021V35H225.416V10H226.417L228.053 12.5391C228.736 11.6113 229.591 10.8789 230.616 10.3418C231.658 9.78841 232.789 9.51172 234.01 9.51172H235.768V12.8564H232.765Z" fill="#DDDDDD"/>
</svg>
