<svg width="190" height="37" viewBox="0 0 190 37" fill="none" xmlns="http://www.w3.org/2000/svg">
<path d="M20.5723 27.8945C20.5723 29.0827 20.3444 30.1976 19.8887 31.2393C19.4492 32.2809 18.8389 33.1924 18.0576 33.9736C17.2764 34.7549 16.3649 35.3734 15.3232 35.8291C14.2816 36.2686 13.1667 36.4883 11.9785 36.4883H9.48828C8.30013 36.4883 7.17708 36.2686 6.11914 35.8291C5.07747 35.3734 4.16602 34.7549 3.38477 33.9736C2.60352 33.1924 1.98503 32.2809 1.5293 31.2393C1.08984 30.1976 0.870117 29.0827 0.870117 27.8945V9.0957C0.870117 7.90755 1.08984 6.79264 1.5293 5.75098C1.98503 4.70931 2.60352 3.79785 3.38477 3.0166C4.16602 2.23535 5.07747 1.625 6.11914 1.18555C7.17708 0.729818 8.30013 0.501953 9.48828 0.501953H11.9785C13.1667 0.501953 14.2816 0.729818 15.3232 1.18555C16.3649 1.625 17.2764 2.23535 18.0576 3.0166C18.8389 3.79785 19.4492 4.70931 19.8887 5.75098C20.3444 6.79264 20.5723 7.90755 20.5723 9.0957V27.8945ZM17.4229 9.0957C17.4229 8.31445 17.2764 7.59017 16.9834 6.92285C16.6904 6.23926 16.2917 5.64518 15.7871 5.14062C15.2826 4.63607 14.6885 4.2373 14.0049 3.94434C13.3376 3.65137 12.6133 3.50488 11.832 3.50488H9.63477C8.85352 3.50488 8.12109 3.65137 7.4375 3.94434C6.77018 4.2373 6.17611 4.63607 5.65527 5.14062C5.15072 5.64518 4.75195 6.23926 4.45898 6.92285C4.16602 7.59017 4.01953 8.31445 4.01953 9.0957V27.8945C4.01953 28.6758 4.16602 29.4082 4.45898 30.0918C4.75195 30.7591 5.15072 31.3532 5.65527 31.874C6.17611 32.3786 6.77018 32.7773 7.4375 33.0703C8.12109 33.3633 8.85352 33.5098 9.63477 33.5098H11.832C12.6133 33.5098 13.3376 33.3633 14.0049 33.0703C14.6885 32.7773 15.2826 32.3786 15.7871 31.874C16.2917 31.3532 16.6904 30.7591 16.9834 30.0918C17.2764 29.4082 17.4229 28.6758 17.4229 27.8945V9.0957ZM48.3604 36L38.1553 23.5L48.3604 11H52.2666L41.8174 23.5L52.2666 36H48.3604ZM34.5664 36V0.990234H37.5693V36H34.5664ZM72.877 36C71.9655 36 71.1029 35.8291 70.2891 35.4873C69.4915 35.1455 68.7917 34.6735 68.1895 34.0713C67.6035 33.4691 67.1315 32.7692 66.7734 31.9717C66.4316 31.1742 66.2607 30.3197 66.2607 29.4082V13.8564H61.7686V11H66.2607V4.99414L69.2637 4.50586V11H75.6113V13.8564H69.2637V29.5547C69.2637 30.0592 69.3532 30.5312 69.5322 30.9707C69.7275 31.3939 69.988 31.7682 70.3135 32.0938C70.639 32.4193 71.0215 32.6797 71.4609 32.875C71.9004 33.054 72.3724 33.1436 72.877 33.1436H75.6113V36H72.877ZM105.353 29.1396C105.353 30.1488 105.157 31.1009 104.767 31.9961C104.392 32.8913 103.871 33.6725 103.204 34.3398C102.537 35.0072 101.756 35.5361 100.86 35.9268C99.9652 36.3011 99.013 36.4883 98.0039 36.4883H96.002C94.9928 36.4883 94.0407 36.3011 93.1455 35.9268C92.2503 35.5361 91.4691 35.0072 90.8018 34.3398C90.1344 33.6725 89.6055 32.8913 89.2148 31.9961C88.8405 31.1009 88.6533 30.1488 88.6533 29.1396V17.8604C88.6533 16.8512 88.8405 15.8991 89.2148 15.0039C89.6055 14.1087 90.1344 13.3275 90.8018 12.6602C91.4691 11.9928 92.2503 11.472 93.1455 11.0977C94.0407 10.707 94.9928 10.5117 96.002 10.5117H98.0039C99.013 10.5117 99.9652 10.707 100.86 11.0977C101.756 11.472 102.537 11.9928 103.204 12.6602C103.871 13.3275 104.392 14.1087 104.767 15.0039C105.157 15.8991 105.353 16.8512 105.353 17.8604V29.1396ZM102.35 17.6895C102.35 17.0872 102.236 16.5257 102.008 16.0049C101.78 15.4678 101.471 15.0039 101.08 14.6133C100.689 14.2227 100.226 13.9134 99.6885 13.6855C99.1676 13.4577 98.6061 13.3438 98.0039 13.3438H96.002C95.3997 13.3438 94.8301 13.4577 94.293 13.6855C93.7721 13.9134 93.3164 14.2227 92.9258 14.6133C92.5352 15.0039 92.2259 15.4678 91.998 16.0049C91.7702 16.5257 91.6562 17.0872 91.6562 17.6895V29.3105C91.6562 29.9128 91.7702 30.4824 91.998 31.0195C92.2259 31.5404 92.5352 31.9961 92.9258 32.3867C93.3164 32.7773 93.7721 33.0866 94.293 33.3145C94.8301 33.5423 95.3997 33.6562 96.002 33.6562H98.0039C98.6061 33.6562 99.1676 33.5423 99.6885 33.3145C100.226 33.0866 100.689 32.7773 101.08 32.3867C101.471 31.9961 101.78 31.5404 102.008 31.0195C102.236 30.4824 102.35 29.9128 102.35 29.3105V17.6895ZM135.558 29.1396C135.558 30.1488 135.362 31.1009 134.972 31.9961C134.597 32.8913 134.076 33.6725 133.409 34.3398C132.742 35.0072 131.961 35.5361 131.065 35.9268C130.17 36.3011 129.218 36.4883 128.209 36.4883H126.207C125.198 36.4883 124.246 36.3011 123.351 35.9268C122.455 35.5361 121.674 35.0072 121.007 34.3398C120.34 33.6725 119.811 32.8913 119.42 31.9961C119.046 31.1009 118.858 30.1488 118.858 29.1396V0.990234H121.861V13.0996C122.545 12.2858 123.367 11.651 124.327 11.1953C125.287 10.7396 126.329 10.5117 127.452 10.5117H128.209C129.218 10.5117 130.17 10.707 131.065 11.0977C131.961 11.472 132.742 11.9928 133.409 12.6602C134.076 13.3275 134.597 14.1087 134.972 15.0039C135.362 15.8991 135.558 16.8512 135.558 17.8604V29.1396ZM132.555 17.6895C132.555 17.0872 132.441 16.5257 132.213 16.0049C131.985 15.4678 131.676 15.0039 131.285 14.6133C130.895 14.2227 130.431 13.9134 129.894 13.6855C129.373 13.4577 128.811 13.3438 128.209 13.3438H126.207C125.605 13.3438 125.035 13.4577 124.498 13.6855C123.977 13.9134 123.521 14.2227 123.131 14.6133C122.74 15.0039 122.431 15.4678 122.203 16.0049C121.975 16.5257 121.861 17.0872 121.861 17.6895V29.3105C121.861 29.9128 121.975 30.4824 122.203 31.0195C122.431 31.5404 122.74 31.9961 123.131 32.3867C123.521 32.7773 123.977 33.0866 124.498 33.3145C125.035 33.5423 125.605 33.6562 126.207 33.6562H128.209C128.811 33.6562 129.373 33.5423 129.894 33.3145C130.431 33.0866 130.895 32.7773 131.285 32.3867C131.676 31.9961 131.985 31.5404 132.213 31.0195C132.441 30.4824 132.555 29.9128 132.555 29.3105V17.6895ZM165.763 29.1396C165.763 30.1488 165.567 31.1009 165.177 31.9961C164.802 32.8913 164.282 33.6725 163.614 34.3398C162.947 35.0072 162.166 35.5361 161.271 35.9268C160.375 36.3011 159.423 36.4883 158.414 36.4883H156.412C155.403 36.4883 154.451 36.3011 153.556 35.9268C152.66 35.5361 151.879 35.0072 151.212 34.3398C150.545 33.6725 150.016 32.8913 149.625 31.9961C149.251 31.1009 149.063 30.1488 149.063 29.1396V17.8604C149.063 16.8512 149.251 15.8991 149.625 15.0039C150.016 14.1087 150.545 13.3275 151.212 12.6602C151.879 11.9928 152.66 11.472 153.556 11.0977C154.451 10.707 155.403 10.5117 156.412 10.5117H158.414C159.423 10.5117 160.375 10.707 161.271 11.0977C162.166 11.472 162.947 11.9928 163.614 12.6602C164.282 13.3275 164.802 14.1087 165.177 15.0039C165.567 15.8991 165.763 16.8512 165.763 17.8604V23.7441H152.066V29.3105C152.066 29.9128 152.18 30.4824 152.408 31.0195C152.636 31.5404 152.945 31.9961 153.336 32.3867C153.727 32.7773 154.182 33.0866 154.703 33.3145C155.24 33.5423 155.81 33.6562 156.412 33.6562H158.414C159.016 33.6562 159.578 33.5423 160.099 33.3145C160.636 33.0866 161.1 32.7773 161.49 32.3867C161.881 31.9961 162.19 31.5404 162.418 31.0195C162.646 30.4824 162.76 29.9128 162.76 29.3105V27.6504L165.763 28.1387V29.1396ZM162.76 17.6895C162.76 17.0872 162.646 16.5257 162.418 16.0049C162.19 15.4678 161.881 15.0039 161.49 14.6133C161.1 14.2227 160.636 13.9134 160.099 13.6855C159.578 13.4577 159.016 13.3438 158.414 13.3438H156.412C155.81 13.3438 155.24 13.4577 154.703 13.6855C154.182 13.9134 153.727 14.2227 153.336 14.6133C152.945 15.0039 152.636 15.4678 152.408 16.0049C152.18 16.5257 152.066 17.0872 152.066 17.6895V21.4004H162.76V17.6895ZM186.617 13.8564C186.015 13.8564 185.445 13.9704 184.908 14.1982C184.387 14.4261 183.932 14.7354 183.541 15.126C183.15 15.5166 182.841 15.9805 182.613 16.5176C182.385 17.0384 182.271 17.5999 182.271 18.2021V36H179.269V11H180.27L181.905 13.5391C182.589 12.6113 183.443 11.8789 184.469 11.3418C185.51 10.7884 186.642 10.5117 187.862 10.5117H189.62V13.8564H186.617Z" fill="#DDDDDD"/>
</svg>
