<svg width="75" height="19" viewBox="0 0 75 19" fill="none" xmlns="http://www.w3.org/2000/svg">
<path d="M10.7739 13.9473C10.7739 14.5413 10.66 15.0988 10.4321 15.6196C10.2124 16.1405 9.90723 16.5962 9.5166 16.9868C9.12598 17.3774 8.67025 17.6867 8.14941 17.9146C7.62858 18.1343 7.07113 18.2441 6.47705 18.2441H5.23193C4.63786 18.2441 4.07633 18.1343 3.54736 17.9146C3.02653 17.6867 2.5708 17.3774 2.18018 16.9868C1.78955 16.5962 1.48031 16.1405 1.25244 15.6196C1.03271 15.0988 0.922852 14.5413 0.922852 13.9473V4.54785C0.922852 3.95378 1.03271 3.39632 1.25244 2.87549C1.48031 2.35465 1.78955 1.89893 2.18018 1.5083C2.5708 1.11768 3.02653 0.8125 3.54736 0.592773C4.07633 0.364909 4.63786 0.250977 5.23193 0.250977H6.47705C7.07113 0.250977 7.62858 0.364909 8.14941 0.592773C8.67025 0.8125 9.12598 1.11768 9.5166 1.5083C9.90723 1.89893 10.2124 2.35465 10.4321 2.87549C10.66 3.39632 10.7739 3.95378 10.7739 4.54785V13.9473ZM9.19922 4.54785C9.19922 4.15723 9.12598 3.79508 8.97949 3.46143C8.83301 3.11963 8.63363 2.82259 8.38135 2.57031C8.12907 2.31803 7.83203 2.11865 7.49023 1.97217C7.15658 1.82568 6.79443 1.75244 6.40381 1.75244H5.30518C4.91455 1.75244 4.54834 1.82568 4.20654 1.97217C3.87288 2.11865 3.57585 2.31803 3.31543 2.57031C3.06315 2.82259 2.86377 3.11963 2.71729 3.46143C2.5708 3.79508 2.49756 4.15723 2.49756 4.54785V13.9473C2.49756 14.3379 2.5708 14.7041 2.71729 15.0459C2.86377 15.3796 3.06315 15.6766 3.31543 15.937C3.57585 16.1893 3.87288 16.3887 4.20654 16.5352C4.54834 16.6816 4.91455 16.7549 5.30518 16.7549H6.40381C6.79443 16.7549 7.15658 16.6816 7.49023 16.5352C7.83203 16.3887 8.12907 16.1893 8.38135 15.937C8.63363 15.6766 8.83301 15.3796 8.97949 15.0459C9.12598 14.7041 9.19922 14.3379 9.19922 13.9473V4.54785ZM30.979 18V8.84473C30.979 8.54362 30.922 8.26286 30.8081 8.00244C30.6942 7.73389 30.5396 7.50195 30.3442 7.30664C30.1489 7.11133 29.917 6.95671 29.6484 6.84277C29.388 6.72884 29.1073 6.67188 28.8062 6.67188H28.0615C27.7604 6.67188 27.4756 6.72884 27.207 6.84277C26.9466 6.95671 26.7147 7.11133 26.5112 7.30664C26.3159 7.50195 26.1613 7.73389 26.0474 8.00244C25.9334 8.26286 25.8765 8.54362 25.8765 8.84473V18H24.3872V8.84473C24.3872 8.54362 24.3302 8.26286 24.2163 8.00244C24.1024 7.73389 23.9437 7.50195 23.7402 7.30664C23.5449 7.11133 23.313 6.95671 23.0444 6.84277C22.784 6.72884 22.5033 6.67188 22.2021 6.67188H21.4575C21.1564 6.67188 20.8716 6.72884 20.603 6.84277C20.3426 6.95671 20.1147 7.11133 19.9194 7.30664C19.7241 7.50195 19.5695 7.73389 19.4556 8.00244C19.3416 8.26286 19.2847 8.54362 19.2847 8.84473V18H17.7832V5.5H18.2837L19.1016 6.76953C19.4434 6.30566 19.8706 5.93945 20.3833 5.6709C20.9041 5.39421 21.4697 5.25586 22.0801 5.25586H22.2021C22.9102 5.25586 23.549 5.43083 24.1187 5.78076C24.6883 6.1307 25.1278 6.59456 25.437 7.17236C25.5916 6.88753 25.7829 6.62712 26.0107 6.39111C26.2386 6.15511 26.4909 5.95573 26.7676 5.79297C27.0443 5.62207 27.3454 5.49186 27.6709 5.40234C27.9964 5.30469 28.3341 5.25586 28.6841 5.25586H28.8062C29.3107 5.25586 29.7868 5.35352 30.2344 5.54883C30.682 5.736 31.0726 5.99642 31.4062 6.33008C31.7399 6.66374 32.0003 7.05436 32.1875 7.50195C32.3828 7.94954 32.4805 8.42562 32.4805 8.93018V18H30.979ZM58.8403 13.9473C58.8403 14.5413 58.7264 15.0988 58.4985 15.6196C58.2788 16.1405 57.9736 16.5962 57.583 16.9868C57.1924 17.3774 56.7367 17.6867 56.2158 17.9146C55.695 18.1343 55.1375 18.2441 54.5435 18.2441H53.2983C52.7043 18.2441 52.1427 18.1343 51.6138 17.9146C51.0929 17.6867 50.6372 17.3774 50.2466 16.9868C49.856 16.5962 49.5467 16.1405 49.3188 15.6196C49.0991 15.0988 48.9893 14.5413 48.9893 13.9473V4.54785C48.9893 3.95378 49.0991 3.39632 49.3188 2.87549C49.5467 2.35465 49.856 1.89893 50.2466 1.5083C50.6372 1.11768 51.0929 0.8125 51.6138 0.592773C52.1427 0.364909 52.7043 0.250977 53.2983 0.250977H54.5435C55.1375 0.250977 55.695 0.364909 56.2158 0.592773C56.7367 0.8125 57.1924 1.11768 57.583 1.5083C57.9736 1.89893 58.2788 2.35465 58.4985 2.87549C58.7264 3.39632 58.8403 3.95378 58.8403 4.54785V13.9473ZM57.2656 4.54785C57.2656 4.15723 57.1924 3.79508 57.0459 3.46143C56.8994 3.11963 56.7 2.82259 56.4478 2.57031C56.1955 2.31803 55.8984 2.11865 55.5566 1.97217C55.223 1.82568 54.8608 1.75244 54.4702 1.75244H53.3716C52.981 1.75244 52.6147 1.82568 52.2729 1.97217C51.9393 2.11865 51.6423 2.31803 51.3818 2.57031C51.1296 2.82259 50.9302 3.11963 50.7837 3.46143C50.6372 3.79508 50.564 4.15723 50.564 4.54785V13.9473C50.564 14.3379 50.6372 14.7041 50.7837 15.0459C50.9302 15.3796 51.1296 15.6766 51.3818 15.937C51.6423 16.1893 51.9393 16.3887 52.2729 16.5352C52.6147 16.6816 52.981 16.7549 53.3716 16.7549H54.4702C54.8608 16.7549 55.223 16.6816 55.5566 16.5352C55.8984 16.3887 56.1955 16.1893 56.4478 15.937C56.7 15.6766 56.8994 15.3796 57.0459 15.0459C57.1924 14.7041 57.2656 14.3379 57.2656 13.9473V4.54785ZM74.4434 14.8262C74.4434 15.3307 74.3416 15.7946 74.1382 16.2178C73.9347 16.6328 73.658 16.9909 73.3081 17.292C72.9582 17.5931 72.5513 17.8291 72.0874 18C71.6317 18.1628 71.1515 18.2441 70.647 18.2441H69.646C69.1414 18.2441 68.6572 18.1506 68.1934 17.9634C67.7376 17.7681 67.3348 17.5036 66.9849 17.1699C66.6431 16.8363 66.3664 16.4456 66.1548 15.998C65.9513 15.5505 65.8496 15.0744 65.8496 14.5698V14.0693L67.3511 13.8252V14.6553C67.3511 14.9564 67.4121 15.2412 67.5342 15.5098C67.6644 15.7702 67.8353 15.998 68.0469 16.1934C68.2585 16.3887 68.5026 16.5433 68.7793 16.6572C69.056 16.7712 69.3449 16.8281 69.646 16.8281H70.647C70.9481 16.8281 71.237 16.7834 71.5137 16.6938C71.7904 16.6043 72.0345 16.4782 72.2461 16.3154C72.4658 16.1445 72.6367 15.9411 72.7588 15.7051C72.889 15.4691 72.9541 15.2005 72.9541 14.8994C72.9541 14.4518 72.8564 14.0856 72.6611 13.8008C72.4658 13.516 72.2054 13.2799 71.8799 13.0928C71.5625 12.8975 71.1963 12.7388 70.7812 12.6167C70.3743 12.4865 69.9552 12.3604 69.5239 12.2383C69.0926 12.1081 68.6694 11.9616 68.2544 11.7988C67.8475 11.6361 67.4813 11.4245 67.1558 11.1641C66.8384 10.8955 66.582 10.5618 66.3867 10.1631C66.1914 9.76432 66.0938 9.2679 66.0938 8.67383C66.0938 8.16927 66.1914 7.70947 66.3867 7.29443C66.582 6.87126 66.8465 6.50911 67.1802 6.20801C67.5138 5.9069 67.9004 5.67497 68.3398 5.51221C68.7874 5.34131 69.2635 5.25586 69.7681 5.25586H70.647C71.1515 5.25586 71.6276 5.35352 72.0752 5.54883C72.5228 5.736 72.9134 5.99642 73.2471 6.33008C73.5807 6.66374 73.8411 7.05436 74.0283 7.50195C74.2236 7.94954 74.3213 8.42562 74.3213 8.93018V8.979L72.8198 9.22314V8.84473C72.8198 8.54362 72.7629 8.26286 72.6489 8.00244C72.535 7.73389 72.3804 7.50195 72.1851 7.30664C71.9897 7.11133 71.7578 6.95671 71.4893 6.84277C71.2288 6.72884 70.9481 6.67188 70.647 6.67188H69.7681C69.467 6.67188 69.1821 6.71663 68.9136 6.80615C68.6532 6.89567 68.4253 7.02588 68.23 7.19678C68.0347 7.35954 67.88 7.55892 67.7661 7.79492C67.6522 8.03092 67.5952 8.29948 67.5952 8.60059C67.5952 9.0319 67.6929 9.3859 67.8882 9.6626C68.0835 9.93115 68.3398 10.159 68.6572 10.3462C68.9827 10.5334 69.349 10.6921 69.7559 10.8223C70.1709 10.9443 70.59 11.0745 71.0132 11.2129C71.4445 11.3431 71.8636 11.4937 72.2705 11.6646C72.6855 11.8354 73.0518 12.0552 73.3691 12.3237C73.6947 12.5923 73.9551 12.93 74.1504 13.3369C74.3457 13.7357 74.4434 14.2321 74.4434 14.8262Z" fill="#DFDFDF"/>
</svg>
