<svg width="221" height="55" viewBox="0 0 221 55" fill="none" xmlns="http://www.w3.org/2000/svg">
<path d="M29.8218 41.8418C29.8218 43.624 29.48 45.2964 28.7964 46.8589C28.1372 48.4214 27.2217 49.7886 26.0498 50.9604C24.8779 52.1323 23.5107 53.0601 21.9482 53.7437C20.3857 54.4028 18.7134 54.7324 16.9312 54.7324H13.1958C11.4136 54.7324 9.729 54.4028 8.14209 53.7437C6.57959 53.0601 5.2124 52.1323 4.04053 50.9604C2.86865 49.7886 1.94092 48.4214 1.25732 46.8589C0.598145 45.2964 0.268555 43.624 0.268555 41.8418V13.6436C0.268555 11.8613 0.598145 10.189 1.25732 8.62646C1.94092 7.06396 2.86865 5.69678 4.04053 4.5249C5.2124 3.35303 6.57959 2.4375 8.14209 1.77832C9.729 1.09473 11.4136 0.75293 13.1958 0.75293H16.9312C18.7134 0.75293 20.3857 1.09473 21.9482 1.77832C23.5107 2.4375 24.8779 3.35303 26.0498 4.5249C27.2217 5.69678 28.1372 7.06396 28.7964 8.62646C29.48 10.189 29.8218 11.8613 29.8218 13.6436V41.8418ZM25.0977 13.6436C25.0977 12.4717 24.8779 11.3853 24.4385 10.3843C23.999 9.35889 23.4009 8.46777 22.644 7.71094C21.8872 6.9541 20.9961 6.35596 19.9707 5.9165C18.9697 5.47705 17.8833 5.25732 16.7114 5.25732H13.4155C12.2437 5.25732 11.145 5.47705 10.1196 5.9165C9.11865 6.35596 8.22754 6.9541 7.44629 7.71094C6.68945 8.46777 6.09131 9.35889 5.65186 10.3843C5.2124 11.3853 4.99268 12.4717 4.99268 13.6436V41.8418C4.99268 43.0137 5.2124 44.1123 5.65186 45.1377C6.09131 46.1387 6.68945 47.0298 7.44629 47.811C8.22754 48.5679 9.11865 49.166 10.1196 49.6055C11.145 50.0449 12.2437 50.2646 13.4155 50.2646H16.7114C17.8833 50.2646 18.9697 50.0449 19.9707 49.6055C20.9961 49.166 21.8872 48.5679 22.644 47.811C23.4009 47.0298 23.999 46.1387 24.4385 45.1377C24.8779 44.1123 25.0977 43.0137 25.0977 41.8418V13.6436ZM90.437 54V26.5342C90.437 25.6309 90.2661 24.7886 89.9243 24.0073C89.5825 23.2017 89.1187 22.5059 88.5327 21.9199C87.9468 21.334 87.251 20.8701 86.4453 20.5283C85.6641 20.1865 84.8218 20.0156 83.9185 20.0156H81.6846C80.7812 20.0156 79.9268 20.1865 79.1211 20.5283C78.3398 20.8701 77.644 21.334 77.0337 21.9199C76.4478 22.5059 75.9839 23.2017 75.6421 24.0073C75.3003 24.7886 75.1294 25.6309 75.1294 26.5342V54H70.6616V26.5342C70.6616 25.6309 70.4907 24.7886 70.1489 24.0073C69.8071 23.2017 69.3311 22.5059 68.7207 21.9199C68.1348 21.334 67.439 20.8701 66.6333 20.5283C65.8521 20.1865 65.0098 20.0156 64.1064 20.0156H61.8726C60.9692 20.0156 60.1147 20.1865 59.3091 20.5283C58.5278 20.8701 57.8442 21.334 57.2583 21.9199C56.6724 22.5059 56.2085 23.2017 55.8667 24.0073C55.5249 24.7886 55.354 25.6309 55.354 26.5342V54H50.8496V16.5H52.3511L54.8047 20.3086C55.8301 18.917 57.1118 17.8184 58.6499 17.0127C60.2124 16.1826 61.9092 15.7676 63.7402 15.7676H64.1064C66.2305 15.7676 68.147 16.2925 69.856 17.3423C71.5649 18.3921 72.8833 19.7837 73.811 21.5171C74.2749 20.6626 74.8486 19.8813 75.5322 19.1733C76.2158 18.4653 76.9727 17.8672 77.8027 17.3789C78.6328 16.8662 79.5361 16.4756 80.5127 16.207C81.4893 15.9141 82.5024 15.7676 83.5522 15.7676H83.9185C85.4321 15.7676 86.8604 16.0605 88.2031 16.6465C89.5459 17.208 90.7178 17.9893 91.7188 18.9902C92.7197 19.9912 93.501 21.1631 94.0625 22.5059C94.6484 23.8486 94.9414 25.2769 94.9414 26.7905V54H90.437ZM174.021 41.8418C174.021 43.624 173.679 45.2964 172.996 46.8589C172.336 48.4214 171.421 49.7886 170.249 50.9604C169.077 52.1323 167.71 53.0601 166.147 53.7437C164.585 54.4028 162.913 54.7324 161.13 54.7324H157.395C155.613 54.7324 153.928 54.4028 152.341 53.7437C150.779 53.0601 149.412 52.1323 148.24 50.9604C147.068 49.7886 146.14 48.4214 145.457 46.8589C144.797 45.2964 144.468 43.624 144.468 41.8418V13.6436C144.468 11.8613 144.797 10.189 145.457 8.62646C146.14 7.06396 147.068 5.69678 148.24 4.5249C149.412 3.35303 150.779 2.4375 152.341 1.77832C153.928 1.09473 155.613 0.75293 157.395 0.75293H161.13C162.913 0.75293 164.585 1.09473 166.147 1.77832C167.71 2.4375 169.077 3.35303 170.249 4.5249C171.421 5.69678 172.336 7.06396 172.996 8.62646C173.679 10.189 174.021 11.8613 174.021 13.6436V41.8418ZM169.297 13.6436C169.297 12.4717 169.077 11.3853 168.638 10.3843C168.198 9.35889 167.6 8.46777 166.843 7.71094C166.086 6.9541 165.195 6.35596 164.17 5.9165C163.169 5.47705 162.083 5.25732 160.911 5.25732H157.615C156.443 5.25732 155.344 5.47705 154.319 5.9165C153.318 6.35596 152.427 6.9541 151.646 7.71094C150.889 8.46777 150.291 9.35889 149.851 10.3843C149.412 11.3853 149.192 12.4717 149.192 13.6436V41.8418C149.192 43.0137 149.412 44.1123 149.851 45.1377C150.291 46.1387 150.889 47.0298 151.646 47.811C152.427 48.5679 153.318 49.166 154.319 49.6055C155.344 50.0449 156.443 50.2646 157.615 50.2646H160.911C162.083 50.2646 163.169 50.0449 164.17 49.6055C165.195 49.166 166.086 48.5679 166.843 47.811C167.6 47.0298 168.198 46.1387 168.638 45.1377C169.077 44.1123 169.297 43.0137 169.297 41.8418V13.6436ZM220.83 44.4785C220.83 45.9922 220.525 47.3838 219.915 48.6533C219.304 49.8984 218.474 50.9727 217.424 51.876C216.375 52.7793 215.154 53.4873 213.762 54C212.395 54.4883 210.955 54.7324 209.441 54.7324H206.438C204.924 54.7324 203.472 54.4517 202.08 53.8901C200.713 53.3042 199.504 52.5107 198.455 51.5098C197.429 50.5088 196.599 49.3369 195.964 47.9941C195.354 46.6514 195.049 45.2231 195.049 43.7095V42.208L199.553 41.4756V43.9658C199.553 44.8691 199.736 45.7236 200.103 46.5293C200.493 47.3105 201.006 47.9941 201.641 48.5801C202.275 49.166 203.008 49.6299 203.838 49.9717C204.668 50.3135 205.535 50.4844 206.438 50.4844H209.441C210.344 50.4844 211.211 50.3501 212.041 50.0815C212.871 49.813 213.604 49.4346 214.238 48.9463C214.897 48.4336 215.41 47.8232 215.776 47.1152C216.167 46.4072 216.362 45.6016 216.362 44.6982C216.362 43.3555 216.069 42.2568 215.483 41.4023C214.897 40.5479 214.116 39.8398 213.14 39.2783C212.188 38.6924 211.089 38.2163 209.844 37.8501C208.623 37.4595 207.366 37.0811 206.072 36.7148C204.778 36.3242 203.508 35.8848 202.263 35.3965C201.042 34.9082 199.944 34.2734 198.967 33.4922C198.015 32.6865 197.246 31.6855 196.66 30.4893C196.074 29.293 195.781 27.8037 195.781 26.0215C195.781 24.5078 196.074 23.1284 196.66 21.8833C197.246 20.6138 198.04 19.5273 199.041 18.624C200.042 17.7207 201.201 17.0249 202.52 16.5366C203.862 16.0239 205.291 15.7676 206.804 15.7676H209.441C210.955 15.7676 212.383 16.0605 213.726 16.6465C215.068 17.208 216.24 17.9893 217.241 18.9902C218.242 19.9912 219.023 21.1631 219.585 22.5059C220.171 23.8486 220.464 25.2769 220.464 26.7905V26.937L215.959 27.6694V26.5342C215.959 25.6309 215.789 24.7886 215.447 24.0073C215.105 23.2017 214.641 22.5059 214.055 21.9199C213.469 21.334 212.773 20.8701 211.968 20.5283C211.187 20.1865 210.344 20.0156 209.441 20.0156H206.804C205.901 20.0156 205.046 20.1499 204.241 20.4185C203.459 20.687 202.776 21.0776 202.19 21.5903C201.604 22.0786 201.14 22.6768 200.798 23.3848C200.457 24.0928 200.286 24.8984 200.286 25.8018C200.286 27.0957 200.579 28.1577 201.165 28.9878C201.75 29.7935 202.52 30.4771 203.472 31.0386C204.448 31.6001 205.547 32.0762 206.768 32.4668C208.013 32.833 209.27 33.2236 210.54 33.6387C211.833 34.0293 213.091 34.481 214.312 34.9937C215.557 35.5063 216.655 36.1655 217.607 36.9712C218.584 37.7769 219.365 38.79 219.951 40.0107C220.537 41.207 220.83 42.6963 220.83 44.4785Z" fill="#DDDDDD"/>
</svg>
