<svg width="200" height="35" viewBox="0 0 200 35" fill="none" xmlns="http://www.w3.org/2000/svg">
<path d="M15.1949 21.002C15.1949 21.8812 15.0263 22.7062 14.6891 23.4771C14.3639 24.2479 13.9122 24.9224 13.3341 25.5005C12.756 26.0786 12.0815 26.5363 11.3106 26.8735C10.5398 27.1987 9.71478 27.3613 8.83555 27.3613H6.99277C6.11354 27.3613 5.28249 27.1987 4.49961 26.8735C3.72878 26.5363 3.0543 26.0786 2.47617 25.5005C1.89805 24.9224 1.44037 24.2479 1.10313 23.4771C0.777931 22.7062 0.615334 21.8812 0.615334 21.002V7.09082C0.615334 6.21159 0.777931 5.38656 1.10313 4.61572C1.44037 3.84489 1.89805 3.17041 2.47617 2.59229C3.0543 2.01416 3.72878 1.5625 4.49961 1.2373C5.28249 0.900065 6.11354 0.731445 6.99277 0.731445H8.83555C9.71478 0.731445 10.5398 0.900065 11.3106 1.2373C12.0815 1.5625 12.756 2.01416 13.3341 2.59229C13.9122 3.17041 14.3639 3.84489 14.6891 4.61572C15.0263 5.38656 15.1949 6.21159 15.1949 7.09082V21.002ZM12.8644 7.09082C12.8644 6.5127 12.756 5.97673 12.5392 5.48291C12.3224 4.97705 12.0273 4.53743 11.6539 4.16406C11.2805 3.79069 10.8409 3.49561 10.3351 3.27881C9.84125 3.06201 9.30527 2.95361 8.72715 2.95361H7.10117C6.52305 2.95361 5.98106 3.06201 5.4752 3.27881C4.98138 3.49561 4.54177 3.79069 4.15635 4.16406C3.78298 4.53743 3.48789 4.97705 3.2711 5.48291C3.0543 5.97673 2.9459 6.5127 2.9459 7.09082V21.002C2.9459 21.5801 3.0543 22.1221 3.2711 22.6279C3.48789 23.1217 3.78298 23.5614 4.15635 23.9468C4.54177 24.3201 4.98138 24.6152 5.4752 24.832C5.98106 25.0488 6.52305 25.1572 7.10117 25.1572H8.72715C9.30527 25.1572 9.84125 25.0488 10.3351 24.832C10.8409 24.6152 11.2805 24.3201 11.6539 23.9468C12.0273 23.5614 12.3224 23.1217 12.5392 22.6279C12.756 22.1221 12.8644 21.5801 12.8644 21.002V7.09082ZM37.9261 21.9233C37.9261 22.6701 37.7815 23.3747 37.4925 24.0371C37.2155 24.6995 36.83 25.2777 36.3362 25.7715C35.8424 26.2653 35.2643 26.6567 34.6019 26.9458C33.9394 27.2228 33.2348 27.3613 32.4881 27.3613H31.928C31.097 27.3613 30.3261 27.1927 29.6155 26.8555C28.9049 26.5182 28.2967 26.0485 27.7908 25.4463V34.4072H25.5687V8.5H26.3094L27.5198 10.3789C28.0257 9.69238 28.658 9.15039 29.4168 8.75293C30.1876 8.34342 31.0247 8.13867 31.928 8.13867H32.4881C33.2348 8.13867 33.9394 8.2832 34.6019 8.57227C35.2643 8.84928 35.8424 9.2347 36.3362 9.72852C36.83 10.2223 37.2155 10.8005 37.4925 11.4629C37.7815 12.1253 37.9261 12.8299 37.9261 13.5767V21.9233ZM35.7039 13.4502C35.7039 13.0046 35.6196 12.589 35.451 12.2036C35.2824 11.8062 35.0535 11.4629 34.7645 11.1738C34.4754 10.8848 34.1321 10.6559 33.7347 10.4873C33.3493 10.3187 32.9337 10.2344 32.4881 10.2344H31.0066C30.561 10.2344 30.1395 10.3187 29.742 10.4873C29.3566 10.6559 29.0193 10.8848 28.7303 11.1738C28.4412 11.4629 28.2124 11.8062 28.0438 12.2036C27.8751 12.589 27.7908 13.0046 27.7908 13.4502V22.0498C27.7908 22.4954 27.8751 22.917 28.0438 23.3145C28.2124 23.6999 28.4412 24.0371 28.7303 24.3262C29.0193 24.6152 29.3566 24.8441 29.742 25.0127C30.1395 25.1813 30.561 25.2656 31.0066 25.2656H32.4881C32.9337 25.2656 33.3493 25.1813 33.7347 25.0127C34.1321 24.8441 34.4754 24.6152 34.7645 24.3262C35.0535 24.0371 35.2824 23.6999 35.451 23.3145C35.6196 22.917 35.7039 22.4954 35.7039 22.0498V13.4502ZM54.6592 27C53.9847 27 53.3464 26.8735 52.7441 26.6206C52.154 26.3677 51.6361 26.0184 51.1904 25.5728C50.7568 25.1271 50.4076 24.6092 50.1426 24.019C49.8896 23.4289 49.7632 22.7965 49.7632 22.1221V10.6138H46.439V8.5H49.7632V4.05566L51.9854 3.69434V8.5H56.6826V10.6138H51.9854V22.2305C51.9854 22.6038 52.0516 22.9531 52.1841 23.2783C52.3286 23.5915 52.5213 23.8685 52.7622 24.1094C53.0031 24.3503 53.2861 24.543 53.6113 24.6875C53.9365 24.82 54.2858 24.8862 54.6592 24.8862H56.6826V27H54.6592ZM66.8938 4.05566V1.09277H69.4772V4.05566H66.8938ZM67.0744 27V8.5H69.2966V27H67.0744ZM99.5795 27V13.4502C99.5795 13.0046 99.4952 12.589 99.3266 12.2036C99.1579 11.8062 98.9291 11.4629 98.64 11.1738C98.351 10.8848 98.0077 10.6559 97.6103 10.4873C97.2248 10.3187 96.8093 10.2344 96.3637 10.2344H95.2616C94.816 10.2344 94.3944 10.3187 93.997 10.4873C93.6116 10.6559 93.2683 10.8848 92.9672 11.1738C92.6781 11.4629 92.4493 11.8062 92.2807 12.2036C92.112 12.589 92.0277 13.0046 92.0277 13.4502V27H89.8236V13.4502C89.8236 13.0046 89.7393 12.589 89.5707 12.2036C89.4021 11.8062 89.1672 11.4629 88.8661 11.1738C88.577 10.8848 88.2338 10.6559 87.8363 10.4873C87.4509 10.3187 87.0354 10.2344 86.5897 10.2344H85.4877C85.0421 10.2344 84.6205 10.3187 84.223 10.4873C83.8376 10.6559 83.5004 10.8848 83.2113 11.1738C82.9223 11.4629 82.6934 11.8062 82.5248 12.2036C82.3562 12.589 82.2719 13.0046 82.2719 13.4502V27H80.0497V8.5H80.7904L82.0009 10.3789C82.5067 9.69238 83.1391 9.15039 83.8979 8.75293C84.6687 8.34342 85.5058 8.13867 86.4091 8.13867H86.5897C87.6376 8.13867 88.5831 8.39762 89.4262 8.91553C90.2693 9.43343 90.9197 10.12 91.3773 10.9751C91.6062 10.5535 91.8892 10.1681 92.2265 9.81885C92.5637 9.46956 92.9371 9.17448 93.3466 8.93359C93.7561 8.68066 94.2017 8.48796 94.6835 8.35547C95.1653 8.21094 95.6651 8.13867 96.183 8.13867H96.3637C97.1104 8.13867 97.815 8.2832 98.4774 8.57227C99.1399 8.84928 99.718 9.2347 100.212 9.72852C100.706 10.2223 101.091 10.8005 101.368 11.4629C101.657 12.1253 101.802 12.8299 101.802 13.5767V27H99.5795ZM124.153 21.9233C124.153 22.6701 124.009 23.3747 123.72 24.0371C123.443 24.6995 123.057 25.2777 122.564 25.7715C122.07 26.2653 121.492 26.6567 120.829 26.9458C120.167 27.2228 119.462 27.3613 118.715 27.3613H117.234C116.487 27.3613 115.783 27.2228 115.12 26.9458C114.458 26.6567 113.88 26.2653 113.386 25.7715C112.892 25.2777 112.501 24.6995 112.212 24.0371C111.935 23.3747 111.796 22.6701 111.796 21.9233V13.5767C111.796 12.8299 111.935 12.1253 112.212 11.4629C112.501 10.8005 112.892 10.2223 113.386 9.72852C113.88 9.2347 114.458 8.84928 115.12 8.57227C115.783 8.2832 116.487 8.13867 117.234 8.13867H118.715C119.462 8.13867 120.167 8.2832 120.829 8.57227C121.492 8.84928 122.07 9.2347 122.564 9.72852C123.057 10.2223 123.443 10.8005 123.72 11.4629C124.009 12.1253 124.153 12.8299 124.153 13.5767V17.9307H114.018V22.0498C114.018 22.4954 114.102 22.917 114.271 23.3145C114.44 23.6999 114.669 24.0371 114.958 24.3262C115.247 24.6152 115.584 24.8441 115.969 25.0127C116.367 25.1813 116.788 25.2656 117.234 25.2656H118.715C119.161 25.2656 119.577 25.1813 119.962 25.0127C120.359 24.8441 120.703 24.6152 120.992 24.3262C121.281 24.0371 121.51 23.6999 121.678 23.3145C121.847 22.917 121.931 22.4954 121.931 22.0498V20.8213L124.153 21.1826V21.9233ZM121.931 13.4502C121.931 13.0046 121.847 12.589 121.678 12.2036C121.51 11.8062 121.281 11.4629 120.992 11.1738C120.703 10.8848 120.359 10.6559 119.962 10.4873C119.577 10.3187 119.161 10.2344 118.715 10.2344H117.234C116.788 10.2344 116.367 10.3187 115.969 10.4873C115.584 10.6559 115.247 10.8848 114.958 11.1738C114.669 11.4629 114.44 11.8062 114.271 12.2036C114.102 12.589 114.018 13.0046 114.018 13.4502V16.1963H121.931V13.4502ZM139.586 10.6138C139.14 10.6138 138.719 10.6981 138.321 10.8667C137.936 11.0353 137.598 11.2642 137.309 11.5532C137.02 11.8423 136.791 12.1855 136.623 12.583C136.454 12.9684 136.37 13.384 136.37 13.8296V27H134.148V8.5H134.888L136.099 10.3789C136.605 9.69238 137.237 9.15039 137.996 8.75293C138.767 8.34342 139.604 8.13867 140.507 8.13867H141.808V10.6138H139.586ZM150.881 4.05566V1.09277H153.464V4.05566H150.881ZM151.062 27V8.5H153.284V27H151.062ZM174.172 27V13.4502C174.172 13.0046 174.088 12.589 173.919 12.2036C173.751 11.8062 173.522 11.4629 173.233 11.1738C172.944 10.8848 172.6 10.6559 172.203 10.4873C171.817 10.3187 171.402 10.2344 170.956 10.2344H169.475C169.029 10.2344 168.608 10.3187 168.21 10.4873C167.825 10.6559 167.487 10.8848 167.198 11.1738C166.909 11.4629 166.681 11.8062 166.512 12.2036C166.343 12.589 166.259 13.0046 166.259 13.4502V27H164.037V8.5H164.778L165.988 10.3789C166.494 9.69238 167.126 9.15039 167.885 8.75293C168.656 8.34342 169.493 8.13867 170.396 8.13867H170.956C171.703 8.13867 172.408 8.2832 173.07 8.57227C173.732 8.84928 174.311 9.2347 174.804 9.72852C175.298 10.2223 175.684 10.8005 175.961 11.4629C176.25 12.1253 176.394 12.8299 176.394 13.5767V27H174.172ZM198.927 29.3306C198.927 30.0773 198.782 30.7638 198.493 31.3901C198.216 32.0164 197.831 32.5524 197.337 32.998C196.843 33.4437 196.265 33.7869 195.602 34.0278C194.94 34.2808 194.235 34.4072 193.489 34.4072H192.567C191.821 34.4072 191.116 34.2808 190.454 34.0278C189.791 33.7869 189.213 33.4437 188.719 32.998C188.225 32.5524 187.834 32.0164 187.545 31.3901C187.268 30.7638 187.129 30.0773 187.129 29.3306V29.2583C187.129 28.5356 187.262 27.8732 187.527 27.271C187.792 26.6688 188.153 26.1449 188.611 25.6992C188.033 25.3499 187.569 24.8802 187.22 24.29C186.882 23.6878 186.714 23.0254 186.714 22.3027C186.714 21.6523 186.852 21.0501 187.129 20.4961C187.406 19.93 187.786 19.4723 188.267 19.123C187.689 18.6172 187.232 18.009 186.894 17.2983C186.557 16.5877 186.389 15.8109 186.389 14.9678V13.5767C186.389 12.8299 186.527 12.1253 186.804 11.4629C187.093 10.8005 187.485 10.2223 187.978 9.72852C188.472 9.2347 189.05 8.84928 189.713 8.57227C190.375 8.2832 191.08 8.13867 191.827 8.13867H192.748C193.651 8.13867 194.482 8.34342 195.241 8.75293C196.012 9.15039 196.65 9.69238 197.156 10.3789L198.367 8.5H199.107V14.9678C199.107 15.7145 198.963 16.4191 198.674 17.0815C198.397 17.744 198.011 18.3221 197.517 18.8159C197.024 19.3097 196.446 19.7012 195.783 19.9902C195.121 20.2673 194.416 20.4058 193.669 20.4058H190.454C190.201 20.4058 189.96 20.46 189.731 20.5684C189.502 20.6647 189.297 20.7972 189.117 20.9658C188.948 21.1344 188.816 21.3392 188.719 21.5801C188.623 21.8089 188.575 22.0498 188.575 22.3027C188.575 22.5557 188.623 22.7965 188.719 23.0254C188.816 23.2542 188.948 23.459 189.117 23.6396C189.297 23.8083 189.502 23.9408 189.731 24.0371C189.96 24.1335 190.201 24.1816 190.454 24.1816H193.489C194.235 24.1816 194.94 24.3081 195.602 24.561C196.265 24.8019 196.843 25.1452 197.337 25.5908C197.831 26.0365 198.216 26.5724 198.493 27.1987C198.782 27.825 198.927 28.5116 198.927 29.2583V29.3306ZM196.903 13.4502C196.903 13.0046 196.819 12.589 196.65 12.2036C196.482 11.8062 196.247 11.4629 195.946 11.1738C195.657 10.8848 195.313 10.6559 194.916 10.4873C194.531 10.3187 194.115 10.2344 193.669 10.2344H191.827C191.381 10.2344 190.959 10.3187 190.562 10.4873C190.177 10.6559 189.839 10.8848 189.55 11.1738C189.261 11.4629 189.032 11.8062 188.864 12.2036C188.695 12.589 188.611 13.0046 188.611 13.4502V15.0942C188.611 15.5399 188.695 15.9614 188.864 16.3589C189.032 16.7443 189.261 17.0815 189.55 17.3706C189.839 17.6597 190.177 17.8885 190.562 18.0571C190.959 18.2257 191.381 18.3101 191.827 18.3101H193.669C194.115 18.3101 194.531 18.2257 194.916 18.0571C195.313 17.8885 195.657 17.6597 195.946 17.3706C196.247 17.0815 196.482 16.7443 196.65 16.3589C196.819 15.9614 196.903 15.5399 196.903 15.0942V13.4502ZM196.813 29.1499C196.813 28.7043 196.729 28.3008 196.56 27.9395C196.391 27.5902 196.163 27.2951 195.873 27.0542C195.584 26.8133 195.241 26.6266 194.844 26.4941C194.458 26.3617 194.043 26.2954 193.597 26.2954H192.459C192.013 26.2954 191.592 26.3617 191.194 26.4941C190.809 26.6266 190.472 26.8133 190.183 27.0542C189.893 27.2951 189.665 27.5902 189.496 27.9395C189.327 28.3008 189.243 28.7043 189.243 29.1499V29.439C189.243 29.8846 189.327 30.2821 189.496 30.6313C189.665 30.9806 189.893 31.2757 190.183 31.5166C190.472 31.7695 190.809 31.9622 191.194 32.0947C191.592 32.2272 192.013 32.2935 192.459 32.2935H193.597C194.043 32.2935 194.458 32.2272 194.844 32.0947C195.241 31.9622 195.584 31.7695 195.873 31.5166C196.163 31.2757 196.391 30.9806 196.56 30.6313C196.729 30.2821 196.813 29.8846 196.813 29.439V29.1499Z" fill="#DDDDDD"/>
</svg>
