<svg width="237" height="23" viewBox="0 0 237 23" fill="none" xmlns="http://www.w3.org/2000/svg">
<path d="M9.06152 14.5698C9.06152 15.0744 8.96387 15.5505 8.76855 15.998C8.58138 16.4456 8.32096 16.8363 7.9873 17.1699C7.65365 17.5036 7.26302 17.7681 6.81543 17.9634C6.36784 18.1506 5.89176 18.2441 5.38721 18.2441H5.00879C4.44727 18.2441 3.92643 18.1302 3.44629 17.9023C2.96615 17.6745 2.55518 17.3571 2.21338 16.9502V23.0049H0.711914V5.5H1.2124L2.03027 6.76953C2.37207 6.30566 2.79932 5.93945 3.31201 5.6709C3.83285 5.39421 4.39844 5.25586 5.00879 5.25586H5.38721C5.89176 5.25586 6.36784 5.35352 6.81543 5.54883C7.26302 5.736 7.65365 5.99642 7.9873 6.33008C8.32096 6.66374 8.58138 7.05436 8.76855 7.50195C8.96387 7.94954 9.06152 8.42562 9.06152 8.93018V14.5698ZM7.56006 8.84473C7.56006 8.54362 7.50309 8.26286 7.38916 8.00244C7.27523 7.73389 7.12061 7.50195 6.92529 7.30664C6.72998 7.11133 6.49805 6.95671 6.22949 6.84277C5.96908 6.72884 5.68831 6.67188 5.38721 6.67188H4.38623C4.08512 6.67188 3.80029 6.72884 3.53174 6.84277C3.27132 6.95671 3.04346 7.11133 2.84814 7.30664C2.65283 7.50195 2.49821 7.73389 2.38428 8.00244C2.27035 8.26286 2.21338 8.54362 2.21338 8.84473V14.6553C2.21338 14.9564 2.27035 15.2412 2.38428 15.5098C2.49821 15.7702 2.65283 15.998 2.84814 16.1934C3.04346 16.3887 3.27132 16.5433 3.53174 16.6572C3.80029 16.7712 4.08512 16.8281 4.38623 16.8281H5.38721C5.68831 16.8281 5.96908 16.7712 6.22949 16.6572C6.49805 16.5433 6.72998 16.3887 6.92529 16.1934C7.12061 15.998 7.27523 15.7702 7.38916 15.5098C7.50309 15.2412 7.56006 14.9564 7.56006 14.6553V8.84473ZM19.4888 6.92822C19.1877 6.92822 18.9028 6.98519 18.6343 7.09912C18.3739 7.21305 18.146 7.36768 17.9507 7.56299C17.7554 7.7583 17.6007 7.99023 17.4868 8.25879C17.3729 8.51921 17.3159 8.79997 17.3159 9.10107V18H15.8145V5.5H16.3149L17.1328 6.76953C17.4746 6.30566 17.9019 5.93945 18.4146 5.6709C18.9354 5.39421 19.501 5.25586 20.1113 5.25586H20.9902V6.92822H19.4888ZM35.0918 14.5698C35.0918 15.0744 34.9941 15.5505 34.7988 15.998C34.6117 16.4456 34.3512 16.8363 34.0176 17.1699C33.6839 17.5036 33.2933 17.7681 32.8457 17.9634C32.3981 18.1506 31.922 18.2441 31.4175 18.2441H30.4165C29.9119 18.2441 29.4359 18.1506 28.9883 17.9634C28.5407 17.7681 28.1501 17.5036 27.8164 17.1699C27.4827 16.8363 27.2183 16.4456 27.0229 15.998C26.8358 15.5505 26.7422 15.0744 26.7422 14.5698V8.93018C26.7422 8.42562 26.8358 7.94954 27.0229 7.50195C27.2183 7.05436 27.4827 6.66374 27.8164 6.33008C28.1501 5.99642 28.5407 5.736 28.9883 5.54883C29.4359 5.35352 29.9119 5.25586 30.4165 5.25586H31.4175C31.922 5.25586 32.3981 5.35352 32.8457 5.54883C33.2933 5.736 33.6839 5.99642 34.0176 6.33008C34.3512 6.66374 34.6117 7.05436 34.7988 7.50195C34.9941 7.94954 35.0918 8.42562 35.0918 8.93018V14.5698ZM33.5903 8.84473C33.5903 8.54362 33.5334 8.26286 33.4194 8.00244C33.3055 7.73389 33.1509 7.50195 32.9556 7.30664C32.7603 7.11133 32.5283 6.95671 32.2598 6.84277C31.9993 6.72884 31.7186 6.67188 31.4175 6.67188H30.4165C30.1154 6.67188 29.8306 6.72884 29.562 6.84277C29.3016 6.95671 29.0737 7.11133 28.8784 7.30664C28.6831 7.50195 28.5285 7.73389 28.4146 8.00244C28.3006 8.26286 28.2437 8.54362 28.2437 8.84473V14.6553C28.2437 14.9564 28.3006 15.2412 28.4146 15.5098C28.5285 15.7702 28.6831 15.998 28.8784 16.1934C29.0737 16.3887 29.3016 16.5433 29.562 16.6572C29.8306 16.7712 30.1154 16.8281 30.4165 16.8281H31.4175C31.7186 16.8281 31.9993 16.7712 32.2598 16.6572C32.5283 16.5433 32.7603 16.3887 32.9556 16.1934C33.1509 15.998 33.3055 15.7702 33.4194 15.5098C33.5334 15.2412 33.5903 14.9564 33.5903 14.6553V8.84473ZM42.2231 2.49707V0.495117H43.9688V2.49707H42.2231ZM43.8467 19.3306C43.8467 19.8351 43.749 20.3071 43.5537 20.7466C43.3665 21.1942 43.1061 21.5848 42.7725 21.9185C42.4388 22.2521 42.0482 22.5166 41.6006 22.7119C41.153 22.9072 40.6769 23.0049 40.1724 23.0049V21.5767C40.4735 21.5767 40.7542 21.5197 41.0146 21.4058C41.2832 21.2918 41.5151 21.1372 41.7104 20.9419C41.9058 20.7466 42.0604 20.5146 42.1743 20.2461C42.2882 19.9857 42.3452 19.7049 42.3452 19.4038V5.5H43.8467V19.3306ZM59.4619 14.5698C59.4619 15.0744 59.3643 15.5505 59.1689 15.998C58.9818 16.4456 58.7214 16.8363 58.3877 17.1699C58.054 17.5036 57.6634 17.7681 57.2158 17.9634C56.7682 18.1506 56.2922 18.2441 55.7876 18.2441H54.7866C54.2821 18.2441 53.806 18.1506 53.3584 17.9634C52.9108 17.7681 52.5202 17.5036 52.1865 17.1699C51.8529 16.8363 51.5884 16.4456 51.3931 15.998C51.2059 15.5505 51.1123 15.0744 51.1123 14.5698V8.93018C51.1123 8.42562 51.2059 7.94954 51.3931 7.50195C51.5884 7.05436 51.8529 6.66374 52.1865 6.33008C52.5202 5.99642 52.9108 5.736 53.3584 5.54883C53.806 5.35352 54.2821 5.25586 54.7866 5.25586H55.7876C56.2922 5.25586 56.7682 5.35352 57.2158 5.54883C57.6634 5.736 58.054 5.99642 58.3877 6.33008C58.7214 6.66374 58.9818 7.05436 59.1689 7.50195C59.3643 7.94954 59.4619 8.42562 59.4619 8.93018V11.8721H52.6138V14.6553C52.6138 14.9564 52.6707 15.2412 52.7847 15.5098C52.8986 15.7702 53.0532 15.998 53.2485 16.1934C53.4438 16.3887 53.6717 16.5433 53.9321 16.6572C54.2007 16.7712 54.4855 16.8281 54.7866 16.8281H55.7876C56.0887 16.8281 56.3695 16.7712 56.6299 16.6572C56.8984 16.5433 57.1304 16.3887 57.3257 16.1934C57.521 15.998 57.6756 15.7702 57.7896 15.5098C57.9035 15.2412 57.9604 14.9564 57.9604 14.6553V13.8252L59.4619 14.0693V14.5698ZM57.9604 8.84473C57.9604 8.54362 57.9035 8.26286 57.7896 8.00244C57.6756 7.73389 57.521 7.50195 57.3257 7.30664C57.1304 7.11133 56.8984 6.95671 56.6299 6.84277C56.3695 6.72884 56.0887 6.67188 55.7876 6.67188H54.7866C54.4855 6.67188 54.2007 6.72884 53.9321 6.84277C53.6717 6.95671 53.4438 7.11133 53.2485 7.30664C53.0532 7.50195 52.8986 7.73389 52.7847 8.00244C52.6707 8.26286 52.6138 8.54362 52.6138 8.84473V10.7002H57.9604V8.84473ZM73.6123 18L68.5098 11.75L73.6123 5.5H75.5654L70.3408 11.75L75.5654 18H73.6123ZM66.7153 18V0.495117H68.2168V18H66.7153ZM85.8706 18C85.4149 18 84.9836 17.9146 84.5767 17.7437C84.1779 17.5728 83.828 17.3368 83.5269 17.0356C83.2339 16.7345 82.9979 16.3846 82.8188 15.9858C82.6479 15.5871 82.5625 15.1598 82.5625 14.7041V6.92822H80.3164V5.5H82.5625V2.49707L84.064 2.25293V5.5H87.2378V6.92822H84.064V14.7773C84.064 15.0296 84.1087 15.2656 84.1982 15.4854C84.2959 15.6969 84.4261 15.8841 84.5889 16.0469C84.7516 16.2096 84.9429 16.3398 85.1626 16.4375C85.3823 16.527 85.6183 16.5718 85.8706 16.5718H87.2378V18H85.8706ZM102.108 14.5698C102.108 15.0744 102.011 15.5505 101.815 15.998C101.628 16.4456 101.368 16.8363 101.034 17.1699C100.701 17.5036 100.31 17.7681 99.8623 17.9634C99.4147 18.1506 98.9386 18.2441 98.4341 18.2441H97.4331C96.9285 18.2441 96.4525 18.1506 96.0049 17.9634C95.5573 17.7681 95.1667 17.5036 94.833 17.1699C94.4993 16.8363 94.2349 16.4456 94.0396 15.998C93.8524 15.5505 93.7588 15.0744 93.7588 14.5698V0.495117H95.2603V6.5498C95.6021 6.1429 96.013 5.82552 96.4932 5.59766C96.9733 5.36979 97.4941 5.25586 98.0557 5.25586H98.4341C98.9386 5.25586 99.4147 5.35352 99.8623 5.54883C100.31 5.736 100.701 5.99642 101.034 6.33008C101.368 6.66374 101.628 7.05436 101.815 7.50195C102.011 7.94954 102.108 8.42562 102.108 8.93018V14.5698ZM100.607 8.84473C100.607 8.54362 100.55 8.26286 100.436 8.00244C100.322 7.73389 100.167 7.50195 99.9722 7.30664C99.7769 7.11133 99.5449 6.95671 99.2764 6.84277C99.016 6.72884 98.7352 6.67188 98.4341 6.67188H97.4331C97.132 6.67188 96.8472 6.72884 96.5786 6.84277C96.3182 6.95671 96.0903 7.11133 95.895 7.30664C95.6997 7.50195 95.5451 7.73389 95.4312 8.00244C95.3172 8.26286 95.2603 8.54362 95.2603 8.84473V14.6553C95.2603 14.9564 95.3172 15.2412 95.4312 15.5098C95.5451 15.7702 95.6997 15.998 95.895 16.1934C96.0903 16.3887 96.3182 16.5433 96.5786 16.6572C96.8472 16.7712 97.132 16.8281 97.4331 16.8281H98.4341C98.7352 16.8281 99.016 16.7712 99.2764 16.6572C99.5449 16.5433 99.7769 16.3887 99.9722 16.1934C100.167 15.998 100.322 15.7702 100.436 15.5098C100.55 15.2412 100.607 14.9564 100.607 14.6553V8.84473ZM117.211 14.5698C117.211 15.0744 117.113 15.5505 116.918 15.998C116.731 16.4456 116.47 16.8363 116.137 17.1699C115.803 17.5036 115.412 17.7681 114.965 17.9634C114.517 18.1506 114.041 18.2441 113.537 18.2441H112.536C112.031 18.2441 111.555 18.1506 111.107 17.9634C110.66 17.7681 110.269 17.5036 109.936 17.1699C109.602 16.8363 109.337 16.4456 109.142 15.998C108.955 15.5505 108.861 15.0744 108.861 14.5698V8.93018C108.861 8.42562 108.955 7.94954 109.142 7.50195C109.337 7.05436 109.602 6.66374 109.936 6.33008C110.269 5.99642 110.66 5.736 111.107 5.54883C111.555 5.35352 112.031 5.25586 112.536 5.25586H113.537C114.041 5.25586 114.517 5.35352 114.965 5.54883C115.412 5.736 115.803 5.99642 116.137 6.33008C116.47 6.66374 116.731 7.05436 116.918 7.50195C117.113 7.94954 117.211 8.42562 117.211 8.93018V11.8721H110.363V14.6553C110.363 14.9564 110.42 15.2412 110.534 15.5098C110.648 15.7702 110.802 15.998 110.998 16.1934C111.193 16.3887 111.421 16.5433 111.681 16.6572C111.95 16.7712 112.235 16.8281 112.536 16.8281H113.537C113.838 16.8281 114.118 16.7712 114.379 16.6572C114.647 16.5433 114.879 16.3887 115.075 16.1934C115.27 15.998 115.425 15.7702 115.539 15.5098C115.653 15.2412 115.709 14.9564 115.709 14.6553V13.8252L117.211 14.0693V14.5698ZM115.709 8.84473C115.709 8.54362 115.653 8.26286 115.539 8.00244C115.425 7.73389 115.27 7.50195 115.075 7.30664C114.879 7.11133 114.647 6.95671 114.379 6.84277C114.118 6.72884 113.838 6.67188 113.537 6.67188H112.536C112.235 6.67188 111.95 6.72884 111.681 6.84277C111.421 6.95671 111.193 7.11133 110.998 7.30664C110.802 7.50195 110.648 7.73389 110.534 8.00244C110.42 8.26286 110.363 8.54362 110.363 8.84473V10.7002H115.709V8.84473ZM132.558 14.8262C132.558 15.3307 132.456 15.7946 132.252 16.2178C132.049 16.6328 131.772 16.9909 131.422 17.292C131.072 17.5931 130.666 17.8291 130.202 18C129.746 18.1628 129.266 18.2441 128.761 18.2441H127.76C127.256 18.2441 126.771 18.1506 126.308 17.9634C125.852 17.7681 125.449 17.5036 125.099 17.1699C124.757 16.8363 124.481 16.4456 124.269 15.998C124.066 15.5505 123.964 15.0744 123.964 14.5698V14.0693L125.465 13.8252V14.6553C125.465 14.9564 125.526 15.2412 125.648 15.5098C125.779 15.7702 125.95 15.998 126.161 16.1934C126.373 16.3887 126.617 16.5433 126.894 16.6572C127.17 16.7712 127.459 16.8281 127.76 16.8281H128.761C129.062 16.8281 129.351 16.7834 129.628 16.6938C129.905 16.6043 130.149 16.4782 130.36 16.3154C130.58 16.1445 130.751 15.9411 130.873 15.7051C131.003 15.4691 131.068 15.2005 131.068 14.8994C131.068 14.4518 130.971 14.0856 130.775 13.8008C130.58 13.516 130.32 13.2799 129.994 13.0928C129.677 12.8975 129.311 12.7388 128.896 12.6167C128.489 12.4865 128.069 12.3604 127.638 12.2383C127.207 12.1081 126.784 11.9616 126.369 11.7988C125.962 11.6361 125.596 11.4245 125.27 11.1641C124.953 10.8955 124.696 10.5618 124.501 10.1631C124.306 9.76432 124.208 9.2679 124.208 8.67383C124.208 8.16927 124.306 7.70947 124.501 7.29443C124.696 6.87126 124.961 6.50911 125.294 6.20801C125.628 5.9069 126.015 5.67497 126.454 5.51221C126.902 5.34131 127.378 5.25586 127.882 5.25586H128.761C129.266 5.25586 129.742 5.35352 130.189 5.54883C130.637 5.736 131.028 5.99642 131.361 6.33008C131.695 6.66374 131.955 7.05436 132.143 7.50195C132.338 7.94954 132.436 8.42562 132.436 8.93018V8.979L130.934 9.22314V8.84473C130.934 8.54362 130.877 8.26286 130.763 8.00244C130.649 7.73389 130.495 7.50195 130.299 7.30664C130.104 7.11133 129.872 6.95671 129.604 6.84277C129.343 6.72884 129.062 6.67188 128.761 6.67188H127.882C127.581 6.67188 127.296 6.71663 127.028 6.80615C126.767 6.89567 126.54 7.02588 126.344 7.19678C126.149 7.35954 125.994 7.55892 125.88 7.79492C125.766 8.03092 125.709 8.29948 125.709 8.60059C125.709 9.0319 125.807 9.3859 126.002 9.6626C126.198 9.93115 126.454 10.159 126.771 10.3462C127.097 10.5334 127.463 10.6921 127.87 10.8223C128.285 10.9443 128.704 11.0745 129.127 11.2129C129.559 11.3431 129.978 11.4937 130.385 11.6646C130.8 11.8354 131.166 12.0552 131.483 12.3237C131.809 12.5923 132.069 12.93 132.265 13.3369C132.46 13.7357 132.558 14.2321 132.558 14.8262ZM146.586 18L141.483 11.75L146.586 5.5H148.539L143.314 11.75L148.539 18H146.586ZM139.689 18V0.495117H141.19V18H139.689ZM157.965 6.92822C157.664 6.92822 157.379 6.98519 157.111 7.09912C156.85 7.21305 156.623 7.36768 156.427 7.56299C156.232 7.7583 156.077 7.99023 155.963 8.25879C155.849 8.51921 155.792 8.79997 155.792 9.10107V18H154.291V5.5H154.792L155.609 6.76953C155.951 6.30566 156.378 5.93945 156.891 5.6709C157.412 5.39421 157.978 5.25586 158.588 5.25586H159.467V6.92822H157.965ZM165.597 2.49707V0.495117H167.343V2.49707H165.597ZM165.719 18V5.5H167.221V18H165.719ZM178.405 18H177.66L173.229 5.5H174.73L177.99 14.9727L178.039 15.6196L178.087 14.9727L181.334 5.5H182.836L178.405 18ZM196.693 14.5698C196.693 15.0744 196.596 15.5505 196.4 15.998C196.213 16.4456 195.953 16.8363 195.619 17.1699C195.285 17.5036 194.895 17.7681 194.447 17.9634C194 18.1506 193.524 18.2441 193.019 18.2441H192.018C191.514 18.2441 191.037 18.1506 190.59 17.9634C190.142 17.7681 189.752 17.5036 189.418 17.1699C189.084 16.8363 188.82 16.4456 188.625 15.998C188.437 15.5505 188.344 15.0744 188.344 14.5698V8.93018C188.344 8.42562 188.437 7.94954 188.625 7.50195C188.82 7.05436 189.084 6.66374 189.418 6.33008C189.752 5.99642 190.142 5.736 190.59 5.54883C191.037 5.35352 191.514 5.25586 192.018 5.25586H193.019C193.524 5.25586 194 5.35352 194.447 5.54883C194.895 5.736 195.285 5.99642 195.619 6.33008C195.953 6.66374 196.213 7.05436 196.4 7.50195C196.596 7.94954 196.693 8.42562 196.693 8.93018V11.8721H189.845V14.6553C189.845 14.9564 189.902 15.2412 190.016 15.5098C190.13 15.7702 190.285 15.998 190.48 16.1934C190.675 16.3887 190.903 16.5433 191.164 16.6572C191.432 16.7712 191.717 16.8281 192.018 16.8281H193.019C193.32 16.8281 193.601 16.7712 193.861 16.6572C194.13 16.5433 194.362 16.3887 194.557 16.1934C194.752 15.998 194.907 15.7702 195.021 15.5098C195.135 15.2412 195.192 14.9564 195.192 14.6553V13.8252L196.693 14.0693V14.5698ZM195.192 8.84473C195.192 8.54362 195.135 8.26286 195.021 8.00244C194.907 7.73389 194.752 7.50195 194.557 7.30664C194.362 7.11133 194.13 6.95671 193.861 6.84277C193.601 6.72884 193.32 6.67188 193.019 6.67188H192.018C191.717 6.67188 191.432 6.72884 191.164 6.84277C190.903 6.95671 190.675 7.11133 190.48 7.30664C190.285 7.50195 190.13 7.73389 190.016 8.00244C189.902 8.26286 189.845 8.54362 189.845 8.84473V10.7002H195.192V8.84473ZM203.947 18V0.495117H205.448V18H203.947ZM221.308 14.8262C221.308 15.3307 221.206 15.7946 221.002 16.2178C220.799 16.6328 220.522 16.9909 220.172 17.292C219.822 17.5931 219.416 17.8291 218.952 18C218.496 18.1628 218.016 18.2441 217.511 18.2441H216.51C216.006 18.2441 215.521 18.1506 215.058 17.9634C214.602 17.7681 214.199 17.5036 213.849 17.1699C213.507 16.8363 213.231 16.4456 213.019 15.998C212.816 15.5505 212.714 15.0744 212.714 14.5698V14.0693L214.215 13.8252V14.6553C214.215 14.9564 214.276 15.2412 214.398 15.5098C214.529 15.7702 214.7 15.998 214.911 16.1934C215.123 16.3887 215.367 16.5433 215.644 16.6572C215.92 16.7712 216.209 16.8281 216.51 16.8281H217.511C217.812 16.8281 218.101 16.7834 218.378 16.6938C218.655 16.6043 218.899 16.4782 219.11 16.3154C219.33 16.1445 219.501 15.9411 219.623 15.7051C219.753 15.4691 219.818 15.2005 219.818 14.8994C219.818 14.4518 219.721 14.0856 219.525 13.8008C219.33 13.516 219.07 13.2799 218.744 13.0928C218.427 12.8975 218.061 12.7388 217.646 12.6167C217.239 12.4865 216.819 12.3604 216.388 12.2383C215.957 12.1081 215.534 11.9616 215.119 11.7988C214.712 11.6361 214.346 11.4245 214.02 11.1641C213.703 10.8955 213.446 10.5618 213.251 10.1631C213.056 9.76432 212.958 9.2679 212.958 8.67383C212.958 8.16927 213.056 7.70947 213.251 7.29443C213.446 6.87126 213.711 6.50911 214.044 6.20801C214.378 5.9069 214.765 5.67497 215.204 5.51221C215.652 5.34131 216.128 5.25586 216.632 5.25586H217.511C218.016 5.25586 218.492 5.35352 218.939 5.54883C219.387 5.736 219.778 5.99642 220.111 6.33008C220.445 6.66374 220.705 7.05436 220.893 7.50195C221.088 7.94954 221.186 8.42562 221.186 8.93018V8.979L219.684 9.22314V8.84473C219.684 8.54362 219.627 8.26286 219.513 8.00244C219.399 7.73389 219.245 7.50195 219.049 7.30664C218.854 7.11133 218.622 6.95671 218.354 6.84277C218.093 6.72884 217.812 6.67188 217.511 6.67188H216.632C216.331 6.67188 216.046 6.71663 215.778 6.80615C215.517 6.89567 215.29 7.02588 215.094 7.19678C214.899 7.35954 214.744 7.55892 214.63 7.79492C214.516 8.03092 214.459 8.29948 214.459 8.60059C214.459 9.0319 214.557 9.3859 214.752 9.6626C214.948 9.93115 215.204 10.159 215.521 10.3462C215.847 10.5334 216.213 10.6921 216.62 10.8223C217.035 10.9443 217.454 11.0745 217.877 11.2129C218.309 11.3431 218.728 11.4937 219.135 11.6646C219.55 11.8354 219.916 12.0552 220.233 12.3237C220.559 12.5923 220.819 12.93 221.015 13.3369C221.21 13.7357 221.308 14.2321 221.308 14.8262ZM236.288 14.5698C236.288 15.0744 236.19 15.5505 235.995 15.998C235.808 16.4456 235.548 16.8363 235.214 17.1699C234.88 17.5036 234.49 17.7681 234.042 17.9634C233.594 18.1506 233.118 18.2441 232.614 18.2441H231.613C231.108 18.2441 230.632 18.1506 230.185 17.9634C229.737 17.7681 229.346 17.5036 229.013 17.1699C228.679 16.8363 228.415 16.4456 228.219 15.998C228.032 15.5505 227.938 15.0744 227.938 14.5698V8.93018C227.938 8.42562 228.032 7.94954 228.219 7.50195C228.415 7.05436 228.679 6.66374 229.013 6.33008C229.346 5.99642 229.737 5.736 230.185 5.54883C230.632 5.35352 231.108 5.25586 231.613 5.25586H232.614C233.118 5.25586 233.594 5.35352 234.042 5.54883C234.49 5.736 234.88 5.99642 235.214 6.33008C235.548 6.66374 235.808 7.05436 235.995 7.50195C236.19 7.94954 236.288 8.42562 236.288 8.93018V11.8721H229.44V14.6553C229.44 14.9564 229.497 15.2412 229.611 15.5098C229.725 15.7702 229.879 15.998 230.075 16.1934C230.27 16.3887 230.498 16.5433 230.758 16.6572C231.027 16.7712 231.312 16.8281 231.613 16.8281H232.614C232.915 16.8281 233.196 16.7712 233.456 16.6572C233.725 16.5433 233.957 16.3887 234.152 16.1934C234.347 15.998 234.502 15.7702 234.616 15.5098C234.73 15.2412 234.787 14.9564 234.787 14.6553V13.8252L236.288 14.0693V14.5698ZM234.787 8.84473C234.787 8.54362 234.73 8.26286 234.616 8.00244C234.502 7.73389 234.347 7.50195 234.152 7.30664C233.957 7.11133 233.725 6.95671 233.456 6.84277C233.196 6.72884 232.915 6.67188 232.614 6.67188H231.613C231.312 6.67188 231.027 6.72884 230.758 6.84277C230.498 6.95671 230.27 7.11133 230.075 7.30664C229.879 7.50195 229.725 7.73389 229.611 8.00244C229.497 8.26286 229.44 8.54362 229.44 8.84473V10.7002H234.787V8.84473Z" fill="#910F29" fill-opacity="0.5"/>
</svg>
