<svg width="263" height="46" viewBox="0 0 263 46" fill="none" xmlns="http://www.w3.org/2000/svg">
<path d="M20.373 27.8945C20.373 29.0827 20.1289 30.1976 19.6406 31.2393C19.1686 32.2809 18.5257 33.1924 17.7119 33.9736C16.9144 34.7549 15.9785 35.3734 14.9043 35.8291C13.8464 36.2686 12.7233 36.4883 11.5352 36.4883H9.02051C7.83236 36.4883 6.70117 36.2686 5.62695 35.8291C4.56901 35.3734 3.63314 34.7549 2.81934 33.9736C2.02181 33.1924 1.37891 32.2809 0.890625 31.2393C0.41862 30.1976 0.182617 29.0827 0.182617 27.8945V26.5029L3.33203 25.9902V27.8945C3.33203 28.6758 3.48665 29.4082 3.7959 30.0918C4.12142 30.7591 4.55273 31.3532 5.08984 31.874C5.62695 32.3786 6.24544 32.7773 6.94531 33.0703C7.66146 33.3633 8.41016 33.5098 9.19141 33.5098H11.3887C12.1699 33.5098 12.9105 33.3633 13.6104 33.0703C14.3102 32.7773 14.9287 32.3786 15.4658 31.874C16.0029 31.3532 16.4261 30.7591 16.7354 30.0918C17.0609 29.4082 17.2236 28.6758 17.2236 27.8945V26.8447C17.2236 25.6403 16.9876 24.6393 16.5156 23.8418C16.0436 23.0443 15.417 22.3688 14.6357 21.8154C13.8545 21.2458 12.9674 20.7656 11.9746 20.375C10.998 19.9844 9.98893 19.5938 8.94727 19.2031C7.9056 18.8125 6.88835 18.3812 5.89551 17.9092C4.91895 17.4372 4.04004 16.8512 3.25879 16.1514C2.47754 15.4352 1.85091 14.5645 1.37891 13.5391C0.906901 12.5137 0.670898 11.2523 0.670898 9.75488V9.0957C0.670898 7.90755 0.890625 6.79264 1.33008 5.75098C1.78581 4.70931 2.4043 3.79785 3.18555 3.0166C3.9668 2.23535 4.87826 1.625 5.91992 1.18555C6.97786 0.729818 8.10091 0.501953 9.28906 0.501953H11.5352C12.7233 0.501953 13.8382 0.729818 14.8799 1.18555C15.9215 1.625 16.833 2.23535 17.6143 3.0166C18.3955 3.79785 19.0059 4.70931 19.4453 5.75098C19.901 6.79264 20.1289 7.90755 20.1289 9.0957V9.99902L16.9795 10.5117V9.0957C16.9795 8.31445 16.833 7.59017 16.54 6.92285C16.2471 6.23926 15.8483 5.64518 15.3438 5.14062C14.8392 4.63607 14.2451 4.2373 13.5615 3.94434C12.8942 3.65137 12.1699 3.50488 11.3887 3.50488H9.43555C8.6543 3.50488 7.92188 3.65137 7.23828 3.94434C6.57096 4.2373 5.97689 4.63607 5.45605 5.14062C4.9515 5.64518 4.55273 6.23926 4.25977 6.92285C3.9668 7.59017 3.82031 8.31445 3.82031 9.0957V9.75488C3.82031 10.8779 4.05632 11.8219 4.52832 12.5869C5.00033 13.3519 5.62695 14.0111 6.4082 14.5645C7.18945 15.1016 8.06836 15.5736 9.04492 15.9805C10.0378 16.3711 11.055 16.778 12.0967 17.2012C13.1383 17.6081 14.1475 18.0638 15.124 18.5684C16.1169 19.0566 17.0039 19.667 17.7852 20.3994C18.5664 21.1156 19.193 21.9945 19.665 23.0361C20.137 24.0778 20.373 25.3473 20.373 26.8447V27.8945ZM50.3584 29.1396C50.3584 30.1488 50.1631 31.1009 49.7725 31.9961C49.3981 32.8913 48.8773 33.6725 48.21 34.3398C47.5426 35.0072 46.7614 35.5361 45.8662 35.9268C44.971 36.3011 44.0189 36.4883 43.0098 36.4883H41.0078C39.9987 36.4883 39.0465 36.3011 38.1514 35.9268C37.2562 35.5361 36.4749 35.0072 35.8076 34.3398C35.1403 33.6725 34.6113 32.8913 34.2207 31.9961C33.8464 31.1009 33.6592 30.1488 33.6592 29.1396V17.8604C33.6592 16.8512 33.8464 15.8991 34.2207 15.0039C34.6113 14.1087 35.1403 13.3275 35.8076 12.6602C36.4749 11.9928 37.2562 11.472 38.1514 11.0977C39.0465 10.707 39.9987 10.5117 41.0078 10.5117H43.0098C44.0189 10.5117 44.971 10.707 45.8662 11.0977C46.7614 11.472 47.5426 11.9928 48.21 12.6602C48.8773 13.3275 49.3981 14.1087 49.7725 15.0039C50.1631 15.8991 50.3584 16.8512 50.3584 17.8604V23.7441H36.6621V29.3105C36.6621 29.9128 36.776 30.4824 37.0039 31.0195C37.2318 31.5404 37.541 31.9961 37.9316 32.3867C38.3223 32.7773 38.778 33.0866 39.2988 33.3145C39.8359 33.5423 40.4056 33.6562 41.0078 33.6562H43.0098C43.612 33.6562 44.1735 33.5423 44.6943 33.3145C45.2314 33.0866 45.6953 32.7773 46.0859 32.3867C46.4766 31.9961 46.7858 31.5404 47.0137 31.0195C47.2415 30.4824 47.3555 29.9128 47.3555 29.3105V27.6504L50.3584 28.1387V29.1396ZM47.3555 17.6895C47.3555 17.0872 47.2415 16.5257 47.0137 16.0049C46.7858 15.4678 46.4766 15.0039 46.0859 14.6133C45.6953 14.2227 45.2314 13.9134 44.6943 13.6855C44.1735 13.4577 43.612 13.3438 43.0098 13.3438H41.0078C40.4056 13.3438 39.8359 13.4577 39.2988 13.6855C38.778 13.9134 38.3223 14.2227 37.9316 14.6133C37.541 15.0039 37.2318 15.4678 37.0039 16.0049C36.776 16.5257 36.6621 17.0872 36.6621 17.6895V21.4004H47.3555V17.6895ZM80.5635 29.1396C80.5635 30.1488 80.3682 31.1009 79.9775 31.9961C79.6032 32.8913 79.0824 33.6725 78.415 34.3398C77.7477 35.0072 76.9665 35.5361 76.0713 35.9268C75.1761 36.3011 74.224 36.4883 73.2148 36.4883H72.458C71.335 36.4883 70.2933 36.2604 69.333 35.8047C68.3727 35.349 67.5508 34.7142 66.8672 33.9004V46.0098H63.8643V11H64.8652L66.501 13.5391C67.1846 12.6113 68.0391 11.8789 69.0645 11.3418C70.1061 10.7884 71.2373 10.5117 72.458 10.5117H73.2148C74.224 10.5117 75.1761 10.707 76.0713 11.0977C76.9665 11.472 77.7477 11.9928 78.415 12.6602C79.0824 13.3275 79.6032 14.1087 79.9775 15.0039C80.3682 15.8991 80.5635 16.8512 80.5635 17.8604V29.1396ZM77.5605 17.6895C77.5605 17.0872 77.4466 16.5257 77.2188 16.0049C76.9909 15.4678 76.6816 15.0039 76.291 14.6133C75.9004 14.2227 75.4365 13.9134 74.8994 13.6855C74.3786 13.4577 73.8171 13.3438 73.2148 13.3438H71.2129C70.6107 13.3438 70.041 13.4577 69.5039 13.6855C68.9831 13.9134 68.5273 14.2227 68.1367 14.6133C67.7461 15.0039 67.4368 15.4678 67.209 16.0049C66.9811 16.5257 66.8672 17.0872 66.8672 17.6895V29.3105C66.8672 29.9128 66.9811 30.4824 67.209 31.0195C67.4368 31.5404 67.7461 31.9961 68.1367 32.3867C68.5273 32.7773 68.9831 33.0866 69.5039 33.3145C70.041 33.5423 70.6107 33.6562 71.2129 33.6562H73.2148C73.8171 33.6562 74.3786 33.5423 74.8994 33.3145C75.4365 33.0866 75.9004 32.7773 76.291 32.3867C76.6816 31.9961 76.9909 31.5404 77.2188 31.0195C77.4466 30.4824 77.5605 29.9128 77.5605 29.3105V17.6895ZM103.176 36C102.264 36 101.402 35.8291 100.588 35.4873C99.7904 35.1455 99.0905 34.6735 98.4883 34.0713C97.9023 33.4691 97.4303 32.7692 97.0723 31.9717C96.7305 31.1742 96.5596 30.3197 96.5596 29.4082V13.8564H92.0674V11H96.5596V4.99414L99.5625 4.50586V11H105.91V13.8564H99.5625V29.5547C99.5625 30.0592 99.652 30.5312 99.8311 30.9707C100.026 31.3939 100.287 31.7682 100.612 32.0938C100.938 32.4193 101.32 32.6797 101.76 32.875C102.199 33.054 102.671 33.1436 103.176 33.1436H105.91V36H103.176ZM135.651 29.1396C135.651 30.1488 135.456 31.1009 135.065 31.9961C134.691 32.8913 134.17 33.6725 133.503 34.3398C132.836 35.0072 132.054 35.5361 131.159 35.9268C130.264 36.3011 129.312 36.4883 128.303 36.4883H126.301C125.292 36.4883 124.34 36.3011 123.444 35.9268C122.549 35.5361 121.768 35.0072 121.101 34.3398C120.433 33.6725 119.904 32.8913 119.514 31.9961C119.139 31.1009 118.952 30.1488 118.952 29.1396V17.8604C118.952 16.8512 119.139 15.8991 119.514 15.0039C119.904 14.1087 120.433 13.3275 121.101 12.6602C121.768 11.9928 122.549 11.472 123.444 11.0977C124.34 10.707 125.292 10.5117 126.301 10.5117H128.303C129.312 10.5117 130.264 10.707 131.159 11.0977C132.054 11.472 132.836 11.9928 133.503 12.6602C134.17 13.3275 134.691 14.1087 135.065 15.0039C135.456 15.8991 135.651 16.8512 135.651 17.8604V23.7441H121.955V29.3105C121.955 29.9128 122.069 30.4824 122.297 31.0195C122.525 31.5404 122.834 31.9961 123.225 32.3867C123.615 32.7773 124.071 33.0866 124.592 33.3145C125.129 33.5423 125.699 33.6562 126.301 33.6562H128.303C128.905 33.6562 129.466 33.5423 129.987 33.3145C130.524 33.0866 130.988 32.7773 131.379 32.3867C131.77 31.9961 132.079 31.5404 132.307 31.0195C132.535 30.4824 132.648 29.9128 132.648 29.3105V27.6504L135.651 28.1387V29.1396ZM132.648 17.6895C132.648 17.0872 132.535 16.5257 132.307 16.0049C132.079 15.4678 131.77 15.0039 131.379 14.6133C130.988 14.2227 130.524 13.9134 129.987 13.6855C129.466 13.4577 128.905 13.3438 128.303 13.3438H126.301C125.699 13.3438 125.129 13.4577 124.592 13.6855C124.071 13.9134 123.615 14.2227 123.225 14.6133C122.834 15.0039 122.525 15.4678 122.297 16.0049C122.069 16.5257 121.955 17.0872 121.955 17.6895V21.4004H132.648V17.6895ZM175.549 36V17.6895C175.549 17.0872 175.435 16.5257 175.207 16.0049C174.979 15.4678 174.67 15.0039 174.279 14.6133C173.889 14.2227 173.425 13.9134 172.888 13.6855C172.367 13.4577 171.805 13.3438 171.203 13.3438H169.714C169.112 13.3438 168.542 13.4577 168.005 13.6855C167.484 13.9134 167.02 14.2227 166.613 14.6133C166.223 15.0039 165.913 15.4678 165.686 16.0049C165.458 16.5257 165.344 17.0872 165.344 17.6895V36H162.365V17.6895C162.365 17.0872 162.251 16.5257 162.023 16.0049C161.796 15.4678 161.478 15.0039 161.071 14.6133C160.681 14.2227 160.217 13.9134 159.68 13.6855C159.159 13.4577 158.597 13.3438 157.995 13.3438H156.506C155.904 13.3438 155.334 13.4577 154.797 13.6855C154.276 13.9134 153.82 14.2227 153.43 14.6133C153.039 15.0039 152.73 15.4678 152.502 16.0049C152.274 16.5257 152.16 17.0872 152.16 17.6895V36H149.157V11H150.158L151.794 13.5391C152.478 12.6113 153.332 11.8789 154.357 11.3418C155.399 10.7884 156.53 10.5117 157.751 10.5117H157.995C159.411 10.5117 160.689 10.8617 161.828 11.5615C162.967 12.2614 163.846 13.1891 164.465 14.3447C164.774 13.7751 165.157 13.2542 165.612 12.7822C166.068 12.3102 166.573 11.9115 167.126 11.5859C167.679 11.2441 168.282 10.9837 168.933 10.8047C169.584 10.6094 170.259 10.5117 170.959 10.5117H171.203C172.212 10.5117 173.164 10.707 174.06 11.0977C174.955 11.472 175.736 11.9928 176.403 12.6602C177.071 13.3275 177.591 14.1087 177.966 15.0039C178.356 15.8991 178.552 16.8512 178.552 17.8604V36H175.549ZM208.757 29.1396C208.757 30.1488 208.562 31.1009 208.171 31.9961C207.797 32.8913 207.276 33.6725 206.608 34.3398C205.941 35.0072 205.16 35.5361 204.265 35.9268C203.369 36.3011 202.417 36.4883 201.408 36.4883H199.406C198.397 36.4883 197.445 36.3011 196.55 35.9268C195.655 35.5361 194.873 35.0072 194.206 34.3398C193.539 33.6725 193.01 32.8913 192.619 31.9961C192.245 31.1009 192.058 30.1488 192.058 29.1396V0.990234H195.061V13.0996C195.744 12.2858 196.566 11.651 197.526 11.1953C198.487 10.7396 199.528 10.5117 200.651 10.5117H201.408C202.417 10.5117 203.369 10.707 204.265 11.0977C205.16 11.472 205.941 11.9928 206.608 12.6602C207.276 13.3275 207.797 14.1087 208.171 15.0039C208.562 15.8991 208.757 16.8512 208.757 17.8604V29.1396ZM205.754 17.6895C205.754 17.0872 205.64 16.5257 205.412 16.0049C205.184 15.4678 204.875 15.0039 204.484 14.6133C204.094 14.2227 203.63 13.9134 203.093 13.6855C202.572 13.4577 202.01 13.3438 201.408 13.3438H199.406C198.804 13.3438 198.234 13.4577 197.697 13.6855C197.176 13.9134 196.721 14.2227 196.33 14.6133C195.939 15.0039 195.63 15.4678 195.402 16.0049C195.174 16.5257 195.061 17.0872 195.061 17.6895V29.3105C195.061 29.9128 195.174 30.4824 195.402 31.0195C195.63 31.5404 195.939 31.9961 196.33 32.3867C196.721 32.7773 197.176 33.0866 197.697 33.3145C198.234 33.5423 198.804 33.6562 199.406 33.6562H201.408C202.01 33.6562 202.572 33.5423 203.093 33.3145C203.63 33.0866 204.094 32.7773 204.484 32.3867C204.875 31.9961 205.184 31.5404 205.412 31.0195C205.64 30.4824 205.754 29.9128 205.754 29.3105V17.6895ZM238.962 29.1396C238.962 30.1488 238.767 31.1009 238.376 31.9961C238.002 32.8913 237.481 33.6725 236.813 34.3398C236.146 35.0072 235.365 35.5361 234.47 35.9268C233.575 36.3011 232.622 36.4883 231.613 36.4883H229.611C228.602 36.4883 227.65 36.3011 226.755 35.9268C225.86 35.5361 225.078 35.0072 224.411 34.3398C223.744 33.6725 223.215 32.8913 222.824 31.9961C222.45 31.1009 222.263 30.1488 222.263 29.1396V17.8604C222.263 16.8512 222.45 15.8991 222.824 15.0039C223.215 14.1087 223.744 13.3275 224.411 12.6602C225.078 11.9928 225.86 11.472 226.755 11.0977C227.65 10.707 228.602 10.5117 229.611 10.5117H231.613C232.622 10.5117 233.575 10.707 234.47 11.0977C235.365 11.472 236.146 11.9928 236.813 12.6602C237.481 13.3275 238.002 14.1087 238.376 15.0039C238.767 15.8991 238.962 16.8512 238.962 17.8604V23.7441H225.266V29.3105C225.266 29.9128 225.38 30.4824 225.607 31.0195C225.835 31.5404 226.145 31.9961 226.535 32.3867C226.926 32.7773 227.382 33.0866 227.902 33.3145C228.439 33.5423 229.009 33.6562 229.611 33.6562H231.613C232.215 33.6562 232.777 33.5423 233.298 33.3145C233.835 33.0866 234.299 32.7773 234.689 32.3867C235.08 31.9961 235.389 31.5404 235.617 31.0195C235.845 30.4824 235.959 29.9128 235.959 29.3105V27.6504L238.962 28.1387V29.1396ZM235.959 17.6895C235.959 17.0872 235.845 16.5257 235.617 16.0049C235.389 15.4678 235.08 15.0039 234.689 14.6133C234.299 14.2227 233.835 13.9134 233.298 13.6855C232.777 13.4577 232.215 13.3438 231.613 13.3438H229.611C229.009 13.3438 228.439 13.4577 227.902 13.6855C227.382 13.9134 226.926 14.2227 226.535 14.6133C226.145 15.0039 225.835 15.4678 225.607 16.0049C225.38 16.5257 225.266 17.0872 225.266 17.6895V21.4004H235.959V17.6895ZM259.816 13.8564C259.214 13.8564 258.645 13.9704 258.107 14.1982C257.587 14.4261 257.131 14.7354 256.74 15.126C256.35 15.5166 256.04 15.9805 255.812 16.5176C255.585 17.0384 255.471 17.5999 255.471 18.2021V36H252.468V11H253.469L255.104 13.5391C255.788 12.6113 256.643 11.8789 257.668 11.3418C258.71 10.7884 259.841 10.5117 261.062 10.5117H262.819V13.8564H259.816Z" fill="#DDDDDD"/>
</svg>
