<svg width="315" height="55" viewBox="0 0 315 55" fill="none" xmlns="http://www.w3.org/2000/svg">
<path d="M30.9302 41.8418C30.9302 43.624 30.564 45.2964 29.8315 46.8589C29.1235 48.4214 28.1592 49.7886 26.9385 50.9604C25.7422 52.1323 24.3384 53.0601 22.7271 53.7437C21.1401 54.4028 19.4556 54.7324 17.6733 54.7324H13.9014C12.1191 54.7324 10.4224 54.4028 8.81104 53.7437C7.22412 53.0601 5.82031 52.1323 4.59961 50.9604C3.40332 49.7886 2.43896 48.4214 1.70654 46.8589C0.998535 45.2964 0.644531 43.624 0.644531 41.8418V39.7544L5.36865 38.9854V41.8418C5.36865 43.0137 5.60059 44.1123 6.06445 45.1377C6.55273 46.1387 7.19971 47.0298 8.00537 47.811C8.81104 48.5679 9.73877 49.166 10.7886 49.6055C11.8628 50.0449 12.9858 50.2646 14.1577 50.2646H17.4536C18.6255 50.2646 19.7363 50.0449 20.7861 49.6055C21.8359 49.166 22.7637 48.5679 23.5693 47.811C24.375 47.0298 25.0098 46.1387 25.4736 45.1377C25.9619 44.1123 26.2061 43.0137 26.2061 41.8418V40.2671C26.2061 38.4604 25.8521 36.959 25.144 35.7627C24.436 34.5664 23.4961 33.5532 22.3242 32.7231C21.1523 31.8687 19.8218 31.1484 18.3325 30.5625C16.8677 29.9766 15.354 29.3906 13.7915 28.8047C12.229 28.2188 10.7031 27.5718 9.21387 26.8638C7.74902 26.1558 6.43066 25.2769 5.25879 24.2271C4.08691 23.1528 3.14697 21.8467 2.43896 20.3086C1.73096 18.7705 1.37695 16.8784 1.37695 14.6323V13.6436C1.37695 11.8613 1.70654 10.189 2.36572 8.62646C3.04932 7.06396 3.97705 5.69678 5.14893 4.5249C6.3208 3.35303 7.68799 2.4375 9.25049 1.77832C10.8374 1.09473 12.522 0.75293 14.3042 0.75293H17.6733C19.4556 0.75293 21.1279 1.09473 22.6904 1.77832C24.2529 2.4375 25.6201 3.35303 26.792 4.5249C27.9639 5.69678 28.8794 7.06396 29.5386 8.62646C30.2222 10.189 30.564 11.8613 30.564 13.6436V14.9985L25.8398 15.7676V13.6436C25.8398 12.4717 25.6201 11.3853 25.1807 10.3843C24.7412 9.35889 24.1431 8.46777 23.3862 7.71094C22.6294 6.9541 21.7383 6.35596 20.7129 5.9165C19.7119 5.47705 18.6255 5.25732 17.4536 5.25732H14.5239C13.3521 5.25732 12.2534 5.47705 11.228 5.9165C10.2271 6.35596 9.33594 6.9541 8.55469 7.71094C7.79785 8.46777 7.19971 9.35889 6.76025 10.3843C6.3208 11.3853 6.10107 12.4717 6.10107 13.6436V14.6323C6.10107 16.3169 6.45508 17.7329 7.16309 18.8804C7.87109 20.0278 8.81104 21.0166 9.98291 21.8467C11.1548 22.6523 12.4731 23.3604 13.938 23.9707C15.4272 24.5566 16.9531 25.167 18.5156 25.8018C20.0781 26.4121 21.5918 27.0957 23.0566 27.8525C24.5459 28.585 25.8765 29.5005 27.0483 30.5991C28.2202 31.6733 29.1602 32.9917 29.8682 34.5542C30.5762 36.1167 30.9302 38.021 30.9302 40.2671V41.8418ZM75.9082 43.7095C75.9082 45.2231 75.6152 46.6514 75.0293 47.9941C74.4678 49.3369 73.6865 50.5088 72.6855 51.5098C71.6846 52.5107 70.5127 53.3042 69.1699 53.8901C67.8271 54.4517 66.3989 54.7324 64.8853 54.7324H61.8823C60.3687 54.7324 58.9404 54.4517 57.5977 53.8901C56.2549 53.3042 55.083 52.5107 54.082 51.5098C53.0811 50.5088 52.2876 49.3369 51.7017 47.9941C51.1401 46.6514 50.8594 45.2231 50.8594 43.7095V26.7905C50.8594 25.2769 51.1401 23.8486 51.7017 22.5059C52.2876 21.1631 53.0811 19.9912 54.082 18.9902C55.083 17.9893 56.2549 17.208 57.5977 16.6465C58.9404 16.0605 60.3687 15.7676 61.8823 15.7676H64.8853C66.3989 15.7676 67.8271 16.0605 69.1699 16.6465C70.5127 17.208 71.6846 17.9893 72.6855 18.9902C73.6865 19.9912 74.4678 21.1631 75.0293 22.5059C75.6152 23.8486 75.9082 25.2769 75.9082 26.7905V35.6162H55.3638V43.9658C55.3638 44.8691 55.5347 45.7236 55.8765 46.5293C56.2183 47.3105 56.6821 47.9941 57.2681 48.5801C57.854 49.166 58.5376 49.6299 59.3188 49.9717C60.1245 50.3135 60.979 50.4844 61.8823 50.4844H64.8853C65.7886 50.4844 66.6309 50.3135 67.4121 49.9717C68.2178 49.6299 68.9136 49.166 69.4995 48.5801C70.0854 47.9941 70.5493 47.3105 70.8911 46.5293C71.2329 45.7236 71.4038 44.8691 71.4038 43.9658V41.4756L75.9082 42.208V43.7095ZM71.4038 26.5342C71.4038 25.6309 71.2329 24.7886 70.8911 24.0073C70.5493 23.2017 70.0854 22.5059 69.4995 21.9199C68.9136 21.334 68.2178 20.8701 67.4121 20.5283C66.6309 20.1865 65.7886 20.0156 64.8853 20.0156H61.8823C60.979 20.0156 60.1245 20.1865 59.3188 20.5283C58.5376 20.8701 57.854 21.334 57.2681 21.9199C56.6821 22.5059 56.2183 23.2017 55.8765 24.0073C55.5347 24.7886 55.3638 25.6309 55.3638 26.5342V32.1006H71.4038V26.5342ZM107.19 20.7847C106.287 20.7847 105.432 20.9556 104.626 21.2974C103.845 21.6392 103.162 22.103 102.576 22.689C101.99 23.2749 101.526 23.9707 101.184 24.7764C100.842 25.5576 100.671 26.3999 100.671 27.3032V54H96.167V16.5H97.6685L100.122 20.3086C101.147 18.917 102.429 17.8184 103.967 17.0127C105.53 16.1826 107.227 15.7676 109.058 15.7676H111.694V20.7847H107.19ZM140.706 54H138.472L125.178 16.5H129.683L139.46 44.918L139.607 46.8589L139.753 44.918L149.495 16.5H153.999L140.706 54ZM171.658 7.49121V1.48535H176.895V7.49121H171.658ZM172.024 54V16.5H176.528V54H172.024ZM223.374 43.7095C223.374 45.2231 223.081 46.6514 222.495 47.9941C221.934 49.3369 221.152 50.5088 220.151 51.5098C219.15 52.5107 217.979 53.3042 216.636 53.8901C215.293 54.4517 213.865 54.7324 212.351 54.7324H209.348C207.834 54.7324 206.406 54.4517 205.063 53.8901C203.721 53.3042 202.549 52.5107 201.548 51.5098C200.547 50.5088 199.753 49.3369 199.167 47.9941C198.606 46.6514 198.325 45.2231 198.325 43.7095V26.7905C198.325 25.2769 198.606 23.8486 199.167 22.5059C199.753 21.1631 200.547 19.9912 201.548 18.9902C202.549 17.9893 203.721 17.208 205.063 16.6465C206.406 16.0605 207.834 15.7676 209.348 15.7676H212.351C213.865 15.7676 215.293 16.0605 216.636 16.6465C217.979 17.208 219.15 17.9893 220.151 18.9902C221.152 19.9912 221.934 21.1631 222.495 22.5059C223.081 23.8486 223.374 25.2769 223.374 26.7905V28.292L218.87 29.0244V26.5342C218.87 25.6309 218.699 24.7886 218.357 24.0073C218.015 23.2017 217.551 22.5059 216.965 21.9199C216.379 21.334 215.684 20.8701 214.878 20.5283C214.097 20.1865 213.254 20.0156 212.351 20.0156H209.348C208.445 20.0156 207.59 20.1865 206.785 20.5283C206.003 20.8701 205.32 21.334 204.734 21.9199C204.148 22.5059 203.684 23.2017 203.342 24.0073C203 24.7886 202.83 25.6309 202.83 26.5342V43.9658C202.83 44.8691 203 45.7236 203.342 46.5293C203.684 47.3105 204.148 47.9941 204.734 48.5801C205.32 49.166 206.003 49.6299 206.785 49.9717C207.59 50.3135 208.445 50.4844 209.348 50.4844H212.351C213.254 50.4844 214.097 50.3135 214.878 49.9717C215.684 49.6299 216.379 49.166 216.965 48.5801C217.551 47.9941 218.015 47.3105 218.357 46.5293C218.699 45.7236 218.87 44.8691 218.87 43.9658V41.4756L223.374 42.208V43.7095ZM268.682 43.7095C268.682 45.2231 268.389 46.6514 267.803 47.9941C267.241 49.3369 266.46 50.5088 265.459 51.5098C264.458 52.5107 263.286 53.3042 261.943 53.8901C260.601 54.4517 259.172 54.7324 257.659 54.7324H254.656C253.142 54.7324 251.714 54.4517 250.371 53.8901C249.028 53.3042 247.856 52.5107 246.855 51.5098C245.854 50.5088 245.061 49.3369 244.475 47.9941C243.914 46.6514 243.633 45.2231 243.633 43.7095V26.7905C243.633 25.2769 243.914 23.8486 244.475 22.5059C245.061 21.1631 245.854 19.9912 246.855 18.9902C247.856 17.9893 249.028 17.208 250.371 16.6465C251.714 16.0605 253.142 15.7676 254.656 15.7676H257.659C259.172 15.7676 260.601 16.0605 261.943 16.6465C263.286 17.208 264.458 17.9893 265.459 18.9902C266.46 19.9912 267.241 21.1631 267.803 22.5059C268.389 23.8486 268.682 25.2769 268.682 26.7905V35.6162H248.137V43.9658C248.137 44.8691 248.308 45.7236 248.65 46.5293C248.992 47.3105 249.456 47.9941 250.042 48.5801C250.627 49.166 251.311 49.6299 252.092 49.9717C252.898 50.3135 253.752 50.4844 254.656 50.4844H257.659C258.562 50.4844 259.404 50.3135 260.186 49.9717C260.991 49.6299 261.687 49.166 262.273 48.5801C262.859 47.9941 263.323 47.3105 263.665 46.5293C264.006 45.7236 264.177 44.8691 264.177 43.9658V41.4756L268.682 42.208V43.7095ZM264.177 26.5342C264.177 25.6309 264.006 24.7886 263.665 24.0073C263.323 23.2017 262.859 22.5059 262.273 21.9199C261.687 21.334 260.991 20.8701 260.186 20.5283C259.404 20.1865 258.562 20.0156 257.659 20.0156H254.656C253.752 20.0156 252.898 20.1865 252.092 20.5283C251.311 20.8701 250.627 21.334 250.042 21.9199C249.456 22.5059 248.992 23.2017 248.65 24.0073C248.308 24.7886 248.137 25.6309 248.137 26.5342V32.1006H264.177V26.5342ZM314.722 44.4785C314.722 45.9922 314.417 47.3838 313.806 48.6533C313.196 49.8984 312.366 50.9727 311.316 51.876C310.266 52.7793 309.045 53.4873 307.654 54C306.287 54.4883 304.846 54.7324 303.333 54.7324H300.33C298.816 54.7324 297.363 54.4517 295.972 53.8901C294.604 53.3042 293.396 52.5107 292.346 51.5098C291.321 50.5088 290.491 49.3369 289.856 47.9941C289.246 46.6514 288.94 45.2231 288.94 43.7095V42.208L293.445 41.4756V43.9658C293.445 44.8691 293.628 45.7236 293.994 46.5293C294.385 47.3105 294.897 47.9941 295.532 48.5801C296.167 49.166 296.899 49.6299 297.729 49.9717C298.56 50.3135 299.426 50.4844 300.33 50.4844H303.333C304.236 50.4844 305.103 50.3501 305.933 50.0815C306.763 49.813 307.495 49.4346 308.13 48.9463C308.789 48.4336 309.302 47.8232 309.668 47.1152C310.059 46.4072 310.254 45.6016 310.254 44.6982C310.254 43.3555 309.961 42.2568 309.375 41.4023C308.789 40.5479 308.008 39.8398 307.031 39.2783C306.079 38.6924 304.98 38.2163 303.735 37.8501C302.515 37.4595 301.257 37.0811 299.963 36.7148C298.669 36.3242 297.4 35.8848 296.155 35.3965C294.934 34.9082 293.835 34.2734 292.859 33.4922C291.907 32.6865 291.138 31.6855 290.552 30.4893C289.966 29.293 289.673 27.8037 289.673 26.0215C289.673 24.5078 289.966 23.1284 290.552 21.8833C291.138 20.6138 291.931 19.5273 292.932 18.624C293.933 17.7207 295.093 17.0249 296.411 16.5366C297.754 16.0239 299.182 15.7676 300.696 15.7676H303.333C304.846 15.7676 306.274 16.0605 307.617 16.6465C308.96 17.208 310.132 17.9893 311.133 18.9902C312.134 19.9912 312.915 21.1631 313.477 22.5059C314.062 23.8486 314.355 25.2769 314.355 26.7905V26.937L309.851 27.6694V26.5342C309.851 25.6309 309.68 24.7886 309.338 24.0073C308.997 23.2017 308.533 22.5059 307.947 21.9199C307.361 21.334 306.665 20.8701 305.859 20.5283C305.078 20.1865 304.236 20.0156 303.333 20.0156H300.696C299.792 20.0156 298.938 20.1499 298.132 20.4185C297.351 20.687 296.667 21.0776 296.082 21.5903C295.496 22.0786 295.032 22.6768 294.69 23.3848C294.348 24.0928 294.177 24.8984 294.177 25.8018C294.177 27.0957 294.47 28.1577 295.056 28.9878C295.642 29.7935 296.411 30.4771 297.363 31.0386C298.34 31.6001 299.438 32.0762 300.659 32.4668C301.904 32.833 303.162 33.2236 304.431 33.6387C305.725 34.0293 306.982 34.481 308.203 34.9937C309.448 35.5063 310.547 36.1655 311.499 36.9712C312.476 37.7769 313.257 38.79 313.843 40.0107C314.429 41.207 314.722 42.6963 314.722 44.4785Z" fill="#DFDFDF"/>
</svg>
