<svg width="106" height="19" viewBox="0 0 106 19" fill="none" xmlns="http://www.w3.org/2000/svg">
<path d="M10.8101 13.9473C10.8101 14.5413 10.688 15.0988 10.4438 15.6196C10.2078 16.1405 9.88639 16.5962 9.47949 16.9868C9.08073 17.3774 8.61279 17.6867 8.07568 17.9146C7.54671 18.1343 6.98519 18.2441 6.39111 18.2441H5.13379C4.53971 18.2441 3.97412 18.1343 3.43701 17.9146C2.90804 17.6867 2.4401 17.3774 2.0332 16.9868C1.63444 16.5962 1.31299 16.1405 1.06885 15.6196C0.832845 15.0988 0.714844 14.5413 0.714844 13.9473V13.2515L2.28955 12.9951V13.9473C2.28955 14.3379 2.36686 14.7041 2.52148 15.0459C2.68424 15.3796 2.8999 15.6766 3.16846 15.937C3.43701 16.1893 3.74626 16.3887 4.09619 16.5352C4.45426 16.6816 4.82861 16.7549 5.21924 16.7549H6.31787C6.7085 16.7549 7.07878 16.6816 7.42871 16.5352C7.77865 16.3887 8.08789 16.1893 8.35645 15.937C8.625 15.6766 8.83659 15.3796 8.99121 15.0459C9.15397 14.7041 9.23535 14.3379 9.23535 13.9473V13.4224C9.23535 12.8201 9.11735 12.3197 8.88135 11.9209C8.64535 11.5221 8.33203 11.1844 7.94141 10.9077C7.55078 10.6229 7.10726 10.3828 6.61084 10.1875C6.12256 9.99219 5.618 9.79688 5.09717 9.60156C4.57633 9.40625 4.06771 9.19059 3.57129 8.95459C3.08301 8.71859 2.64355 8.42562 2.25293 8.07568C1.8623 7.71761 1.54899 7.28223 1.31299 6.76953C1.07699 6.25684 0.958984 5.62614 0.958984 4.87744V4.54785C0.958984 3.95378 1.06885 3.39632 1.28857 2.87549C1.51644 2.35465 1.82568 1.89893 2.21631 1.5083C2.60693 1.11768 3.06266 0.8125 3.5835 0.592773C4.11247 0.364909 4.67399 0.250977 5.26807 0.250977H6.39111C6.98519 0.250977 7.54264 0.364909 8.06348 0.592773C8.58431 0.8125 9.04004 1.11768 9.43066 1.5083C9.82129 1.89893 10.1265 2.35465 10.3462 2.87549C10.5741 3.39632 10.688 3.95378 10.688 4.54785V4.99951L9.11328 5.25586V4.54785C9.11328 4.15723 9.04004 3.79508 8.89355 3.46143C8.74707 3.11963 8.54769 2.82259 8.29541 2.57031C8.04313 2.31803 7.74609 2.11865 7.4043 1.97217C7.07064 1.82568 6.7085 1.75244 6.31787 1.75244H5.34131C4.95068 1.75244 4.58447 1.82568 4.24268 1.97217C3.90902 2.11865 3.61198 2.31803 3.35156 2.57031C3.09928 2.82259 2.8999 3.11963 2.75342 3.46143C2.60693 3.79508 2.53369 4.15723 2.53369 4.54785V4.87744C2.53369 5.43896 2.65169 5.91097 2.8877 6.29346C3.1237 6.67594 3.43701 7.00553 3.82764 7.28223C4.21826 7.55078 4.65771 7.78678 5.146 7.99023C5.64242 8.18555 6.15104 8.389 6.67188 8.60059C7.19271 8.80404 7.69727 9.0319 8.18555 9.28418C8.68197 9.52832 9.12549 9.8335 9.51611 10.1997C9.90674 10.5578 10.2201 10.9972 10.4561 11.5181C10.6921 12.0389 10.8101 12.6737 10.8101 13.4224V13.9473ZM25.8027 14.5698C25.8027 15.0744 25.7051 15.5505 25.5098 15.998C25.3226 16.4456 25.0622 16.8363 24.7285 17.1699C24.3949 17.5036 24.0042 17.7681 23.5566 17.9634C23.109 18.1506 22.633 18.2441 22.1284 18.2441H21.1274C20.6229 18.2441 20.1468 18.1506 19.6992 17.9634C19.2516 17.7681 18.861 17.5036 18.5273 17.1699C18.1937 16.8363 17.9292 16.4456 17.7339 15.998C17.5467 15.5505 17.4531 15.0744 17.4531 14.5698V8.93018C17.4531 8.42562 17.5467 7.94954 17.7339 7.50195C17.9292 7.05436 18.1937 6.66374 18.5273 6.33008C18.861 5.99642 19.2516 5.736 19.6992 5.54883C20.1468 5.35352 20.6229 5.25586 21.1274 5.25586H22.1284C22.633 5.25586 23.109 5.35352 23.5566 5.54883C24.0042 5.736 24.3949 5.99642 24.7285 6.33008C25.0622 6.66374 25.3226 7.05436 25.5098 7.50195C25.7051 7.94954 25.8027 8.42562 25.8027 8.93018V11.8721H18.9546V14.6553C18.9546 14.9564 19.0116 15.2412 19.1255 15.5098C19.2394 15.7702 19.394 15.998 19.5894 16.1934C19.7847 16.3887 20.0125 16.5433 20.2729 16.6572C20.5415 16.7712 20.8263 16.8281 21.1274 16.8281H22.1284C22.4295 16.8281 22.7103 16.7712 22.9707 16.6572C23.2393 16.5433 23.4712 16.3887 23.6665 16.1934C23.8618 15.998 24.0164 15.7702 24.1304 15.5098C24.2443 15.2412 24.3013 14.9564 24.3013 14.6553V13.8252L25.8027 14.0693V14.5698ZM24.3013 8.84473C24.3013 8.54362 24.2443 8.26286 24.1304 8.00244C24.0164 7.73389 23.8618 7.50195 23.6665 7.30664C23.4712 7.11133 23.2393 6.95671 22.9707 6.84277C22.7103 6.72884 22.4295 6.67188 22.1284 6.67188H21.1274C20.8263 6.67188 20.5415 6.72884 20.2729 6.84277C20.0125 6.95671 19.7847 7.11133 19.5894 7.30664C19.394 7.50195 19.2394 7.73389 19.1255 8.00244C19.0116 8.26286 18.9546 8.54362 18.9546 8.84473V10.7002H24.3013V8.84473ZM36.23 6.92822C35.9289 6.92822 35.644 6.98519 35.3755 7.09912C35.1151 7.21305 34.8872 7.36768 34.6919 7.56299C34.4966 7.7583 34.342 7.99023 34.228 8.25879C34.1141 8.51921 34.0571 8.79997 34.0571 9.10107V18H32.5557V5.5H33.0562L33.874 6.76953C34.2158 6.30566 34.6431 5.93945 35.1558 5.6709C35.6766 5.39421 36.2422 5.25586 36.8525 5.25586H37.7314V6.92822H36.23ZM47.4019 18H46.6572L42.2261 5.5H43.7275L46.9868 14.9727L47.0356 15.6196L47.0845 14.9727L50.3315 5.5H51.833L47.4019 18ZM57.7192 2.49707V0.495117H59.4648V2.49707H57.7192ZM57.8413 18V5.5H59.3428V18H57.8413ZM74.958 14.5698C74.958 15.0744 74.8604 15.5505 74.665 15.998C74.4779 16.4456 74.2174 16.8363 73.8838 17.1699C73.5501 17.5036 73.1595 17.7681 72.7119 17.9634C72.2643 18.1506 71.7882 18.2441 71.2837 18.2441H70.2827C69.7782 18.2441 69.3021 18.1506 68.8545 17.9634C68.4069 17.7681 68.0163 17.5036 67.6826 17.1699C67.349 16.8363 67.0845 16.4456 66.8892 15.998C66.702 15.5505 66.6084 15.0744 66.6084 14.5698V8.93018C66.6084 8.42562 66.702 7.94954 66.8892 7.50195C67.0845 7.05436 67.349 6.66374 67.6826 6.33008C68.0163 5.99642 68.4069 5.736 68.8545 5.54883C69.3021 5.35352 69.7782 5.25586 70.2827 5.25586H71.2837C71.7882 5.25586 72.2643 5.35352 72.7119 5.54883C73.1595 5.736 73.5501 5.99642 73.8838 6.33008C74.2174 6.66374 74.4779 7.05436 74.665 7.50195C74.8604 7.94954 74.958 8.42562 74.958 8.93018V9.43066L73.4565 9.6748V8.84473C73.4565 8.54362 73.3996 8.26286 73.2856 8.00244C73.1717 7.73389 73.0171 7.50195 72.8218 7.30664C72.6265 7.11133 72.3945 6.95671 72.126 6.84277C71.8656 6.72884 71.5848 6.67188 71.2837 6.67188H70.2827C69.9816 6.67188 69.6968 6.72884 69.4282 6.84277C69.1678 6.95671 68.9399 7.11133 68.7446 7.30664C68.5493 7.50195 68.3947 7.73389 68.2808 8.00244C68.1668 8.26286 68.1099 8.54362 68.1099 8.84473V14.6553C68.1099 14.9564 68.1668 15.2412 68.2808 15.5098C68.3947 15.7702 68.5493 15.998 68.7446 16.1934C68.9399 16.3887 69.1678 16.5433 69.4282 16.6572C69.6968 16.7712 69.9816 16.8281 70.2827 16.8281H71.2837C71.5848 16.8281 71.8656 16.7712 72.126 16.6572C72.3945 16.5433 72.6265 16.3887 72.8218 16.1934C73.0171 15.998 73.1717 15.7702 73.2856 15.5098C73.3996 15.2412 73.4565 14.9564 73.4565 14.6553V13.8252L74.958 14.0693V14.5698ZM90.0605 14.5698C90.0605 15.0744 89.9629 15.5505 89.7676 15.998C89.5804 16.4456 89.32 16.8363 88.9863 17.1699C88.6527 17.5036 88.262 17.7681 87.8145 17.9634C87.3669 18.1506 86.8908 18.2441 86.3862 18.2441H85.3853C84.8807 18.2441 84.4046 18.1506 83.957 17.9634C83.5094 17.7681 83.1188 17.5036 82.7852 17.1699C82.4515 16.8363 82.187 16.4456 81.9917 15.998C81.8045 15.5505 81.7109 15.0744 81.7109 14.5698V8.93018C81.7109 8.42562 81.8045 7.94954 81.9917 7.50195C82.187 7.05436 82.4515 6.66374 82.7852 6.33008C83.1188 5.99642 83.5094 5.736 83.957 5.54883C84.4046 5.35352 84.8807 5.25586 85.3853 5.25586H86.3862C86.8908 5.25586 87.3669 5.35352 87.8145 5.54883C88.262 5.736 88.6527 5.99642 88.9863 6.33008C89.32 6.66374 89.5804 7.05436 89.7676 7.50195C89.9629 7.94954 90.0605 8.42562 90.0605 8.93018V11.8721H83.2124V14.6553C83.2124 14.9564 83.2694 15.2412 83.3833 15.5098C83.4972 15.7702 83.6519 15.998 83.8472 16.1934C84.0425 16.3887 84.2703 16.5433 84.5308 16.6572C84.7993 16.7712 85.0841 16.8281 85.3853 16.8281H86.3862C86.6873 16.8281 86.9681 16.7712 87.2285 16.6572C87.4971 16.5433 87.729 16.3887 87.9243 16.1934C88.1196 15.998 88.2743 15.7702 88.3882 15.5098C88.5021 15.2412 88.5591 14.9564 88.5591 14.6553V13.8252L90.0605 14.0693V14.5698ZM88.5591 8.84473C88.5591 8.54362 88.5021 8.26286 88.3882 8.00244C88.2743 7.73389 88.1196 7.50195 87.9243 7.30664C87.729 7.11133 87.4971 6.95671 87.2285 6.84277C86.9681 6.72884 86.6873 6.67188 86.3862 6.67188H85.3853C85.0841 6.67188 84.7993 6.72884 84.5308 6.84277C84.2703 6.95671 84.0425 7.11133 83.8472 7.30664C83.6519 7.50195 83.4972 7.73389 83.3833 8.00244C83.2694 8.26286 83.2124 8.54362 83.2124 8.84473V10.7002H88.5591V8.84473ZM105.407 14.8262C105.407 15.3307 105.306 15.7946 105.102 16.2178C104.899 16.6328 104.622 16.9909 104.272 17.292C103.922 17.5931 103.515 17.8291 103.051 18C102.596 18.1628 102.115 18.2441 101.611 18.2441H100.61C100.105 18.2441 99.6211 18.1506 99.1572 17.9634C98.7015 17.7681 98.2987 17.5036 97.9487 17.1699C97.6069 16.8363 97.3302 16.4456 97.1187 15.998C96.9152 15.5505 96.8135 15.0744 96.8135 14.5698V14.0693L98.3149 13.8252V14.6553C98.3149 14.9564 98.376 15.2412 98.498 15.5098C98.6283 15.7702 98.7992 15.998 99.0107 16.1934C99.2223 16.3887 99.4665 16.5433 99.7432 16.6572C100.02 16.7712 100.309 16.8281 100.61 16.8281H101.611C101.912 16.8281 102.201 16.7834 102.478 16.6938C102.754 16.6043 102.998 16.4782 103.21 16.3154C103.43 16.1445 103.601 15.9411 103.723 15.7051C103.853 15.4691 103.918 15.2005 103.918 14.8994C103.918 14.4518 103.82 14.0856 103.625 13.8008C103.43 13.516 103.169 13.2799 102.844 13.0928C102.526 12.8975 102.16 12.7388 101.745 12.6167C101.338 12.4865 100.919 12.3604 100.488 12.2383C100.056 12.1081 99.6333 11.9616 99.2183 11.7988C98.8114 11.6361 98.4451 11.4245 98.1196 11.1641C97.8022 10.8955 97.5459 10.5618 97.3506 10.1631C97.1553 9.76432 97.0576 9.2679 97.0576 8.67383C97.0576 8.16927 97.1553 7.70947 97.3506 7.29443C97.5459 6.87126 97.8104 6.50911 98.144 6.20801C98.4777 5.9069 98.8643 5.67497 99.3037 5.51221C99.7513 5.34131 100.227 5.25586 100.732 5.25586H101.611C102.115 5.25586 102.591 5.35352 103.039 5.54883C103.487 5.736 103.877 5.99642 104.211 6.33008C104.545 6.66374 104.805 7.05436 104.992 7.50195C105.188 7.94954 105.285 8.42562 105.285 8.93018V8.979L103.784 9.22314V8.84473C103.784 8.54362 103.727 8.26286 103.613 8.00244C103.499 7.73389 103.344 7.50195 103.149 7.30664C102.954 7.11133 102.722 6.95671 102.453 6.84277C102.193 6.72884 101.912 6.67188 101.611 6.67188H100.732C100.431 6.67188 100.146 6.71663 99.8774 6.80615C99.617 6.89567 99.3892 7.02588 99.1938 7.19678C98.9985 7.35954 98.8439 7.55892 98.73 7.79492C98.616 8.03092 98.5591 8.29948 98.5591 8.60059C98.5591 9.0319 98.6567 9.3859 98.8521 9.6626C99.0474 9.93115 99.3037 10.159 99.6211 10.3462C99.9466 10.5334 100.313 10.6921 100.72 10.8223C101.135 10.9443 101.554 11.0745 101.977 11.2129C102.408 11.3431 102.827 11.4937 103.234 11.6646C103.649 11.8354 104.016 12.0552 104.333 12.3237C104.659 12.5923 104.919 12.93 105.114 13.3369C105.31 13.7357 105.407 14.2321 105.407 14.8262Z" fill="#DFDFDF"/>
</svg>
