<svg width="1037" height="109" viewBox="0 0 1037 109" fill="none" xmlns="http://www.w3.org/2000/svg">
<path d="M209.395 2.99316V35H206.245V2.99316H197.896V-0.00976562H217.744V2.99316H209.395ZM242.676 35L241.016 32.5098C240.332 33.4049 239.478 34.1292 238.452 34.6826C237.427 35.2197 236.304 35.4883 235.083 35.4883H234.326C233.317 35.4883 232.365 35.3011 231.47 34.9268C230.575 34.5361 229.793 34.0072 229.126 33.3398C228.459 32.6725 227.93 31.8913 227.539 30.9961C227.165 30.1009 226.978 29.1488 226.978 28.1396V27.8955C226.978 26.8864 227.165 25.9342 227.539 25.0391C227.93 24.1439 228.459 23.3626 229.126 22.6953C229.793 22.028 230.575 21.5072 231.47 21.1328C232.365 20.7422 233.317 20.5469 234.326 20.5469H240.674V16.6895C240.674 16.0872 240.56 15.5257 240.332 15.0049C240.104 14.4678 239.795 14.0039 239.404 13.6133C239.014 13.2227 238.55 12.9134 238.013 12.6855C237.492 12.4577 236.93 12.3438 236.328 12.3438H234.57C233.968 12.3438 233.398 12.4577 232.861 12.6855C232.34 12.9134 231.885 13.2227 231.494 13.6133C231.104 14.0039 230.794 14.4678 230.566 15.0049C230.339 15.5257 230.225 16.0872 230.225 16.6895V17.5928L227.222 17.1045V16.8604C227.222 15.8512 227.409 14.8991 227.783 14.0039C228.174 13.1087 228.703 12.3275 229.37 11.6602C230.037 10.9928 230.819 10.472 231.714 10.0977C232.609 9.70703 233.561 9.51172 234.57 9.51172H236.328C237.337 9.51172 238.289 9.70703 239.185 10.0977C240.08 10.472 240.861 10.9928 241.528 11.6602C242.196 12.3275 242.716 13.1087 243.091 14.0039C243.481 14.8991 243.677 15.8512 243.677 16.8604V35H242.676ZM240.674 22.8906H234.326C233.724 22.8906 233.154 23.0046 232.617 23.2324C232.096 23.4603 231.641 23.7777 231.25 24.1846C230.859 24.5752 230.55 25.0391 230.322 25.5762C230.094 26.097 229.98 26.6585 229.98 27.2607V28.3105C229.98 28.9128 230.094 29.4824 230.322 30.0195C230.55 30.5404 230.859 30.9961 231.25 31.3867C231.641 31.7773 232.096 32.0866 232.617 32.3145C233.154 32.5423 233.724 32.6562 234.326 32.6562H236.328C236.93 32.6562 237.492 32.5423 238.013 32.3145C238.55 32.0866 239.014 31.7773 239.404 31.3867C239.795 30.9961 240.104 30.5404 240.332 30.0195C240.56 29.4824 240.674 28.9128 240.674 28.3105V22.8906ZM271.978 35L261.772 22.5L271.978 10H275.884L265.435 22.5L275.884 35H271.978ZM258.184 35V-0.00976562H261.187V35H258.184ZM315.005 2.84668C314.5 2.84668 314.028 2.94434 313.589 3.13965C313.166 3.31868 312.791 3.57096 312.466 3.89648C312.14 4.22201 311.88 4.60449 311.685 5.04395C311.506 5.4834 311.416 5.9554 311.416 6.45996V10H317.251V12.8564H311.416V35H308.413V12.8564H303.896V10H308.413V6.60645C308.413 5.69499 308.584 4.84049 308.926 4.04297C309.268 3.22917 309.74 2.52116 310.342 1.91895C310.944 1.31673 311.644 0.844727 312.441 0.50293C313.239 0.161133 314.093 -0.00976562 315.005 -0.00976562H317.764V2.84668H315.005ZM344.966 28.1396C344.966 29.1488 344.771 30.1009 344.38 30.9961C344.006 31.8913 343.485 32.6725 342.817 33.3398C342.15 34.0072 341.369 34.5361 340.474 34.9268C339.578 35.3011 338.626 35.4883 337.617 35.4883H335.615C334.606 35.4883 333.654 35.3011 332.759 34.9268C331.864 34.5361 331.082 34.0072 330.415 33.3398C329.748 32.6725 329.219 31.8913 328.828 30.9961C328.454 30.1009 328.267 29.1488 328.267 28.1396V16.8604C328.267 15.8512 328.454 14.8991 328.828 14.0039C329.219 13.1087 329.748 12.3275 330.415 11.6602C331.082 10.9928 331.864 10.472 332.759 10.0977C333.654 9.70703 334.606 9.51172 335.615 9.51172H337.617C338.626 9.51172 339.578 9.70703 340.474 10.0977C341.369 10.472 342.15 10.9928 342.817 11.6602C343.485 12.3275 344.006 13.1087 344.38 14.0039C344.771 14.8991 344.966 15.8512 344.966 16.8604V28.1396ZM341.963 16.6895C341.963 16.0872 341.849 15.5257 341.621 15.0049C341.393 14.4678 341.084 14.0039 340.693 13.6133C340.303 13.2227 339.839 12.9134 339.302 12.6855C338.781 12.4577 338.219 12.3438 337.617 12.3438H335.615C335.013 12.3438 334.443 12.4577 333.906 12.6855C333.385 12.9134 332.93 13.2227 332.539 13.6133C332.148 14.0039 331.839 14.4678 331.611 15.0049C331.383 15.5257 331.27 16.0872 331.27 16.6895V28.3105C331.27 28.9128 331.383 29.4824 331.611 30.0195C331.839 30.5404 332.148 30.9961 332.539 31.3867C332.93 31.7773 333.385 32.0866 333.906 32.3145C334.443 32.5423 335.013 32.6562 335.615 32.6562H337.617C338.219 32.6562 338.781 32.5423 339.302 32.3145C339.839 32.0866 340.303 31.7773 340.693 31.3867C341.084 30.9961 341.393 30.5404 341.621 30.0195C341.849 29.4824 341.963 28.9128 341.963 28.3105V16.6895ZM365.82 12.8564C365.218 12.8564 364.648 12.9704 364.111 13.1982C363.59 13.4261 363.135 13.7354 362.744 14.126C362.354 14.5166 362.044 14.9805 361.816 15.5176C361.589 16.0384 361.475 16.5999 361.475 17.2021V35H358.472V10H359.473L361.108 12.5391C361.792 11.6113 362.646 10.8789 363.672 10.3418C364.714 9.78841 365.845 9.51172 367.065 9.51172H368.823V12.8564H365.82ZM415.049 35L413.389 32.4609C412.705 33.3887 411.851 34.1292 410.825 34.6826C409.8 35.2197 408.677 35.4883 407.456 35.4883H406.699C405.69 35.4883 404.738 35.3011 403.843 34.9268C402.948 34.5361 402.166 34.0072 401.499 33.3398C400.832 32.6725 400.303 31.8913 399.912 30.9961C399.538 30.1009 399.351 29.1488 399.351 28.1396V16.8604C399.351 15.8512 399.538 14.8991 399.912 14.0039C400.303 13.1087 400.832 12.3275 401.499 11.6602C402.166 10.9928 402.948 10.472 403.843 10.0977C404.738 9.70703 405.69 9.51172 406.699 9.51172H407.456C408.579 9.51172 409.621 9.73958 410.581 10.1953C411.541 10.651 412.363 11.2858 413.047 12.0996V-0.00976562H416.05V35H415.049ZM413.047 16.6895C413.047 16.0872 412.933 15.5257 412.705 15.0049C412.477 14.4678 412.168 14.0039 411.777 13.6133C411.387 13.2227 410.923 12.9134 410.386 12.6855C409.865 12.4577 409.303 12.3438 408.701 12.3438H406.699C406.097 12.3438 405.527 12.4577 404.99 12.6855C404.469 12.9134 404.014 13.2227 403.623 13.6133C403.232 14.0039 402.923 14.4678 402.695 15.0049C402.467 15.5257 402.354 16.0872 402.354 16.6895V28.3105C402.354 28.9128 402.467 29.4824 402.695 30.0195C402.923 30.5404 403.232 30.9961 403.623 31.3867C404.014 31.7773 404.469 32.0866 404.99 32.3145C405.527 32.5423 406.097 32.6562 406.699 32.6562H408.701C409.303 32.6562 409.865 32.5423 410.386 32.3145C410.923 32.0866 411.387 31.7773 411.777 31.3867C412.168 30.9961 412.477 30.5404 412.705 30.0195C412.933 29.4824 413.047 28.9128 413.047 28.3105V16.6895ZM430.312 3.99414V-0.00976562H433.804V3.99414H430.312ZM430.557 35V10H433.56V35H430.557ZM461.787 35V16.6895C461.787 16.0872 461.673 15.5257 461.445 15.0049C461.217 14.4678 460.908 14.0039 460.518 13.6133C460.127 13.2227 459.663 12.9134 459.126 12.6855C458.605 12.4577 458.044 12.3438 457.441 12.3438H455.439C454.837 12.3438 454.268 12.4577 453.73 12.6855C453.21 12.9134 452.754 13.2227 452.363 13.6133C451.973 14.0039 451.663 14.4678 451.436 15.0049C451.208 15.5257 451.094 16.0872 451.094 16.6895V35H448.091V10H449.092L450.728 12.5391C451.411 11.6113 452.266 10.8789 453.291 10.3418C454.333 9.78841 455.464 9.51172 456.685 9.51172H457.441C458.451 9.51172 459.403 9.70703 460.298 10.0977C461.193 10.472 461.974 10.9928 462.642 11.6602C463.309 12.3275 463.83 13.1087 464.204 14.0039C464.595 14.8991 464.79 15.8512 464.79 16.8604V35H461.787ZM511.016 35V16.6895C511.016 16.0872 510.902 15.5257 510.674 15.0049C510.446 14.4678 510.137 14.0039 509.746 13.6133C509.355 13.2227 508.892 12.9134 508.354 12.6855C507.834 12.4577 507.272 12.3438 506.67 12.3438H504.668C504.066 12.3438 503.496 12.4577 502.959 12.6855C502.438 12.9134 501.982 13.2227 501.592 13.6133C501.201 14.0039 500.892 14.4678 500.664 15.0049C500.436 15.5257 500.322 16.0872 500.322 16.6895V35H497.319V-0.00976562H500.322V12.0996C501.006 11.2858 501.828 10.651 502.788 10.1953C503.748 9.73958 504.79 9.51172 505.913 9.51172H506.67C507.679 9.51172 508.631 9.70703 509.526 10.0977C510.422 10.472 511.203 10.9928 511.87 11.6602C512.537 12.3275 513.058 13.1087 513.433 14.0039C513.823 14.8991 514.019 15.8512 514.019 16.8604V35H511.016ZM544.224 28.1396C544.224 29.1488 544.028 30.1009 543.638 30.9961C543.263 31.8913 542.743 32.6725 542.075 33.3398C541.408 34.0072 540.627 34.5361 539.731 34.9268C538.836 35.3011 537.884 35.4883 536.875 35.4883H534.873C533.864 35.4883 532.912 35.3011 532.017 34.9268C531.121 34.5361 530.34 34.0072 529.673 33.3398C529.006 32.6725 528.477 31.8913 528.086 30.9961C527.712 30.1009 527.524 29.1488 527.524 28.1396V16.8604C527.524 15.8512 527.712 14.8991 528.086 14.0039C528.477 13.1087 529.006 12.3275 529.673 11.6602C530.34 10.9928 531.121 10.472 532.017 10.0977C532.912 9.70703 533.864 9.51172 534.873 9.51172H536.875C537.884 9.51172 538.836 9.70703 539.731 10.0977C540.627 10.472 541.408 10.9928 542.075 11.6602C542.743 12.3275 543.263 13.1087 543.638 14.0039C544.028 14.8991 544.224 15.8512 544.224 16.8604V22.7441H530.527V28.3105C530.527 28.9128 530.641 29.4824 530.869 30.0195C531.097 30.5404 531.406 30.9961 531.797 31.3867C532.188 31.7773 532.643 32.0866 533.164 32.3145C533.701 32.5423 534.271 32.6562 534.873 32.6562H536.875C537.477 32.6562 538.039 32.5423 538.56 32.3145C539.097 32.0866 539.561 31.7773 539.951 31.3867C540.342 30.9961 540.651 30.5404 540.879 30.0195C541.107 29.4824 541.221 28.9128 541.221 28.3105V26.6504L544.224 27.1387V28.1396ZM541.221 16.6895C541.221 16.0872 541.107 15.5257 540.879 15.0049C540.651 14.4678 540.342 14.0039 539.951 13.6133C539.561 13.2227 539.097 12.9134 538.56 12.6855C538.039 12.4577 537.477 12.3438 536.875 12.3438H534.873C534.271 12.3438 533.701 12.4577 533.164 12.6855C532.643 12.9134 532.188 13.2227 531.797 13.6133C531.406 14.0039 531.097 14.4678 530.869 15.0049C530.641 15.5257 530.527 16.0872 530.527 16.6895V20.4004H541.221V16.6895ZM571.426 35V16.6895C571.426 16.0872 571.312 15.5257 571.084 15.0049C570.856 14.4678 570.547 14.0039 570.156 13.6133C569.766 13.2227 569.302 12.9134 568.765 12.6855C568.244 12.4577 567.682 12.3438 567.08 12.3438H565.078C564.476 12.3438 563.906 12.4577 563.369 12.6855C562.848 12.9134 562.393 13.2227 562.002 13.6133C561.611 14.0039 561.302 14.4678 561.074 15.0049C560.846 15.5257 560.732 16.0872 560.732 16.6895V35H557.729V10H558.73L560.366 12.5391C561.05 11.6113 561.904 10.8789 562.93 10.3418C563.971 9.78841 565.103 9.51172 566.323 9.51172H567.08C568.089 9.51172 569.041 9.70703 569.937 10.0977C570.832 10.472 571.613 10.9928 572.28 11.6602C572.948 12.3275 573.468 13.1087 573.843 14.0039C574.233 14.8991 574.429 15.8512 574.429 16.8604V35H571.426ZM595.771 35H594.282L585.42 10H588.423L594.941 28.9453L595.039 30.2393L595.137 28.9453L601.631 10H604.634L595.771 35ZM632.349 28.1396C632.349 29.1488 632.153 30.1009 631.763 30.9961C631.388 31.8913 630.868 32.6725 630.2 33.3398C629.533 34.0072 628.752 34.5361 627.856 34.9268C626.961 35.3011 626.009 35.4883 625 35.4883H622.998C621.989 35.4883 621.037 35.3011 620.142 34.9268C619.246 34.5361 618.465 34.0072 617.798 33.3398C617.131 32.6725 616.602 31.8913 616.211 30.9961C615.837 30.1009 615.649 29.1488 615.649 28.1396V16.8604C615.649 15.8512 615.837 14.8991 616.211 14.0039C616.602 13.1087 617.131 12.3275 617.798 11.6602C618.465 10.9928 619.246 10.472 620.142 10.0977C621.037 9.70703 621.989 9.51172 622.998 9.51172H625C626.009 9.51172 626.961 9.70703 627.856 10.0977C628.752 10.472 629.533 10.9928 630.2 11.6602C630.868 12.3275 631.388 13.1087 631.763 14.0039C632.153 14.8991 632.349 15.8512 632.349 16.8604V22.7441H618.652V28.3105C618.652 28.9128 618.766 29.4824 618.994 30.0195C619.222 30.5404 619.531 30.9961 619.922 31.3867C620.312 31.7773 620.768 32.0866 621.289 32.3145C621.826 32.5423 622.396 32.6562 622.998 32.6562H625C625.602 32.6562 626.164 32.5423 626.685 32.3145C627.222 32.0866 627.686 31.7773 628.076 31.3867C628.467 30.9961 628.776 30.5404 629.004 30.0195C629.232 29.4824 629.346 28.9128 629.346 28.3105V26.6504L632.349 27.1387V28.1396ZM629.346 16.6895C629.346 16.0872 629.232 15.5257 629.004 15.0049C628.776 14.4678 628.467 14.0039 628.076 13.6133C627.686 13.2227 627.222 12.9134 626.685 12.6855C626.164 12.4577 625.602 12.3438 625 12.3438H622.998C622.396 12.3438 621.826 12.4577 621.289 12.6855C620.768 12.9134 620.312 13.2227 619.922 13.6133C619.531 14.0039 619.222 14.4678 618.994 15.0049C618.766 15.5257 618.652 16.0872 618.652 16.6895V20.4004H629.346V16.6895ZM659.551 35V16.6895C659.551 16.0872 659.437 15.5257 659.209 15.0049C658.981 14.4678 658.672 14.0039 658.281 13.6133C657.891 13.2227 657.427 12.9134 656.89 12.6855C656.369 12.4577 655.807 12.3438 655.205 12.3438H653.203C652.601 12.3438 652.031 12.4577 651.494 12.6855C650.973 12.9134 650.518 13.2227 650.127 13.6133C649.736 14.0039 649.427 14.4678 649.199 15.0049C648.971 15.5257 648.857 16.0872 648.857 16.6895V35H645.854V10H646.855L648.491 12.5391C649.175 11.6113 650.029 10.8789 651.055 10.3418C652.096 9.78841 653.228 9.51172 654.448 9.51172H655.205C656.214 9.51172 657.166 9.70703 658.062 10.0977C658.957 10.472 659.738 10.9928 660.405 11.6602C661.073 12.3275 661.593 13.1087 661.968 14.0039C662.358 14.8991 662.554 15.8512 662.554 16.8604V35H659.551ZM691.758 35L690.098 32.4609C689.414 33.3887 688.56 34.1292 687.534 34.6826C686.509 35.2197 685.386 35.4883 684.165 35.4883H683.408C682.399 35.4883 681.447 35.3011 680.552 34.9268C679.657 34.5361 678.875 34.0072 678.208 33.3398C677.541 32.6725 677.012 31.8913 676.621 30.9961C676.247 30.1009 676.06 29.1488 676.06 28.1396V16.8604C676.06 15.8512 676.247 14.8991 676.621 14.0039C677.012 13.1087 677.541 12.3275 678.208 11.6602C678.875 10.9928 679.657 10.472 680.552 10.0977C681.447 9.70703 682.399 9.51172 683.408 9.51172H684.165C685.288 9.51172 686.33 9.73958 687.29 10.1953C688.25 10.651 689.072 11.2858 689.756 12.0996V-0.00976562H692.759V35H691.758ZM689.756 16.6895C689.756 16.0872 689.642 15.5257 689.414 15.0049C689.186 14.4678 688.877 14.0039 688.486 13.6133C688.096 13.2227 687.632 12.9134 687.095 12.6855C686.574 12.4577 686.012 12.3438 685.41 12.3438H683.408C682.806 12.3438 682.236 12.4577 681.699 12.6855C681.178 12.9134 680.723 13.2227 680.332 13.6133C679.941 14.0039 679.632 14.4678 679.404 15.0049C679.176 15.5257 679.062 16.0872 679.062 16.6895V28.3105C679.062 28.9128 679.176 29.4824 679.404 30.0195C679.632 30.5404 679.941 30.9961 680.332 31.3867C680.723 31.7773 681.178 32.0866 681.699 32.3145C682.236 32.5423 682.806 32.6562 683.408 32.6562H685.41C686.012 32.6562 686.574 32.5423 687.095 32.3145C687.632 32.0866 688.096 31.7773 688.486 31.3867C688.877 30.9961 689.186 30.5404 689.414 30.0195C689.642 29.4824 689.756 28.9128 689.756 28.3105V16.6895ZM722.964 28.1396C722.964 29.1488 722.769 30.1009 722.378 30.9961C722.004 31.8913 721.483 32.6725 720.815 33.3398C720.148 34.0072 719.367 34.5361 718.472 34.9268C717.576 35.3011 716.624 35.4883 715.615 35.4883H713.613C712.604 35.4883 711.652 35.3011 710.757 34.9268C709.862 34.5361 709.08 34.0072 708.413 33.3398C707.746 32.6725 707.217 31.8913 706.826 30.9961C706.452 30.1009 706.265 29.1488 706.265 28.1396V16.8604C706.265 15.8512 706.452 14.8991 706.826 14.0039C707.217 13.1087 707.746 12.3275 708.413 11.6602C709.08 10.9928 709.862 10.472 710.757 10.0977C711.652 9.70703 712.604 9.51172 713.613 9.51172H715.615C716.624 9.51172 717.576 9.70703 718.472 10.0977C719.367 10.472 720.148 10.9928 720.815 11.6602C721.483 12.3275 722.004 13.1087 722.378 14.0039C722.769 14.8991 722.964 15.8512 722.964 16.8604V22.7441H709.268V28.3105C709.268 28.9128 709.382 29.4824 709.609 30.0195C709.837 30.5404 710.146 30.9961 710.537 31.3867C710.928 31.7773 711.383 32.0866 711.904 32.3145C712.441 32.5423 713.011 32.6562 713.613 32.6562H715.615C716.217 32.6562 716.779 32.5423 717.3 32.3145C717.837 32.0866 718.301 31.7773 718.691 31.3867C719.082 30.9961 719.391 30.5404 719.619 30.0195C719.847 29.4824 719.961 28.9128 719.961 28.3105V26.6504L722.964 27.1387V28.1396ZM719.961 16.6895C719.961 16.0872 719.847 15.5257 719.619 15.0049C719.391 14.4678 719.082 14.0039 718.691 13.6133C718.301 13.2227 717.837 12.9134 717.3 12.6855C716.779 12.4577 716.217 12.3438 715.615 12.3438H713.613C713.011 12.3438 712.441 12.4577 711.904 12.6855C711.383 12.9134 710.928 13.2227 710.537 13.6133C710.146 14.0039 709.837 14.4678 709.609 15.0049C709.382 15.5257 709.268 16.0872 709.268 16.6895V20.4004H719.961V16.6895ZM737.471 35V-0.00976562H740.474V35H737.471ZM772.192 28.6523C772.192 29.6615 771.989 30.5892 771.582 31.4355C771.175 32.2656 770.622 32.9818 769.922 33.584C769.222 34.1862 768.408 34.6582 767.48 35C766.569 35.3255 765.609 35.4883 764.6 35.4883H762.598C761.589 35.4883 760.62 35.3011 759.692 34.9268C758.781 34.5361 757.975 34.0072 757.275 33.3398C756.592 32.6725 756.038 31.8913 755.615 30.9961C755.208 30.1009 755.005 29.1488 755.005 28.1396V27.1387L758.008 26.6504V28.3105C758.008 28.9128 758.13 29.4824 758.374 30.0195C758.634 30.5404 758.976 30.9961 759.399 31.3867C759.823 31.7773 760.311 32.0866 760.864 32.3145C761.418 32.5423 761.995 32.6562 762.598 32.6562H764.6C765.202 32.6562 765.78 32.5667 766.333 32.3877C766.886 32.2087 767.375 31.9564 767.798 31.6309C768.237 31.2891 768.579 30.8822 768.823 30.4102C769.084 29.9382 769.214 29.401 769.214 28.7988C769.214 27.9036 769.019 27.1712 768.628 26.6016C768.237 26.0319 767.716 25.5599 767.065 25.1855C766.431 24.7949 765.698 24.4775 764.868 24.2334C764.054 23.973 763.216 23.7207 762.354 23.4766C761.491 23.2161 760.645 22.9232 759.814 22.5977C759.001 22.2721 758.268 21.849 757.617 21.3281C756.982 20.791 756.47 20.1237 756.079 19.3262C755.688 18.5286 755.493 17.5358 755.493 16.3477C755.493 15.3385 755.688 14.4189 756.079 13.5889C756.47 12.7425 756.999 12.0182 757.666 11.416C758.333 10.8138 759.106 10.3499 759.985 10.0244C760.881 9.68262 761.833 9.51172 762.842 9.51172H764.6C765.609 9.51172 766.561 9.70703 767.456 10.0977C768.351 10.472 769.132 10.9928 769.8 11.6602C770.467 12.3275 770.988 13.1087 771.362 14.0039C771.753 14.8991 771.948 15.8512 771.948 16.8604V16.958L768.945 17.4463V16.6895C768.945 16.0872 768.831 15.5257 768.604 15.0049C768.376 14.4678 768.066 14.0039 767.676 13.6133C767.285 13.2227 766.821 12.9134 766.284 12.6855C765.763 12.4577 765.202 12.3438 764.6 12.3438H762.842C762.24 12.3438 761.67 12.4333 761.133 12.6123C760.612 12.7913 760.156 13.0518 759.766 13.3936C759.375 13.7191 759.066 14.1178 758.838 14.5898C758.61 15.0618 758.496 15.599 758.496 16.2012C758.496 17.0638 758.691 17.7718 759.082 18.3252C759.473 18.8623 759.985 19.318 760.62 19.6924C761.271 20.0667 762.004 20.3841 762.817 20.6445C763.647 20.8887 764.486 21.1491 765.332 21.4258C766.195 21.6862 767.033 21.9873 767.847 22.3291C768.677 22.6709 769.409 23.1104 770.044 23.6475C770.695 24.1846 771.216 24.86 771.606 25.6738C771.997 26.4714 772.192 27.4642 772.192 28.6523ZM802.153 28.1396C802.153 29.1488 801.958 30.1009 801.567 30.9961C801.193 31.8913 800.672 32.6725 800.005 33.3398C799.338 34.0072 798.556 34.5361 797.661 34.9268C796.766 35.3011 795.814 35.4883 794.805 35.4883H792.803C791.794 35.4883 790.841 35.3011 789.946 34.9268C789.051 34.5361 788.27 34.0072 787.603 33.3398C786.935 32.6725 786.406 31.8913 786.016 30.9961C785.641 30.1009 785.454 29.1488 785.454 28.1396V16.8604C785.454 15.8512 785.641 14.8991 786.016 14.0039C786.406 13.1087 786.935 12.3275 787.603 11.6602C788.27 10.9928 789.051 10.472 789.946 10.0977C790.841 9.70703 791.794 9.51172 792.803 9.51172H794.805C795.814 9.51172 796.766 9.70703 797.661 10.0977C798.556 10.472 799.338 10.9928 800.005 11.6602C800.672 12.3275 801.193 13.1087 801.567 14.0039C801.958 14.8991 802.153 15.8512 802.153 16.8604V22.7441H788.457V28.3105C788.457 28.9128 788.571 29.4824 788.799 30.0195C789.027 30.5404 789.336 30.9961 789.727 31.3867C790.117 31.7773 790.573 32.0866 791.094 32.3145C791.631 32.5423 792.201 32.6562 792.803 32.6562H794.805C795.407 32.6562 795.968 32.5423 796.489 32.3145C797.026 32.0866 797.49 31.7773 797.881 31.3867C798.271 30.9961 798.581 30.5404 798.809 30.0195C799.036 29.4824 799.15 28.9128 799.15 28.3105V26.6504L802.153 27.1387V28.1396ZM799.15 16.6895C799.15 16.0872 799.036 15.5257 798.809 15.0049C798.581 14.4678 798.271 14.0039 797.881 13.6133C797.49 13.2227 797.026 12.9134 796.489 12.6855C795.968 12.4577 795.407 12.3438 794.805 12.3438H792.803C792.201 12.3438 791.631 12.4577 791.094 12.6855C790.573 12.9134 790.117 13.2227 789.727 13.6133C789.336 14.0039 789.027 14.4678 788.799 15.0049C788.571 15.5257 788.457 16.0872 788.457 16.6895V20.4004H799.15V16.6895ZM818.76 24.4043H817.002L815.659 -0.00976562H820.103L818.76 24.4043ZM816.001 35V31.2402H819.761V35H816.001ZM11.8457 91.3096L11.9434 92.6035L12.041 91.3096L19.8047 63.9902H23.0518L12.749 99H11.0889L0.834961 63.9902H4.10645L11.8457 91.3096ZM34.7998 67.9941V63.9902H38.291V67.9941H34.7998ZM35.0439 99V74H38.0469V99H35.0439ZM79.4385 99H77.9492L69.0869 74H72.0898L78.6084 92.9453L78.7061 94.2393L78.8037 92.9453L85.2979 74H88.3008L79.4385 99ZM116.016 92.1396C116.016 93.1488 115.82 94.1009 115.43 94.9961C115.055 95.8913 114.535 96.6725 113.867 97.3398C113.2 98.0072 112.419 98.5361 111.523 98.9268C110.628 99.3011 109.676 99.4883 108.667 99.4883H106.665C105.656 99.4883 104.704 99.3011 103.809 98.9268C102.913 98.5361 102.132 98.0072 101.465 97.3398C100.798 96.6725 100.269 95.8913 99.8779 94.9961C99.5036 94.1009 99.3164 93.1488 99.3164 92.1396V80.8604C99.3164 79.8512 99.5036 78.8991 99.8779 78.0039C100.269 77.1087 100.798 76.3275 101.465 75.6602C102.132 74.9928 102.913 74.472 103.809 74.0977C104.704 73.707 105.656 73.5117 106.665 73.5117H108.667C109.676 73.5117 110.628 73.707 111.523 74.0977C112.419 74.472 113.2 74.9928 113.867 75.6602C114.535 76.3275 115.055 77.1087 115.43 78.0039C115.82 78.8991 116.016 79.8512 116.016 80.8604V86.7441H102.319V92.3105C102.319 92.9128 102.433 93.4824 102.661 94.0195C102.889 94.5404 103.198 94.9961 103.589 95.3867C103.979 95.7773 104.435 96.0866 104.956 96.3145C105.493 96.5423 106.063 96.6562 106.665 96.6562H108.667C109.269 96.6562 109.831 96.5423 110.352 96.3145C110.889 96.0866 111.353 95.7773 111.743 95.3867C112.134 94.9961 112.443 94.5404 112.671 94.0195C112.899 93.4824 113.013 92.9128 113.013 92.3105V90.6504L116.016 91.1387V92.1396ZM113.013 80.6895C113.013 80.0872 112.899 79.5257 112.671 79.0049C112.443 78.4678 112.134 78.0039 111.743 77.6133C111.353 77.2227 110.889 76.9134 110.352 76.6855C109.831 76.4577 109.269 76.3438 108.667 76.3438H106.665C106.063 76.3438 105.493 76.4577 104.956 76.6855C104.435 76.9134 103.979 77.2227 103.589 77.6133C103.198 78.0039 102.889 78.4678 102.661 79.0049C102.433 79.5257 102.319 80.0872 102.319 80.6895V84.4004H113.013V80.6895ZM143.218 99V80.6895C143.218 80.0872 143.104 79.5257 142.876 79.0049C142.648 78.4678 142.339 78.0039 141.948 77.6133C141.558 77.2227 141.094 76.9134 140.557 76.6855C140.036 76.4577 139.474 76.3438 138.872 76.3438H136.87C136.268 76.3438 135.698 76.4577 135.161 76.6855C134.64 76.9134 134.185 77.2227 133.794 77.6133C133.403 78.0039 133.094 78.4678 132.866 79.0049C132.638 79.5257 132.524 80.0872 132.524 80.6895V99H129.521V74H130.522L132.158 76.5391C132.842 75.6113 133.696 74.8789 134.722 74.3418C135.763 73.7884 136.895 73.5117 138.115 73.5117H138.872C139.881 73.5117 140.833 73.707 141.729 74.0977C142.624 74.472 143.405 74.9928 144.072 75.6602C144.74 76.3275 145.26 77.1087 145.635 78.0039C146.025 78.8991 146.221 79.8512 146.221 80.8604V99H143.218ZM175.425 99L173.765 96.4609C173.081 97.3887 172.227 98.1292 171.201 98.6826C170.176 99.2197 169.053 99.4883 167.832 99.4883H167.075C166.066 99.4883 165.114 99.3011 164.219 98.9268C163.324 98.5361 162.542 98.0072 161.875 97.3398C161.208 96.6725 160.679 95.8913 160.288 94.9961C159.914 94.1009 159.727 93.1488 159.727 92.1396V80.8604C159.727 79.8512 159.914 78.8991 160.288 78.0039C160.679 77.1087 161.208 76.3275 161.875 75.6602C162.542 74.9928 163.324 74.472 164.219 74.0977C165.114 73.707 166.066 73.5117 167.075 73.5117H167.832C168.955 73.5117 169.997 73.7396 170.957 74.1953C171.917 74.651 172.739 75.2858 173.423 76.0996V63.9902H176.426V99H175.425ZM173.423 80.6895C173.423 80.0872 173.309 79.5257 173.081 79.0049C172.853 78.4678 172.544 78.0039 172.153 77.6133C171.763 77.2227 171.299 76.9134 170.762 76.6855C170.241 76.4577 169.679 76.3438 169.077 76.3438H167.075C166.473 76.3438 165.903 76.4577 165.366 76.6855C164.845 76.9134 164.39 77.2227 163.999 77.6133C163.608 78.0039 163.299 78.4678 163.071 79.0049C162.843 79.5257 162.729 80.0872 162.729 80.6895V92.3105C162.729 92.9128 162.843 93.4824 163.071 94.0195C163.299 94.5404 163.608 94.9961 163.999 95.3867C164.39 95.7773 164.845 96.0866 165.366 96.3145C165.903 96.5423 166.473 96.6562 167.075 96.6562H169.077C169.679 96.6562 170.241 96.5423 170.762 96.3145C171.299 96.0866 171.763 95.7773 172.153 95.3867C172.544 94.9961 172.853 94.5404 173.081 94.0195C173.309 93.4824 173.423 92.9128 173.423 92.3105V80.6895ZM206.631 92.1396C206.631 93.1488 206.436 94.1009 206.045 94.9961C205.671 95.8913 205.15 96.6725 204.482 97.3398C203.815 98.0072 203.034 98.5361 202.139 98.9268C201.243 99.3011 200.291 99.4883 199.282 99.4883H197.28C196.271 99.4883 195.319 99.3011 194.424 98.9268C193.529 98.5361 192.747 98.0072 192.08 97.3398C191.413 96.6725 190.884 95.8913 190.493 94.9961C190.119 94.1009 189.932 93.1488 189.932 92.1396V80.8604C189.932 79.8512 190.119 78.8991 190.493 78.0039C190.884 77.1087 191.413 76.3275 192.08 75.6602C192.747 74.9928 193.529 74.472 194.424 74.0977C195.319 73.707 196.271 73.5117 197.28 73.5117H199.282C200.291 73.5117 201.243 73.707 202.139 74.0977C203.034 74.472 203.815 74.9928 204.482 75.6602C205.15 76.3275 205.671 77.1087 206.045 78.0039C206.436 78.8991 206.631 79.8512 206.631 80.8604V86.7441H192.935V92.3105C192.935 92.9128 193.049 93.4824 193.276 94.0195C193.504 94.5404 193.813 94.9961 194.204 95.3867C194.595 95.7773 195.05 96.0866 195.571 96.3145C196.108 96.5423 196.678 96.6562 197.28 96.6562H199.282C199.884 96.6562 200.446 96.5423 200.967 96.3145C201.504 96.0866 201.968 95.7773 202.358 95.3867C202.749 94.9961 203.058 94.5404 203.286 94.0195C203.514 93.4824 203.628 92.9128 203.628 92.3105V90.6504L206.631 91.1387V92.1396ZM203.628 80.6895C203.628 80.0872 203.514 79.5257 203.286 79.0049C203.058 78.4678 202.749 78.0039 202.358 77.6133C201.968 77.2227 201.504 76.9134 200.967 76.6855C200.446 76.4577 199.884 76.3438 199.282 76.3438H197.28C196.678 76.3438 196.108 76.4577 195.571 76.6855C195.05 76.9134 194.595 77.2227 194.204 77.6133C193.813 78.0039 193.504 78.4678 193.276 79.0049C193.049 79.5257 192.935 80.0872 192.935 80.6895V84.4004H203.628V80.6895ZM227.485 76.8564C226.883 76.8564 226.313 76.9704 225.776 77.1982C225.256 77.4261 224.8 77.7354 224.409 78.126C224.019 78.5166 223.709 78.9805 223.481 79.5176C223.254 80.0384 223.14 80.5999 223.14 81.2021V99H220.137V74H221.138L222.773 76.5391C223.457 75.6113 224.312 74.8789 225.337 74.3418C226.379 73.7884 227.51 73.5117 228.73 73.5117H230.488V76.8564H227.485ZM270.122 99C269.211 99 268.348 98.8291 267.534 98.4873C266.737 98.1455 266.037 97.6735 265.435 97.0713C264.849 96.4691 264.377 95.7692 264.019 94.9717C263.677 94.1742 263.506 93.3197 263.506 92.4082V76.8564H259.014V74H263.506V67.9941L266.509 67.5059V74H272.856V76.8564H266.509V92.5547C266.509 93.0592 266.598 93.5312 266.777 93.9707C266.973 94.3939 267.233 94.7682 267.559 95.0938C267.884 95.4193 268.267 95.6797 268.706 95.875C269.146 96.054 269.618 96.1436 270.122 96.1436H272.856V99H270.122ZM286.655 67.9941V63.9902H290.146V67.9941H286.655ZM286.899 99V74H289.902V99H286.899ZM305.435 99V63.9902H308.438V99H305.435ZM339.668 92.1396C339.668 93.1488 339.473 94.1009 339.082 94.9961C338.708 95.8913 338.187 96.6725 337.52 97.3398C336.852 98.0072 336.071 98.5361 335.176 98.9268C334.281 99.3011 333.328 99.4883 332.319 99.4883H330.317C329.308 99.4883 328.356 99.3011 327.461 98.9268C326.566 98.5361 325.785 98.0072 325.117 97.3398C324.45 96.6725 323.921 95.8913 323.53 94.9961C323.156 94.1009 322.969 93.1488 322.969 92.1396V63.9902H325.972V76.0996C326.655 75.2858 327.477 74.651 328.438 74.1953C329.398 73.7396 330.439 73.5117 331.562 73.5117H332.319C333.328 73.5117 334.281 73.707 335.176 74.0977C336.071 74.472 336.852 74.9928 337.52 75.6602C338.187 76.3275 338.708 77.1087 339.082 78.0039C339.473 78.8991 339.668 79.8512 339.668 80.8604V92.1396ZM336.665 80.6895C336.665 80.0872 336.551 79.5257 336.323 79.0049C336.095 78.4678 335.786 78.0039 335.396 77.6133C335.005 77.2227 334.541 76.9134 334.004 76.6855C333.483 76.4577 332.922 76.3438 332.319 76.3438H330.317C329.715 76.3438 329.146 76.4577 328.608 76.6855C328.088 76.9134 327.632 77.2227 327.241 77.6133C326.851 78.0039 326.541 78.4678 326.313 79.0049C326.086 79.5257 325.972 80.0872 325.972 80.6895V92.3105C325.972 92.9128 326.086 93.4824 326.313 94.0195C326.541 94.5404 326.851 94.9961 327.241 95.3867C327.632 95.7773 328.088 96.0866 328.608 96.3145C329.146 96.5423 329.715 96.6562 330.317 96.6562H332.319C332.922 96.6562 333.483 96.5423 334.004 96.3145C334.541 96.0866 335.005 95.7773 335.396 95.3867C335.786 94.9961 336.095 94.5404 336.323 94.0195C336.551 93.4824 336.665 92.9128 336.665 92.3105V80.6895ZM368.872 99L367.212 96.5098C366.528 97.4049 365.674 98.1292 364.648 98.6826C363.623 99.2197 362.5 99.4883 361.279 99.4883H360.522C359.513 99.4883 358.561 99.3011 357.666 98.9268C356.771 98.5361 355.99 98.0072 355.322 97.3398C354.655 96.6725 354.126 95.8913 353.735 94.9961C353.361 94.1009 353.174 93.1488 353.174 92.1396V91.8955C353.174 90.8864 353.361 89.9342 353.735 89.0391C354.126 88.1439 354.655 87.3626 355.322 86.6953C355.99 86.028 356.771 85.5072 357.666 85.1328C358.561 84.7422 359.513 84.5469 360.522 84.5469H366.87V80.6895C366.87 80.0872 366.756 79.5257 366.528 79.0049C366.3 78.4678 365.991 78.0039 365.601 77.6133C365.21 77.2227 364.746 76.9134 364.209 76.6855C363.688 76.4577 363.127 76.3438 362.524 76.3438H360.767C360.164 76.3438 359.595 76.4577 359.058 76.6855C358.537 76.9134 358.081 77.2227 357.69 77.6133C357.3 78.0039 356.991 78.4678 356.763 79.0049C356.535 79.5257 356.421 80.0872 356.421 80.6895V81.5928L353.418 81.1045V80.8604C353.418 79.8512 353.605 78.8991 353.979 78.0039C354.37 77.1087 354.899 76.3275 355.566 75.6602C356.234 74.9928 357.015 74.472 357.91 74.0977C358.805 73.707 359.757 73.5117 360.767 73.5117H362.524C363.534 73.5117 364.486 73.707 365.381 74.0977C366.276 74.472 367.057 74.9928 367.725 75.6602C368.392 76.3275 368.913 77.1087 369.287 78.0039C369.678 78.8991 369.873 79.8512 369.873 80.8604V99H368.872ZM366.87 86.8906H360.522C359.92 86.8906 359.351 87.0046 358.813 87.2324C358.293 87.4603 357.837 87.7777 357.446 88.1846C357.056 88.5752 356.746 89.0391 356.519 89.5762C356.291 90.097 356.177 90.6585 356.177 91.2607V92.3105C356.177 92.9128 356.291 93.4824 356.519 94.0195C356.746 94.5404 357.056 94.9961 357.446 95.3867C357.837 95.7773 358.293 96.0866 358.813 96.3145C359.351 96.5423 359.92 96.6562 360.522 96.6562H362.524C363.127 96.6562 363.688 96.5423 364.209 96.3145C364.746 96.0866 365.21 95.7773 365.601 95.3867C365.991 94.9961 366.3 94.5404 366.528 94.0195C366.756 93.4824 366.87 92.9128 366.87 92.3105V86.8906ZM400.322 102.149C400.322 103.159 400.127 104.086 399.736 104.933C399.362 105.779 398.841 106.503 398.174 107.105C397.507 107.708 396.725 108.172 395.83 108.497C394.935 108.839 393.983 109.01 392.974 109.01H391.729C390.719 109.01 389.767 108.839 388.872 108.497C387.977 108.172 387.196 107.708 386.528 107.105C385.861 106.503 385.332 105.779 384.941 104.933C384.567 104.086 384.38 103.159 384.38 102.149V102.052C384.38 101.075 384.559 100.18 384.917 99.3662C385.275 98.5524 385.763 97.8444 386.382 97.2422C385.601 96.7702 384.974 96.1354 384.502 95.3379C384.046 94.5241 383.818 93.6289 383.818 92.6523C383.818 91.7734 384.006 90.9596 384.38 90.2109C384.754 89.446 385.267 88.8275 385.918 88.3555C385.137 87.6719 384.518 86.8499 384.062 85.8896C383.607 84.9294 383.379 83.8796 383.379 82.7402V80.8604C383.379 79.8512 383.566 78.8991 383.94 78.0039C384.331 77.1087 384.86 76.3275 385.527 75.6602C386.195 74.9928 386.976 74.472 387.871 74.0977C388.766 73.707 389.718 73.5117 390.728 73.5117H391.973C393.193 73.5117 394.316 73.7884 395.342 74.3418C396.383 74.8789 397.246 75.6113 397.93 76.5391L399.565 74H400.566V82.7402C400.566 83.7493 400.371 84.7015 399.98 85.5967C399.606 86.4919 399.085 87.2731 398.418 87.9404C397.751 88.6077 396.969 89.1367 396.074 89.5273C395.179 89.9017 394.227 90.0889 393.218 90.0889H388.872C388.53 90.0889 388.205 90.1621 387.896 90.3086C387.586 90.4388 387.31 90.6178 387.065 90.8457C386.838 91.0736 386.659 91.3503 386.528 91.6758C386.398 91.985 386.333 92.3105 386.333 92.6523C386.333 92.9941 386.398 93.3197 386.528 93.6289C386.659 93.9382 386.838 94.2148 387.065 94.459C387.31 94.6868 387.586 94.8659 387.896 94.9961C388.205 95.1263 388.53 95.1914 388.872 95.1914H392.974C393.983 95.1914 394.935 95.3623 395.83 95.7041C396.725 96.0296 397.507 96.4935 398.174 97.0957C398.841 97.6979 399.362 98.4222 399.736 99.2686C400.127 100.115 400.322 101.043 400.322 102.052V102.149ZM397.588 80.6895C397.588 80.0872 397.474 79.5257 397.246 79.0049C397.018 78.4678 396.701 78.0039 396.294 77.6133C395.903 77.2227 395.439 76.9134 394.902 76.6855C394.382 76.4577 393.82 76.3438 393.218 76.3438H390.728C390.125 76.3438 389.556 76.4577 389.019 76.6855C388.498 76.9134 388.042 77.2227 387.651 77.6133C387.261 78.0039 386.951 78.4678 386.724 79.0049C386.496 79.5257 386.382 80.0872 386.382 80.6895V82.9111C386.382 83.5133 386.496 84.083 386.724 84.6201C386.951 85.141 387.261 85.5967 387.651 85.9873C388.042 86.3779 388.498 86.6872 389.019 86.915C389.556 87.1429 390.125 87.2568 390.728 87.2568H393.218C393.82 87.2568 394.382 87.1429 394.902 86.915C395.439 86.6872 395.903 86.3779 396.294 85.9873C396.701 85.5967 397.018 85.141 397.246 84.6201C397.474 84.083 397.588 83.5133 397.588 82.9111V80.6895ZM397.466 101.905C397.466 101.303 397.352 100.758 397.124 100.27C396.896 99.7975 396.587 99.3988 396.196 99.0732C395.806 98.7477 395.342 98.4954 394.805 98.3164C394.284 98.1374 393.722 98.0479 393.12 98.0479H391.582C390.98 98.0479 390.41 98.1374 389.873 98.3164C389.352 98.4954 388.896 98.7477 388.506 99.0732C388.115 99.3988 387.806 99.7975 387.578 100.27C387.35 100.758 387.236 101.303 387.236 101.905V102.296C387.236 102.898 387.35 103.435 387.578 103.907C387.806 104.379 388.115 104.778 388.506 105.104C388.896 105.445 389.352 105.706 389.873 105.885C390.41 106.064 390.98 106.153 391.582 106.153H393.12C393.722 106.153 394.284 106.064 394.805 105.885C395.342 105.706 395.806 105.445 396.196 105.104C396.587 104.778 396.896 104.379 397.124 103.907C397.352 103.435 397.466 102.898 397.466 102.296V101.905ZM430.283 92.1396C430.283 93.1488 430.088 94.1009 429.697 94.9961C429.323 95.8913 428.802 96.6725 428.135 97.3398C427.467 98.0072 426.686 98.5361 425.791 98.9268C424.896 99.3011 423.944 99.4883 422.935 99.4883H420.933C419.924 99.4883 418.971 99.3011 418.076 98.9268C417.181 98.5361 416.4 98.0072 415.732 97.3398C415.065 96.6725 414.536 95.8913 414.146 94.9961C413.771 94.1009 413.584 93.1488 413.584 92.1396V80.8604C413.584 79.8512 413.771 78.8991 414.146 78.0039C414.536 77.1087 415.065 76.3275 415.732 75.6602C416.4 74.9928 417.181 74.472 418.076 74.0977C418.971 73.707 419.924 73.5117 420.933 73.5117H422.935C423.944 73.5117 424.896 73.707 425.791 74.0977C426.686 74.472 427.467 74.9928 428.135 75.6602C428.802 76.3275 429.323 77.1087 429.697 78.0039C430.088 78.8991 430.283 79.8512 430.283 80.8604V86.7441H416.587V92.3105C416.587 92.9128 416.701 93.4824 416.929 94.0195C417.157 94.5404 417.466 94.9961 417.856 95.3867C418.247 95.7773 418.703 96.0866 419.224 96.3145C419.761 96.5423 420.33 96.6562 420.933 96.6562H422.935C423.537 96.6562 424.098 96.5423 424.619 96.3145C425.156 96.0866 425.62 95.7773 426.011 95.3867C426.401 94.9961 426.711 94.5404 426.938 94.0195C427.166 93.4824 427.28 92.9128 427.28 92.3105V90.6504L430.283 91.1387V92.1396ZM427.28 80.6895C427.28 80.0872 427.166 79.5257 426.938 79.0049C426.711 78.4678 426.401 78.0039 426.011 77.6133C425.62 77.2227 425.156 76.9134 424.619 76.6855C424.098 76.4577 423.537 76.3438 422.935 76.3438H420.933C420.33 76.3438 419.761 76.4577 419.224 76.6855C418.703 76.9134 418.247 77.2227 417.856 77.6133C417.466 78.0039 417.157 78.4678 416.929 79.0049C416.701 79.5257 416.587 80.0872 416.587 80.6895V84.4004H427.28V80.6895ZM471.919 99C471.007 99 470.145 98.8291 469.331 98.4873C468.534 98.1455 467.834 97.6735 467.231 97.0713C466.646 96.4691 466.174 95.7692 465.815 94.9717C465.474 94.1742 465.303 93.3197 465.303 92.4082V76.8564H460.811V74H465.303V67.9941L468.306 67.5059V74H474.653V76.8564H468.306V92.5547C468.306 93.0592 468.395 93.5312 468.574 93.9707C468.77 94.3939 469.03 94.7682 469.355 95.0938C469.681 95.4193 470.063 95.6797 470.503 95.875C470.942 96.054 471.414 96.1436 471.919 96.1436H474.653V99H471.919ZM488.452 67.9941V63.9902H491.943V67.9941H488.452ZM488.696 99V74H491.699V99H488.696ZM507.231 99V63.9902H510.234V99H507.231ZM559.487 99L557.827 96.4609C557.144 97.3887 556.289 98.1292 555.264 98.6826C554.238 99.2197 553.115 99.4883 551.895 99.4883H551.138C550.129 99.4883 549.176 99.3011 548.281 98.9268C547.386 98.5361 546.605 98.0072 545.938 97.3398C545.27 96.6725 544.741 95.8913 544.351 94.9961C543.976 94.1009 543.789 93.1488 543.789 92.1396V80.8604C543.789 79.8512 543.976 78.8991 544.351 78.0039C544.741 77.1087 545.27 76.3275 545.938 75.6602C546.605 74.9928 547.386 74.472 548.281 74.0977C549.176 73.707 550.129 73.5117 551.138 73.5117H551.895C553.018 73.5117 554.059 73.7396 555.02 74.1953C555.98 74.651 556.802 75.2858 557.485 76.0996V63.9902H560.488V99H559.487ZM557.485 80.6895C557.485 80.0872 557.371 79.5257 557.144 79.0049C556.916 78.4678 556.606 78.0039 556.216 77.6133C555.825 77.2227 555.361 76.9134 554.824 76.6855C554.303 76.4577 553.742 76.3438 553.14 76.3438H551.138C550.535 76.3438 549.966 76.4577 549.429 76.6855C548.908 76.9134 548.452 77.2227 548.062 77.6133C547.671 78.0039 547.362 78.4678 547.134 79.0049C546.906 79.5257 546.792 80.0872 546.792 80.6895V92.3105C546.792 92.9128 546.906 93.4824 547.134 94.0195C547.362 94.5404 547.671 94.9961 548.062 95.3867C548.452 95.7773 548.908 96.0866 549.429 96.3145C549.966 96.5423 550.535 96.6562 551.138 96.6562H553.14C553.742 96.6562 554.303 96.5423 554.824 96.3145C555.361 96.0866 555.825 95.7773 556.216 95.3867C556.606 94.9961 556.916 94.5404 557.144 94.0195C557.371 93.4824 557.485 92.9128 557.485 92.3105V80.6895ZM574.751 67.9941V63.9902H578.242V67.9941H574.751ZM574.995 99V74H577.998V99H574.995ZM609.473 102.149C609.473 103.159 609.277 104.086 608.887 104.933C608.512 105.779 607.992 106.503 607.324 107.105C606.657 107.708 605.876 108.172 604.98 108.497C604.085 108.839 603.133 109.01 602.124 109.01H600.879C599.87 109.01 598.918 108.839 598.022 108.497C597.127 108.172 596.346 107.708 595.679 107.105C595.011 106.503 594.482 105.779 594.092 104.933C593.717 104.086 593.53 103.159 593.53 102.149V102.052C593.53 101.075 593.709 100.18 594.067 99.3662C594.425 98.5524 594.914 97.8444 595.532 97.2422C594.751 96.7702 594.124 96.1354 593.652 95.3379C593.197 94.5241 592.969 93.6289 592.969 92.6523C592.969 91.7734 593.156 90.9596 593.53 90.2109C593.905 89.446 594.417 88.8275 595.068 88.3555C594.287 87.6719 593.669 86.8499 593.213 85.8896C592.757 84.9294 592.529 83.8796 592.529 82.7402V80.8604C592.529 79.8512 592.716 78.8991 593.091 78.0039C593.481 77.1087 594.01 76.3275 594.678 75.6602C595.345 74.9928 596.126 74.472 597.021 74.0977C597.917 73.707 598.869 73.5117 599.878 73.5117H601.123C602.344 73.5117 603.467 73.7884 604.492 74.3418C605.534 74.8789 606.396 75.6113 607.08 76.5391L608.716 74H609.717V82.7402C609.717 83.7493 609.521 84.7015 609.131 85.5967C608.757 86.4919 608.236 87.2731 607.568 87.9404C606.901 88.6077 606.12 89.1367 605.225 89.5273C604.329 89.9017 603.377 90.0889 602.368 90.0889H598.022C597.681 90.0889 597.355 90.1621 597.046 90.3086C596.737 90.4388 596.46 90.6178 596.216 90.8457C595.988 91.0736 595.809 91.3503 595.679 91.6758C595.549 91.985 595.483 92.3105 595.483 92.6523C595.483 92.9941 595.549 93.3197 595.679 93.6289C595.809 93.9382 595.988 94.2148 596.216 94.459C596.46 94.6868 596.737 94.8659 597.046 94.9961C597.355 95.1263 597.681 95.1914 598.022 95.1914H602.124C603.133 95.1914 604.085 95.3623 604.98 95.7041C605.876 96.0296 606.657 96.4935 607.324 97.0957C607.992 97.6979 608.512 98.4222 608.887 99.2686C609.277 100.115 609.473 101.043 609.473 102.052V102.149ZM606.738 80.6895C606.738 80.0872 606.624 79.5257 606.396 79.0049C606.169 78.4678 605.851 78.0039 605.444 77.6133C605.054 77.2227 604.59 76.9134 604.053 76.6855C603.532 76.4577 602.97 76.3438 602.368 76.3438H599.878C599.276 76.3438 598.706 76.4577 598.169 76.6855C597.648 76.9134 597.192 77.2227 596.802 77.6133C596.411 78.0039 596.102 78.4678 595.874 79.0049C595.646 79.5257 595.532 80.0872 595.532 80.6895V82.9111C595.532 83.5133 595.646 84.083 595.874 84.6201C596.102 85.141 596.411 85.5967 596.802 85.9873C597.192 86.3779 597.648 86.6872 598.169 86.915C598.706 87.1429 599.276 87.2568 599.878 87.2568H602.368C602.97 87.2568 603.532 87.1429 604.053 86.915C604.59 86.6872 605.054 86.3779 605.444 85.9873C605.851 85.5967 606.169 85.141 606.396 84.6201C606.624 84.083 606.738 83.5133 606.738 82.9111V80.6895ZM606.616 101.905C606.616 101.303 606.502 100.758 606.274 100.27C606.047 99.7975 605.737 99.3988 605.347 99.0732C604.956 98.7477 604.492 98.4954 603.955 98.3164C603.434 98.1374 602.873 98.0479 602.271 98.0479H600.732C600.13 98.0479 599.561 98.1374 599.023 98.3164C598.503 98.4954 598.047 98.7477 597.656 99.0732C597.266 99.3988 596.956 99.7975 596.729 100.27C596.501 100.758 596.387 101.303 596.387 101.905V102.296C596.387 102.898 596.501 103.435 596.729 103.907C596.956 104.379 597.266 104.778 597.656 105.104C598.047 105.445 598.503 105.706 599.023 105.885C599.561 106.064 600.13 106.153 600.732 106.153H602.271C602.873 106.153 603.434 106.064 603.955 105.885C604.492 105.706 604.956 105.445 605.347 105.104C605.737 104.778 606.047 104.379 606.274 103.907C606.502 103.435 606.616 102.898 606.616 102.296V101.905ZM658.945 92.6523C658.945 93.6615 658.742 94.5892 658.335 95.4355C657.928 96.2656 657.375 96.9818 656.675 97.584C655.975 98.1862 655.161 98.6582 654.233 99C653.322 99.3255 652.362 99.4883 651.353 99.4883H649.351C648.341 99.4883 647.373 99.3011 646.445 98.9268C645.534 98.5361 644.728 98.0072 644.028 97.3398C643.345 96.6725 642.791 95.8913 642.368 94.9961C641.961 94.1009 641.758 93.1488 641.758 92.1396V91.1387L644.761 90.6504V92.3105C644.761 92.9128 644.883 93.4824 645.127 94.0195C645.387 94.5404 645.729 94.9961 646.152 95.3867C646.576 95.7773 647.064 96.0866 647.617 96.3145C648.171 96.5423 648.748 96.6562 649.351 96.6562H651.353C651.955 96.6562 652.533 96.5667 653.086 96.3877C653.639 96.2087 654.128 95.9564 654.551 95.6309C654.99 95.2891 655.332 94.8822 655.576 94.4102C655.837 93.9382 655.967 93.401 655.967 92.7988C655.967 91.9036 655.771 91.1712 655.381 90.6016C654.99 90.0319 654.469 89.5599 653.818 89.1855C653.184 88.7949 652.451 88.4775 651.621 88.2334C650.807 87.973 649.969 87.7207 649.106 87.4766C648.244 87.2161 647.397 86.9232 646.567 86.5977C645.754 86.2721 645.021 85.849 644.37 85.3281C643.735 84.791 643.223 84.1237 642.832 83.3262C642.441 82.5286 642.246 81.5358 642.246 80.3477C642.246 79.3385 642.441 78.4189 642.832 77.5889C643.223 76.7425 643.752 76.0182 644.419 75.416C645.086 74.8138 645.859 74.3499 646.738 74.0244C647.633 73.6826 648.586 73.5117 649.595 73.5117H651.353C652.362 73.5117 653.314 73.707 654.209 74.0977C655.104 74.472 655.885 74.9928 656.553 75.6602C657.22 76.3275 657.741 77.1087 658.115 78.0039C658.506 78.8991 658.701 79.8512 658.701 80.8604V80.958L655.698 81.4463V80.6895C655.698 80.0872 655.584 79.5257 655.356 79.0049C655.129 78.4678 654.819 78.0039 654.429 77.6133C654.038 77.2227 653.574 76.9134 653.037 76.6855C652.516 76.4577 651.955 76.3438 651.353 76.3438H649.595C648.993 76.3438 648.423 76.4333 647.886 76.6123C647.365 76.7913 646.909 77.0518 646.519 77.3936C646.128 77.7191 645.819 78.1178 645.591 78.5898C645.363 79.0618 645.249 79.599 645.249 80.2012C645.249 81.0638 645.444 81.7718 645.835 82.3252C646.226 82.8623 646.738 83.318 647.373 83.6924C648.024 84.0667 648.757 84.3841 649.57 84.6445C650.4 84.8887 651.239 85.1491 652.085 85.4258C652.948 85.6862 653.786 85.9873 654.6 86.3291C655.43 86.6709 656.162 87.1104 656.797 87.6475C657.448 88.1846 657.969 88.86 658.359 89.6738C658.75 90.4714 658.945 91.4642 658.945 92.6523ZM685.903 99V80.6895C685.903 80.0872 685.789 79.5257 685.562 79.0049C685.334 78.4678 685.024 78.0039 684.634 77.6133C684.243 77.2227 683.779 76.9134 683.242 76.6855C682.721 76.4577 682.16 76.3438 681.558 76.3438H679.556C678.953 76.3438 678.384 76.4577 677.847 76.6855C677.326 76.9134 676.87 77.2227 676.479 77.6133C676.089 78.0039 675.78 78.4678 675.552 79.0049C675.324 79.5257 675.21 80.0872 675.21 80.6895V99H672.207V74H673.208L674.844 76.5391C675.527 75.6113 676.382 74.8789 677.407 74.3418C678.449 73.7884 679.58 73.5117 680.801 73.5117H681.558C682.567 73.5117 683.519 73.707 684.414 74.0977C685.309 74.472 686.09 74.9928 686.758 75.6602C687.425 76.3275 687.946 77.1087 688.32 78.0039C688.711 78.8991 688.906 79.8512 688.906 80.8604V99H685.903ZM718.11 99L716.45 96.5098C715.767 97.4049 714.912 98.1292 713.887 98.6826C712.861 99.2197 711.738 99.4883 710.518 99.4883H709.761C708.752 99.4883 707.799 99.3011 706.904 98.9268C706.009 98.5361 705.228 98.0072 704.561 97.3398C703.893 96.6725 703.364 95.8913 702.974 94.9961C702.599 94.1009 702.412 93.1488 702.412 92.1396V91.8955C702.412 90.8864 702.599 89.9342 702.974 89.0391C703.364 88.1439 703.893 87.3626 704.561 86.6953C705.228 86.028 706.009 85.5072 706.904 85.1328C707.799 84.7422 708.752 84.5469 709.761 84.5469H716.108V80.6895C716.108 80.0872 715.994 79.5257 715.767 79.0049C715.539 78.4678 715.229 78.0039 714.839 77.6133C714.448 77.2227 713.984 76.9134 713.447 76.6855C712.926 76.4577 712.365 76.3438 711.763 76.3438H710.005C709.403 76.3438 708.833 76.4577 708.296 76.6855C707.775 76.9134 707.319 77.2227 706.929 77.6133C706.538 78.0039 706.229 78.4678 706.001 79.0049C705.773 79.5257 705.659 80.0872 705.659 80.6895V81.5928L702.656 81.1045V80.8604C702.656 79.8512 702.843 78.8991 703.218 78.0039C703.608 77.1087 704.137 76.3275 704.805 75.6602C705.472 74.9928 706.253 74.472 707.148 74.0977C708.044 73.707 708.996 73.5117 710.005 73.5117H711.763C712.772 73.5117 713.724 73.707 714.619 74.0977C715.514 74.472 716.296 74.9928 716.963 75.6602C717.63 76.3275 718.151 77.1087 718.525 78.0039C718.916 78.8991 719.111 79.8512 719.111 80.8604V99H718.11ZM716.108 86.8906H709.761C709.159 86.8906 708.589 87.0046 708.052 87.2324C707.531 87.4603 707.075 87.7777 706.685 88.1846C706.294 88.5752 705.985 89.0391 705.757 89.5762C705.529 90.097 705.415 90.6585 705.415 91.2607V92.3105C705.415 92.9128 705.529 93.4824 705.757 94.0195C705.985 94.5404 706.294 94.9961 706.685 95.3867C707.075 95.7773 707.531 96.0866 708.052 96.3145C708.589 96.5423 709.159 96.6562 709.761 96.6562H711.763C712.365 96.6562 712.926 96.5423 713.447 96.3145C713.984 96.0866 714.448 95.7773 714.839 95.3867C715.229 94.9961 715.539 94.5404 715.767 94.0195C715.994 93.4824 716.108 92.9128 716.108 92.3105V86.8906ZM739.966 76.8564C739.364 76.8564 738.794 76.9704 738.257 77.1982C737.736 77.4261 737.28 77.7354 736.89 78.126C736.499 78.5166 736.19 78.9805 735.962 79.5176C735.734 80.0384 735.62 80.5999 735.62 81.2021V99H732.617V74H733.618L735.254 76.5391C735.938 75.6113 736.792 74.8789 737.817 74.3418C738.859 73.7884 739.99 73.5117 741.211 73.5117H742.969V76.8564H739.966ZM763.579 99C762.668 99 761.805 98.8291 760.991 98.4873C760.194 98.1455 759.494 97.6735 758.892 97.0713C758.306 96.4691 757.834 95.7692 757.476 94.9717C757.134 94.1742 756.963 93.3197 756.963 92.4082V76.8564H752.471V74H756.963V67.9941L759.966 67.5059V74H766.313V76.8564H759.966V92.5547C759.966 93.0592 760.055 93.5312 760.234 93.9707C760.43 94.3939 760.69 94.7682 761.016 95.0938C761.341 95.4193 761.724 95.6797 762.163 95.875C762.603 96.054 763.075 96.1436 763.579 96.1436H766.313V99H763.579ZM796.055 92.1396C796.055 93.1488 795.859 94.1009 795.469 94.9961C795.094 95.8913 794.574 96.6725 793.906 97.3398C793.239 98.0072 792.458 98.5361 791.562 98.9268C790.667 99.3011 789.715 99.4883 788.706 99.4883H786.704C785.695 99.4883 784.743 99.3011 783.848 98.9268C782.952 98.5361 782.171 98.0072 781.504 97.3398C780.837 96.6725 780.308 95.8913 779.917 94.9961C779.543 94.1009 779.355 93.1488 779.355 92.1396V80.8604C779.355 79.8512 779.543 78.8991 779.917 78.0039C780.308 77.1087 780.837 76.3275 781.504 75.6602C782.171 74.9928 782.952 74.472 783.848 74.0977C784.743 73.707 785.695 73.5117 786.704 73.5117H788.706C789.715 73.5117 790.667 73.707 791.562 74.0977C792.458 74.472 793.239 74.9928 793.906 75.6602C794.574 76.3275 795.094 77.1087 795.469 78.0039C795.859 78.8991 796.055 79.8512 796.055 80.8604V86.7441H782.358V92.3105C782.358 92.9128 782.472 93.4824 782.7 94.0195C782.928 94.5404 783.237 94.9961 783.628 95.3867C784.019 95.7773 784.474 96.0866 784.995 96.3145C785.532 96.5423 786.102 96.6562 786.704 96.6562H788.706C789.308 96.6562 789.87 96.5423 790.391 96.3145C790.928 96.0866 791.392 95.7773 791.782 95.3867C792.173 94.9961 792.482 94.5404 792.71 94.0195C792.938 93.4824 793.052 92.9128 793.052 92.3105V90.6504L796.055 91.1387V92.1396ZM793.052 80.6895C793.052 80.0872 792.938 79.5257 792.71 79.0049C792.482 78.4678 792.173 78.0039 791.782 77.6133C791.392 77.2227 790.928 76.9134 790.391 76.6855C789.87 76.4577 789.308 76.3438 788.706 76.3438H786.704C786.102 76.3438 785.532 76.4577 784.995 76.6855C784.474 76.9134 784.019 77.2227 783.628 77.6133C783.237 78.0039 782.928 78.4678 782.7 79.0049C782.472 79.5257 782.358 80.0872 782.358 80.6895V84.4004H793.052V80.6895ZM826.748 92.6523C826.748 93.6615 826.545 94.5892 826.138 95.4355C825.731 96.2656 825.177 96.9818 824.478 97.584C823.778 98.1862 822.964 98.6582 822.036 99C821.125 99.3255 820.164 99.4883 819.155 99.4883H817.153C816.144 99.4883 815.176 99.3011 814.248 98.9268C813.337 98.5361 812.531 98.0072 811.831 97.3398C811.147 96.6725 810.594 95.8913 810.171 94.9961C809.764 94.1009 809.561 93.1488 809.561 92.1396V91.1387L812.563 90.6504V92.3105C812.563 92.9128 812.686 93.4824 812.93 94.0195C813.19 94.5404 813.532 94.9961 813.955 95.3867C814.378 95.7773 814.867 96.0866 815.42 96.3145C815.973 96.5423 816.551 96.6562 817.153 96.6562H819.155C819.757 96.6562 820.335 96.5667 820.889 96.3877C821.442 96.2087 821.93 95.9564 822.354 95.6309C822.793 95.2891 823.135 94.8822 823.379 94.4102C823.639 93.9382 823.77 93.401 823.77 92.7988C823.77 91.9036 823.574 91.1712 823.184 90.6016C822.793 90.0319 822.272 89.5599 821.621 89.1855C820.986 88.7949 820.254 88.4775 819.424 88.2334C818.61 87.973 817.772 87.7207 816.909 87.4766C816.047 87.2161 815.2 86.9232 814.37 86.5977C813.556 86.2721 812.824 85.849 812.173 85.3281C811.538 84.791 811.025 84.1237 810.635 83.3262C810.244 82.5286 810.049 81.5358 810.049 80.3477C810.049 79.3385 810.244 78.4189 810.635 77.5889C811.025 76.7425 811.554 76.0182 812.222 75.416C812.889 74.8138 813.662 74.3499 814.541 74.0244C815.436 73.6826 816.388 73.5117 817.397 73.5117H819.155C820.164 73.5117 821.117 73.707 822.012 74.0977C822.907 74.472 823.688 74.9928 824.355 75.6602C825.023 76.3275 825.544 77.1087 825.918 78.0039C826.309 78.8991 826.504 79.8512 826.504 80.8604V80.958L823.501 81.4463V80.6895C823.501 80.0872 823.387 79.5257 823.159 79.0049C822.931 78.4678 822.622 78.0039 822.231 77.6133C821.841 77.2227 821.377 76.9134 820.84 76.6855C820.319 76.4577 819.757 76.3438 819.155 76.3438H817.397C816.795 76.3438 816.226 76.4333 815.688 76.6123C815.168 76.7913 814.712 77.0518 814.321 77.3936C813.931 77.7191 813.621 78.1178 813.394 78.5898C813.166 79.0618 813.052 79.599 813.052 80.2012C813.052 81.0638 813.247 81.7718 813.638 82.3252C814.028 82.8623 814.541 83.318 815.176 83.6924C815.827 84.0667 816.559 84.3841 817.373 84.6445C818.203 84.8887 819.041 85.1491 819.888 85.4258C820.75 85.6862 821.589 85.9873 822.402 86.3291C823.232 86.6709 823.965 87.1104 824.6 87.6475C825.251 88.1846 825.771 88.86 826.162 89.6738C826.553 90.4714 826.748 91.4642 826.748 92.6523ZM849.116 99C848.205 99 847.342 98.8291 846.528 98.4873C845.731 98.1455 845.031 97.6735 844.429 97.0713C843.843 96.4691 843.371 95.7692 843.013 94.9717C842.671 94.1742 842.5 93.3197 842.5 92.4082V76.8564H838.008V74H842.5V67.9941L845.503 67.5059V74H851.851V76.8564H845.503V92.5547C845.503 93.0592 845.592 93.5312 845.771 93.9707C845.967 94.3939 846.227 94.7682 846.553 95.0938C846.878 95.4193 847.261 95.6797 847.7 95.875C848.14 96.054 848.612 96.1436 849.116 96.1436H851.851V99H849.116ZM910.308 99V80.6895C910.308 80.0872 910.194 79.5257 909.966 79.0049C909.738 78.4678 909.429 78.0039 909.038 77.6133C908.647 77.2227 908.184 76.9134 907.646 76.6855C907.126 76.4577 906.564 76.3438 905.962 76.3438H904.473C903.87 76.3438 903.301 76.4577 902.764 76.6855C902.243 76.9134 901.779 77.2227 901.372 77.6133C900.981 78.0039 900.672 78.4678 900.444 79.0049C900.216 79.5257 900.103 80.0872 900.103 80.6895V99H897.124V80.6895C897.124 80.0872 897.01 79.5257 896.782 79.0049C896.554 78.4678 896.237 78.0039 895.83 77.6133C895.439 77.2227 894.976 76.9134 894.438 76.6855C893.918 76.4577 893.356 76.3438 892.754 76.3438H891.265C890.662 76.3438 890.093 76.4577 889.556 76.6855C889.035 76.9134 888.579 77.2227 888.188 77.6133C887.798 78.0039 887.489 78.4678 887.261 79.0049C887.033 79.5257 886.919 80.0872 886.919 80.6895V99H883.916V74H884.917L886.553 76.5391C887.236 75.6113 888.091 74.8789 889.116 74.3418C890.158 73.7884 891.289 73.5117 892.51 73.5117H892.754C894.17 73.5117 895.448 73.8617 896.587 74.5615C897.726 75.2614 898.605 76.1891 899.224 77.3447C899.533 76.7751 899.915 76.2542 900.371 75.7822C900.827 75.3102 901.331 74.9115 901.885 74.5859C902.438 74.2441 903.04 73.9837 903.691 73.8047C904.342 73.6094 905.018 73.5117 905.718 73.5117H905.962C906.971 73.5117 907.923 73.707 908.818 74.0977C909.714 74.472 910.495 74.9928 911.162 75.6602C911.829 76.3275 912.35 77.1087 912.725 78.0039C913.115 78.8991 913.311 79.8512 913.311 80.8604V99H910.308ZM942.515 99L940.854 96.4609C940.171 97.3887 939.316 98.1292 938.291 98.6826C937.266 99.2197 936.143 99.4883 934.922 99.4883H934.165C933.156 99.4883 932.204 99.3011 931.309 98.9268C930.413 98.5361 929.632 98.0072 928.965 97.3398C928.298 96.6725 927.769 95.8913 927.378 94.9961C927.004 94.1009 926.816 93.1488 926.816 92.1396V74H929.819V92.3105C929.819 92.9128 929.933 93.4824 930.161 94.0195C930.389 94.5404 930.698 94.9961 931.089 95.3867C931.479 95.7773 931.935 96.0866 932.456 96.3145C932.993 96.5423 933.563 96.6562 934.165 96.6562H936.167C936.769 96.6562 937.331 96.5423 937.852 96.3145C938.389 96.0866 938.853 95.7773 939.243 95.3867C939.634 94.9961 939.943 94.5404 940.171 94.0195C940.399 93.4824 940.513 92.9128 940.513 92.3105V74H943.516V99H942.515ZM958.022 99V63.9902H961.025V99H958.022ZM976.313 67.9941V63.9902H979.805V67.9941H976.313ZM976.558 99V74H979.561V99H976.558ZM1011.04 102.149C1011.04 103.159 1010.84 104.086 1010.45 104.933C1010.07 105.779 1009.55 106.503 1008.89 107.105C1008.22 107.708 1007.44 108.172 1006.54 108.497C1005.65 108.839 1004.7 109.01 1003.69 109.01H1002.44C1001.43 109.01 1000.48 108.839 999.585 108.497C998.69 108.172 997.909 107.708 997.241 107.105C996.574 106.503 996.045 105.779 995.654 104.933C995.28 104.086 995.093 103.159 995.093 102.149V102.052C995.093 101.075 995.272 100.18 995.63 99.3662C995.988 98.5524 996.476 97.8444 997.095 97.2422C996.313 96.7702 995.687 96.1354 995.215 95.3379C994.759 94.5241 994.531 93.6289 994.531 92.6523C994.531 91.7734 994.718 90.9596 995.093 90.2109C995.467 89.446 995.98 88.8275 996.631 88.3555C995.85 87.6719 995.231 86.8499 994.775 85.8896C994.32 84.9294 994.092 83.8796 994.092 82.7402V80.8604C994.092 79.8512 994.279 78.8991 994.653 78.0039C995.044 77.1087 995.573 76.3275 996.24 75.6602C996.908 74.9928 997.689 74.472 998.584 74.0977C999.479 73.707 1000.43 73.5117 1001.44 73.5117H1002.69C1003.91 73.5117 1005.03 73.7884 1006.05 74.3418C1007.1 74.8789 1007.96 75.6113 1008.64 76.5391L1010.28 74H1011.28V82.7402C1011.28 83.7493 1011.08 84.7015 1010.69 85.5967C1010.32 86.4919 1009.8 87.2731 1009.13 87.9404C1008.46 88.6077 1007.68 89.1367 1006.79 89.5273C1005.89 89.9017 1004.94 90.0889 1003.93 90.0889H999.585C999.243 90.0889 998.918 90.1621 998.608 90.3086C998.299 90.4388 998.022 90.6178 997.778 90.8457C997.55 91.0736 997.371 91.3503 997.241 91.6758C997.111 91.985 997.046 92.3105 997.046 92.6523C997.046 92.9941 997.111 93.3197 997.241 93.6289C997.371 93.9382 997.55 94.2148 997.778 94.459C998.022 94.6868 998.299 94.8659 998.608 94.9961C998.918 95.1263 999.243 95.1914 999.585 95.1914H1003.69C1004.7 95.1914 1005.65 95.3623 1006.54 95.7041C1007.44 96.0296 1008.22 96.4935 1008.89 97.0957C1009.55 97.6979 1010.07 98.4222 1010.45 99.2686C1010.84 100.115 1011.04 101.043 1011.04 102.052V102.149ZM1008.3 80.6895C1008.3 80.0872 1008.19 79.5257 1007.96 79.0049C1007.73 78.4678 1007.41 78.0039 1007.01 77.6133C1006.62 77.2227 1006.15 76.9134 1005.62 76.6855C1005.09 76.4577 1004.53 76.3438 1003.93 76.3438H1001.44C1000.84 76.3438 1000.27 76.4577 999.731 76.6855C999.211 76.9134 998.755 77.2227 998.364 77.6133C997.974 78.0039 997.664 78.4678 997.437 79.0049C997.209 79.5257 997.095 80.0872 997.095 80.6895V82.9111C997.095 83.5133 997.209 84.083 997.437 84.6201C997.664 85.141 997.974 85.5967 998.364 85.9873C998.755 86.3779 999.211 86.6872 999.731 86.915C1000.27 87.1429 1000.84 87.2568 1001.44 87.2568H1003.93C1004.53 87.2568 1005.09 87.1429 1005.62 86.915C1006.15 86.6872 1006.62 86.3779 1007.01 85.9873C1007.41 85.5967 1007.73 85.141 1007.96 84.6201C1008.19 84.083 1008.3 83.5133 1008.3 82.9111V80.6895ZM1008.18 101.905C1008.18 101.303 1008.06 100.758 1007.84 100.27C1007.61 99.7975 1007.3 99.3988 1006.91 99.0732C1006.52 98.7477 1006.05 98.4954 1005.52 98.3164C1005 98.1374 1004.44 98.0479 1003.83 98.0479H1002.29C1001.69 98.0479 1001.12 98.1374 1000.59 98.3164C1000.07 98.4954 999.609 98.7477 999.219 99.0732C998.828 99.3988 998.519 99.7975 998.291 100.27C998.063 100.758 997.949 101.303 997.949 101.905V102.296C997.949 102.898 998.063 103.435 998.291 103.907C998.519 104.379 998.828 104.778 999.219 105.104C999.609 105.445 1000.07 105.706 1000.59 105.885C1001.12 106.064 1001.69 106.153 1002.29 106.153H1003.83C1004.44 106.153 1005 106.064 1005.52 105.885C1006.05 105.706 1006.52 105.445 1006.91 105.104C1007.3 104.778 1007.61 104.379 1007.84 103.907C1008.06 103.435 1008.18 102.898 1008.18 102.296V101.905ZM1033.4 99C1032.49 99 1031.63 98.8291 1030.82 98.4873C1030.02 98.1455 1029.32 97.6735 1028.72 97.0713C1028.13 96.4691 1027.66 95.7692 1027.3 94.9717C1026.96 94.1742 1026.79 93.3197 1026.79 92.4082V76.8564H1022.29V74H1026.79V67.9941L1029.79 67.5059V74H1036.14V76.8564H1029.79V92.5547C1029.79 93.0592 1029.88 93.5312 1030.06 93.9707C1030.25 94.3939 1030.51 94.7682 1030.84 95.0938C1031.17 95.4193 1031.55 95.6797 1031.99 95.875C1032.43 96.054 1032.9 96.1436 1033.4 96.1436H1036.14V99H1033.4Z" fill="#910F29" fill-opacity="0.866667"/>
</svg>
