<svg width="89" height="19" viewBox="0 0 89 19" fill="none" xmlns="http://www.w3.org/2000/svg">
<path d="M6.40625 18C5.95052 18 5.51921 17.9146 5.1123 17.7437C4.71354 17.5728 4.36361 17.3368 4.0625 17.0356C3.76953 16.7345 3.53353 16.3846 3.35449 15.9858C3.18359 15.5871 3.09814 15.1598 3.09814 14.7041V6.92822H0.852051V5.5H3.09814V2.49707L4.59961 2.25293V5.5H7.77344V6.92822H4.59961V14.7773C4.59961 15.0296 4.64437 15.2656 4.73389 15.4854C4.83154 15.6969 4.96175 15.8841 5.12451 16.0469C5.28727 16.2096 5.47852 16.3398 5.69824 16.4375C5.91797 16.527 6.15397 16.5718 6.40625 16.5718H7.77344V18H6.40625ZM22.644 14.5698C22.644 15.0744 22.5464 15.5505 22.3511 15.998C22.1639 16.4456 21.9035 16.8363 21.5698 17.1699C21.2362 17.5036 20.8455 17.7681 20.3979 17.9634C19.9504 18.1506 19.4743 18.2441 18.9697 18.2441H17.9688C17.4642 18.2441 16.9881 18.1506 16.5405 17.9634C16.0929 17.7681 15.7023 17.5036 15.3687 17.1699C15.035 16.8363 14.7705 16.4456 14.5752 15.998C14.388 15.5505 14.2944 15.0744 14.2944 14.5698V8.93018C14.2944 8.42562 14.388 7.94954 14.5752 7.50195C14.7705 7.05436 15.035 6.66374 15.3687 6.33008C15.7023 5.99642 16.0929 5.736 16.5405 5.54883C16.9881 5.35352 17.4642 5.25586 17.9688 5.25586H18.9697C19.4743 5.25586 19.9504 5.35352 20.3979 5.54883C20.8455 5.736 21.2362 5.99642 21.5698 6.33008C21.9035 6.66374 22.1639 7.05436 22.3511 7.50195C22.5464 7.94954 22.644 8.42562 22.644 8.93018V11.8721H15.7959V14.6553C15.7959 14.9564 15.8529 15.2412 15.9668 15.5098C16.0807 15.7702 16.2354 15.998 16.4307 16.1934C16.626 16.3887 16.8538 16.5433 17.1143 16.6572C17.3828 16.7712 17.6676 16.8281 17.9688 16.8281H18.9697C19.2708 16.8281 19.5516 16.7712 19.812 16.6572C20.0806 16.5433 20.3125 16.3887 20.5078 16.1934C20.7031 15.998 20.8577 15.7702 20.9717 15.5098C21.0856 15.2412 21.1426 14.9564 21.1426 14.6553V13.8252L22.644 14.0693V14.5698ZM21.1426 8.84473C21.1426 8.54362 21.0856 8.26286 20.9717 8.00244C20.8577 7.73389 20.7031 7.50195 20.5078 7.30664C20.3125 7.11133 20.0806 6.95671 19.812 6.84277C19.5516 6.72884 19.2708 6.67188 18.9697 6.67188H17.9688C17.6676 6.67188 17.3828 6.72884 17.1143 6.84277C16.8538 6.95671 16.626 7.11133 16.4307 7.30664C16.2354 7.50195 16.0807 7.73389 15.9668 8.00244C15.8529 8.26286 15.7959 8.54362 15.7959 8.84473V10.7002H21.1426V8.84473ZM29.8975 18V0.495117H31.3989V18H29.8975ZM47.0142 14.5698C47.0142 15.0744 46.9165 15.5505 46.7212 15.998C46.534 16.4456 46.2736 16.8363 45.9399 17.1699C45.6063 17.5036 45.2157 17.7681 44.7681 17.9634C44.3205 18.1506 43.8444 18.2441 43.3398 18.2441H42.3389C41.8343 18.2441 41.3582 18.1506 40.9106 17.9634C40.4631 17.7681 40.0724 17.5036 39.7388 17.1699C39.4051 16.8363 39.1406 16.4456 38.9453 15.998C38.7581 15.5505 38.6646 15.0744 38.6646 14.5698V8.93018C38.6646 8.42562 38.7581 7.94954 38.9453 7.50195C39.1406 7.05436 39.4051 6.66374 39.7388 6.33008C40.0724 5.99642 40.4631 5.736 40.9106 5.54883C41.3582 5.35352 41.8343 5.25586 42.3389 5.25586H43.3398C43.8444 5.25586 44.3205 5.35352 44.7681 5.54883C45.2157 5.736 45.6063 5.99642 45.9399 6.33008C46.2736 6.66374 46.534 7.05436 46.7212 7.50195C46.9165 7.94954 47.0142 8.42562 47.0142 8.93018V11.8721H40.166V14.6553C40.166 14.9564 40.223 15.2412 40.3369 15.5098C40.4508 15.7702 40.6055 15.998 40.8008 16.1934C40.9961 16.3887 41.224 16.5433 41.4844 16.6572C41.7529 16.7712 42.0378 16.8281 42.3389 16.8281H43.3398C43.641 16.8281 43.9217 16.7712 44.1821 16.6572C44.4507 16.5433 44.6826 16.3887 44.8779 16.1934C45.0732 15.998 45.2279 15.7702 45.3418 15.5098C45.4557 15.2412 45.5127 14.9564 45.5127 14.6553V13.8252L47.0142 14.0693V14.5698ZM45.5127 8.84473C45.5127 8.54362 45.4557 8.26286 45.3418 8.00244C45.2279 7.73389 45.0732 7.50195 44.8779 7.30664C44.6826 7.11133 44.4507 6.95671 44.1821 6.84277C43.9217 6.72884 43.641 6.67188 43.3398 6.67188H42.3389C42.0378 6.67188 41.7529 6.72884 41.4844 6.84277C41.224 6.95671 40.9961 7.11133 40.8008 7.30664C40.6055 7.50195 40.4508 7.73389 40.3369 8.00244C40.223 8.26286 40.166 8.54362 40.166 8.84473V10.7002H45.5127V8.84473ZM58.064 1.92334C57.8117 1.92334 57.5757 1.97217 57.356 2.06982C57.1444 2.15934 56.9572 2.28548 56.7944 2.44824C56.6317 2.611 56.5015 2.80225 56.4038 3.02197C56.3143 3.2417 56.2695 3.4777 56.2695 3.72998V5.5H59.187V6.92822H56.2695V18H54.7681V6.92822H52.5098V5.5H54.7681V3.80322C54.7681 3.34749 54.8535 2.92025 55.0244 2.52148C55.1953 2.11458 55.4313 1.76058 55.7324 1.45947C56.0335 1.15837 56.3835 0.922363 56.7822 0.751465C57.181 0.580566 57.6082 0.495117 58.064 0.495117H59.4434V1.92334H58.064ZM73.0444 14.5698C73.0444 15.0744 72.9468 15.5505 72.7515 15.998C72.5643 16.4456 72.3039 16.8363 71.9702 17.1699C71.6366 17.5036 71.2459 17.7681 70.7983 17.9634C70.3507 18.1506 69.8747 18.2441 69.3701 18.2441H68.3691C67.8646 18.2441 67.3885 18.1506 66.9409 17.9634C66.4933 17.7681 66.1027 17.5036 65.769 17.1699C65.4354 16.8363 65.1709 16.4456 64.9756 15.998C64.7884 15.5505 64.6948 15.0744 64.6948 14.5698V8.93018C64.6948 8.42562 64.7884 7.94954 64.9756 7.50195C65.1709 7.05436 65.4354 6.66374 65.769 6.33008C66.1027 5.99642 66.4933 5.736 66.9409 5.54883C67.3885 5.35352 67.8646 5.25586 68.3691 5.25586H69.3701C69.8747 5.25586 70.3507 5.35352 70.7983 5.54883C71.2459 5.736 71.6366 5.99642 71.9702 6.33008C72.3039 6.66374 72.5643 7.05436 72.7515 7.50195C72.9468 7.94954 73.0444 8.42562 73.0444 8.93018V14.5698ZM71.543 8.84473C71.543 8.54362 71.486 8.26286 71.3721 8.00244C71.2581 7.73389 71.1035 7.50195 70.9082 7.30664C70.7129 7.11133 70.481 6.95671 70.2124 6.84277C69.952 6.72884 69.6712 6.67188 69.3701 6.67188H68.3691C68.068 6.67188 67.7832 6.72884 67.5146 6.84277C67.2542 6.95671 67.0264 7.11133 66.8311 7.30664C66.6357 7.50195 66.4811 7.73389 66.3672 8.00244C66.2533 8.26286 66.1963 8.54362 66.1963 8.84473V14.6553C66.1963 14.9564 66.2533 15.2412 66.3672 15.5098C66.4811 15.7702 66.6357 15.998 66.8311 16.1934C67.0264 16.3887 67.2542 16.5433 67.5146 16.6572C67.7832 16.7712 68.068 16.8281 68.3691 16.8281H69.3701C69.6712 16.8281 69.952 16.7712 70.2124 16.6572C70.481 16.5433 70.7129 16.3887 70.9082 16.1934C71.1035 15.998 71.2581 15.7702 71.3721 15.5098C71.486 15.2412 71.543 14.9564 71.543 14.6553V8.84473ZM86.6455 18V8.84473C86.6455 8.54362 86.5885 8.26286 86.4746 8.00244C86.3607 7.73389 86.2061 7.50195 86.0107 7.30664C85.8154 7.11133 85.5835 6.95671 85.3149 6.84277C85.0545 6.72884 84.7738 6.67188 84.4727 6.67188H83.4717C83.1706 6.67188 82.8857 6.72884 82.6172 6.84277C82.3568 6.95671 82.1289 7.11133 81.9336 7.30664C81.7383 7.50195 81.5837 7.73389 81.4697 8.00244C81.3558 8.26286 81.2988 8.54362 81.2988 8.84473V18H79.7974V5.5H80.2979L81.1157 6.76953C81.4575 6.30566 81.8848 5.93945 82.3975 5.6709C82.9183 5.39421 83.4839 5.25586 84.0942 5.25586H84.4727C84.9772 5.25586 85.4533 5.35352 85.9009 5.54883C86.3485 5.736 86.7391 5.99642 87.0728 6.33008C87.4064 6.66374 87.6668 7.05436 87.854 7.50195C88.0493 7.94954 88.147 8.42562 88.147 8.93018V18H86.6455Z" fill="#910F29" fill-opacity="0.5"/>
</svg>
