<svg width="168" height="34" viewBox="0 0 168 34" fill="none" xmlns="http://www.w3.org/2000/svg">
<path d="M15.2487 20.002C15.2487 20.8812 15.0801 21.7062 14.7429 22.4771C14.4177 23.2479 13.966 23.9224 13.3879 24.5005C12.8098 25.0786 12.1353 25.5363 11.3645 25.8735C10.5936 26.1987 9.76859 26.3613 8.88936 26.3613H7.04659C6.16735 26.3613 5.3363 26.1987 4.55342 25.8735C3.78259 25.5363 3.10811 25.0786 2.52998 24.5005C1.95186 23.9224 1.49418 23.2479 1.15694 22.4771C0.831741 21.7062 0.669144 20.8812 0.669144 20.002V0.0927734H2.99971V20.002C2.99971 20.5801 3.10811 21.1221 3.32491 21.6279C3.5417 22.1217 3.83679 22.5614 4.21016 22.9468C4.59558 23.3201 5.03519 23.6152 5.52901 23.832C6.03487 24.0488 6.57686 24.1572 7.15498 24.1572H8.78096C9.35909 24.1572 9.89506 24.0488 10.3889 23.832C10.8947 23.6152 11.3343 23.3201 11.7077 22.9468C12.0811 22.5614 12.3762 22.1217 12.593 21.6279C12.8098 21.1221 12.9182 20.5801 12.9182 20.002V0.0927734H15.2487V20.002ZM37.2392 26L36.0106 24.1211C35.5048 24.8076 34.8725 25.3556 34.1137 25.7651C33.3549 26.1626 32.5238 26.3613 31.6205 26.3613H31.0605C30.3137 26.3613 29.6091 26.2228 28.9467 25.9458C28.2842 25.6567 27.7061 25.2653 27.2123 24.7715C26.7185 24.2777 26.3271 23.6995 26.038 23.0371C25.761 22.3747 25.6225 21.6701 25.6225 20.9233V12.5767C25.6225 11.8299 25.761 11.1253 26.038 10.4629C26.3271 9.80046 26.7185 9.22233 27.2123 8.72852C27.7061 8.2347 28.2842 7.84928 28.9467 7.57227C29.6091 7.2832 30.3137 7.13867 31.0605 7.13867H31.6205C32.4516 7.13867 33.2224 7.30729 33.933 7.64453C34.6436 7.98177 35.2519 8.4515 35.7577 9.05371V0.0927734H37.9799V26H37.2392ZM35.7577 12.4502C35.7577 12.0046 35.6734 11.589 35.5048 11.2036C35.3362 10.8062 35.1073 10.4629 34.8183 10.1738C34.5292 9.88477 34.1859 9.65592 33.7885 9.4873C33.4031 9.31868 32.9875 9.23438 32.5419 9.23438H31.0605C30.6148 9.23438 30.1933 9.31868 29.7958 9.4873C29.4104 9.65592 29.0731 9.88477 28.7841 10.1738C28.495 10.4629 28.2662 10.8062 28.0976 11.2036C27.9289 11.589 27.8446 12.0046 27.8446 12.4502V21.0498C27.8446 21.4954 27.9289 21.917 28.0976 22.3145C28.2662 22.6999 28.495 23.0371 28.7841 23.3262C29.0731 23.6152 29.4104 23.8441 29.7958 24.0127C30.1933 24.1813 30.6148 24.2656 31.0605 24.2656H32.5419C32.9875 24.2656 33.4031 24.1813 33.7885 24.0127C34.1859 23.8441 34.5292 23.6152 34.8183 23.3262C35.1073 23.0371 35.3362 22.6999 35.5048 22.3145C35.6734 21.917 35.7577 21.4954 35.7577 21.0498V12.4502ZM53.7735 26H52.6715L46.1134 7.5H48.3355L53.1593 21.5195L53.2315 22.4771L53.3038 21.5195L58.1095 7.5H60.3316L53.7735 26ZM69.0433 3.05566V0.0927734H71.6268V3.05566H69.0433ZM69.2239 26V7.5H71.4461V26H69.2239ZM93.1475 26L85.5957 16.75L93.1475 7.5H96.0381L88.3057 16.75L96.0381 26H93.1475ZM82.9399 26V0.0927734H85.1621V26H82.9399ZM105.292 26V0.0927734H107.514V26H105.292ZM118.827 3.05566V0.0927734H121.411V3.05566H118.827ZM119.008 26V7.5H121.23V26H119.008ZM142.118 26V12.4502C142.118 12.0046 142.034 11.589 141.865 11.2036C141.697 10.8062 141.468 10.4629 141.179 10.1738C140.89 9.88477 140.546 9.65592 140.149 9.4873C139.764 9.31868 139.348 9.23438 138.902 9.23438H137.421C136.975 9.23438 136.554 9.31868 136.156 9.4873C135.771 9.65592 135.434 9.88477 135.145 10.1738C134.856 10.4629 134.627 10.8062 134.458 11.2036C134.289 11.589 134.205 12.0046 134.205 12.4502V26H131.983V7.5H132.724L133.934 9.37891C134.44 8.69238 135.072 8.15039 135.831 7.75293C136.602 7.34342 137.439 7.13867 138.342 7.13867H138.902C139.649 7.13867 140.354 7.2832 141.016 7.57227C141.679 7.84928 142.257 8.2347 142.751 8.72852C143.244 9.22233 143.63 9.80046 143.907 10.4629C144.196 11.1253 144.34 11.8299 144.34 12.5767V26H142.118ZM166.873 28.3306C166.873 29.0773 166.728 29.7638 166.439 30.3901C166.162 31.0164 165.777 31.5524 165.283 31.998C164.789 32.4437 164.211 32.7869 163.549 33.0278C162.886 33.2808 162.182 33.4072 161.435 33.4072H160.513C159.767 33.4072 159.062 33.2808 158.4 33.0278C157.737 32.7869 157.159 32.4437 156.665 31.998C156.172 31.5524 155.78 31.0164 155.491 30.3901C155.214 29.7638 155.075 29.0773 155.075 28.3306V28.2583C155.075 27.5356 155.208 26.8732 155.473 26.271C155.738 25.6688 156.099 25.1449 156.557 24.6992C155.979 24.3499 155.515 23.8802 155.166 23.29C154.829 22.6878 154.66 22.0254 154.66 21.3027C154.66 20.6523 154.798 20.0501 155.075 19.4961C155.353 18.93 155.732 18.4723 156.214 18.123C155.636 17.6172 155.178 17.009 154.841 16.2983C154.503 15.5877 154.335 14.8109 154.335 13.9678V12.5767C154.335 11.8299 154.473 11.1253 154.75 10.4629C155.039 9.80046 155.431 9.22233 155.925 8.72852C156.418 8.2347 156.997 7.84928 157.659 7.57227C158.321 7.2832 159.026 7.13867 159.773 7.13867H160.694C161.597 7.13867 162.429 7.34342 163.187 7.75293C163.958 8.15039 164.596 8.69238 165.102 9.37891L166.313 7.5H167.054V13.9678C167.054 14.7145 166.909 15.4191 166.62 16.0815C166.343 16.744 165.957 17.3221 165.464 17.8159C164.97 18.3097 164.392 18.7012 163.729 18.9902C163.067 19.2673 162.362 19.4058 161.616 19.4058H158.4C158.147 19.4058 157.906 19.46 157.677 19.5684C157.448 19.6647 157.243 19.7972 157.063 19.9658C156.894 20.1344 156.762 20.3392 156.665 20.5801C156.569 20.8089 156.521 21.0498 156.521 21.3027C156.521 21.5557 156.569 21.7965 156.665 22.0254C156.762 22.2542 156.894 22.459 157.063 22.6396C157.243 22.8083 157.448 22.9408 157.677 23.0371C157.906 23.1335 158.147 23.1816 158.4 23.1816H161.435C162.182 23.1816 162.886 23.3081 163.549 23.561C164.211 23.8019 164.789 24.1452 165.283 24.5908C165.777 25.0365 166.162 25.5724 166.439 26.1987C166.728 26.825 166.873 27.5116 166.873 28.2583V28.3306ZM164.849 12.4502C164.849 12.0046 164.765 11.589 164.596 11.2036C164.428 10.8062 164.193 10.4629 163.892 10.1738C163.603 9.88477 163.26 9.65592 162.862 9.4873C162.477 9.31868 162.061 9.23438 161.616 9.23438H159.773C159.327 9.23438 158.906 9.31868 158.508 9.4873C158.123 9.65592 157.785 9.88477 157.496 10.1738C157.207 10.4629 156.978 10.8062 156.81 11.2036C156.641 11.589 156.557 12.0046 156.557 12.4502V14.0942C156.557 14.5399 156.641 14.9614 156.81 15.3589C156.978 15.7443 157.207 16.0815 157.496 16.3706C157.785 16.6597 158.123 16.8885 158.508 17.0571C158.906 17.2257 159.327 17.3101 159.773 17.3101H161.616C162.061 17.3101 162.477 17.2257 162.862 17.0571C163.26 16.8885 163.603 16.6597 163.892 16.3706C164.193 16.0815 164.428 15.7443 164.596 15.3589C164.765 14.9614 164.849 14.5399 164.849 14.0942V12.4502ZM164.759 28.1499C164.759 27.7043 164.675 27.3008 164.506 26.9395C164.338 26.5902 164.109 26.2951 163.82 26.0542C163.531 25.8133 163.187 25.6266 162.79 25.4941C162.404 25.3617 161.989 25.2954 161.543 25.2954H160.405C159.959 25.2954 159.538 25.3617 159.14 25.4941C158.755 25.6266 158.418 25.8133 158.129 26.0542C157.84 26.2951 157.611 26.5902 157.442 26.9395C157.274 27.3008 157.189 27.7043 157.189 28.1499V28.439C157.189 28.8846 157.274 29.2821 157.442 29.6313C157.611 29.9806 157.84 30.2757 158.129 30.5166C158.418 30.7695 158.755 30.9622 159.14 31.0947C159.538 31.2272 159.959 31.2935 160.405 31.2935H161.543C161.989 31.2935 162.404 31.2272 162.79 31.0947C163.187 30.9622 163.531 30.7695 163.82 30.5166C164.109 30.2757 164.338 29.9806 164.506 29.6313C164.675 29.2821 164.759 28.8846 164.759 28.439V28.1499Z" fill="#DDDDDD"/>
</svg>
