<svg width="405" height="45" viewBox="0 0 405 45" fill="none" xmlns="http://www.w3.org/2000/svg">
<path d="M11.9004 27.3096L11.998 28.6035L12.0957 27.3096L19.8594 -0.00976562H23.1064L12.8037 35H11.1436L0.889648 -0.00976562H4.16113L11.9004 27.3096ZM63.6631 28.1396C63.6631 29.1488 63.4678 30.1009 63.0771 30.9961C62.7028 31.8913 62.182 32.6725 61.5146 33.3398C60.8473 34.0072 60.0661 34.5361 59.1709 34.9268C58.2757 35.3011 57.3236 35.4883 56.3145 35.4883H54.3125C53.6289 35.4883 52.9616 35.3988 52.3105 35.2197C51.6758 35.0407 51.0817 34.7884 50.5283 34.4629C49.9749 34.1374 49.4704 33.7467 49.0146 33.291C48.5589 32.819 48.1764 32.3063 47.8672 31.7529C47.4115 32.4854 46.9232 33.0957 46.4023 33.584C45.8978 34.056 45.3607 34.4385 44.791 34.7314C44.2376 35.0081 43.668 35.2035 43.082 35.3174C42.5124 35.4313 41.9427 35.4883 41.373 35.4883H40.6162C39.6071 35.4883 38.6549 35.3011 37.7598 34.9268C36.8646 34.5361 36.0833 34.0072 35.416 33.3398C34.7487 32.6725 34.2197 31.8913 33.8291 30.9961C33.4548 30.1009 33.2676 29.1488 33.2676 28.1396V27.8955C33.2676 26.8864 33.4548 25.9342 33.8291 25.0391C34.2197 24.1439 34.7487 23.3626 35.416 22.6953C36.0833 22.028 36.8646 21.5072 37.7598 21.1328C38.6549 20.7422 39.6071 20.5469 40.6162 20.5469H46.9639V16.543C46.9476 15.9733 46.8174 15.4362 46.5732 14.9316C46.3454 14.4108 46.0361 13.9632 45.6455 13.5889C45.2549 13.1982 44.7992 12.8971 44.2783 12.6855C43.7575 12.4577 43.2041 12.3438 42.6182 12.3438H40.8604C40.2581 12.3438 39.6885 12.4577 39.1514 12.6855C38.6305 12.9134 38.1748 13.2227 37.7842 13.6133C37.3936 14.0039 37.0843 14.4678 36.8564 15.0049C36.6286 15.5257 36.5146 16.0872 36.5146 16.6895V17.5928L33.5117 17.1045V16.8604C33.5117 15.8512 33.6989 14.8991 34.0732 14.0039C34.4639 13.1087 34.9928 12.3275 35.6602 11.6602C36.3275 10.9928 37.1087 10.472 38.0039 10.0977C38.8991 9.70703 39.8512 9.51172 40.8604 9.51172H42.6182C43.79 9.51172 44.8805 9.78027 45.8896 10.3174C46.915 10.8382 47.7695 11.5462 48.4531 12.4414C49.1367 11.5462 49.9831 10.8382 50.9922 10.3174C52.0013 9.78027 53.1081 9.51172 54.3125 9.51172H56.3145C57.3236 9.51172 58.2757 9.70703 59.1709 10.0977C60.0661 10.472 60.8473 10.9928 61.5146 11.6602C62.182 12.3275 62.7028 13.1087 63.0771 14.0039C63.4678 14.8991 63.6631 15.8512 63.6631 16.8604V22.7441H49.9668V28.3105C49.9668 28.9128 50.0807 29.4824 50.3086 30.0195C50.5365 30.5404 50.8457 30.9961 51.2363 31.3867C51.627 31.7773 52.0827 32.0866 52.6035 32.3145C53.1406 32.5423 53.7103 32.6562 54.3125 32.6562H56.3145C56.9167 32.6562 57.4782 32.5423 57.999 32.3145C58.5361 32.0866 59 31.7773 59.3906 31.3867C59.7812 30.9961 60.0905 30.5404 60.3184 30.0195C60.5462 29.4824 60.6602 28.9128 60.6602 28.3105V26.6504L63.6631 27.1387V28.1396ZM46.9639 22.8906H40.6162C40.014 22.8906 39.4443 23.0046 38.9072 23.2324C38.3864 23.4603 37.9307 23.7777 37.54 24.1846C37.1494 24.5752 36.8402 25.0391 36.6123 25.5762C36.3844 26.097 36.2705 26.6585 36.2705 27.2607V28.3105C36.2705 28.9128 36.3844 29.4824 36.6123 30.0195C36.8402 30.5404 37.1494 30.9961 37.54 31.3867C37.9307 31.7773 38.3864 32.0866 38.9072 32.3145C39.4443 32.5423 40.014 32.6562 40.6162 32.6562H42.6182C43.2204 32.6562 43.7819 32.5423 44.3027 32.3145C44.8398 32.0866 45.3037 31.7773 45.6943 31.3867C46.085 30.9961 46.3942 30.5404 46.6221 30.0195C46.8499 29.4824 46.9639 28.9128 46.9639 28.3105V22.8906ZM60.6602 16.6895C60.6602 16.0872 60.5462 15.5257 60.3184 15.0049C60.0905 14.4678 59.7812 14.0039 59.3906 13.6133C59 13.2227 58.5361 12.9134 57.999 12.6855C57.4782 12.4577 56.9167 12.3438 56.3145 12.3438H54.3125C53.7266 12.3438 53.1732 12.4577 52.6523 12.6855C52.1315 12.8971 51.6758 13.1982 51.2852 13.5889C50.8945 13.9632 50.5771 14.4108 50.333 14.9316C50.1051 15.4362 49.9831 15.9733 49.9668 16.543V20.4004H60.6602V16.6895ZM78.1943 35V-0.00976562H81.1973V35H78.1943ZM112.672 38.1494C112.672 39.1585 112.477 40.0863 112.086 40.9326C111.712 41.779 111.191 42.5033 110.523 43.1055C109.856 43.7077 109.075 44.1715 108.18 44.4971C107.285 44.8389 106.332 45.0098 105.323 45.0098H104.078C103.069 45.0098 102.117 44.8389 101.222 44.4971C100.326 44.1715 99.5452 43.7077 98.8779 43.1055C98.2106 42.5033 97.6816 41.779 97.291 40.9326C96.9167 40.0863 96.7295 39.1585 96.7295 38.1494V38.0518C96.7295 37.0752 96.9085 36.18 97.2666 35.3662C97.6247 34.5524 98.113 33.8444 98.7314 33.2422C97.9502 32.7702 97.3236 32.1354 96.8516 31.3379C96.3958 30.5241 96.168 29.6289 96.168 28.6523C96.168 27.7734 96.3551 26.9596 96.7295 26.2109C97.1038 25.446 97.6165 24.8275 98.2676 24.3555C97.4863 23.6719 96.8678 22.8499 96.4121 21.8896C95.9564 20.9294 95.7285 19.8796 95.7285 18.7402V16.8604C95.7285 15.8512 95.9157 14.8991 96.29 14.0039C96.6807 13.1087 97.2096 12.3275 97.877 11.6602C98.5443 10.9928 99.3255 10.472 100.221 10.0977C101.116 9.70703 102.068 9.51172 103.077 9.51172H104.322C105.543 9.51172 106.666 9.78841 107.691 10.3418C108.733 10.8789 109.596 11.6113 110.279 12.5391L111.915 10H112.916V18.7402C112.916 19.7493 112.721 20.7015 112.33 21.5967C111.956 22.4919 111.435 23.2731 110.768 23.9404C110.1 24.6077 109.319 25.1367 108.424 25.5273C107.529 25.9017 106.576 26.0889 105.567 26.0889H101.222C100.88 26.0889 100.554 26.1621 100.245 26.3086C99.9359 26.4388 99.6592 26.6178 99.415 26.8457C99.1872 27.0736 99.0081 27.3503 98.8779 27.6758C98.7477 27.985 98.6826 28.3105 98.6826 28.6523C98.6826 28.9941 98.7477 29.3197 98.8779 29.6289C99.0081 29.9382 99.1872 30.2148 99.415 30.459C99.6592 30.6868 99.9359 30.8659 100.245 30.9961C100.554 31.1263 100.88 31.1914 101.222 31.1914H105.323C106.332 31.1914 107.285 31.3623 108.18 31.7041C109.075 32.0296 109.856 32.4935 110.523 33.0957C111.191 33.6979 111.712 34.4222 112.086 35.2686C112.477 36.1149 112.672 37.0426 112.672 38.0518V38.1494ZM109.938 16.6895C109.938 16.0872 109.824 15.5257 109.596 15.0049C109.368 14.4678 109.05 14.0039 108.644 13.6133C108.253 13.2227 107.789 12.9134 107.252 12.6855C106.731 12.4577 106.17 12.3438 105.567 12.3438H103.077C102.475 12.3438 101.905 12.4577 101.368 12.6855C100.847 12.9134 100.392 13.2227 100.001 13.6133C99.6104 14.0039 99.3011 14.4678 99.0732 15.0049C98.8454 15.5257 98.7314 16.0872 98.7314 16.6895V18.9111C98.7314 19.5133 98.8454 20.083 99.0732 20.6201C99.3011 21.141 99.6104 21.5967 100.001 21.9873C100.392 22.3779 100.847 22.6872 101.368 22.915C101.905 23.1429 102.475 23.2568 103.077 23.2568H105.567C106.17 23.2568 106.731 23.1429 107.252 22.915C107.789 22.6872 108.253 22.3779 108.644 21.9873C109.05 21.5967 109.368 21.141 109.596 20.6201C109.824 20.083 109.938 19.5133 109.938 18.9111V16.6895ZM109.815 37.9053C109.815 37.3031 109.701 36.7578 109.474 36.2695C109.246 35.7975 108.937 35.3988 108.546 35.0732C108.155 34.7477 107.691 34.4954 107.154 34.3164C106.633 34.1374 106.072 34.0479 105.47 34.0479H103.932C103.329 34.0479 102.76 34.1374 102.223 34.3164C101.702 34.4954 101.246 34.7477 100.855 35.0732C100.465 35.3988 100.156 35.7975 99.9277 36.2695C99.6999 36.7578 99.5859 37.3031 99.5859 37.9053V38.2959C99.5859 38.8981 99.6999 39.4352 99.9277 39.9072C100.156 40.3792 100.465 40.778 100.855 41.1035C101.246 41.4453 101.702 41.7057 102.223 41.8848C102.76 42.0638 103.329 42.1533 103.932 42.1533H105.47C106.072 42.1533 106.633 42.0638 107.154 41.8848C107.691 41.7057 108.155 41.4453 108.546 41.1035C108.937 40.778 109.246 40.3792 109.474 39.9072C109.701 39.4352 109.815 38.8981 109.815 38.2959V37.9053ZM161.656 28.1396C161.656 29.1488 161.461 30.1009 161.07 30.9961C160.696 31.8913 160.175 32.6725 159.508 33.3398C158.84 34.0072 158.059 34.5361 157.164 34.9268C156.269 35.3011 155.317 35.4883 154.308 35.4883H152.306C151.297 35.4883 150.344 35.3011 149.449 34.9268C148.554 34.5361 147.773 34.0072 147.105 33.3398C146.438 32.6725 145.909 31.8913 145.519 30.9961C145.144 30.1009 144.957 29.1488 144.957 28.1396V16.8604C144.957 15.8512 145.144 14.8991 145.519 14.0039C145.909 13.1087 146.438 12.3275 147.105 11.6602C147.773 10.9928 148.554 10.472 149.449 10.0977C150.344 9.70703 151.297 9.51172 152.306 9.51172H154.308C155.317 9.51172 156.269 9.70703 157.164 10.0977C158.059 10.472 158.84 10.9928 159.508 11.6602C160.175 12.3275 160.696 13.1087 161.07 14.0039C161.461 14.8991 161.656 15.8512 161.656 16.8604V22.7441H147.96V28.3105C147.96 28.9128 148.074 29.4824 148.302 30.0195C148.53 30.5404 148.839 30.9961 149.229 31.3867C149.62 31.7773 150.076 32.0866 150.597 32.3145C151.134 32.5423 151.703 32.6562 152.306 32.6562H154.308C154.91 32.6562 155.471 32.5423 155.992 32.3145C156.529 32.0866 156.993 31.7773 157.384 31.3867C157.774 30.9961 158.084 30.5404 158.312 30.0195C158.539 29.4824 158.653 28.9128 158.653 28.3105V26.6504L161.656 27.1387V28.1396ZM158.653 16.6895C158.653 16.0872 158.539 15.5257 158.312 15.0049C158.084 14.4678 157.774 14.0039 157.384 13.6133C156.993 13.2227 156.529 12.9134 155.992 12.6855C155.471 12.4577 154.91 12.3438 154.308 12.3438H152.306C151.703 12.3438 151.134 12.4577 150.597 12.6855C150.076 12.9134 149.62 13.2227 149.229 13.6133C148.839 14.0039 148.53 14.4678 148.302 15.0049C148.074 15.5257 147.96 16.0872 147.96 16.6895V20.4004H158.653V16.6895ZM184.269 35C183.357 35 182.494 34.8291 181.681 34.4873C180.883 34.1455 180.183 33.6735 179.581 33.0713C178.995 32.4691 178.523 31.7692 178.165 30.9717C177.823 30.1742 177.652 29.3197 177.652 28.4082V12.8564H173.16V10H177.652V3.99414L180.655 3.50586V10H187.003V12.8564H180.655V28.5547C180.655 29.0592 180.745 29.5312 180.924 29.9707C181.119 30.3939 181.38 30.7682 181.705 31.0938C182.031 31.4193 182.413 31.6797 182.853 31.875C183.292 32.054 183.764 32.1436 184.269 32.1436H187.003V35H184.269ZM228.175 35C227.263 35 226.401 34.8291 225.587 34.4873C224.789 34.1455 224.09 33.6735 223.487 33.0713C222.901 32.4691 222.429 31.7692 222.071 30.9717C221.729 30.1742 221.559 29.3197 221.559 28.4082V12.8564H217.066V10H221.559V3.99414L224.562 3.50586V10H230.909V12.8564H224.562V28.5547C224.562 29.0592 224.651 29.5312 224.83 29.9707C225.025 30.3939 225.286 30.7682 225.611 31.0938C225.937 31.4193 226.319 31.6797 226.759 31.875C227.198 32.054 227.67 32.1436 228.175 32.1436H230.909V35H228.175ZM244.708 3.99414V-0.00976562H248.199V3.99414H244.708ZM244.952 35V10H247.955V35H244.952ZM278.185 35L276.524 32.4609C275.841 33.3887 274.986 34.1292 273.961 34.6826C272.936 35.2197 271.812 35.4883 270.592 35.4883H269.835C268.826 35.4883 267.874 35.3011 266.979 34.9268C266.083 34.5361 265.302 34.0072 264.635 33.3398C263.967 32.6725 263.438 31.8913 263.048 30.9961C262.674 30.1009 262.486 29.1488 262.486 28.1396V16.8604C262.486 15.8512 262.674 14.8991 263.048 14.0039C263.438 13.1087 263.967 12.3275 264.635 11.6602C265.302 10.9928 266.083 10.472 266.979 10.0977C267.874 9.70703 268.826 9.51172 269.835 9.51172H270.592C271.715 9.51172 272.757 9.73958 273.717 10.1953C274.677 10.651 275.499 11.2858 276.183 12.0996V-0.00976562H279.186V35H278.185ZM276.183 16.6895C276.183 16.0872 276.069 15.5257 275.841 15.0049C275.613 14.4678 275.304 14.0039 274.913 13.6133C274.522 13.2227 274.059 12.9134 273.521 12.6855C273.001 12.4577 272.439 12.3438 271.837 12.3438H269.835C269.233 12.3438 268.663 12.4577 268.126 12.6855C267.605 12.9134 267.149 13.2227 266.759 13.6133C266.368 14.0039 266.059 14.4678 265.831 15.0049C265.603 15.5257 265.489 16.0872 265.489 16.6895V28.3105C265.489 28.9128 265.603 29.4824 265.831 30.0195C266.059 30.5404 266.368 30.9961 266.759 31.3867C267.149 31.7773 267.605 32.0866 268.126 32.3145C268.663 32.5423 269.233 32.6562 269.835 32.6562H271.837C272.439 32.6562 273.001 32.5423 273.521 32.3145C274.059 32.0866 274.522 31.7773 274.913 31.3867C275.304 30.9961 275.613 30.5404 275.841 30.0195C276.069 29.4824 276.183 28.9128 276.183 28.3105V16.6895ZM309.879 28.6523C309.879 29.6615 309.675 30.5892 309.269 31.4355C308.862 32.2656 308.308 32.9818 307.608 33.584C306.909 34.1862 306.095 34.6582 305.167 35C304.256 35.3255 303.295 35.4883 302.286 35.4883H300.284C299.275 35.4883 298.307 35.3011 297.379 34.9268C296.467 34.5361 295.662 34.0072 294.962 33.3398C294.278 32.6725 293.725 31.8913 293.302 30.9961C292.895 30.1009 292.691 29.1488 292.691 28.1396V27.1387L295.694 26.6504V28.3105C295.694 28.9128 295.816 29.4824 296.061 30.0195C296.321 30.5404 296.663 30.9961 297.086 31.3867C297.509 31.7773 297.997 32.0866 298.551 32.3145C299.104 32.5423 299.682 32.6562 300.284 32.6562H302.286C302.888 32.6562 303.466 32.5667 304.02 32.3877C304.573 32.2087 305.061 31.9564 305.484 31.6309C305.924 31.2891 306.266 30.8822 306.51 30.4102C306.77 29.9382 306.9 29.401 306.9 28.7988C306.9 27.9036 306.705 27.1712 306.314 26.6016C305.924 26.0319 305.403 25.5599 304.752 25.1855C304.117 24.7949 303.385 24.4775 302.555 24.2334C301.741 23.973 300.903 23.7207 300.04 23.4766C299.177 23.2161 298.331 22.9232 297.501 22.5977C296.687 22.2721 295.955 21.849 295.304 21.3281C294.669 20.791 294.156 20.1237 293.766 19.3262C293.375 18.5286 293.18 17.5358 293.18 16.3477C293.18 15.3385 293.375 14.4189 293.766 13.5889C294.156 12.7425 294.685 12.0182 295.353 11.416C296.02 10.8138 296.793 10.3499 297.672 10.0244C298.567 9.68262 299.519 9.51172 300.528 9.51172H302.286C303.295 9.51172 304.247 9.70703 305.143 10.0977C306.038 10.472 306.819 10.9928 307.486 11.6602C308.154 12.3275 308.674 13.1087 309.049 14.0039C309.439 14.8991 309.635 15.8512 309.635 16.8604V16.958L306.632 17.4463V16.6895C306.632 16.0872 306.518 15.5257 306.29 15.0049C306.062 14.4678 305.753 14.0039 305.362 13.6133C304.972 13.2227 304.508 12.9134 303.971 12.6855C303.45 12.4577 302.888 12.3438 302.286 12.3438H300.528C299.926 12.3438 299.356 12.4333 298.819 12.6123C298.299 12.7913 297.843 13.0518 297.452 13.3936C297.062 13.7191 296.752 14.1178 296.524 14.5898C296.297 15.0618 296.183 15.599 296.183 16.2012C296.183 17.0638 296.378 17.7718 296.769 18.3252C297.159 18.8623 297.672 19.318 298.307 19.6924C298.958 20.0667 299.69 20.3841 300.504 20.6445C301.334 20.8887 302.172 21.1491 303.019 21.4258C303.881 21.6862 304.719 21.9873 305.533 22.3291C306.363 22.6709 307.096 23.1104 307.73 23.6475C308.382 24.1846 308.902 24.86 309.293 25.6738C309.684 26.4714 309.879 27.4642 309.879 28.6523ZM330.489 12.8564C329.887 12.8564 329.317 12.9704 328.78 13.1982C328.259 13.4261 327.804 13.7354 327.413 14.126C327.022 14.5166 326.713 14.9805 326.485 15.5176C326.257 16.0384 326.144 16.5999 326.144 17.2021V35H323.141V10H324.142L325.777 12.5391C326.461 11.6113 327.315 10.8789 328.341 10.3418C329.382 9.78841 330.514 9.51172 331.734 9.51172H333.492V12.8564H330.489ZM360.694 35L359.034 32.4609C358.351 33.3887 357.496 34.1292 356.471 34.6826C355.445 35.2197 354.322 35.4883 353.102 35.4883H352.345C351.336 35.4883 350.383 35.3011 349.488 34.9268C348.593 34.5361 347.812 34.0072 347.145 33.3398C346.477 32.6725 345.948 31.8913 345.558 30.9961C345.183 30.1009 344.996 29.1488 344.996 28.1396V10H347.999V28.3105C347.999 28.9128 348.113 29.4824 348.341 30.0195C348.569 30.5404 348.878 30.9961 349.269 31.3867C349.659 31.7773 350.115 32.0866 350.636 32.3145C351.173 32.5423 351.743 32.6562 352.345 32.6562H354.347C354.949 32.6562 355.51 32.5423 356.031 32.3145C356.568 32.0866 357.032 31.7773 357.423 31.3867C357.813 30.9961 358.123 30.5404 358.351 30.0195C358.578 29.4824 358.692 28.9128 358.692 28.3105V10H361.695V35H360.694ZM401.593 35V16.6895C401.593 16.0872 401.479 15.5257 401.251 15.0049C401.023 14.4678 400.714 14.0039 400.323 13.6133C399.933 13.2227 399.469 12.9134 398.932 12.6855C398.411 12.4577 397.849 12.3438 397.247 12.3438H395.758C395.156 12.3438 394.586 12.4577 394.049 12.6855C393.528 12.9134 393.064 13.2227 392.657 13.6133C392.267 14.0039 391.957 14.4678 391.729 15.0049C391.502 15.5257 391.388 16.0872 391.388 16.6895V35H388.409V16.6895C388.409 16.0872 388.295 15.5257 388.067 15.0049C387.84 14.4678 387.522 14.0039 387.115 13.6133C386.725 13.2227 386.261 12.9134 385.724 12.6855C385.203 12.4577 384.641 12.3438 384.039 12.3438H382.55C381.948 12.3438 381.378 12.4577 380.841 12.6855C380.32 12.9134 379.864 13.2227 379.474 13.6133C379.083 14.0039 378.774 14.4678 378.546 15.0049C378.318 15.5257 378.204 16.0872 378.204 16.6895V35H375.201V10H376.202L377.838 12.5391C378.521 11.6113 379.376 10.8789 380.401 10.3418C381.443 9.78841 382.574 9.51172 383.795 9.51172H384.039C385.455 9.51172 386.733 9.86165 387.872 10.5615C389.011 11.2614 389.89 12.1891 390.509 13.3447C390.818 12.7751 391.201 12.2542 391.656 11.7822C392.112 11.3102 392.617 10.9115 393.17 10.5859C393.723 10.2441 394.326 9.98372 394.977 9.80469C395.628 9.60938 396.303 9.51172 397.003 9.51172H397.247C398.256 9.51172 399.208 9.70703 400.104 10.0977C400.999 10.472 401.78 10.9928 402.447 11.6602C403.115 12.3275 403.635 13.1087 404.01 14.0039C404.4 14.8991 404.596 15.8512 404.596 16.8604V35H401.593Z" fill="#910F29" fill-opacity="0.65"/>
</svg>
